<svg width="100" height="81" viewBox="0 0 100 81" fill="none" xmlns="http://www.w3.org/2000/svg">
<path d="M82.7074 30.1588H96.547C96.7808 30.1581 97.0117 30.2191 97.2155 30.3355C97.4193 30.4521 97.5901 30.6202 97.7077 30.8229C97.8267 31.0255 97.8884 31.2557 97.8898 31.4905C97.8912 31.7252 97.831 31.9562 97.7162 32.1602L72.8117 76.3472C72.4329 77.0202 71.882 77.5805 71.2148 77.9707C70.5479 78.3607 69.7903 78.5667 69.0172 78.5674H58.4227C57.5403 78.5674 56.6781 78.2988 55.9522 77.7974C55.2248 77.296 54.6684 76.5855 54.3555 75.76L51.7617 68.9445L51.9441 69.0674C52.7731 69.6041 53.7029 69.9645 54.677 70.1267C55.6524 70.2888 56.6496 70.2491 57.6079 70.0098C58.566 69.7705 59.4641 69.3369 60.2489 68.736C61.0322 68.135 61.6848 67.3795 62.1641 66.516L77.1081 39.755H65.1853C64.9301 39.7602 64.6789 39.6921 64.4608 39.5593C64.2427 39.4262 64.0662 39.2336 63.9543 39.0043C63.8424 38.7748 63.7981 38.5181 63.8267 38.2643C63.8555 38.0107 63.9572 37.7705 64.1179 37.5721L94.081 0.30756C94.2329 0.143817 94.4367 0.0380638 94.6577 0.00847466C94.88 -0.0211145 95.1039 0.0273098 95.2931 0.145422C95.4824 0.263533 95.626 0.443957 95.6962 0.655688C95.7665 0.867417 95.7622 1.09723 95.682 1.30562L82.7074 30.1588Z" fill="url(#paint0_linear_11663_31139)"/>
<path d="M34.0486 75.893C34.0486 76.2434 33.9797 76.5903 33.845 76.9142C33.7114 77.238 33.515 77.532 33.2669 77.7801C33.02 78.0277 32.7245 78.2244 32.4017 78.3584C32.0776 78.4925 31.7302 78.5615 31.3802 78.5615H20.0169C19.466 78.5615 18.9294 78.3915 18.479 78.0742C18.0285 77.757 17.6885 77.3082 17.5035 76.7896L16.1535 72.9522L2.29246 33.7608C2.14756 33.3534 2.10309 32.9173 2.1619 32.4892C2.22216 32.0608 2.38284 31.6532 2.63246 31.3003C2.88208 30.9473 3.21203 30.6594 3.59651 30.4606C3.97953 30.2618 4.40561 30.158 4.83742 30.1582H15.2196C15.8996 30.1577 16.5638 30.3673 17.1219 30.7577C17.6799 31.1484 18.1031 31.7011 18.3355 32.3411L33.1462 72.9042L33.9052 74.9749C34.0057 75.2701 34.0543 75.5808 34.0486 75.893Z" fill="#056960"/>
<path d="M45.5721 52.7197L37.0333 76.8547C36.854 77.3585 36.5226 77.7945 36.0864 78.103C35.6504 78.4116 35.128 78.5778 34.5945 78.5787H20.0176C19.4652 78.5775 18.9272 78.4049 18.4768 78.0847C18.0263 77.7645 17.6863 77.3123 17.5042 76.7906L16.1484 72.9533C16.4153 73.3909 18.6403 76.8066 21.4105 72.9052L35.6504 33.9006C35.6504 33.9006 37.359 32.8652 38.4047 33.9006L45.5721 52.7197Z" fill="#0D4943"/>
<path d="M64.8305 61.7706L58.3893 73.283C58.1253 73.7539 57.7336 74.1401 57.2589 74.3956C56.7824 74.6513 56.2446 74.7658 55.7065 74.7263C55.1686 74.6863 54.6522 74.4937 54.2203 74.1711C53.7886 73.8482 53.4572 73.4087 53.2648 72.9042L45.5741 52.7187L38.6679 34.572C38.5186 34.1911 38.2403 33.8751 37.8803 33.6796C37.5217 33.4844 37.1041 33.4223 36.7039 33.5046C36.3296 33.583 35.9679 33.7196 35.6367 33.9104C35.9896 32.9227 36.6151 32.0551 37.4398 31.407C38.447 30.5999 39.6993 30.1596 40.9891 30.1582H50.512C51.5003 30.1561 52.4643 30.4587 53.2751 31.0251C54.0841 31.5915 54.6996 32.3942 55.0367 33.3232L64.9267 60.4044C65.0112 60.6254 65.0458 60.8623 65.0301 61.098C65.0129 61.3339 64.9453 61.5635 64.8305 61.7706Z" fill="#056960"/>
<defs>
<linearGradient id="paint0_linear_11663_31139" x1="72.8536" y1="66.6667" x2="93.0917" y2="4.28662e-07" gradientUnits="userSpaceOnUse">
<stop stop-color="#FE8551"/>
<stop offset="1" stop-color="#ED618E"/>
</linearGradient>
</defs>
</svg>
