<?xml version="1.0" encoding="utf-8"?>
<!-- Generator: Adobe Illustrator 25.0.1, SVG Export Plug-In . SVG Version: 6.00 Build 0)  -->
<svg version="1.0" id="katman_1" xmlns="http://www.w3.org/2000/svg" xmlns:xlink="http://www.w3.org/1999/xlink" x="0px" y="0px"
	 viewBox="40.8 17.7 93.41 93.62" style="enable-background:new 0 0 175 129;" xml:space="preserve">
<style type="text/css">
	.st0{clip-path:url(#SVGID_2_);}
	.st1{opacity:0.884;}
	.st2{fill:#FFFFFF;stroke:#888888;stroke-width:1.8401;}
	.st3{fill:#111313;}
	.st4{fill:#C01818;}
	.st5{fill:#FFFFFF;}
	.st6{fill:#414042;}
</style>
<g>
	<defs>
		<rect id="SVGID_1_" x="40" y="17" width="95" height="95"/>
	</defs>
	<clipPath id="SVGID_2_">
		<use xlink:href="#SVGID_1_"  style="overflow:visible;"/>
	</clipPath>
	<g class="st0">
		<g class="st1">
			<g>
				<path class="st2" d="M128,57c-1.7,1.7-1.4,4.6,0.7,5.9c1.2,0.8,1.2,2.5,0,3.3c-2,1.3-2.4,4.2-0.7,5.9c1,1,0.6,2.8-0.7,3.2
					c-2.3,0.8-3.2,3.5-2,5.6c0.8,1.2,0,2.8-1.4,3c-2.4,0.3-3.9,2.7-3.2,5c0.5,1.4-0.6,2.7-2.1,2.6c-2.4-0.3-4.4,1.8-4.2,4.2
					c0.2,1.4-1.2,2.5-2.6,2.1c-2.3-0.8-4.7,0.7-5,3.2c-0.2,1.4-1.8,2.2-3,1.4c-2.1-1.3-4.8-0.3-5.6,2c-0.5,1.4-2.2,1.7-3.2,0.7
					c-1.7-1.7-4.6-1.4-5.9,0.7c-0.8,1.2-2.6,1.2-3.3,0c-1.3-2-4.2-2.4-5.9-0.7c-1,1-2.8,0.6-3.2-0.7c-0.8-2.3-3.5-3.2-5.6-2
					c-1.2,0.8-2.8,0-3-1.4c-0.3-2.4-2.7-3.9-5-3.2c-1.4,0.5-2.7-0.6-2.6-2.1c0.3-2.4-1.8-4.4-4.2-4.2c-1.4,0.2-2.5-1.2-2.1-2.6
					c0.8-2.3-0.7-4.7-3.2-5c-1.4-0.2-2.2-1.8-1.4-3c1.3-2.1,0.3-4.8-2-5.6C46.4,74.8,46,73.1,47,72c1.7-1.7,1.4-4.6-0.7-5.9
					c-1.2-0.8-1.2-2.5,0-3.3c2-1.3,2.4-4.2,0.7-5.9c-1-1-0.6-2.8,0.7-3.2c2.3-0.8,3.2-3.5,2-5.6c-0.8-1.2,0-2.8,1.4-3
					c2.4-0.3,3.9-2.7,3.2-5c-0.5-1.4,0.6-2.7,2.1-2.6c2.4,0.3,4.5-1.8,4.2-4.2c-0.2-1.4,1.2-2.5,2.6-2.1c2.3,0.8,4.7-0.7,5-3.2
					c0.2-1.4,1.8-2.2,3-1.4c2.1,1.3,4.8,0.3,5.6-2c0.5-1.4,2.2-1.7,3.2-0.7c1.7,1.7,4.6,1.4,5.9-0.7c0.8-1.2,2.6-1.2,3.3,0
					c1.3,2,4.2,2.4,5.9,0.7c1-1,2.8-0.6,3.2,0.7c0.8,2.3,3.5,3.2,5.6,2c1.2-0.8,2.8,0,3,1.4c0.3,2.4,2.7,3.9,5,3.2
					c1.4-0.5,2.7,0.6,2.6,2.1c-0.3,2.4,1.8,4.4,4.2,4.2c1.4-0.2,2.5,1.2,2.1,2.6c-0.8,2.3,0.7,4.7,3.2,5c1.4,0.2,2.2,1.8,1.4,3
					c-1.3,2.1-0.3,4.8,2,5.6C128.6,54.2,129,55.9,128,57z"/>
			</g>
			<path class="st3" d="M88.3,34.9c-16.3,0-29.5,13.2-29.5,29.5S72,93.9,88.3,93.9s29.5-13.2,29.5-29.5
				C117.8,48.1,104.6,34.9,88.3,34.9z M88.3,84.9c-11.3,0-20.5-9.2-20.5-20.5c0-11.3,9.2-20.5,20.5-20.5c11.3,0,20.5,9.2,20.5,20.5
				C108.8,75.7,99.7,84.9,88.3,84.9z"/>
			<path class="st4" d="M48.1,56.8h79.4c3,0,5.5,2.5,5.5,5.5V66c0,3-2.5,5.5-5.5,5.5H48.1c-3,0-5.5-2.5-5.5-5.5v-3.7
				C42.6,59.3,45.1,56.8,48.1,56.8z"/>
			<path class="st5" d="M70.6,61.1c0,0.6-0.2,1.1-0.5,1.5s-0.9,0.7-1.5,0.8v0c0.8,0.1,1.3,0.3,1.7,0.7c0.4,0.4,0.6,0.9,0.6,1.5
				c0,0.9-0.3,1.6-1,2.1c-0.7,0.5-1.6,0.8-2.8,0.8c-1,0-1.9-0.2-2.7-0.5v-1.7c0.4,0.2,0.8,0.3,1.2,0.5c0.4,0.1,0.9,0.2,1.3,0.2
				c0.7,0,1.1-0.1,1.5-0.3c0.3-0.2,0.5-0.6,0.5-1.1c0-0.4-0.2-0.8-0.5-0.9c-0.4-0.2-0.9-0.3-1.7-0.3h-0.7v-1.5h0.7
				c0.7,0,1.3-0.1,1.6-0.3c0.3-0.2,0.5-0.5,0.5-1c0-0.7-0.4-1.1-1.3-1.1c-0.3,0-0.6,0-0.9,0.2c-0.3,0.1-0.7,0.3-1.1,0.5l-0.9-1.4
				c0.9-0.6,1.9-0.9,3.1-0.9c1,0,1.7,0.2,2.3,0.6C70.3,59.9,70.6,60.4,70.6,61.1z"/>
			<path class="st5" d="M79.1,63.7c0,1.6-0.3,2.9-0.8,3.7c-0.5,0.8-1.4,1.2-2.5,1.2c-1.1,0-1.9-0.4-2.5-1.2c-0.6-0.8-0.8-2-0.8-3.6
				c0-1.7,0.3-2.9,0.8-3.7c0.5-0.8,1.4-1.2,2.5-1.2c1.1,0,1.9,0.4,2.5,1.2C78.9,60.9,79.1,62.1,79.1,63.7z M74.5,63.7
				c0,1.2,0.1,2,0.3,2.5c0.2,0.5,0.5,0.8,1,0.8c0.5,0,0.8-0.3,1-0.8c0.2-0.5,0.3-1.3,0.3-2.5c0-1.2-0.1-2-0.3-2.5
				c-0.2-0.5-0.5-0.8-1-0.8c-0.5,0-0.8,0.3-1,0.8C74.6,61.7,74.5,62.5,74.5,63.7z"/>
			<path class="st5" d="M93.4,63.6c0,1.6-0.4,2.7-1.3,3.6c-0.9,0.8-2.2,1.2-3.8,1.2h-2.7V59h3c1.5,0,2.7,0.4,3.6,1.2
				C93,61,93.4,62.2,93.4,63.6z M91.3,63.7c0-2-0.9-3-2.7-3h-1.1v6.1h0.9C90.4,66.8,91.3,65.7,91.3,63.7z"/>
			<path class="st5" d="M101.8,68.4l-0.7-2.2h-3.4L97,68.4h-2.2l3.3-9.5h2.4l3.3,9.5H101.8z M100.6,64.5c-0.6-2-1-3.2-1.1-3.4
				c-0.1-0.3-0.1-0.5-0.2-0.6c-0.1,0.6-0.5,1.9-1.2,4.1H100.6z"/>
			<path class="st5" d="M108.8,62.9l2-3.9h2.2l-3.1,5.8v3.7h-2v-3.6l-3.1-5.8h2.2L108.8,62.9z"/>
			<path class="st5" d="M73.3,47.2l-2.8-1.9l0,0c0.4,0.5,0.7,0.8,0.9,1l1.2,1.5l-0.6,0.5L69.5,45l0.8-0.7l2.7,1.9l0,0l-1.3-3
				l0.8-0.7l2.6,3.2l-0.6,0.5l-1.2-1.5c-0.1-0.1-0.1-0.2-0.2-0.2c-0.1-0.1-0.3-0.3-0.6-0.8l0,0l1.3,3.1L73.3,47.2z"/>
			<path class="st5" d="M78.5,41.6c0.3,0.6,0.4,1.2,0.3,1.6c-0.1,0.5-0.4,0.8-1,1.1c-0.5,0.3-1,0.3-1.4,0.1
				c-0.4-0.2-0.8-0.6-1.1-1.2s-0.4-1.2-0.3-1.6c0.1-0.5,0.4-0.8,1-1.1c0.5-0.3,1-0.3,1.4-0.1C77.8,40.6,78.2,41,78.5,41.6z M76,42.9
				c0.2,0.4,0.4,0.7,0.7,0.8c0.2,0.1,0.5,0.1,0.8,0c0.6-0.3,0.7-0.8,0.3-1.7c-0.4-0.8-0.9-1.1-1.5-0.8c-0.3,0.1-0.5,0.4-0.5,0.6
				C75.7,42.1,75.8,42.4,76,42.9z"/>
			<path class="st5" d="M83.7,42.3l-1,0.2L80.3,40l0,0c0.2,0.5,0.3,0.9,0.3,1.1l0.5,1.9l-0.7,0.2l-1-4l1-0.2l2.4,2.6l0,0
				c-0.2-0.5-0.3-0.9-0.3-1.1L82,38.5l0.7-0.2L83.7,42.3z"/>
			<path class="st5" d="M87.1,42L85,42.2l-0.4-4.1l2.2-0.2l0.1,0.7l-1.4,0.1l0.1,0.9l1.3-0.1l0.1,0.7l-1.3,0.1l0.1,1.1l1.4-0.1
				L87.1,42z"/>
			<path class="st5" d="M89.6,39.6l0.8-1.7l0.9,0l-1.3,2.5L89.9,42l-0.8,0l0.1-1.6L88,37.8l0.9,0L89.6,39.6z"/>
			<path class="st5" d="M94.7,38.4l1.1,0.3c0.5,0.1,0.9,0.3,1.1,0.5c0.2,0.2,0.2,0.5,0.2,0.9c-0.1,0.2-0.2,0.4-0.3,0.6
				c-0.1,0.1-0.3,0.2-0.5,0.2l0,0c0.2,0.1,0.4,0.3,0.4,0.4c0.1,0.2,0.1,0.4,0,0.7c-0.1,0.4-0.3,0.6-0.6,0.8
				c-0.3,0.1-0.7,0.2-1.1,0.1l-1.4-0.3L94.7,38.4z M95,40.9l-0.3,1l0.5,0.1c0.2,0.1,0.4,0,0.5,0c0.1-0.1,0.2-0.2,0.3-0.4
				c0.1-0.3-0.1-0.6-0.5-0.7L95,40.9z M95.1,40.2l0.5,0.1c0.2,0,0.4,0.1,0.5,0c0.1,0,0.2-0.2,0.2-0.3c0-0.2,0-0.3-0.1-0.4
				c-0.1-0.1-0.2-0.2-0.5-0.2l-0.4-0.1L95.1,40.2z"/>
			<path class="st5" d="M99.4,44.3l0.1-1l-1.3-0.5l-0.6,0.8l-0.8-0.3l2.8-3.3l0.9,0.4l-0.4,4.3L99.4,44.3z M99.6,42.5
				c0.1-0.9,0.2-1.4,0.2-1.6c0-0.1,0-0.2,0-0.3c-0.1,0.2-0.5,0.7-1.1,1.5L99.6,42.5z"/>
			<path class="st5" d="M103.8,42.8c-0.3-0.2-0.5-0.2-0.8-0.1c-0.3,0.1-0.5,0.4-0.8,0.7c-0.5,0.8-0.5,1.3,0.1,1.7
				c0.2,0.1,0.5,0.3,0.9,0.3l-0.4,0.6c-0.3,0-0.7-0.2-1-0.4c-0.5-0.3-0.7-0.7-0.8-1.1c-0.1-0.5,0.1-1,0.5-1.6
				c0.2-0.4,0.5-0.6,0.8-0.8c0.3-0.2,0.6-0.3,0.9-0.3c0.3,0,0.6,0.1,0.9,0.3c0.3,0.2,0.6,0.5,0.8,0.8l-0.6,0.5
				c-0.1-0.1-0.2-0.3-0.3-0.4C104,43,103.9,42.9,103.8,42.8z"/>
			<path class="st5" d="M105.7,48.8l-0.7-0.6l0.4-2l-0.4,0l-1,1.1l-0.6-0.5l2.7-3.1l0.6,0.5l-1.2,1.4l0.6-0.2l1.7-0.4l0.7,0.6
				l-2.2,0.5L105.7,48.8z"/>
			<path class="st5" d="M108.8,81c-0.5,0-1-0.4-1-1c0-0.5,0.4-1,1-1c0.5,0,1,0.4,1,1C109.8,80.5,109.4,81,108.8,81z M108.8,79.4
				c-0.3,0-0.6,0.3-0.6,0.6c0,0.3,0.3,0.6,0.6,0.6c0.3,0,0.6-0.3,0.6-0.6C109.4,79.7,109.2,79.4,108.8,79.4z"/>
			<path class="st5" d="M68.6,81c-0.5,0-1-0.4-1-1c0-0.5,0.4-1,1-1c0.5,0,1,0.4,1,1C69.6,80.5,69.1,81,68.6,81z M68.6,79.4
				c-0.3,0-0.6,0.3-0.6,0.6c0,0.3,0.3,0.6,0.6,0.6c0.3,0,0.6-0.3,0.6-0.6C69.2,79.7,68.9,79.4,68.6,79.4z"/>
			<path class="st5" d="M108.8,49.8c-0.5,0-1-0.4-1-1c0-0.5,0.4-1,1-1c0.5,0,1,0.4,1,1C109.8,49.4,109.4,49.8,108.8,49.8z
				 M108.8,48.3c-0.3,0-0.6,0.3-0.6,0.6c0,0.3,0.3,0.6,0.6,0.6c0.3,0,0.6-0.3,0.6-0.6C109.4,48.5,109.2,48.3,108.8,48.3z"/>
			<path class="st5" d="M68.6,49.8c-0.5,0-1-0.4-1-1c0-0.5,0.4-1,1-1c0.5,0,1,0.4,1,1C69.6,49.4,69.1,49.8,68.6,49.8z M68.6,48.3
				c-0.3,0-0.6,0.3-0.6,0.6c0,0.3,0.3,0.6,0.6,0.6c0.3,0,0.6-0.3,0.6-0.6C69.2,48.5,68.9,48.3,68.6,48.3z"/>
			<path class="st5" d="M72.3,82.9l1.1,1.1L72,85.5c-0.2-0.1-0.5-0.2-0.6-0.4c-0.2-0.1-0.4-0.3-0.5-0.4c-0.4-0.4-0.6-0.9-0.6-1.3
				c0-0.5,0.3-1,0.8-1.5c0.5-0.5,0.9-0.7,1.5-0.7c0.5,0,1,0.2,1.5,0.7c0.3,0.3,0.5,0.6,0.7,1l-0.7,0.3c-0.1-0.3-0.3-0.6-0.5-0.8
				c-0.3-0.3-0.6-0.4-0.9-0.3c-0.3,0-0.7,0.2-0.9,0.5c-0.3,0.3-0.5,0.6-0.5,0.9c0,0.3,0.1,0.6,0.3,0.8c0.1,0.1,0.3,0.2,0.4,0.3
				l0.6-0.6l-0.5-0.5L72.3,82.9z"/>
			<path class="st5" d="M78.5,85l-1.3,2.3c-0.1,0.3-0.3,0.5-0.6,0.6c-0.2,0.1-0.5,0.2-0.8,0.2c-0.3,0-0.6-0.1-0.9-0.3
				c-0.4-0.2-0.7-0.6-0.8-0.9c-0.1-0.4,0-0.8,0.2-1.2l1.3-2.3l0.7,0.4L75.2,86C75,86.3,75,86.5,75,86.7c0,0.2,0.2,0.4,0.4,0.5
				c0.2,0.1,0.5,0.2,0.6,0.1c0.2-0.1,0.4-0.2,0.5-0.5l1.2-2.2L78.5,85z"/>
			<path class="st5" d="M80.8,90.1l0-1l-1.4-0.4l-0.6,0.9L78,89.2l2.5-3.5l1,0.3l0.1,4.4L80.8,90.1z M80.8,88.3c0-0.9,0-1.5,0-1.6
				c0-0.1,0-0.2,0-0.3c-0.1,0.2-0.5,0.7-1,1.6L80.8,88.3z"/>
			<path class="st5" d="M84.2,89.2L84,90.7l-0.8-0.1l0.5-4.1l1.1,0.1c0.5,0.1,0.9,0.2,1.2,0.5c0.2,0.2,0.3,0.6,0.3,1
				c0,0.2-0.1,0.4-0.3,0.6c-0.1,0.2-0.3,0.3-0.6,0.4c0.5,1,0.8,1.6,0.9,1.9l-0.9-0.1l-0.7-1.7L84.2,89.2z M84.3,88.5l0.3,0
				c0.3,0,0.5,0,0.6-0.1c0.1-0.1,0.2-0.2,0.2-0.4c0-0.2,0-0.3-0.1-0.4c-0.1-0.1-0.3-0.2-0.6-0.2l-0.3,0L84.3,88.5z"/>
			<path class="st5" d="M90.2,91l-0.3-1l-1.5,0l-0.3,1l-0.9,0l1.4-4.2l1,0l1.5,4.1L90.2,91z M89.7,89.3c-0.3-0.9-0.4-1.4-0.5-1.5
				c0-0.1-0.1-0.2-0.1-0.3c-0.1,0.2-0.2,0.8-0.5,1.8L89.7,89.3z"/>
			<path class="st5" d="M96.1,90.3l-1.1,0.2l-2.2-2.8h0c0.1,0.5,0.2,0.9,0.2,1.2l0.3,1.9l-0.7,0.1L92,86.8l1-0.2l2.2,2.8h0
				c-0.1-0.5-0.2-0.9-0.2-1.1l-0.3-1.9l0.8-0.1L96.1,90.3z"/>
			<path class="st5" d="M99.6,89.2l-0.8,0.3l-1.2-3.2l-1,0.4L96.4,86l2.8-1l0.3,0.7l-1,0.4L99.6,89.2z"/>
			<path class="st5" d="M104.1,86.8l-1.9,1.2l-2.2-3.5l1.9-1.2l0.4,0.6l-1.2,0.8l0.5,0.8l1.1-0.7l0.4,0.6l-1.1,0.7l0.6,0.9l1.2-0.8
				L104.1,86.8z"/>
			<path class="st5" d="M107.3,83.7l-1.5,1.7l-3.1-2.7l1.5-1.7l0.5,0.5l-1,1.1l0.7,0.6l0.9-1l0.5,0.5l-0.9,1l0.8,0.7l1-1.1
				L107.3,83.7z"/>
			<path class="st6" d="M88.1,47.1l-2.5-1.2v4.9l2.5,1.3l2.5-1.3v-4.9L88.1,47.1z"/>
			<path class="st6" d="M82,46.9l0.5,1.5H84l-1.2,0.9l0.5,1.4L82,49.8l-1.2,0.9l0.5-1.4L80,48.4h1.5L82,46.9z"/>
			<path class="st6" d="M94.1,46.9l0.5,1.5H96l-1.2,0.9l0.5,1.4l-1.2-0.9l-1.2,0.9l0.5-1.4l-1.2-0.9h1.5L94.1,46.9z"/>
			<path class="st6" d="M87.9,80.6l2.5,1.2V77l-2.5-1.3L85.4,77v4.9L87.9,80.6z"/>
			<path class="st6" d="M94.1,80.8l-0.5-1.4h-1.5l1.2-0.9L92.8,77l1.2,0.9l1.2-0.9l-0.5,1.5l1.2,0.9h-1.5L94.1,80.8z"/>
			<path class="st6" d="M82,80.8l-0.5-1.4H80l1.2-0.9L80.8,77l1.2,0.9l1.2-0.9l-0.5,1.5l1.2,0.9h-1.5L82,80.8z"/>
		</g>
	</g>
</g>
</svg>
