<?xml version="1.0" encoding="UTF-8"?> <svg xmlns="http://www.w3.org/2000/svg" width="154" height="39" viewBox="0 0 154 39" fill="none"><path d="M7.25493 14.9014V38.0277H0.690491V14.9014H7.25493Z" fill="#0D4943"></path><path d="M23.3718 19.5396C25.5266 19.5396 27.2149 20.2474 28.4368 21.6627C29.6585 23.0564 30.2694 24.9619 30.2694 27.379V38.0276H23.7717V28.1956C23.7717 27.1285 23.4828 26.3011 22.9053 25.7131C22.3499 25.1034 21.5946 24.7985 20.6394 24.7985C19.6619 24.7985 18.8845 25.1143 18.3069 25.7458C17.7292 26.3556 17.4405 27.2048 17.4405 28.2936V38.0276H10.876V19.7029H17.4405V22.7734C17.9736 21.7934 18.7512 21.0095 19.773 20.4215C20.7949 19.8335 21.9945 19.5396 23.3718 19.5396Z" fill="#0D4943"></path><path d="M40.8498 19.4746C43.3156 19.4746 45.2816 20.0626 46.7478 21.2385C48.214 22.4144 49.1358 23.9714 49.5135 25.9094H43.3823C43.2268 25.2562 42.9046 24.7662 42.4159 24.4396C41.9494 24.113 41.3718 23.9496 40.6832 23.9496C40.1944 23.9496 39.8169 24.0586 39.5502 24.2763C39.3059 24.4723 39.1837 24.7553 39.1837 25.1255C39.1837 25.5828 39.4502 25.9312 39.9835 26.1708C40.5388 26.3885 41.4385 26.6389 42.6825 26.9221C44.1265 27.2269 45.3149 27.5535 46.248 27.9019C47.2032 28.2504 48.0252 28.8165 48.7138 29.6006C49.4247 30.3845 49.7801 31.4406 49.7801 32.7689C49.7801 33.836 49.4802 34.7832 48.8804 35.6107C48.2806 36.4383 47.4031 37.0915 46.248 37.5706C45.115 38.0279 43.7711 38.2565 42.216 38.2565C39.5947 38.2565 37.5064 37.7013 35.9515 36.5906C34.3964 35.4801 33.4523 33.8904 33.1191 31.8217H39.4169C39.5058 32.4967 39.7946 32.9976 40.2834 33.3242C40.7942 33.6509 41.4273 33.8142 42.1827 33.8142C42.6937 33.8142 43.0824 33.7053 43.3489 33.4876C43.6155 33.2698 43.7488 32.9867 43.7488 32.6384C43.7488 32.1157 43.46 31.7346 42.8824 31.4951C42.3271 31.2555 41.4273 31.016 40.1834 30.7764C38.7616 30.4934 37.5954 30.1884 36.6846 29.8618C35.7737 29.5134 34.974 28.969 34.2854 28.2287C33.6189 27.4664 33.2857 26.4212 33.2857 25.0929C33.2857 23.4378 33.9411 22.0877 35.2517 21.0425C36.5624 19.9973 38.4284 19.4746 40.8498 19.4746Z" fill="#0D4943"></path><path d="M63.788 32.5401V38.0277H61.089C58.8008 38.0277 57.0125 37.4723 55.7241 36.3618C54.4356 35.2512 53.7915 33.4111 53.7915 30.8415V25.06H51.3922V19.7031H53.7915V15.2607H60.3559V19.7031H63.7214V25.06H60.3559V30.9722C60.3559 31.5384 60.478 31.9412 60.7224 32.1808C60.989 32.4202 61.4222 32.5401 62.022 32.5401H63.788Z" fill="#0D4943"></path><path d="M73.7125 19.4746C75.0232 19.4746 76.1561 19.7578 77.1113 20.3239C78.0888 20.8683 78.8108 21.6304 79.2773 22.6104V19.7033H85.8084V38.0279H79.2773V35.1208C78.8108 36.1007 78.0888 36.8738 77.1113 37.4399C76.1561 37.9843 75.0232 38.2565 73.7125 38.2565C72.2241 38.2565 70.8801 37.8864 69.6806 37.1459C68.481 36.3838 67.5369 35.295 66.8483 33.8796C66.1595 32.4423 65.8152 30.7656 65.8152 28.8493C65.8152 26.9329 66.1595 25.267 66.8483 23.8516C67.5369 22.4362 68.481 21.3582 69.6806 20.6179C70.8801 19.8557 72.2241 19.4746 73.7125 19.4746ZM75.8784 25.0929C74.8566 25.0929 74.0234 25.4304 73.3793 26.1055C72.7572 26.7588 72.4463 27.6733 72.4463 28.8493C72.4463 30.0469 72.7572 30.9833 73.3793 31.6584C74.0234 32.3116 74.8566 32.6384 75.8784 32.6384C76.8559 32.6384 77.6667 32.3008 78.311 31.6257C78.9551 30.9507 79.2773 30.0251 79.2773 28.8493C79.2773 27.6951 78.9551 26.7805 78.311 26.1055C77.6667 25.4304 76.8559 25.0929 75.8784 25.0929Z" fill="#0D4943"></path><path d="M141.932 30.2862V38.0277H135.367V14.9014H145.164C148.007 14.9014 150.173 15.6091 151.662 17.0245C153.172 18.4182 153.927 20.2909 153.927 22.6428C153.927 24.1018 153.594 25.4084 152.928 26.5624C152.261 27.7166 151.262 28.6312 149.929 29.3062C148.618 29.9596 147.03 30.2862 145.164 30.2862H141.932ZM144.431 25.2233C146.341 25.2233 147.296 24.3631 147.296 22.6428C147.296 20.9443 146.341 20.095 144.431 20.095H141.932V25.2233H144.431Z" fill="#0D4943"></path><path d="M126.435 14.906H133.133C133.246 14.9057 133.357 14.9346 133.455 14.9898C133.554 15.0452 133.637 15.1249 133.694 15.221C133.751 15.3171 133.781 15.4263 133.782 15.5377C133.782 15.6491 133.754 15.7586 133.698 15.8554L121.647 36.8156C121.464 37.1349 121.196 37.4006 120.874 37.5857C120.551 37.7707 120.185 37.8684 119.81 37.8688H114.684C114.257 37.8688 113.839 37.7414 113.488 37.5035C113.136 37.2657 112.867 36.9286 112.716 36.5371L111.46 33.3041L111.549 33.3624C111.95 33.617 112.4 33.788 112.871 33.8649C113.343 33.9418 113.826 33.9229 114.289 33.8094C114.753 33.6959 115.188 33.4903 115.567 33.2052C115.946 32.9201 116.263 32.5618 116.494 32.1521L123.725 19.458H117.956C117.832 19.4605 117.711 19.4282 117.605 19.3652C117.5 19.302 117.415 19.2107 117.361 19.1019C117.307 18.993 117.285 18.8713 117.299 18.7509C117.312 18.6306 117.362 18.5166 117.439 18.4226L131.939 0.745989C132.013 0.668318 132.111 0.618153 132.218 0.604118C132.325 0.590082 132.433 0.613052 132.525 0.669079C132.618 0.725105 132.687 0.81069 132.72 0.911125C132.755 1.01156 132.752 1.12057 132.713 1.21942L126.435 14.906Z" fill="url(#paint0_linear_819_3245)"></path><path d="M102.888 36.6002C102.888 36.7664 102.855 36.931 102.79 37.0846C102.725 37.2382 102.63 37.3777 102.51 37.4954C102.391 37.6128 102.248 37.7061 102.092 37.7697C101.935 37.8333 101.767 37.866 101.597 37.866H96.0985C95.8319 37.866 95.5723 37.7854 95.3543 37.6348C95.1363 37.4844 94.9718 37.2715 94.8823 37.0255L94.229 35.2052L87.5215 16.6147C87.4514 16.4214 87.4299 16.2145 87.4583 16.0115C87.4875 15.8083 87.5653 15.6149 87.686 15.4475C87.8069 15.28 87.9666 15.1435 88.1525 15.0492C88.3379 14.9549 88.5441 14.9056 88.753 14.9058H93.777C94.1061 14.9055 94.4275 15.0049 94.6976 15.1901C94.9676 15.3755 95.1724 15.6376 95.2848 15.9412L102.452 35.1824L102.819 36.1647C102.868 36.3047 102.891 36.4521 102.888 36.6002Z" fill="#056960"></path><path d="M108.465 25.6076L104.333 37.0561C104.246 37.2951 104.086 37.5019 103.874 37.6482C103.664 37.7946 103.411 37.8734 103.153 37.8739H96.0987C95.8314 37.8733 95.5711 37.7914 95.3531 37.6395C95.1351 37.4876 94.9706 37.2732 94.8825 37.0257L94.2264 35.2054C94.3555 35.413 95.4323 37.0333 96.7727 35.1826L103.664 16.6807C103.664 16.6807 104.49 16.1895 104.996 16.6807L108.465 25.6076Z" fill="#0D4943"></path><path d="M117.783 29.9012L114.666 35.3621C114.538 35.5855 114.349 35.7687 114.119 35.8899C113.888 36.0112 113.628 36.0655 113.368 36.0468C113.107 36.0278 112.858 35.9364 112.649 35.7834C112.44 35.6302 112.279 35.4218 112.186 35.1824L108.465 25.6074L105.123 16.9995C105.05 16.8188 104.916 16.6689 104.741 16.5762C104.568 16.4836 104.366 16.4541 104.172 16.4932C103.991 16.5303 103.816 16.5951 103.656 16.6856C103.827 16.2171 104.129 15.8056 104.528 15.4981C105.016 15.1153 105.622 14.9064 106.246 14.9058H110.854C111.332 14.9048 111.799 15.0483 112.191 15.317C112.583 15.5857 112.88 15.9664 113.044 16.4071L117.829 29.2531C117.87 29.3579 117.887 29.4703 117.88 29.5821C117.872 29.6941 117.838 29.8029 117.783 29.9012Z" fill="#056960"></path><defs><linearGradient id="paint0_linear_819_3245" x1="121.666" y1="32.2236" x2="131.108" y2="0.495444" gradientUnits="userSpaceOnUse"><stop stop-color="#FE8551"></stop><stop offset="1" stop-color="#ED618E"></stop></linearGradient></defs></svg> 