<svg id="Layer_1" enable-background="new 0 0 512 512" height="512" viewBox="0 0 512 512" width="512" xmlns="http://www.w3.org/2000/svg"><g clip-rule="evenodd" fill-rule="evenodd"><g><path d="m37.607 167.076h436.786c20.684 0 37.607 16.924 37.607 37.607v269.709c0 20.685-16.923 37.608-37.607 37.608h-436.786c-20.684 0-37.607-16.923-37.607-37.607v-269.71c0-20.683 16.923-37.607 37.607-37.607z" fill="#4b5055"/><path d="m256 167.076h218.393c20.684 0 37.607 16.923 37.607 37.607v269.709c0 20.685-16.923 37.608-37.607 37.608h-218.393z" fill="#373c41"/><path d="m118.03 269.276c2.429 3.321 3.867 7.412 3.867 11.827v25.165c0 5.532-2.257 10.556-5.894 14.192-3.636 3.637-8.659 5.894-14.192 5.894h-45.225c-4.561 0-8.258-3.698-8.258-8.258v-97.64c0-4.56 3.697-8.258 8.258-8.258h45.227c5.532 0 10.556 2.257 14.192 5.894 3.637 3.636 5.894 8.66 5.894 14.192v25.165c-.001 4.415-1.439 8.506-3.869 11.827zm-16.218 8.258h-36.969v32.304h36.969c.973 0 1.864-.404 2.514-1.055.651-.651 1.055-1.542 1.055-2.514v-25.165c0-.973-.404-1.863-1.055-2.514-.65-.652-1.541-1.056-2.514-1.056zm90.517 32.303c4.56 0 8.258 3.698 8.258 8.258s-3.697 8.258-8.258 8.258h-47.937c-4.561 0-8.258-3.698-8.258-8.258v-97.64c0-4.56 3.697-8.258 8.258-8.258s8.258 3.697 8.258 8.258v89.382zm177.734-19.091c0-4.561 3.697-8.258 8.258-8.258s8.258 3.698 8.258 8.258v15.522c0 5.532-2.257 10.555-5.893 14.192-3.637 3.636-8.66 5.893-14.192 5.893h-33.399c-5.532 0-10.555-2.257-14.192-5.893-3.637-3.637-5.894-8.66-5.894-14.192v-73.985c0-5.532 2.257-10.555 5.894-14.192 3.636-3.637 8.659-5.894 14.192-5.894h33.399c5.532 0 10.556 2.257 14.192 5.894 3.636 3.636 5.893 8.66 5.893 14.192v15.522c0 4.56-3.697 8.258-8.258 8.258s-8.258-3.697-8.258-8.258v-15.522c0-.973-.405-1.864-1.055-2.514-.651-.651-1.542-1.055-2.515-1.055h-33.399c-.973 0-1.863.404-2.514 1.055s-1.055 1.541-1.055 2.514v73.985c0 .973.404 1.864 1.055 2.515s1.542 1.055 2.514 1.055h33.399c.973 0 1.864-.404 2.515-1.055s1.055-1.542 1.055-2.515zm48.867 27.35c0 4.56-3.698 8.258-8.258 8.258-4.561 0-8.258-3.698-8.258-8.258v-97.64c0-4.56 3.697-8.258 8.258-8.258 4.56 0 8.258 3.697 8.258 8.258v35.151l43.119-41.118c3.296-3.135 8.51-3.006 11.645.29s3.006 8.51-.29 11.645l-32.338 30.838 33.725 56.608c2.334 3.901 1.063 8.956-2.839 11.29-3.901 2.334-8.956 1.063-11.29-2.838l-31.817-53.406-9.915 9.455zm-162.93-70.688-10.54 32.855h21.079zm-23.483 73.204c-1.389 4.329-6.026 6.712-10.355 5.323-4.329-1.39-6.712-6.026-5.323-10.355l9.282-28.935c.102-.439.24-.865.409-1.274l21.631-67.43c1.389-4.329 6.026-6.712 10.355-5.323 2.652.851 4.572 2.92 5.345 5.39l21.609 67.365c.168.408.306.832.407 1.27l9.283 28.938c1.389 4.329-.993 8.965-5.323 10.355-4.329 1.389-8.965-.994-10.355-5.323l-7.645-23.833h-31.675zm-167.674-59.594h36.969c.973 0 1.864-.404 2.514-1.055.651-.651 1.055-1.542 1.055-2.514v-25.165c0-.973-.404-1.864-1.055-2.514-.651-.651-1.542-1.055-2.514-1.055h-36.969z" fill="#f7f9fa"/><path d="m64.843 458.62c0 4.56-3.698 8.258-8.258 8.258-4.561 0-8.258-3.698-8.258-8.258v-97.64c0-4.56 3.697-8.258 8.258-8.258h57.054c4.56 0 8.258 3.698 8.258 8.258 0 4.561-3.698 8.258-8.258 8.258h-48.796v32.304h30.562c4.561 0 8.258 3.698 8.258 8.258s-3.697 8.258-8.258 8.258h-30.562zm124.776-89.381h-36.969v32.304h36.969c.973 0 1.863-.404 2.514-1.055s1.055-1.542 1.055-2.514v-25.165c0-.973-.404-1.863-1.055-2.514-.651-.652-1.542-1.056-2.514-1.056zm-53.485-8.259c0-4.56 3.697-8.258 8.258-8.258h45.227c5.532 0 10.556 2.258 14.192 5.894 3.637 3.636 5.894 8.66 5.894 14.192v25.165c0 5.532-2.257 10.556-5.894 14.192-3.636 3.637-8.659 5.894-14.192 5.894h-2.314l21.27 36.4c2.298 3.937.969 8.992-2.968 11.29s-8.992.969-11.29-2.968l-26.133-44.723h-15.534v40.562c0 4.56-3.697 8.258-8.258 8.258s-8.258-3.698-8.258-8.258zm103.867 97.64c0 4.56-3.697 8.258-8.258 8.258s-8.258-3.698-8.258-8.258v-97.64c0-4.56 3.698-8.258 8.258-8.258 4.561 0 8.258 3.698 8.258 8.258zm50.567-89.381h-20.27v81.123h20.27c5.565 0 10.631-2.283 14.308-5.96 3.678-3.677 5.96-8.743 5.96-14.308v-40.586c0-5.565-2.283-10.631-5.96-14.308-3.677-3.678-8.743-5.961-14.308-5.961zm-28.528-16.516h28.527c10.125 0 19.323 4.136 25.986 10.799s10.799 15.861 10.799 25.986v40.586c0 10.125-4.136 19.323-10.799 25.986s-15.861 10.799-25.986 10.799h-28.527c-4.561 0-8.258-3.698-8.258-8.258v-97.64c.001-4.561 3.698-8.258 8.258-8.258zm185.417 105.897c0 4.56-3.698 8.258-8.258 8.258-4.561 0-8.258-3.698-8.258-8.258v-53.93l-27.043-39.032c-2.583-3.741-1.644-8.868 2.097-11.451s8.868-1.644 11.452 2.097l21.753 31.396 21.753-31.396c2.583-3.741 7.71-4.68 11.451-2.097s4.68 7.711 2.097 11.451l-27.043 39.032v53.93zm-73.447-70.687-10.539 32.855h21.079zm-23.483 73.203 7.645-23.833h31.675l7.645 23.833c1.389 4.329 6.026 6.712 10.355 5.323s6.712-6.026 5.323-10.355l-9.282-28.937c-.102-.438-.239-.862-.408-1.27l-21.609-67.365c-.772-2.47-2.693-4.539-5.344-5.39-4.329-1.39-8.965.993-10.355 5.323l-21.632 67.433c-.168.407-.305.831-.406 1.267l-9.283 28.939c-1.389 4.329.993 8.965 5.322 10.355 4.328 1.389 8.964-.994 10.354-5.323z" fill="#ff415b"/></g><g><circle cx="256" cy="103.226" fill="#ffd944" r="103.226"/><path d="m256 0c57.01 0 103.226 46.215 103.226 103.226 0 57.01-46.216 103.226-103.226 103.226z" fill="#ffc107"/><path d="m289.1 45.063c2.36-3.278 6.93-4.023 10.208-1.663 3.278 2.359 4.022 6.93 1.663 10.208l-78.006 108.58c-2.36 3.278-6.93 4.022-10.208 1.663s-4.022-6.93-1.663-10.208zm-2.11 69.421c-7.14 0-13.606 2.895-18.286 7.575s-7.575 11.146-7.575 18.287 2.895 13.606 7.574 18.286c4.68 4.68 11.146 7.575 18.286 7.575 7.141 0 13.607-2.895 18.286-7.574 4.68-4.68 7.575-11.145 7.575-18.286s-2.895-13.606-7.575-18.287c-4.679-4.682-11.144-7.576-18.285-7.576zm7.906 17.954c-2.022-2.023-4.818-3.274-7.906-3.274s-5.883 1.251-7.906 3.274c-2.023 2.022-3.274 4.818-3.274 7.906s1.251 5.883 3.273 7.906c2.023 2.022 4.818 3.274 7.906 3.274s5.884-1.251 7.906-3.273c2.023-2.023 3.274-4.818 3.274-7.906.002-3.089-1.25-5.884-3.273-7.907zm-69.887-92.192c-7.141 0-13.606 2.895-18.286 7.575s-7.575 11.145-7.575 18.286c0 7.14 2.895 13.606 7.575 18.286s11.146 7.575 18.286 7.575c7.141 0 13.606-2.895 18.286-7.575s7.575-11.146 7.575-18.286c0-7.141-2.895-13.606-7.574-18.286-4.681-4.68-11.146-7.575-18.287-7.575zm7.907 17.955c-2.022-2.023-4.818-3.274-7.906-3.274s-5.884 1.251-7.906 3.274c-2.022 2.022-3.274 4.818-3.274 7.906s1.251 5.884 3.274 7.906c2.023 2.023 4.818 3.274 7.906 3.274s5.883-1.251 7.906-3.274c2.023-2.022 3.274-4.818 3.274-7.906-.001-3.088-1.252-5.884-3.274-7.906z" fill="#4b5055"/><path d="m289.1 45.063c2.36-3.278 6.93-4.023 10.208-1.663 3.278 2.359 4.022 6.93 1.663 10.208l-44.971 62.598v-25.069zm-2.11 69.421c-7.14 0-13.606 2.895-18.286 7.575s-7.575 11.146-7.575 18.287 2.895 13.606 7.574 18.286c4.68 4.68 11.146 7.575 18.286 7.575 7.141 0 13.607-2.895 18.286-7.574 4.68-4.68 7.575-11.145 7.575-18.286s-2.895-13.606-7.575-18.287c-4.679-4.682-11.144-7.576-18.285-7.576zm7.906 17.954c2.023 2.022 3.274 4.818 3.274 7.906s-1.251 5.884-3.274 7.906c-2.022 2.023-4.818 3.273-7.906 3.273s-5.884-1.251-7.906-3.274-3.273-4.818-3.273-7.906 1.251-5.884 3.274-7.906c2.022-2.023 4.818-3.274 7.906-3.274 3.087.001 5.883 1.253 7.905 3.275z" fill="#373c41"/></g></g></svg>