<svg id="Capa_1" enable-background="new 0 0 512 512" height="512" viewBox="0 0 512 512" width="512" xmlns="http://www.w3.org/2000/svg"><g><g><path d="m507.532 97.544c0-1.52-.13-3.046-.387-4.534-.7-4.066-4.564-6.791-8.629-6.093-4.066.701-6.794 4.564-6.093 8.63.112.654.169 1.326.169 1.998 0 3.078-1.191 5.978-3.356 8.165-6.398 6.469-8.84 15.586-6.534 24.388.779 2.977.362 6.084-1.177 8.749-1.539 2.666-4.021 4.582-6.988 5.394-8.775 2.404-15.449 9.078-17.854 17.855-.812 2.967-2.728 5.448-5.393 6.986-2.666 1.539-5.776 1.956-8.749 1.178-8.804-2.31-17.92.137-24.388 6.535-2.188 2.164-5.088 3.355-8.166 3.355-3.077 0-5.977-1.192-8.165-3.356-6.47-6.398-15.588-8.839-24.387-6.535-2.976.779-6.084.362-8.75-1.177-2.665-1.539-4.581-4.021-5.394-6.988-2.402-8.775-9.077-15.449-17.853-17.854-2.969-.813-5.45-2.728-6.989-5.395-1.54-2.664-1.957-5.771-1.177-8.749 2.305-8.801-.138-17.918-6.535-24.386-2.163-2.188-3.355-5.088-3.355-8.166s1.192-5.977 3.355-8.165c6.397-6.469 8.84-15.586 6.535-24.389-.78-2.976-.362-6.083 1.177-8.749 1.539-2.665 4.021-4.58 6.989-5.393 8.776-2.404 15.45-9.078 17.853-17.853.813-2.968 2.729-5.45 5.394-6.989 2.667-1.539 5.775-1.956 8.75-1.177 8.798 2.305 17.918-.138 24.387-6.535 2.188-2.164 5.088-3.355 8.165-3.355 3.078 0 5.978 1.191 8.165 3.355 6.47 6.398 15.586 8.842 24.389 6.535 2.976-.779 6.083-.362 8.749 1.177 2.665 1.539 4.581 4.02 5.393 6.989 2.404 8.776 9.079 15.449 17.854 17.853 2.968.813 5.45 2.729 6.988 5.393.932 1.615 1.451 3.365 1.545 5.204.208 4.12 3.703 7.304 7.838 7.083 4.12-.208 7.292-3.717 7.083-7.838-.21-4.165-1.43-8.286-3.527-11.919-3.519-6.094-9.194-10.473-15.979-12.332-3.633-.995-6.396-3.759-7.392-7.391-1.858-6.786-6.237-12.461-12.332-15.981-6.096-3.518-13.199-4.472-20.005-2.69-3.642.955-7.418-.056-10.097-2.705-5.003-4.947-11.635-7.672-18.672-7.672s-13.667 2.725-18.67 7.672c-2.678 2.649-6.455 3.66-10.096 2.706-6.809-1.784-13.913-.829-20.006 2.69-6.094 3.519-10.474 9.193-12.333 15.98-.995 3.633-3.758 6.396-7.391 7.391-6.787 1.859-12.462 6.24-15.979 12.332-3.519 6.095-4.475 13.2-2.69 20.005.954 3.644-.057 7.419-2.707 10.098-4.276 4.325-6.887 9.867-7.518 15.834-27.874-12.601-58.35-19.255-89.856-19.255-48.956 0-95.22 15.837-133.792 45.799-3.258 2.531-3.847 7.223-1.316 10.482 2.53 3.257 7.222 3.847 10.482 1.317 35.925-27.907 79.021-42.658 124.627-42.658 34.584 0 67.174 8.686 95.717 23.979.522.635 1.072 1.25 1.657 1.841 2.65 2.679 3.661 6.453 2.707 10.096-1.785 6.807-.829 13.912 2.69 20.006 3.517 6.094 9.192 10.474 15.979 12.333 3.634.996 6.397 3.759 7.392 7.392 1.859 6.786 6.239 12.461 12.333 15.979s13.198 4.475 20.006 2.691c3.644-.955 7.418.057 10.096 2.705 2.317 2.292 4.986 4.1 7.88 5.388 17.089 29.757 26.877 64.216 26.877 100.923 0 112.119-91.215 203.333-203.333 203.333-112.119 0-203.333-91.215-203.333-203.333 0-51.291 19.153-100.273 53.929-137.925 2.799-3.031 2.612-7.757-.419-10.555-3.031-2.8-7.757-2.611-10.556.419-37.334 40.42-57.895 93.003-57.895 148.062 0 58.303 22.704 113.116 63.931 154.342 41.225 41.227 96.039 63.931 154.341 63.931s113.116-22.704 154.343-63.931c41.226-41.226 63.93-96.039 63.93-154.342 0-35.217-8.301-69.152-23.95-99.596 4.334-1.192 8.315-3.472 11.594-6.715 2.677-2.648 6.452-3.66 10.096-2.705 6.809 1.783 13.911.827 20.005-2.691 6.096-3.519 10.475-9.195 12.332-15.979.995-3.633 3.759-6.396 7.392-7.392 6.785-1.858 12.46-6.238 15.979-12.333 3.518-6.094 4.473-13.198 2.69-20.005-.954-3.644.056-7.418 2.706-10.096 4.948-5.003 7.674-11.634 7.674-18.671z"/><path d="m390.303 144.896c.944.396 1.924.584 2.888.584 2.918 0 5.691-1.721 6.891-4.581l34.709-82.704c1.596-3.804-.194-8.182-3.998-9.778-3.802-1.596-8.182.192-9.779 3.997l-34.709 82.704c-1.596 3.803.194 8.181 3.998 9.778z"/><path d="m400.489 69.271c0-13.946-10.231-25.291-22.806-25.291s-22.806 11.346-22.806 25.291c0 13.946 10.231 25.292 22.806 25.292s22.806-11.346 22.806-25.292zm-22.806 10.352c-4.264 0-7.867-4.741-7.867-10.352s3.603-10.352 7.867-10.352 7.867 4.741 7.867 10.352-3.603 10.352-7.867 10.352z"/><path d="m442.292 151.109c12.575 0 22.805-11.346 22.805-25.292s-10.23-25.291-22.805-25.291-22.806 11.346-22.806 25.291c0 13.946 10.231 25.292 22.806 25.292zm0-35.644c4.264 0 7.866 4.741 7.866 10.352s-3.602 10.352-7.866 10.352-7.867-4.741-7.867-10.352 3.603-10.352 7.867-10.352z"/><path d="m228.865 214.13c-.026-.069-.052-.136-.08-.204-1.39-3.38-4.648-5.563-8.302-5.563-.003 0-.006 0-.01 0-3.658.003-6.916 2.194-8.3 5.58-.023.056-.045.111-.066.168l-24.974 65.573c-1.468 3.856.466 8.171 4.322 9.639 3.855 1.469 8.171-.467 9.639-4.322l4.388-11.52h29.814l4.34 11.499c1.129 2.991 3.971 4.835 6.99 4.834.876 0 1.768-.155 2.636-.483 3.86-1.457 5.808-5.767 4.352-9.626zm-17.694 44.413 9.286-24.381 9.201 24.381z"/><path d="m143.946 208.364c-4.125 0-7.47 3.344-7.47 7.47v66.454c0 3.639 2.622 6.748 6.208 7.362.539.092 16.986.15 24.594.108 4.125-.023 7.451-3.386 7.428-7.512-.023-4.111-3.363-7.428-7.469-7.428-.014 0-.029 0-.043 0-5.472.031-11.352.052-15.778.056v-59.04c0-4.125-3.344-7.47-7.47-7.47z"/><path d="m349.929 208.364c-4.126 0-7.47 3.344-7.47 7.47v66.51c0 4.125 3.344 7.47 7.47 7.47s7.47-3.344 7.47-7.47v-19.209l25.483 24.585c1.449 1.399 3.319 2.094 5.185 2.094 1.957 0 3.911-.764 5.377-2.283 2.864-2.969 2.78-7.698-.19-10.562l-30.302-29.234 27.809-25.561c3.038-2.792 3.237-7.517.445-10.555-2.792-3.037-7.518-3.236-10.554-.444l-23.253 21.374v-16.713c0-4.127-3.344-7.472-7.47-7.472z"/><path d="m94.837 208.364h-19.319c-4.125 0-7.47 3.344-7.47 7.47v66.51c0 1.987.792 3.892 2.2 5.294 1.4 1.394 3.295 2.176 5.27 2.176h.033c.002 0 17.764-.079 22.66-.079 13.99 0 25.372-11.382 25.372-25.372 0-8.246-3.956-15.582-10.067-20.22 2.577-3.69 4.095-8.173 4.095-13.005.001-12.558-10.216-22.774-22.774-22.774zm-11.849 14.94h11.85c4.32 0 7.835 3.514 7.835 7.834s-3.515 7.834-7.835 7.834c-1.422 0-4.101.008-7.022.018h-4.828zm15.223 51.491c-2.789 0-9.738.026-15.224.048v-20.895c1.582-.006 3.257-.013 4.861-.018h10.363c5.753 0 10.432 4.68 10.432 10.433.001 5.752-4.679 10.432-10.432 10.432z"/><path d="m301.277 223.304c5.168 0 10.151 1.521 14.411 4.399 3.418 2.31 8.061 1.41 10.371-2.009 2.309-3.418 1.41-8.062-2.008-10.371-6.739-4.553-14.615-6.959-22.774-6.959-22.456 0-40.725 18.269-40.725 40.725s18.269 40.725 40.725 40.725c8.95 0 16.979-2.938 23.222-8.497 1.224-1.091 2.385-2.289 3.452-3.56 2.651-3.161 2.238-7.873-.922-10.524-3.161-2.651-7.872-2.238-10.524.922-.605.721-1.26 1.397-1.944 2.007-3.51 3.126-7.979 4.712-13.283 4.712-14.218 0-25.786-11.568-25.786-25.786-.001-14.217 11.567-25.784 25.785-25.784z"/><path d="m320.907 308.468c-1.397-3.393-4.667-5.583-8.335-5.583-.004 0-.007 0-.011 0-3.672.004-6.942 2.203-8.332 5.601-.023.056-.046.113-.067.169l-25.566 67.126c-1.469 3.855.467 8.171 4.322 9.639 3.85 1.47 8.17-.466 9.639-4.322l4.535-11.907h30.765l4.485 11.885c1.128 2.991 3.971 4.834 6.99 4.834.876 0 1.768-.155 2.637-.483 3.859-1.456 5.808-5.767 4.351-9.626l-25.333-67.129c-.024-.067-.051-.136-.08-.204zm-18.123 45.785 9.763-25.634 9.674 25.634z"/><path d="m180.698 310.355v68.085c0 4.125 3.344 7.47 7.47 7.47 4.125 0 7.47-3.344 7.47-7.47v-68.085c0-4.125-3.344-7.47-7.47-7.47s-7.47 3.345-7.47 7.47z"/><path d="m95.268 318.323c4.125 0 7.47-3.344 7.47-7.47 0-4.125-3.344-7.47-7.47-7.47h-27.394c-4.125 0-7.47 3.344-7.47 7.47v67.587c0 4.125 3.344 7.47 7.47 7.47s7.47-3.344 7.47-7.47v-26.963h17.747c4.125 0 7.47-3.344 7.47-7.47s-3.344-7.47-7.47-7.47h-17.747v-18.214z"/><path d="m237.219 304.899h-18.713c-1.984 0-3.886.789-5.287 2.193-1.402 1.404-2.187 3.307-2.183 5.291v.053.002 64.93c0 .522.054 1.031.156 1.523.11 1.826.879 3.556 2.185 4.852 1.4 1.389 3.291 2.169 5.262 2.169h.028c.565-.002 13.903-.054 19.229-.146 19.396-.339 33.474-17.313 33.474-40.359.001-24.23-13.724-40.508-34.151-40.508zm.417 65.927c-2.64.046-7.435.083-11.551.107-.025-7.812-.081-42.971-.095-51.094h11.23c14.165 0 19.212 13.207 19.212 25.566-.001 17.334-9.441 25.258-18.796 25.421z"/><path d="m374.039 385.911h.018c4.117 0 7.46-3.333 7.47-7.452l.079-32.572 20.365-31.284c2.251-3.458 1.273-8.085-2.185-10.336-3.458-2.25-8.084-1.272-10.335 2.185l-15.319 23.532-15.483-23.713c-2.256-3.455-6.886-4.425-10.339-2.17-3.454 2.255-4.426 6.884-2.171 10.339l20.528 31.438-.079 32.545c-.011 4.125 3.326 7.477 7.451 7.488z"/><path d="m122.045 302.886c-.004 0-.007-.001-.011-.001-4.125 0-7.47 3.344-7.47 7.47v68.085c0 4.125 3.344 7.47 7.47 7.47s7.47-3.344 7.47-7.47v-22.03l23.734 26.966c1.477 1.678 3.538 2.535 5.61 2.535 1.753 0 3.513-.613 4.932-1.863 3.097-2.725 3.398-7.446.672-10.542l-18.429-20.939c11.607-2.572 20.291-12.584 20.291-24.517 0-13.875-11.738-25.164-26.166-25.164h-18.092c-.004-.001-.008 0-.011 0zm18.103 14.939c6.085 0 11.226 4.682 11.226 10.225s-5.141 10.225-11.226 10.225c-2.441 0-6.749.019-10.539.038-.019-3.712-.049-16.603-.06-20.487h10.599z"/></g></g></svg>