<svg id="Layer_1" height="512" viewBox="0 0 512 512" width="512" xmlns="http://www.w3.org/2000/svg" data-name="Layer 1"><g fill-rule="evenodd"><path d="m256 71.272c101.866 0 184.73 82.86 184.73 184.726s-82.861 184.73-184.73 184.73-184.723-82.879-184.723-184.728 82.864-184.728 184.723-184.728zm-247.4 179.251 13.2 11.815a37.924 37.924 0 0 1 6.084 50.137l-9.989 14.616a25.687 25.687 0 0 0 14.953 39.415l17.161 4.326a37.929 37.929 0 0 1 28.7 41.569l-2.049 17.581a25.682 25.682 0 0 0 31.549 27.961l17.216-4.153a39.014 39.014 0 0 1 9.256-1.113 37.866 37.866 0 0 1 35.475 24.58l6.355 16.528a25.7 25.7 0 0 0 40.93 10.092l13.31-11.676a37.916 37.916 0 0 1 50.507 0l13.315 11.676a25.7 25.7 0 0 0 40.93-10.092l6.355-16.528a37.919 37.919 0 0 1 44.727-23.467l17.2 4.153a25.682 25.682 0 0 0 31.56-27.961l-2.045-17.582a37.926 37.926 0 0 1 28.7-41.568l17.176-4.326a25.676 25.676 0 0 0 14.948-39.415l-10-14.616a37.925 37.925 0 0 1 6.088-50.137l13.216-11.815a25.71 25.71 0 0 0 -5.1-41.855l-15.642-8.3a37.937 37.937 0 0 1 -17.918-47.226l6.187-16.586a25.638 25.638 0 0 0 -23.927-34.693l-17.7-.089a37.93 37.93 0 0 1 -37.811-33.5l-2.217-17.558a25.693 25.693 0 0 0 -37.326-19.586l-15.721 8.152a37.932 37.932 0 0 1 -49.047-12.088l-10.122-14.527a25.7 25.7 0 0 0 -42.157 0l-10.127 14.527a37.942 37.942 0 0 1 -49.052 12.088l-15.711-8.152a25.7 25.7 0 0 0 -37.332 19.586l-2.212 17.566a37.92 37.92 0 0 1 -37.812 33.5l-17.7.089a25.687 25.687 0 0 0 -23.952 34.689l6.2 16.586a37.932 37.932 0 0 1 -17.908 47.226l-15.647 8.3a25.7 25.7 0 0 0 -5.074 41.851z"/><path d="m273.035 282.093h-10.944v35.732h10.944a10.951 10.951 0 0 0 10.929-10.925v-13.863a10.954 10.954 0 0 0 -10.929-10.944z"/><path d="m167.2 220.874a4.711 4.711 0 0 0 -4.712-4.712h-11.831v9.41h11.835a4.708 4.708 0 0 0 4.708-4.698z"/><path d="m162.754 203.6a1.482 1.482 0 0 1 .252-.045 4.768 4.768 0 0 0 4.2-4.677 4.718 4.718 0 0 0 -4.712-4.713h-11.837v9.41h11.835a2.563 2.563 0 0 1 .262.025z"/><path d="m326.141 292.151-2.915 7.009h5.84z"/><path d="m134.005 324.121a6.3 6.3 0 1 1 -12.592 0v-48.321a6.3 6.3 0 0 1 6.3-6.3h34.466a6.3 6.3 0 0 1 0 12.592h-28.17v11.572h28.17a6.294 6.294 0 1 1 0 12.588h-28.17v17.868zm4.059-114.255v-22a6.306 6.306 0 0 1 6.3-6.3h18.132a17.283 17.283 0 0 1 13.334 28.3 17.283 17.283 0 0 1 -13.334 28.3h-18.136a6.3 6.3 0 0 1 -6.3-6.3v-22zm65.669 59.634a18.367 18.367 0 0 1 8.479 34.663l9.137 16.968a6.293 6.293 0 0 1 -2.559 8.528 6.174 6.174 0 0 1 -2.969.758 6.29 6.29 0 0 1 -5.549-3.307l-11.236-20.858h-11.4v17.868a6.3 6.3 0 1 1 -12.592 0v-48.32a6.3 6.3 0 0 1 6.3-6.3zm-17.908-81.637a6.3 6.3 0 0 1 12.592 0v37.708h22.828a6.3 6.3 0 0 1 0 12.592h-29.124a6.293 6.293 0 0 1 -6.3-6.3v-44zm44.3 87.933a6.3 6.3 0 0 1 12.593 0v48.324a6.3 6.3 0 1 1 -12.593 0v-48.32zm2.866-46.261 17.522-44a6.293 6.293 0 0 1 11.7 0l17.532 44a6.3 6.3 0 0 1 -3.524 8.177 6.36 6.36 0 0 1 -2.332.451 6.287 6.287 0 0 1 -5.845-3.97l-4.622-11.593h-14.122l-4.618 11.592a6.3 6.3 0 1 1 -11.7-4.658zm55.487-39.735a28.107 28.107 0 0 0 33.961 44.2 6.294 6.294 0 0 0 -6.316-10.889 15.516 15.516 0 1 1 0-26.858 6.294 6.294 0 0 0 6.316-10.889 28.12 28.12 0 0 0 -33.961 4.444zm43.474 83.582 20.156 48.318a6.3 6.3 0 1 1 -11.623 4.841l-6.172-14.79h-16.344l-6.172 14.79a6.291 6.291 0 1 1 -11.613-4.841l20.156-48.315a6.281 6.281 0 0 1 11.612 0zm-1.782-85.522a6.294 6.294 0 1 1 12.587 0v11.261l21.037-16.24a6.294 6.294 0 1 1 7.692 9.964l-22.052 17.017 22.052 17.017a6.3 6.3 0 1 1 -7.692 9.969l-21.037-16.23v11.246a6.294 6.294 0 1 1 -12.587 0v-44zm48.993 84.28-12.1 16.978-12.1-16.978a6.3 6.3 0 0 0 -10.251 7.316l16.052 22.511v22.15a6.294 6.294 0 1 0 12.587 0v-22.15l16.067-22.511a6.3 6.3 0 0 0 -10.256-7.316zm-82.607 34.76a23.556 23.556 0 0 1 -23.521 23.522h-17.235a6.3 6.3 0 0 1 -6.3-6.3v-48.322a6.3 6.3 0 0 1 6.3-6.3h17.24a23.559 23.559 0 0 1 23.521 23.536v13.864zm-40.556 121.236c94.922 0 172.138-77.217 172.138-172.138s-77.213-172.138-172.138-172.138-172.136 77.221-172.136 172.14 77.222 172.136 172.136 172.136z"/><path d="m209.514 287.884a5.792 5.792 0 0 0 -5.781-5.791h-16.092v11.572h16.092a5.787 5.787 0 0 0 5.781-5.781z"/><path d="m256.359 204.882-2.044 5.132h4.093z"/></g></svg>