<svg id="Layer_1" enable-background="new 0 0 512 512" height="512" viewBox="0 0 512 512" width="512" xmlns="http://www.w3.org/2000/svg"><g clip-rule="evenodd" fill-rule="evenodd"><path d="m381.931 375.067h-324.425c-15.489 0-28.123-12.633-28.123-28.122v-246.999c0-15.49 12.634-28.122 28.123-28.122h324.426c8.266 0 15.38 3.169 20.908 9.315l89.313 99.288c11.463 12.744 19.847 25.879 19.847 43.019s-8.387 30.275-19.848 43.018l-89.313 99.288c-5.527 6.145-12.642 9.315-20.908 9.315z" fill="#373c41"/><path d="m352.549 440.176h-324.426c-15.489 0-28.123-12.633-28.123-28.122v-246.999c0-15.489 12.634-28.122 28.123-28.122h324.426c8.266 0 15.381 3.169 20.908 9.315l89.313 99.288c11.464 12.744 19.848 25.879 19.848 43.018 0 17.14-8.387 30.275-19.848 43.018l-89.313 99.288c-5.528 6.146-12.643 9.316-20.908 9.316z" fill="#4b5055"/><path d="m352.549 440.176h-324.426c-15.489 0-28.123-12.634-28.123-28.122v-123.5h482.617c0 17.14-8.387 30.275-19.848 43.018l-89.312 99.289c-5.528 6.145-12.643 9.315-20.908 9.315z" fill="#373c41"/><ellipse cx="422.127" cy="288.554" fill="#f7f9fa" rx="22.733" ry="22.733" transform="matrix(.23 -.973 .973 .23 44.307 633.093)"/><path d="m444.86 288.554c0 12.554-10.179 22.733-22.733 22.733s-22.733-10.179-22.733-22.733z" fill="#e3e3e3"/><path d="m52.345 223.308h28.425c.359 0 .691-.153.937-.399.245-.246.398-.578.398-.936v-20.411c0-.359-.153-.691-.399-.937s-.578-.398-.936-.398h-28.425zm132.381 50.37c-1.39 4.329-6.026 6.712-10.355 5.323-4.329-1.39-6.712-6.026-5.323-10.355l7.49-23.348c.102-.439.24-.865.408-1.274l17.506-54.571c1.389-4.329 6.026-6.712 10.355-5.323 2.651.851 4.572 2.92 5.344 5.39l17.484 54.506c.169.408.306.833.408 1.271l7.49 23.35c1.389 4.329-.994 8.965-5.323 10.355s-8.965-.993-10.355-5.323l-5.853-18.246h-23.425zm17.565-54.757-6.415 19.996h12.829zm127.582 52.241c0 4.56-3.697 8.258-8.258 8.258-4.56 0-8.258-3.698-8.258-8.258v-79.194c0-4.561 3.697-8.258 8.258-8.258s8.258 3.697 8.258 8.258v24.872l32.341-30.84c3.296-3.135 8.51-3.005 11.645.29 3.135 3.296 3.005 8.51-.29 11.645l-25.33 24.155 26.717 44.845c2.334 3.901 1.063 8.956-2.839 11.29-3.901 2.334-8.956 1.063-11.29-2.839l-24.809-41.642-6.144 5.859v31.559zm-41.883-22.182c0-4.561 3.697-8.258 8.258-8.258s8.258 3.697 8.258 8.258v12.59c0 4.917-2.006 9.382-5.237 12.614-3.231 3.231-7.696 5.237-12.614 5.237h-27.09c-4.918 0-9.382-2.006-12.614-5.237s-5.238-7.696-5.238-12.614v-60.008c0-4.918 2.006-9.383 5.238-12.614 3.231-3.231 7.696-5.237 12.614-5.237h27.09c4.917 0 9.382 2.006 12.614 5.237 3.231 3.232 5.237 7.697 5.237 12.614v12.59c0 4.56-3.697 8.258-8.258 8.258s-8.258-3.698-8.258-8.258v-12.59c0-.359-.153-.691-.398-.937-.246-.246-.578-.398-.936-.398h-27.09c-.358 0-.69.153-.936.398-.246.246-.399.578-.399.937v60.008c0 .358.153.69.399.936s.578.399.936.399h27.09c.358 0 .69-.153.936-.399s.398-.578.398-.936zm-134.924 13.924c4.561 0 8.258 3.698 8.258 8.258s-3.697 8.258-8.258 8.258h-38.881c-4.561 0-8.258-3.698-8.258-8.258v-79.194c0-4.561 3.697-8.258 8.258-8.258s8.258 3.697 8.258 8.258v70.936zm-72.296-23.08h-28.425v23.08h28.425c.359 0 .691-.153.936-.399.246-.246.399-.578.399-.936v-20.411c0-.359-.153-.691-.399-.936-.246-.246-.577-.398-.936-.398zm15.044-8.259c1.776 2.773 2.807 6.067 2.807 9.593v20.411c0 4.918-2.006 9.383-5.237 12.614s-7.696 5.237-12.614 5.237h-36.683c-4.561 0-8.258-3.698-8.258-8.258v-79.194c0-4.561 3.697-8.258 8.258-8.258h36.683c4.918 0 9.383 2.006 12.614 5.237 3.232 3.231 5.237 7.696 5.237 12.614v20.411c0 3.527-1.032 6.82-2.807 9.593z" fill="#f7f9fa"/><path d="m52.345 385.14c0 4.56-3.697 8.258-8.258 8.258s-8.258-3.697-8.258-8.258v-79.194c0-4.561 3.697-8.258 8.258-8.258h46.276c4.561 0 8.258 3.697 8.258 8.258s-3.697 8.258-8.258 8.258h-38.018v23.081h23.229c4.561 0 8.258 3.697 8.258 8.258s-3.698 8.258-8.258 8.258h-23.229zm225.417 2.516c-1.39 4.329-6.026 6.712-10.355 5.323s-6.712-6.026-5.323-10.355l7.491-23.352c.102-.437.238-.86.406-1.267l17.507-54.575c1.39-4.329 6.026-6.712 10.355-5.323 2.651.851 4.572 2.92 5.344 5.39l17.484 54.505c.169.408.306.833.408 1.271l7.49 23.35c1.39 4.329-.993 8.965-5.322 10.355s-8.965-.993-10.355-5.323l-5.853-18.246h-23.425zm17.566-54.758-6.415 19.996h12.829zm57.683 52.242v-43.263l21.654-31.253c2.583-3.741 1.644-8.868-2.097-11.452-3.741-2.583-8.868-1.644-11.452 2.097l-16.364 23.618-16.364-23.618c-2.583-3.741-7.71-4.68-11.451-2.097s-4.68 7.711-2.097 11.452l21.654 31.253v43.263c0 4.56 3.698 8.258 8.258 8.258 4.561 0 8.259-3.698 8.259-8.258zm-146.537-87.452c-4.561 0-8.258 3.697-8.258 8.258v79.194c0 4.56 3.697 8.258 8.258 8.258h23.138c8.643 0 16.493-3.53 22.18-9.216 5.686-5.686 9.216-13.537 9.216-22.18v-32.919c0-8.642-3.53-16.493-9.216-22.18-5.686-5.686-13.537-9.216-22.18-9.216h-23.138zm23.138 16.516c4.083 0 7.802 1.677 10.502 4.377 2.7 2.701 4.377 6.419 4.377 10.502v32.919c0 4.083-1.677 7.802-4.377 10.502-2.701 2.7-6.419 4.377-10.502 4.377h-14.88v-62.678h14.88zm-37.887 70.936c0 4.56-3.697 8.258-8.258 8.258s-8.258-3.697-8.258-8.258v-79.194c0-4.561 3.697-8.258 8.258-8.258s8.258 3.697 8.258 8.258zm-85.799-79.194c0-4.561 3.697-8.258 8.258-8.258h36.683c4.918 0 9.382 2.006 12.614 5.237s5.237 7.696 5.237 12.614v20.411c0 4.918-2.006 9.383-5.237 12.614-3.049 3.048-7.195 5.006-11.784 5.218l15.892 27.197c2.298 3.937.969 8.992-2.968 11.29s-8.992.969-11.29-2.968l-20.744-35.5h-10.145v31.339c0 4.56-3.697 8.258-8.258 8.258s-8.258-3.697-8.258-8.258zm44.941 8.258h-28.425v23.081h28.425c.358 0 .691-.153.936-.398.246-.246.399-.579.399-.936v-20.411c0-.359-.153-.69-.399-.936-.245-.247-.577-.4-.936-.4z" fill="#ff415b"/></g></svg>