<svg height="512" viewBox="0 0 64 64" width="512" xmlns="http://www.w3.org/2000/svg"><g id="Layer_38" data-name="Layer 38"><path d="m57 40c0 13.81-11.19 21-25 21s-25-7.19-25-21c0-.32.01-.65.04-.98l3.96 1.98-.3-1.28a18.022 18.022 0 0 1 2.97-14.73c2.76-3.79 5.99-7.8 8.98-11.34l2.35 2.35v-.61a11.99 11.99 0 0 1 3.01-7.95c2.39-2.71 3.99-4.44 3.99-4.44s5.84 7.79 10.26 13.02a15.9 15.9 0 0 1 3.74 10.28v.7l3.08-3.52c4.92 4.52 7.92 11.34 7.92 16.52z" fill="#ff6243"/><path d="m39.26 16.02a15.9 15.9 0 0 1 3.74 10.28v.7l2.8-3.195a15.813 15.813 0 0 0 -3.54-7.785c-4.42-5.23-10.26-13.02-10.26-13.02s-.611.661-1.637 1.8c1.988 2.611 5.789 7.543 8.897 11.22z" fill="#ff5023"/><path d="m49.08 23.48-1.413 1.62c3.968 4.421 6.333 10.3 6.333 14.9 0 13.306-10.389 20.463-23.5 20.968.5.019 1 .032 1.5.032 13.81 0 25-7.19 25-21 0-5.18-3-12-7.92-16.52z" fill="#ff5023"/><path d="m48 41a16 16 0 0 1 -32 0c0-8.84 16-24 16-24s.68.65 1.77 1.75a7.982 7.982 0 0 1 2.28 5.91l-.05 1.34 2.51-2.1c4.43 5.16 9.49 12.13 9.49 17.1z" fill="#ed1c24"/><path d="m30.77 18.75a7.982 7.982 0 0 1 2.28 5.91l-.05 1.34 2.51-2.1c.178.208.359.423.539.636a7.98 7.98 0 0 0 -2.279-5.786c-1.09-1.1-1.77-1.75-1.77-1.75s-.572.542-1.5 1.48z" fill="#d80027"/><path d="m38.51 23.9-1.763 1.475c4.083 4.958 8.253 11.113 8.253 15.625a15.992 15.992 0 0 1 -14.5 15.924c.494.046.994.076 1.5.076a16 16 0 0 0 16-16c0-4.97-5.06-11.94-9.49-17.1z" fill="#d80027"/><g fill="#f1f2f2"><path d="m26.414 50.675a2 2 0 0 0 2.732-.732l9.172-15.886a2 2 0 0 0 -.732-2.732 2 2 0 0 0 -2.732.732l-9.172 15.886a2 2 0 0 0 .732 2.732z"/><circle cx="38" cy="47" r="3"/><circle cx="26" cy="35" r="3"/></g></g></svg>