<svg id="Flat_black" height="512" viewBox="0 0 64 64" width="512" xmlns="http://www.w3.org/2000/svg" data-name="Flat black"><path d="m6 12 6 8 34-11-6-3v-5z" fill="#fa412c"/><path d="m58 52-6-8-34 11 6 3v5z" fill="#fa412c"/><path d="m52 20-46 16 6 8 46-16z" fill="#fa412c"/><path d="m11.75 34-5.473 1.904-.229.096.127.233 5.825 7.767 28.75-10z" fill="#e6140a"/><path d="m23.25 30h29l5.75-2-6-8z" fill="#e6140a"/><path d="m42.909 10h-30.727l-6.182 2 6 8z" fill="#e6140a"/><path d="m52 44-30.909 10h30.727l6.182-2z" fill="#e6140a"/><path d="m6 12h52v16h-52z" fill="#444a5b"/><path d="m6 36h52v16h-52z" fill="#444a5b"/><g fill="#f9faff"><path d="m41 17a1 1 0 0 0 2 0 2.002 2.002 0 0 0 -2-2h-2a2.002 2.002 0 0 0 -2 2v6a2.002 2.002 0 0 0 2 2h2a2.002 2.002 0 0 0 2-2 1 1 0 0 0 -2 0h-2v-6z"/><path d="m16 15h-2a1 1 0 0 0 -1 1v8a1 1 0 0 0 1 1h2a2.9869 2.9869 0 0 0 2.22-5 2.9869 2.9869 0 0 0 -2.22-5zm-1 2h1a1 1 0 0 1 0 2h-1zm1 6h-1v-2h1a1 1 0 0 1 0 2z"/><path d="m26 23h-3v-7a1 1 0 0 0 -2 0v8a1 1 0 0 0 1 1h4a1 1 0 0 0 0-2z"/><path d="m48.08 20 2.7-3.3756a1 1 0 1 0 -1.5616-1.249l-2.2184 2.7746v-2.15a1 1 0 0 0 -2 0v8a1 1 0 0 0 2 0v-2.1494l2.2192 2.7739a1 1 0 0 0 1.5616-1.249z"/><path d="m33 15h-2a2.002 2.002 0 0 0 -2 2v7a1 1 0 0 0 2 0v-3h2v3a1 1 0 0 0 2 0v-7a2.002 2.002 0 0 0 -2-2zm-2 4v-2h2v2z"/><path d="m43 39h-2a2.0023 2.0023 0 0 0 -2 2v7a1 1 0 0 0 2 0v-3h2v3a1 1 0 0 0 2 0v-7a2.0023 2.0023 0 0 0 -2-2zm-2 4v-2h2v2z"/><path d="m28 39a1 1 0 0 0 -1 1v8a1 1 0 0 0 2 0v-8a1 1 0 0 0 -1-1z"/><path d="m34 39h-2a1 1 0 0 0 -1 1v8a1 1 0 0 0 1 1h2a3.0033 3.0033 0 0 0 3-3v-4a3.0033 3.0033 0 0 0 -3-3zm1 7a1.0009 1.0009 0 0 1 -1 1h-1v-6h1a1.0009 1.0009 0 0 1 1 1z"/><path d="m52.4471 39.1055a1.0018 1.0018 0 0 0 -1.3418.4472l-1.1053 2.211-1.1054-2.211a1 1 0 0 0 -1.7891.8946l1.8945 3.789v3.7637a1 1 0 0 0 2 0v-3.7637l1.8946-3.789a1 1 0 0 0 -.4475-1.3418z"/><path d="m16 41a1 1 0 0 0 0-2h-4a1 1 0 0 0 -1 1v8a1 1 0 0 0 2 0v-3h3a1 1 0 0 0 0-2h-3v-2z"/><path d="m25 42a3.0033 3.0033 0 0 0 -3-3h-2a1 1 0 0 0 -1 1v8a1 1 0 0 0 2 0v-1.5859l2.293 2.2929a1 1 0 0 0 1.414-1.414l-2.331-2.331a2.9941 2.9941 0 0 0 2.624-2.962zm-3 1h-1v-2h1a1 1 0 0 1 0 2z"/></g><path d="m6 28 1.5-2h48.5v-14h2v16z" fill="#323746"/><path d="m58 12h-52v16h2v-14h50z" fill="#555c6d"/><path d="m6 52h52v-16h-2v14h-50z" fill="#323746"/><path d="m8 38h48l2-2h-52v16h2z" fill="#555c6d"/></svg>