<svg id="Layer_1" viewBox="0 0 256 256" xmlns="http://www.w3.org/2000/svg" data-name="Layer 1"><g><path d="m244.83 120.09-126.77 126.77c-6.85 6.85-17.97 6.85-24.82 0l-84.1-84.09c-6.85-6.85-6.85-17.97 0-24.82l126.77-126.78c5.38-5.38 12.96-7.96 20.5-6.96l68.23 8.96c9.48 1.24 16.94 8.7 18.18 18.18l8.96 68.23c.99 7.55-1.58 15.12-6.96 20.5z" fill="#f45a56"/><g fill="#fffcee"><g><path d="m71.7 154.15-.65-.65c-3.07-3.07-7.15-4.51-11.18-4.36 0-.2.03-.39.03-.59 0-4-1.56-7.77-4.39-10.6l-.65-.65c-2.83-2.83-6.6-4.39-10.6-4.39s-7.77 1.56-10.6 4.39l-7.15 7.15c-1.56 1.56-1.56 4.09 0 5.66l16.2 16.2 16.2 16.2c.75.75 1.77 1.17 2.83 1.17s2.08-.42 2.83-1.17l7.15-7.15c5.85-5.85 5.85-15.36 0-21.2zm-32.4-11.19c1.32-1.32 3.08-2.05 4.94-2.05s3.62.73 4.95 2.05l.65.65c1.32 1.32 2.05 3.08 2.05 4.94s-.73 3.62-2.05 4.94l-4.32 4.32-10.54-10.54 4.32-4.32zm26.74 26.74-4.32 4.32-10.54-10.54 4.32-4.32s0 0 0 0c2.73-2.72 7.16-2.72 9.89 0l.65.65c2.73 2.73 2.73 7.16 0 9.89z"/><path d="m84.07 157.32c.78.78 1.81 1.17 2.83 1.17s2.05-.39 2.83-1.17l12.4-12.4c1.56-1.56 1.56-4.09 0-5.66-1.56-1.56-4.09-1.56-5.66 0l-9.57 9.57-29.57-29.57c-1.56-1.56-4.09-1.56-5.66 0-1.56 1.56-1.56 4.1 0 5.66z"/><path d="m104.46 135.52c.75 1.26 2.08 1.96 3.45 1.96.69 0 1.39-.18 2.03-.56 1.9-1.12 2.53-3.58 1.41-5.48l-3.51-5.94 8.74-8.74 5.94 3.51c1.9 1.12 4.35.49 5.48-1.41s.49-4.35-1.41-5.48l-40.72-24.07c-1.57-.93-3.57-.68-4.86.61s-1.54 3.29-.61 4.86l24.07 40.72zm5-22.95-5.83 5.83-8.43-14.26z"/><path d="m122.84 103.96c2.79 2.79 6.46 4.19 10.13 4.19s7.33-1.4 10.13-4.19c4.88-4.88 5.59-12.55 1.69-18.23-1.25-1.82-3.74-2.28-5.56-1.03s-2.28 3.74-1.03 5.56c1.72 2.5 1.41 5.89-.75 8.04-2.46 2.46-6.47 2.46-8.94 0l-17.8-17.8c-2.46-2.46-2.46-6.47 0-8.94 2.11-2.11 5.45-2.46 7.94-.81 1.84 1.22 4.33.71 5.54-1.13s.71-4.32-1.13-5.54c-5.65-3.73-13.22-2.96-18.01 1.83-5.58 5.58-5.58 14.67 0 20.25l17.8 17.8z"/><path d="m153.65 87.74c.78.78 1.8 1.17 2.83 1.17s2.05-.39 2.83-1.17c1.56-1.56 1.56-4.09 0-5.66l-9.38-9.38-1.16-5.38 20.74 7.04c.43.14.86.21 1.29.21 1.67 0 3.22-1.05 3.79-2.71.71-2.09-.41-4.36-2.5-5.07l-25.28-8.59-4.49-20.86c-.46-2.16-2.59-3.53-4.75-3.07s-3.53 2.59-3.07 4.75l5.01 23.24-12.59-12.59c-1.56-1.56-4.09-1.56-5.66 0-1.56 1.56-1.56 4.09 0 5.66l32.4 32.4z"/><path d="m158.86 127.58c-5.93-5.92-15.57-5.92-21.49 0l-5.39 5.39c-1.56 1.56-1.56 4.09 0 5.66l32.4 32.4c.78.78 1.8 1.17 2.83 1.17s2.05-.39 2.83-1.17l5.39-5.39s0 0 0 0c5.92-5.92 5.92-15.56 0-21.49l-16.56-16.56zm10.91 32.4-2.56 2.56-26.74-26.74 2.56-2.56c2.81-2.81 7.37-2.81 10.18 0l16.56 16.56c2.81 2.81 2.81 7.37 0 10.18z"/><path d="m126.03 144.58c-1.56-1.56-4.09-1.56-5.66 0-1.56 1.56-1.56 4.09 0 5.66l32.4 32.4c.78.78 1.8 1.17 2.83 1.17s2.05-.39 2.83-1.17c1.56-1.56 1.56-4.09 0-5.66z"/><path d="m98.18 210.48 7.28-7.28c1.56-1.56 1.56-4.09 0-5.66-1.56-1.56-4.09-1.56-5.66 0l-7.28 7.28-10.54-10.54 9.57-9.57c1.56-1.56 1.56-4.09 0-5.66s-4.09-1.56-5.66 0l-12.4 12.4c-.75.75-1.17 1.77-1.17 2.83s.42 2.08 1.17 2.83l32.4 32.4c.78.78 1.81 1.17 2.83 1.17s2.05-.39 2.83-1.17c1.56-1.56 1.56-4.09 0-5.66z"/><path d="m206.63 127.42-40.32-24.47c-1.57-.96-3.6-.71-4.9.59s-1.55 3.33-.59 4.9l24.47 40.32c.75 1.24 2.07 1.93 3.42 1.93.71 0 1.42-.19 2.07-.58 1.89-1.15 2.49-3.61 1.34-5.49l-3.55-5.84 8.06-8.06 5.85 3.55c1.89 1.15 4.35.54 5.49-1.34 1.15-1.89.54-4.35-1.34-5.49zm-22.33 4.31-8.17-13.46 13.46 8.17z"/><path d="m146.29 187.46-18.46-9.85c.25-1.1.4-2.24.4-3.4 0-4-1.56-7.77-4.39-10.6l-.65-.65c-2.83-2.83-6.6-4.39-10.6-4.39s-7.77 1.56-10.6 4.39l-7.15 7.15c-1.56 1.56-1.56 4.09 0 5.66l3.12 3.12 13.08 13.08 16.2 16.2c.78.78 1.8 1.17 2.83 1.17s2.05-.39 2.83-1.17c1.56-1.56 1.56-4.09 0-5.66l-13.37-13.37 4.32-4.32c.06-.06.11-.12.16-.18l18.52 9.88c.6.32 1.24.47 1.88.47 1.43 0 2.81-.77 3.53-2.12 1.04-1.95.3-4.37-1.65-5.41zm-42.68-14.23s0 0 0 0l-.29-.29 4.32-4.32c2.73-2.73 7.16-2.73 9.89 0l.65.65c1.32 1.32 2.05 3.08 2.05 4.94s-.73 3.62-2.05 4.94l-4.32 4.32-10.25-10.25z"/><path d="m219.53 115.86-15.49-15.49-7.26-23.88c-.64-2.11-2.88-3.31-4.99-2.66-2.11.64-3.31 2.88-2.66 4.99l5.37 17.67-17.67-5.37c-2.12-.64-4.35.55-4.99 2.66s.55 4.35 2.66 4.99l23.88 7.26 15.49 15.49c.78.78 1.8 1.17 2.83 1.17s2.05-.39 2.83-1.17c1.56-1.56 1.56-4.09 0-5.66z"/></g><circle cx="210.18" cy="45.82" r="11.74"/></g></g><g fill="#3f2706"><path d="m99.69 51.4c1.03 0 2.05-.39 2.83-1.18l2.74-2.75c1.56-1.56 1.55-4.1-.01-5.66s-4.1-1.56-5.66.01l-2.74 2.75c-1.56 1.56-1.55 4.1.01 5.66.78.78 1.8 1.17 2.82 1.17z"/><path d="m255.76 99.06-8.96-68.23c-1.47-11.26-10.37-20.15-21.63-21.63l-68.23-8.96c-8.73-1.14-17.64 1.88-23.86 8.1l-20.17 20.18c-1.56 1.56-1.56 4.1 0 5.66s4.1 1.56 5.66 0l20.17-20.18c4.47-4.47 10.88-6.65 17.16-5.82l68.23 8.96c7.67 1 13.73 7.06 14.73 14.73l8.96 68.23c.82 6.28-1.35 12.69-5.82 17.16l-126.78 126.77c-5.28 5.28-13.88 5.28-19.16 0l-84.09-84.09c-5.28-5.29-5.28-13.89 0-19.17l77.24-77.24c1.56-1.56 1.56-4.09 0-5.66-1.56-1.56-4.09-1.56-5.66 0l-77.24 77.25c-8.4 8.4-8.4 22.07 0 30.48l84.09 84.09c4.2 4.2 9.72 6.3 15.24 6.3s11.04-2.1 15.23-6.3l126.78-126.77c6.21-6.21 9.24-15.13 8.1-23.86z"/><path d="m221.31 56.95c2.97-2.97 4.61-6.93 4.61-11.13s-1.64-8.16-4.61-11.13c-2.97-2.97-6.93-4.61-11.13-4.61s-8.16 1.64-11.13 4.61-4.61 6.93-4.61 11.13 1.64 8.16 4.61 11.13 6.93 4.61 11.13 4.61 8.16-1.64 11.13-4.61zm-18.88-11.13c0-2.07.81-4.01 2.27-5.48s3.41-2.27 5.48-2.27 4.01.81 5.48 2.27t0 0c1.46 1.46 2.27 3.41 2.27 5.48s-.81 4.01-2.27 5.48-3.41 2.27-5.48 2.27-4.01-.81-5.48-2.27-2.27-3.41-2.27-5.48z"/></g></svg>