<svg height="512" viewBox="0 0 64 64" width="512" xmlns="http://www.w3.org/2000/svg"><g id="_04-Gift" data-name="04-Gift"><path d="m8 15h48v48h-48z" fill="#262626"/><path d="m52 15v44h-40v-44h-4v48h48v-48z" fill="#101012"/><path d="m16 7c5 0 11 8 11 8h-12a4 4 0 0 1 -4-4v-1a3 3 0 0 1 3-3z" fill="#ba2731"/><path d="m29 11v4h-2s-6-8-11-8h-2a3 3 0 0 0 -3 3v-3a6.009 6.009 0 0 1 6-6c9 0 12 9 12 9z" fill="#ba2731"/><path d="m35 11v4h-6v-4a2.006 2.006 0 0 1 2-2h2a2.006 2.006 0 0 1 2 2z" fill="#262626"/><path d="m53 10v1a4 4 0 0 1 -4 4h-12s6-8 11-8h2a3 3 0 0 1 3 3z" fill="#ba2731"/><path d="m51.24 2.76a5.944 5.944 0 0 1 1.76 4.24v3a3 3 0 0 0 -3-3h-2c-5 0-11 8-11 8h-2v-5s3-9 12-9a5.944 5.944 0 0 1 4.24 1.76z" fill="#ba2731"/><path d="m50 7h-2c-5 0-11 8-11 8h3.287c.713-2 3.781-4 6.338-4h1.75c1.453 0 2.625.34 2.625 2v1a4.5 4.5 0 0 1 -.041.468 3.982 3.982 0 0 0 2.041-3.468v-1a3 3 0 0 0 -3-3z" fill="#a31f28"/><path d="m14 7h2c5 0 11 8 11 8h-3.287c-.713-2-3.781-4-6.338-4h-1.75c-1.453 0-2.625.34-2.625 2v1a4.5 4.5 0 0 0 .041.468 3.982 3.982 0 0 1 -2.041-3.468v-1a3 3 0 0 1 3-3z" fill="#a31f28"/><path d="m52 4.5a3.45 3.45 0 0 0 -.183-1.065 5.958 5.958 0 0 0 -4.817-2.435 11.756 11.756 0 0 0 -8.968 4.048c-.008.108-.032.212-.032.322a4.355 4.355 0 0 0 4.086 4.357c1.845-1.494 3.954-2.727 5.914-2.727h2a3 3 0 0 1 .8.12 3.474 3.474 0 0 0 1.2-2.62z" fill="#aa222b"/><path d="m12 4.5a3.45 3.45 0 0 1 .183-1.065 5.958 5.958 0 0 1 4.817-2.435 11.756 11.756 0 0 1 8.968 4.048c.008.108.032.212.032.322a4.355 4.355 0 0 1 -4.086 4.357c-1.845-1.494-3.954-2.727-5.914-2.727h-2a3 3 0 0 0 -.8.12 3.474 3.474 0 0 1 -1.2-2.62z" fill="#aa222b"/><path d="m31 12v-2a1 1 0 0 1 1-1h-1a2.006 2.006 0 0 0 -2 2v4h6v-2h-3a1 1 0 0 1 -1-1z" fill="#101012"/><g fill="#fff"><path d="m18.528 56h-1.056a3.37 3.37 0 0 1 -3.472-3.248v-1.388h2v1.388a1.375 1.375 0 0 0 1.472 1.248h1.056a1.375 1.375 0 0 0 1.472-1.248 1.237 1.237 0 0 0 -.78-1.1l-3.268-1.486a3.254 3.254 0 0 1 -1.952-2.918 3.37 3.37 0 0 1 3.472-3.248h1.056a3.37 3.37 0 0 1 3.472 3.248v1.388h-2v-1.388a1.375 1.375 0 0 0 -1.472-1.248h-1.056a1.375 1.375 0 0 0 -1.472 1.248 1.237 1.237 0 0 0 .78 1.1l3.268 1.486a3.254 3.254 0 0 1 1.952 2.918 3.37 3.37 0 0 1 -3.472 3.248z"/><path d="m41 56h-6a1 1 0 0 1 -1-1v-11h2v10h5z"/><path d="m49 46v-2h-5a1 1 0 0 0 -1 1v10a1 1 0 0 0 1 1h5v-2h-4v-3h3v-2h-3v-3z"/><path d="m31.97 52.757-1.758-7.029a2.28 2.28 0 0 0 -4.424 0l-1.758 7.029a1 1 0 0 0 -.03.243v3h2v-2h4v2h2v-3a1 1 0 0 0 -.03-.243zm-4.242-6.544a.291.291 0 0 1 .544 0l1.447 5.787h-3.438z"/><path d="m20.5 28.5a1.988 1.988 0 0 0 -.691-1.5 1.992 1.992 0 0 0 -1.309-3.5h-3.5a.5.5 0 0 0 -.5.5v6a.5.5 0 0 0 .5.5h3.5a2 2 0 0 0 2-2zm-2 1h-3v-2h3a1 1 0 0 1 0 2zm0-3h-3v-2h3a1 1 0 0 1 0 2z"/><path d="m23.5 29.5v-6h-1v6.5a.5.5 0 0 0 .5.5h4v-1z"/><path d="m33.49 23.9a.5.5 0 0 0 -.49-.4h-3a.5.5 0 0 0 -.49.4l-1.01 5.1v1.5h1v-1h4v1h1l-.008-1.6zm-3.88 4.6.8-4h2.181l.808 4z"/><path d="m42.5 28h-1a1.5 1.5 0 0 1 -1.5 1.5h-1a1.5 1.5 0 0 1 -1.5-1.5v-2a1.5 1.5 0 0 1 1.5-1.5h1a1.5 1.5 0 0 1 1.5 1.5h1a2.5 2.5 0 0 0 -2.5-2.5h-1a2.5 2.5 0 0 0 -2.5 2.5v2a2.5 2.5 0 0 0 2.5 2.5h1a2.5 2.5 0 0 0 2.5-2.5z"/><path d="m49.3 29.6-3.467-2.6 3.467-2.6a.5.5 0 0 0 .2-.4v-.5h-1v.25l-3 2.25v-2.5h-1v7h1v-2.5l3 2.25v.25h1v-.5a.5.5 0 0 0 -.2-.4z"/><path d="m18 37.5v-1h-2.5v-2h3.5v-1h-4a.5.5 0 0 0 -.5.5v6.5h1v-3z"/><path d="m25.354 39.646-2.147-2.146h.293a2 2 0 0 0 0-4h-2.5a.5.5 0 0 0 -.5.5v6.5h1v-3h.293l2.707 2.707v.293h1v-.5a.5.5 0 0 0 -.146-.354zm-1.854-5.146a1 1 0 0 1 0 2h-2v-2"/><path d="m27.5 33.5h1v7h-1z"/><path d="m35.5 37a3.5 3.5 0 0 0 -3.5-3.5h-1a.5.5 0 0 0 -.5.5v6a.5.5 0 0 0 .5.5h1a3.5 3.5 0 0 0 3.5-3.5zm-3.5 2.5h-.5v-5h.5a2.5 2.5 0 0 1 0 5z"/><path d="m42.49 33.9a.5.5 0 0 0 -.49-.4h-3a.5.5 0 0 0 -.49.4l-1.01 5.1v1.5h1l-.005-1h4.005v1h1l-.008-1.6zm-3.88 4.6.8-4h2.181l.808 4z"/><path d="m49.447 34.224a.512.512 0 0 0 .053-.224v-.5h-1v.382l-1.5 3-1.5-3v-.382h-1v.5a.512.512 0 0 0 .053.224l1.947 3.894v2.382h1v-2.382z"/></g></g></svg>