<?xml version="1.0" encoding="UTF-8"?>
<svg xmlns="http://www.w3.org/2000/svg" viewBox="0 0 64 64" width="512" height="512"><g id="_04-Gift" data-name="04-Gift"><rect x="8" y="15" width="48" height="48" style="fill:#e14542"/><polygon points="52 15 52 59 12 59 12 15 8 15 8 63 56 63 56 15 52 15" style="fill:#ba2731"/><path d="M16,7c5,0,11,8,11,8H15a4,4,0,0,1-4-4V10a3,3,0,0,1,3-3Z" style="fill:#202024"/><path d="M29,11v4H27S21,7,16,7H14a3,3,0,0,0-3,3V7a6.009,6.009,0,0,1,6-6c9,0,12,9,12,9Z" style="fill:#313131"/><path d="M35,11v4H29V11a2.006,2.006,0,0,1,2-2h2A2.006,2.006,0,0,1,35,11Z" style="fill:#262626"/><path d="M53,10v1a4,4,0,0,1-4,4H37s6-8,11-8h2A3,3,0,0,1,53,10Z" style="fill:#202024"/><path d="M51.24,2.76A5.944,5.944,0,0,1,53,7v3a3,3,0,0,0-3-3H48c-5,0-11,8-11,8H35V10s3-9,12-9A5.944,5.944,0,0,1,51.24,2.76Z" style="fill:#313131"/><path d="M50,7H48c-5,0-11,8-11,8h3.287c.713-2,3.781-4,6.338-4h1.75C49.828,11,51,11.34,51,13v1a4.5,4.5,0,0,1-.041.468A3.982,3.982,0,0,0,53,11V10A3,3,0,0,0,50,7Z" style="fill:#101012"/><path d="M14,7h2c5,0,11,8,11,8H23.713c-.713-2-3.781-4-6.338-4h-1.75C14.172,11,13,11.34,13,13v1a4.5,4.5,0,0,0,.041.468A3.982,3.982,0,0,1,11,11V10A3,3,0,0,1,14,7Z" style="fill:#101012"/><path d="M52,4.5a3.45,3.45,0,0,0-.183-1.065A5.958,5.958,0,0,0,47,1a11.756,11.756,0,0,0-8.968,4.048c-.008.108-.032.212-.032.322h0a4.355,4.355,0,0,0,4.086,4.357C43.931,8.233,46.04,7,48,7h2a3,3,0,0,1,.8.12A3.474,3.474,0,0,0,52,4.5Z" style="fill:#424242"/><path d="M12,4.5a3.45,3.45,0,0,1,.183-1.065A5.958,5.958,0,0,1,17,1a11.756,11.756,0,0,1,8.968,4.048c.008.108.032.212.032.322h0a4.355,4.355,0,0,1-4.086,4.357C20.069,8.233,17.96,7,16,7H14a3,3,0,0,0-.8.12A3.474,3.474,0,0,1,12,4.5Z" style="fill:#424242"/><path d="M31,12V10a1,1,0,0,1,1-1H31a2.006,2.006,0,0,0-2,2v4h6V13H32A1,1,0,0,1,31,12Z" style="fill:#101012"/><rect x="7" y="22" width="2" height="2"/><path d="M56,14H52.974A4.948,4.948,0,0,0,54,11V7a7.008,7.008,0,0,0-7-7C39.476,0,35.827,5.862,34.578,8.459A2.979,2.979,0,0,0,33,8H31a2.979,2.979,0,0,0-1.578.459C28.173,5.862,24.524,0,17,0a7.008,7.008,0,0,0-7,7v4a4.948,4.948,0,0,0,1.026,3H8a1,1,0,0,0-1,1v5H9V16H55V62H9V26H7V63a1,1,0,0,0,1,1H56a1,1,0,0,0,1-1V15A1,1,0,0,0,56,14ZM17,2c7.651,0,10.575,7.029,11,8.173V14h-.511C26.163,12.328,20.823,6,16,6H14a3.953,3.953,0,0,0-1.953.531A4.99,4.99,0,0,1,17,2Zm-5,9V10a2,2,0,0,1,2-2h2c2.95,0,6.691,3.513,8.883,6H15A3,3,0,0,1,12,11Zm18,0a1,1,0,0,1,1-1h2a1,1,0,0,1,1,1v3H30Zm6,0v-.824C36.416,9.083,39.409,2,47,2a4.99,4.99,0,0,1,4.953,4.531A3.953,3.953,0,0,0,50,6H48c-4.823,0-10.163,6.328-11.489,8H36Zm3.117,3C41.309,11.513,45.05,8,48,8h2a2,2,0,0,1,2,2v1a3,3,0,0,1-3,3Z"/><path d="M18.5,23H15a1,1,0,0,0-1,1v6a1,1,0,0,0,1,1h3.5A2.5,2.5,0,0,0,21,28.5a2.471,2.471,0,0,0-.513-1.5A2.471,2.471,0,0,0,21,25.5,2.5,2.5,0,0,0,18.5,23ZM16,25h2.5a.5.5,0,0,1,0,1H16Zm2.5,4H16V28h2.5a.5.5,0,0,1,0,1Z"/><path d="M22,23v7a1,1,0,0,0,1,1h4V29H24V23Z"/><path d="M33.98,23.8A1,1,0,0,0,33,23H30a1,1,0,0,0-.98.8l-1,5A1,1,0,0,0,28,29v2h2V30h3v1h2V29a1,1,0,0,0-.02-.2Zm-1.8,1.2.6,3H30.22l.6-3Z"/><path d="M39,25h1a1,1,0,0,1,1,1h2a3,3,0,0,0-3-3H39a3,3,0,0,0-3,3v2a3,3,0,0,0,3,3h1a3,3,0,0,0,3-3H41a1,1,0,0,1-1,1H39a1,1,0,0,1-1-1V26A1,1,0,0,1,39,25Z"/><path d="M44,23v8h2V29l2,1.5V31h2V30a1,1,0,0,0-.4-.8L46.667,27,49.6,24.8A1,1,0,0,0,50,24V23H48v.5L46,25V23Z"/><path d="M14,41h2V38h2V36H16V35h3V33H15a1,1,0,0,0-1,1Z"/><path d="M20,34v7h2V38.414l2,2V41h2V40a1,1,0,0,0-.293-.707l-1.429-1.429A2.493,2.493,0,0,0,23.5,33H21A1,1,0,0,0,20,34Zm2,1h1.5a.5.5,0,0,1,0,1H22Z"/><rect x="27" y="33" width="2" height="8"/><path d="M32,33H31a1,1,0,0,0-1,1v6a1,1,0,0,0,1,1h1a4,4,0,0,0,0-8Zm0,6V35a2,2,0,0,1,0,4Z"/><path d="M42.98,33.8A1,1,0,0,0,42,33H39a1,1,0,0,0-.98.8l-1,5A1,1,0,0,0,37,39v2h2V40h3v1h2V39a1,1,0,0,0-.02-.2Zm-1.8,1.2.6,3H39.22l.6-3Z"/><path d="M44,34a1,1,0,0,0,.1.447L46,38.236V41h2V38.236l1.9-3.789A1,1,0,0,0,50,34V33H48v.764l-1,2-1-2V33H44Z"/><path d="M14,51.364v1.388A3.37,3.37,0,0,0,17.472,56h1.056A3.37,3.37,0,0,0,22,52.752a3.254,3.254,0,0,0-1.952-2.919L16.78,48.347a1.237,1.237,0,0,1-.78-1.1A1.375,1.375,0,0,1,17.472,46h1.056A1.375,1.375,0,0,1,20,47.248v1.388h2V47.248A3.37,3.37,0,0,0,18.528,44H17.472A3.37,3.37,0,0,0,14,47.248a3.254,3.254,0,0,0,1.952,2.919l3.268,1.486a1.237,1.237,0,0,1,.78,1.1A1.375,1.375,0,0,1,18.528,54H17.472A1.375,1.375,0,0,1,16,52.752V51.364Z"/><path d="M36,44H34V55a1,1,0,0,0,1,1h6V54H36Z"/><path d="M43,45V55a1,1,0,0,0,1,1h5V54H45V51h3V49H45V46h4V44H44A1,1,0,0,0,43,45Z"/><path d="M32,56V53a1,1,0,0,0-.03-.243l-1.758-7.029a2.28,2.28,0,0,0-4.424,0L24.03,52.757A1,1,0,0,0,24,53v3h2V54h4v2Zm-4.272-9.787a.291.291,0,0,1,.544,0L29.719,52H26.281Z"/></g></svg>
