<svg enable-background="new 0 0 64 64" height="512" viewBox="0 0 64 64" width="512" xmlns="http://www.w3.org/2000/svg"><g id="_x30_4_black_friday_sign"><g><g clip-rule="evenodd" fill-rule="evenodd"><path d="m61.0345 28.9252v-24.3084c0-1.438-1.1818-2.6168-2.627-2.6168h-52.8184c-1.4418 0-2.6236 1.1788-2.6236 2.6168v24.3083c0 1.438 1.1818 2.6168 2.6236 2.6168h21.6992 9.1704 21.9487c1.4453.0001 2.6271-1.1787 2.6271-2.6167z" fill="#fb3a82"/><path d="m36.4587 39.3682v-7.8262h-9.1704v6.2949c3.237-.1486 6.2869-.2593 7.4653 1.5314h1.7051z" fill="#808080"/><path d="m27.2917 62v-14.6777c1.8681-.6084 2.2354-3.1837 2.1904-4.2104.9184 2.762 3.4311 3.1526 5.1501 3.201 1.1194.0346 1.9027-.3699 1.6809-1.0336l-.0139-.0588-1.2269-5.1852c-.0797-.2454-.1872-.4667-.3189-.6672-1.1957-1.8148-4.3184-1.6766-7.6039-1.5245-1.9686.0899-4.308.2109-5.7081 1.4726l-4.2525 3.8302h-2.6617v16.3196h4.9249c1.9513 1.7528 4.6407 2.534 5.8399 2.534z" fill="#f9d5b4"/><path d="m37.0306 51.1871c-2.686-.0346-4.1-3.0005-2.3983-4.8741-1.719-.0484-4.2317-.439-5.1501-3.201.0451 1.0267-.3223 3.602-2.1904 4.2104v14.6776h8.862c-3.0499 0-3.2648-5.0297.8768-5.0297-4.0654 0-4.1971-5.8247 0-5.7832z" fill="#808080"/><path d="m40.9642 56.9703c3.691 0 3.8227-5.5102.1802-5.7833h-4.1139c-4.1971-.0415-4.0654 5.7833 0 5.7833z" fill="#e8bb97"/><path d="m41.6574 51.1871c3.8747 0 3.9579-5.9665-.2807-5.9665h-5.0774l.0139.0588c.2218.6637-.5615 1.0682-1.6809 1.0336-1.7017 1.8736-.2877 4.8395 2.3983 4.8741h4.1139z" fill="#e8bb97"/><path d="m14.5273 59.4661v-16.3196-.9748c0-.9437-.7729-1.718-1.7225-1.718h-5.4863c-.9462 0-1.7225.7743-1.7225 1.718v17.3913c0 .9437.7763 1.718 1.7225 1.718h5.4863c.9496 0 1.7225-.7743 1.7225-1.718z" fill="#fb3a82"/><path d="m14.5273 59.4661v-4.3418c0 .9472-.7729 1.718-1.7225 1.718h-5.4863c-.9462 0-1.7225-.7709-1.7225-1.718v4.4386c0 .9437.7763 1.718 1.7225 1.718h5.4863c.9496 0 1.7225-.7743 1.7225-1.718z" fill="#e21469"/><path d="m43.5913 52.9362c-.3778.9679-1.2581 1.725-2.6271 1.725h-3.9337c-1.4972 0-2.4572-.7882-2.8697-1.7803-.7209 1.7042.2703 4.0894 2.8697 4.0894h3.9337c2.3983 0 3.296-2.3299 2.6271-4.0341z" fill="#d8a373"/><path d="m41.1444 48.6671h-4.1139c-1.3343-.0173-2.3567-.757-2.835-1.7284-.9531 1.839.4298 4.2173 2.835 4.2484h4.1139.5129c2.4746 0 3.3999-2.4301 2.6479-4.1897-.4055.9472-1.2962 1.6696-2.6479 1.6696h-.5129z" fill="#d8a373"/><path d="m40.9642 56.9703h-3.9337c-4.1415 0-3.9267 5.0297-.8768 5.0297h4.2525c3.6287 0 3.0326-4.9121.558-5.0297z" fill="#e8bb97"/><path d="m40.4236 60.3027h-4.2525c-1.1125 0-1.8473-.6706-2.1315-1.5175-.5095 1.438.305 3.2148 2.1141 3.2148h4.2525c2.2216 0 2.8593-1.8425 2.4538-3.2978-.2877.8884-1.0571 1.6005-2.4364 1.6005z" fill="#d8a373"/><path d="m42.0837 39.3682h-5.625-1.7052c.1317.2005.2391.4217.3189.6672l1.2269 5.1852h.1871 4.8902c4.918 0 4.3669-5.8524.7071-5.8524z" fill="#e8bb97"/><path d="m40.5137 42.6591h-4.8209l.6065 2.5615h.1871 4.8902c3.6321 0 4.2837-3.1941 2.8974-4.8637.0763 1.5244-1.1922 2.3022-3.7603 2.3022z" fill="#d8a373"/><path d="m61.0345 4.6168c0-1.438-1.1818-2.6168-2.627-2.6168h-4.1659c1.4452 0 2.6236 1.1788 2.6236 2.6168v24.3083c0 1.438-1.1784 2.6168-2.6236 2.6168h4.1659c1.4452 0 2.6271-1.1788 2.6271-2.6168v-24.3083z" fill="#e21469"/><path d="m27.2917 62v-14.6777c1.8681-.6084 2.2354-3.1837 2.1904-4.2104-.402-.4321-.5441-.7259-.6966-1.2721-.2773-.9817-1.4244-1.158-1.4106.1556.0069.9022-.506 2.3714-1.5804 2.9521-1.064.5738-1.2615.6741-1.2615 2.0879v11.0826c0 .6568.1178 1.1615-.5441.999-1.1645-.2835-1.4036-.8919-2.6998-1.877-.7209-.5462-.4402-.4701-1.3759-.4701h-5.3858v2.6963h4.9249c1.9511 1.7526 4.6405 2.5338 5.8397 2.5338z" fill="#e8bb97"/><path d="m36.4587 39.3682v-7.8262h-4.9769v6.2949c1.4591.1556 2.6375.5669 3.2717 1.5314h1.7052z" fill="#676767"/><path d="m37.0306 51.1871c-2.4052-.0311-3.7881-2.4094-2.835-4.2484.1109-.2178.2565-.4252.4367-.6257-.9427-.0277-2.1245-.1556-3.1504-.7225v16.4095h4.6719c-1.8091 0-2.6236-1.7768-2.1141-3.2148.3466-.9852 1.3101-1.8148 2.991-1.8148-2.5993 0-3.5905-2.3852-2.8697-4.0894.4054-.9611 1.355-1.7078 2.8696-1.6939z" fill="#676767"/></g><g><path d="m40.7764 15.3716c-1.6914.0005-3.0918-.6982-3.917-1.979-.9141-1.418-.9297-3.3447-.0391-4.7949.9414-1.5342 2.6777-2.29 4.7529-2.0752.5498.0566.9492.5483.8926 1.0977-.0576.5488-.5635.9487-1.0977.8916-1.2998-.1313-2.3125.2676-2.8438 1.1323-.4971.8091-.4902 1.8799.0156 2.665.5303.8218 1.5303 1.1855 2.8057 1.0259.5664-.0708 1.0488.3198 1.1172.8677s-.3193 1.0479-.8672 1.1167c-.2802.0351-.5536.0522-.8192.0522z" fill="#e6e6e6"/></g><g><path d="m17.4629 11.915h-1.9131c-.5527 0-1-.4478-1-1v-3.4394c0-.5522.4473-1 1-1h1.9131c1.501 0 2.7227 1.2192 2.7227 2.7183-.0001 1.5004-1.2217 2.7211-2.7227 2.7211zm-.9131-2h.9131c.3916 0 .7227-.3301.7227-.7212 0-.3892-.3311-.7183-.7227-.7183h-.9131z" fill="#e6e6e6"/></g><g><path d="m18.2285 15.3511h-2.6787c-.5527 0-1-.4478-1-1v-3.436c0-.5522.4473-1 1-1h2.6787c1.501 0 2.7227 1.2192 2.7227 2.7183 0 1.4984-1.2217 2.7177-2.7227 2.7177zm-1.6787-2h1.6787c.3984 0 .7227-.3218.7227-.7178s-.3242-.7183-.7227-.7183h-1.6787z" fill="#e6e6e6"/></g><g><path d="m26.1338 15.3511h-2.7754c-.5527 0-1-.4478-1-1v-6.8755c0-.5522.4473-1 1-1s1 .4478 1 1v5.8755h1.7754c.5527 0 1 .4478 1 1s-.4473 1-1 1z" fill="#e6e6e6"/></g><g><path d="m29.1699 15.3516c-.123 0-.2471-.0229-.3682-.0708-.5137-.2031-.7646-.7842-.5615-1.2979l2.7207-6.8755c.2031-.5137.7852-.7637 1.2979-.5615.5137.2031.7646.7842.5615 1.2979l-2.7207 6.8755c-.1553.3925-.5322.6323-.9297.6323z" fill="#e6e6e6"/></g><g><path d="m34.6084 15.3516c-.3984 0-.7744-.2397-.9297-.6328l-2.7178-6.8755c-.2031-.5137.0488-1.0947.5625-1.2979.5098-.2002 1.0938.0483 1.2969.5625l2.7178 6.8755c.2031.5137-.0488 1.0947-.5625 1.2979-.1201.0473-.2442.0703-.3672.0703z" fill="#e6e6e6"/></g><g><path d="m34.168 14.2417h-4.5576c-.5527 0-1-.4478-1-1s.4473-1 1-1h4.5576c.5527 0 1 .4478 1 1s-.4473 1-1 1z" fill="#e6e6e6"/></g><g><path d="m45.2998 15.3511c-.5527 0-1-.4478-1-1v-6.8755c0-.5522.4473-1 1-1s1 .4478 1 1v6.8755c0 .5522-.4473 1-1 1z" fill="#e6e6e6"/></g><g><path d="m48.9883 15.3511c-.3477 0-.6846-.1807-.8691-.5039l-2.1768-3.8091c-.2744-.4795-.1074-1.0903.3721-1.3643.4785-.2749 1.0908-.1069 1.3643.3721l2.1768 3.8091c.2744.4795.1074 1.0903-.3721 1.3643-.1564.0893-.3272.1318-.4952.1318z" fill="#e6e6e6"/></g><g><path d="m45.2988 13.7852c-.1924 0-.3867-.0552-.5576-.1709-.458-.3081-.5791-.9297-.2705-1.3877l3.5771-5.3096c.3096-.4585.9307-.5801 1.3877-.2705.458.3081.5791.9297.2705 1.3877l-3.5771 5.3096c-.1924.2866-.5088.4414-.8301.4414z" fill="#e6e6e6"/></g><g><path d="m12.3506 26.5308c-.5527 0-1-.4478-1-1v-6.876c0-.5522.4473-1 1-1h3.3828c.5527 0 1 .4478 1 1s-.4473 1-1 1h-2.3828v5.876c0 .5522-.4473 1-1 1z" fill="#e6e6e6"/></g><g><path d="m15.1201 23.0947h-2.7695c-.5527 0-1-.4478-1-1s.4473-1 1-1h2.7695c.5527 0 1 .4478 1 1s-.4472 1-1 1z" fill="#e6e6e6"/></g><g><path d="m21.6563 23.0947h-1.9131c-.5527 0-1-.4478-1-1v-3.4399c0-.5522.4473-1 1-1h1.9131c1.501 0 2.7227 1.2192 2.7227 2.7183-.0001 1.5009-1.2218 2.7216-2.7227 2.7216zm-.9131-2h.9131c.3916 0 .7227-.3306.7227-.7217 0-.3892-.3311-.7183-.7227-.7183h-.9131z" fill="#e6e6e6"/></g><g><path d="m19.7432 26.5308c-.5527 0-1-.4478-1-1v-6.876c0-.5522.4473-1 1-1s1 .4478 1 1v6.876c0 .5522-.4473 1-1 1z" fill="#e6e6e6"/></g><g><path d="m23.5635 26.5308c-.3516 0-.6924-.1855-.875-.5146l-1.9063-3.436c-.2686-.4834-.0938-1.0918.3887-1.3599.4854-.2671 1.0918-.0933 1.3594.3892l1.9063 3.436c.2686.4834.0938 1.0918-.3887 1.3599-.1543.0848-.3204.1254-.4844.1254z" fill="#e6e6e6"/></g><g><path d="m28.04 26.5308c-.5527 0-1-.4478-1-1v-6.876c0-.5522.4473-1 1-1s1 .4478 1 1v6.876c0 .5522-.4472 1-1 1z" fill="#e6e6e6"/></g><g><path d="m34.5283 26.5308h-2.1143c-.5527 0-1-.4478-1-1v-6.876c0-.5522.4473-1 1-1h2.1143c1.7188 0 3.1172 1.3945 3.1172 3.1089v2.6582c0 1.7143-1.3984 3.1089-3.1172 3.1089zm-1.1142-2h1.1143c.6162 0 1.1172-.4976 1.1172-1.1089v-2.6582c0-.6113-.501-1.1089-1.1172-1.1089h-1.1143z" fill="#e6e6e6"/></g><g><path d="m39.7793 26.5313c-.123 0-.2471-.0229-.3672-.0703-.5137-.2031-.7656-.7842-.5625-1.2979l2.7168-6.876c.2031-.5142.7891-.7627 1.2969-.5625.5137.2031.7656.7842.5625 1.2979l-2.7168 6.876c-.1553.3925-.5313.6328-.9297.6328z" fill="#e6e6e6"/></g><g><path d="m45.2168 26.5313c-.3984 0-.7744-.2397-.9297-.6323l-2.7207-6.876c-.2031-.5137.0479-1.0947.5615-1.2979.5127-.2031 1.0947.0474 1.2979.5615l2.7207 6.876c.2031.5137-.0479 1.0947-.5615 1.2979-.1211.0478-.2452.0708-.3682.0708z" fill="#e6e6e6"/></g><g><path d="m49.792 26.5308c-.5527 0-1-.4478-1-1v-2.5928c0-.5522.4473-1 1-1s1 .4478 1 1v2.5928c0 .5522-.4473 1-1 1z" fill="#e6e6e6"/></g><g><path d="m49.793 24.1455c-.3574 0-.7031-.1919-.8828-.5293l-2.3955-4.4907c-.2607-.4873-.0762-1.0933.4111-1.353.4902-.2617 1.0938-.0752 1.3525.4116l2.3955 4.4907c.2607.4873.0762 1.0933-.4111 1.353-.1504.0801-.3115.1177-.4697.1177z" fill="#e6e6e6"/></g><g><path d="m49.791 24.1455c-.1582 0-.3193-.0376-.4697-.1177-.4873-.2598-.6719-.8657-.4121-1.353l2.3945-4.4907c.2607-.4868.8643-.6733 1.3535-.4116.4873.2598.6719.8657.4121 1.353l-2.3945 4.4907c-.1807.3374-.5264.5293-.8838.5293z" fill="#e6e6e6"/></g><g><path d="m8.0605 8.123h-.0068c-.5527 0-1-.4478-1-1s.4473-1 1-1 1.0039.4478 1.0039 1-.4443 1-.9971 1z" fill="#676767"/></g><g><path d="m8.0605 27.4189h-.0068c-.5527 0-1-.4478-1-1s.4473-1 1-1 1.0039.4478 1.0039 1-.4443 1-.9971 1z" fill="#676767"/></g><g><path d="m55.9434 8.123c-.5527 0-1.002-.4478-1.002-1s.4453-1 .998-1h.0039c.5527 0 1 .4478 1 1s-.4472 1-.9999 1z" fill="#676767"/></g><g><path d="m55.9434 27.4189c-.5527 0-1.002-.4478-1.002-1s.4453-1 .998-1h.0039c.5527 0 1 .4478 1 1s-.4472 1-.9999 1z" fill="#676767"/></g><g><path d="m44.7764 25.4209h-4.5576c-.5527 0-1-.4478-1-1s.4473-1 1-1h4.5576c.5527 0 1 .4478 1 1s-.4473 1-1 1z" fill="#e6e6e6"/></g></g></g></svg>