<svg id="Solid" height="512" viewBox="0 0 64 64" width="512" xmlns="http://www.w3.org/2000/svg"><path d="m60.617 56 3.276-6.553a1 1 0 0 0 -.893-1.447h-10v7a1 1 0 0 1 -.247.659l-7.3 8.341h17.547a1 1 0 0 0 .894-1.447z"/><path d="m44 56v6.624l5.796-6.624z"/><path d="m11 55v-7h-10a1 1 0 0 0 -.894 1.447l3.277 6.553-3.276 6.553a1 1 0 0 0 .893 1.447h17.547l-7.3-8.342a1 1 0 0 1 -.247-.658z"/><path d="m20 62.624v-6.624h-5.796z"/><path d="m23 27a1 1 0 0 0 -1-1h-1v2h1a1 1 0 0 0 1-1z"/><path d="m33 15a1 1 0 0 0 -2 0v1h2z"/><path d="m17 15a1 1 0 0 0 -1-1h-1v2h1a1 1 0 0 0 1-1z"/><path d="m17 19a1 1 0 0 0 -1-1h-1v2h1a1 1 0 0 0 1-1z"/><path d="m33 26v6h1a1 1 0 0 0 1-1v-4a1 1 0 0 0 -1-1z"/><path d="m41 27v1h2v-1a1 1 0 0 0 -2 0z"/><path d="m11 39a3 3 0 0 1 3-3h36a3 3 0 0 1 3 3v4.944a27 27 0 1 0 -42 0zm40.1-14.447a1 1 0 0 1 1.342-.447 1 1 0 0 1 .447 1.342l-4 8a1 1 0 0 1 -1.342.447 1 1 0 0 1 -.447-1.342l1.781-3.553-1.776-3.552a1 1 0 0 1 .447-1.342 1 1 0 0 1 1.342.447l1.106 2.211zm-6.1-11.553a1 1 0 0 1 2 0v2.7l2.168-3.252a1 1 0 0 1 1.664 1.109l-2.297 3.443 2.3 3.446a1 1 0 1 1 -1.664 1.109l-1.838-2.755-.333.5v1.7a1 1 0 0 1 -2 0zm0 14v6a1 1 0 0 1 -2 0v-3h-2v3a1 1 0 0 1 -2 0v-6a3 3 0 0 1 6 0zm-8-12a3 3 0 0 1 6 0 1 1 0 0 1 -2 0 1 1 0 0 0 -2 0v4a1 1 0 0 0 2 0 1 1 0 0 1 2 0 3 3 0 0 1 -6 0zm0 12v4a3 3 0 0 1 -3 3h-2a1 1 0 0 1 -1-1v-8a1 1 0 0 1 1-1h2a3 3 0 0 1 3 3zm-8-12a3 3 0 0 1 6 0v6a1 1 0 0 1 -2 0v-3h-2v3a1 1 0 0 1 -2 0zm-1 9a1 1 0 0 1 1 1v8a1 1 0 0 1 -2 0v-8a1 1 0 0 1 1-1zm-7-11a1 1 0 0 1 2 0v7h3a1 1 0 0 1 0 2h-4a1 1 0 0 1 -1-1zm-1 11h2a2.99 2.99 0 0 1 1.428 5.622l1.466 2.931a1 1 0 0 1 -.447 1.342 1 1 0 0 1 -1.342-.447l-1.724-3.448h-.381v3a1 1 0 0 1 -2 0v-8a1 1 0 0 1 1-1zm-7-11a1 1 0 0 1 1-1h2a2.986 2.986 0 0 1 2.219 5 2.986 2.986 0 0 1 -2.219 5h-2a1 1 0 0 1 -1-1zm-2 12a1 1 0 0 1 1-1h4a1 1 0 0 1 0 2h-3v2h3a1 1 0 0 1 0 2h-3v3a1 1 0 0 1 -2 0z"/><path d="m28 43a1 1 0 0 0 -1 1v1h2v-1a1 1 0 0 0 -1-1z"/><path d="m14 38a1 1 0 0 0 -1 1v15h38v-15a1 1 0 0 0 -1-1zm6 7a3 3 0 1 1 -3 3 1 1 0 0 1 2 0 1 1 0 1 0 1-1 3 3 0 1 1 3-3 1 1 0 0 1 -2 0 1 1 0 1 0 -1 1zm11 5a1 1 0 0 1 -2 0v-3h-2v3a1 1 0 0 1 -2 0v-6a3 3 0 0 1 6 0zm7 1h-4a1 1 0 0 1 -1-1v-8a1 1 0 0 1 2 0v7h3a1 1 0 0 1 0 2zm8-6a1 1 0 0 1 0 2h-3v2h3a1 1 0 0 1 0 2h-4a1 1 0 0 1 -1-1v-8a1 1 0 0 1 1-1h4a1 1 0 0 1 0 2h-3v2z"/></svg>