<svg id="Flat_black" height="512" viewBox="0 0 64 64" width="512" xmlns="http://www.w3.org/2000/svg" data-name="Flat black"><path d="m2.845 26.169h58.31v11.662h-58.31z" fill="#dfe4f0" transform="matrix(.858 -.515 .515 .858 -11.904 21.024)"/><path d="m30 40h-22.667l-3.333 2 6 10z" fill="#bec8d7"/><path d="m34 24h22.667l3.333-2-6-10z" fill="#bec8d7"/><path d="m40.4853 23.5147a12 12 0 1 0 -7.7209 20.4488l11.1991-11.199a11.959 11.959 0 0 0 -3.4782-9.2498z" fill="#e6140a"/><path d="m22 33a11.9787 11.9787 0 0 1 16.327-11.1829 11.9906 11.9906 0 1 0 -10.654 21.3658 11.98 11.98 0 0 1 -5.673-10.1829z" fill="#fa412c"/><path d="m27.999 39.9282a1 1 0 0 1 -.8652-1.5l8-13.8564a1 1 0 0 1 1.7324 1l-8 13.8564a1 1 0 0 1 -.8672.5z" fill="#f9faff"/><path d="m36 39a3 3 0 1 1 3-3 3.0033 3.0033 0 0 1 -3 3zm0-4a1 1 0 1 0 1 1 1.0013 1.0013 0 0 0 -1-1z" fill="#f9faff"/><path d="m28 31a3 3 0 1 1 3-3 3.0033 3.0033 0 0 1 -3 3zm0-4a1 1 0 1 0 1 1 1.0013 1.0013 0 0 0 -1-1z" fill="#f9faff"/><path d="m32.7644 43.9635 11.1991-11.199a11.9518 11.9518 0 0 0 -11.1991 11.199z" fill="#ff6546"/><path d="m60 6h-56l6 8-6 8h56z" fill="#444a5b"/><path d="m4 58h56l-6-8 6-8h-56z" fill="#444a5b"/><g fill="#f9faff"><path d="m43 11a1 1 0 0 0 2 0 2.002 2.002 0 0 0 -2-2h-2a2.002 2.002 0 0 0 -2 2v6a2.002 2.002 0 0 0 2 2h2a2.002 2.002 0 0 0 2-2 1 1 0 0 0 -2 0h-2v-6z"/><path d="m18 9h-2a1 1 0 0 0 -1 1v8a1 1 0 0 0 1 1h2a2.9869 2.9869 0 0 0 2.22-5 2.9869 2.9869 0 0 0 -2.22-5zm-1 2h1a1 1 0 0 1 0 2h-1zm1 6h-1v-2h1a1 1 0 0 1 0 2z"/><path d="m28 17h-3v-7a1 1 0 0 0 -2 0v8a1 1 0 0 0 1 1h4a1 1 0 0 0 0-2z"/><path d="m50.08 14 2.7-3.3756a1 1 0 0 0 -1.5616-1.249l-2.2184 2.7746v-2.15a1 1 0 0 0 -2 0v8a1 1 0 0 0 2 0v-2.1494l2.2192 2.7739a1 1 0 0 0 1.5616-1.249z"/><path d="m35 9h-2a2.002 2.002 0 0 0 -2 2v7a1 1 0 0 0 2 0v-3h2v3a1 1 0 0 0 2 0v-7a2.002 2.002 0 0 0 -2-2zm-2 4v-2h2v2z"/><path d="m41 45h-2a2.0023 2.0023 0 0 0 -2 2v7a1 1 0 0 0 2 0v-3h2v3a1 1 0 0 0 2 0v-7a2.0023 2.0023 0 0 0 -2-2zm-2 4v-2h2v2z"/><path d="m26 45a1 1 0 0 0 -1 1v8a1 1 0 0 0 2 0v-8a1 1 0 0 0 -1-1z"/><path d="m32 45h-2a1 1 0 0 0 -1 1v8a1 1 0 0 0 1 1h2a3.0033 3.0033 0 0 0 3-3v-4a3.0033 3.0033 0 0 0 -3-3zm1 7a1.0009 1.0009 0 0 1 -1 1h-1v-6h1a1.0009 1.0009 0 0 1 1 1z"/><path d="m50.4473 45.1055a1.0018 1.0018 0 0 0 -1.3418.4472l-1.1055 2.211-1.1055-2.211a1 1 0 0 0 -1.789.8946l1.8945 3.789v3.7637a1 1 0 0 0 2 0v-3.7637l1.8945-3.789a1 1 0 0 0 -.4472-1.3418z"/><path d="m14 47a1 1 0 0 0 0-2h-4a1 1 0 0 0 -1 1v8a1 1 0 0 0 2 0v-3h3a1 1 0 0 0 0-2h-3v-2z"/><path d="m23 48a3.0033 3.0033 0 0 0 -3-3h-2a1 1 0 0 0 -1 1v8a1 1 0 0 0 2 0v-1.5859l2.293 2.2929a1 1 0 0 0 1.414-1.414l-2.331-2.331a2.9941 2.9941 0 0 0 2.624-2.962zm-3 1h-1v-2h1a1 1 0 0 1 0 2z"/></g><path d="m4 22 1.5-2h52.5v-14h2v16z" fill="#323746"/><path d="m58 6h-54l6 8-6 8h2l6-8-4.5-6h50.5z" fill="#555c6d"/><path d="m4 58h56l-6-8 6-8h-2l-6 8 4.5 6h-52.5z" fill="#323746"/><path d="m6 44h52.5l1.5-2h-56v14h2z" fill="#555c6d"/></svg>