<svg id="icons" height="512" viewBox="0 0 60 60" width="512" xmlns="http://www.w3.org/2000/svg"><path d="m16.771 59.471a.5.5 0 0 1 -.26-.927l8.72-5.336-10.731 6.192a.5.5 0 0 1 -.512-.858l13.659-8.4-16.025 9.258a.5.5 0 0 1 -.516-.856l23.794-14.89-27.276 15.746a.5.5 0 0 1 -.51-.86l12.786-7.757-14.872 8.584a.5.5 0 0 1 -.508-.86l10.448-6.307-11.583 6.686a.5.5 0 0 1 -.507-.862l1.884-1.124-2.282 1.313a.5.5 0 0 1 -.511-.859l26.74-16.467-27.238 15.725a.5.5 0 0 1 -.512-.858l26.991-16.6-26.67 15.401a.5.5 0 0 1 -.508-.862l7.717-4.632-7.209 4.162a.5.5 0 0 1 -.511-.859l26.169-16.064-25.658 14.817a.5.5 0 0 1 -.509-.86l16.823-10.185-16.314 9.418a.5.5 0 0 1 -.511-.858l23.472-14.4-22.961 13.258a.5.5 0 0 1 -.512-.858l23.089-14.256-22.577 13.035a.5.5 0 0 1 -.514-.857l22.624-14.085-22.11 12.764a.5.5 0 0 1 -.51-.859l10.057-6.134-9.547 5.512a.5.5 0 0 1 -.514-.852l17.348-10.828-16.834 9.719a.5.5 0 0 1 -.51-.859l5.136-3.132-4.626 2.666a.5.5 0 0 1 -.516-.856l14.336-9.017-13.82 7.975a.5.5 0 0 1 -.513-.857l7.251-4.5-6.738 3.889a.5.5 0 0 1 -.521-.853l13.488-8.7-12.967 7.483a.5.5 0 0 1 -.523-.85l11.9-7.788-11.377 6.567a.5.5 0 0 1 -.519-.854l6.107-3.916-5.588 3.226a.5.5 0 0 1 -.519-.853l3.231-2.062-2.712 1.561a.5.5 0 0 1 -.526-.85l5.495-3.641-4.969 2.868a.5.5 0 0 1 -.536-.838l6.256-4.377-5.718 3.3a.5.5 0 0 1 -.551-.831l5.569-4.219-5.022 2.9a.5.5 0 0 1 -.535-.843l.406-.283a.5.5 0 0 1 -.449-.859l2.808-2.512-2.228 1.284a.5.5 0 0 1 -.633-.754l1.281-1.525-.648.373a.5.5 0 0 1 -.731-.567l.257-.921a.5.5 0 0 1 -.026-.88l.5-.289a.5.5 0 0 1 .732.567l-.171.611 2.044-1.175a.5.5 0 0 1 .633.754l-1.282 1.522 3.954-2.282a.5.5 0 0 1 .583.8l-2.807 2.517 5.749-3.319a.5.5 0 0 1 .536.843l-.22.152 1.727-1a.5.5 0 0 1 .552.831l-5.576 4.225 8.754-5.054a.5.5 0 0 1 .536.843l-6.255 4.375 9.039-5.219a.5.5 0 0 1 .674.169.5.5 0 0 1 -.148.681l-5.494 3.639 7.78-4.491a.5.5 0 0 1 .52.853l-3.231 2.066 5.059-2.92a.5.5 0 0 1 .519.853l-6.1 3.914 8.26-4.769a.5.5 0 0 1 .523.851l-11.9 7.793 14.972-8.645a.5.5 0 0 1 .522.853l-13.487 8.7 16.549-9.555a.5.5 0 0 1 .514.858l-7.24 4.492 9.27-5.352a.5.5 0 0 1 .517.856l-14.344 9.025 17.116-9.882a.5.5 0 0 1 .511.86l-5.123 3.127 6.91-3.989a.5.5 0 0 1 .515.857l-17.35 10.824 20.233-11.682a.5.5 0 0 1 .511.86l-10.057 6.133 12.116-7a.5.5 0 0 1 .514.858l-22.618 14.086 25.879-14.941a.5.5 0 0 1 .513.859l-23.084 14.251 26.171-15.112a.5.5 0 0 1 .511.859l-23.471 14.4 25.38-14.654a.5.5 0 0 1 .509.86l-16.847 10.2 16.338-9.433a.5.5 0 0 1 .511.858l-26.154 16.052 25.643-14.8a.5.5 0 0 1 .508.862l-7.755 4.655 7.247-4.184a.5.5 0 0 1 .511.859l-26.982 16.586 26.471-15.283a.5.5 0 0 1 .511.859l-26.74 16.467 26.229-15.142a.5.5 0 0 1 .507.861l-1.856 1.112 1.349-.779a.5.5 0 0 1 .509.861l-10.458 6.313 9.949-5.743a.5.5 0 0 1 .509.86l-12.791 7.766 12.282-7.091a.5.5 0 0 1 .515.856l-23.788 14.888 23.273-13.436a.5.5 0 0 1 .511.858l-13.657 8.394 13.146-7.59a.5.5 0 0 1 .51.859l-8.739 5.347 8.229-4.75a.5.5 0 0 1 .509.859l-3.566 2.173 3.057-1.765a.5.5 0 0 1 .511.859l-6.716 4.13 6.206-3.583a.5.5 0 0 1 .513.857l-8.361 5.195 7.848-4.531a.5.5 0 0 1 .513.858l-4.952 3.066 4.439-2.562a.5.5 0 0 1 .514.856l-5.911 3.7 5.4-3.115a.5.5 0 0 1 .515.857l-3.829 2.394 3.311-1.923a.5.5 0 0 1 .521.852l-8.095 5.233 7.574-4.372a.5.5 0 0 1 .526.849l-8.117 5.38 7.591-4.381a.5.5 0 0 1 .521.852l-2.794 1.809 2.273-1.312a.5.5 0 0 1 .526.85l-3.453 2.293 2.927-1.69a.5.5 0 0 1 .547.835l-5.916 4.36 5.369-3.1a.5.5 0 0 1 .559.825l-4.164 3.281 3.6-2.08a.5.5 0 0 1 .593.8l-2.777 2.626 2.08-1.2a.5.5 0 0 1 .608.782l-1.036 1.056a.5.5 0 0 1 .089.906l-2.303 1.332a.5.5 0 0 1 -.608-.782l.591-.6-2.6 1.5a.5.5 0 0 1 -.594-.8l2.776-2.625-5.928 3.421a.5.5 0 0 1 -.559-.825l4.165-3.275-7.113 4.1a.5.5 0 0 1 -.547-.835l5.913-4.358-8.998 5.193a.5.5 0 0 1 -.527-.849l3.452-2.292-5.442 3.141a.5.5 0 0 1 -.521-.852l2.8-1.81-4.617 2.662a.5.5 0 0 1 -.526-.849l8.116-5.38-10.79 6.229a.5.5 0 0 1 -.521-.852l8.094-5.233-10.54 6.085a.5.5 0 0 1 -.515-.856l3.84-2.4-5.645 3.256a.5.5 0 0 1 -.515-.856l5.878-3.675-7.849 4.531a.5.5 0 0 1 -.514-.857l4.959-3.07-6.8 3.927a.5.5 0 0 1 -.513-.857l8.375-5.2-10.496 6.057a.5.5 0 0 1 -.511-.858l6.688-4.112-8.609 4.97a.5.5 0 0 1 -.51-.859l3.6-2.19-5.288 3.049a.5.5 0 0 1 -.25.071z" fill="#cad0d7"/><path d="m2.768 16.5a.5.5 0 0 1 -.286-.911l5.841-4.045-7.043 4.064a.5.5 0 0 1 -.527-.848l2.3-1.537-1.773 1.026a.5.5 0 0 1 -.539-.841l3.68-2.608-3.141 1.809a.5.5 0 0 1 -.54-.839l1.5-1.071-.964.556a.5.5 0 0 1 -.592-.8l3.016-2.817-2.349 1.355a.5.5 0 0 1 -.617-.773l1.166-1.247a.5.5 0 0 1 -.173-.927l2.304-1.332a.5.5 0 0 1 .616.773l-.9.971 3.219-1.858a.5.5 0 0 1 .592.8l-3.012 2.815 6.266-3.615a.5.5 0 0 1 .541.84l-1.5 1.067 3.3-1.907a.5.5 0 0 1 .539.84l-3.676 2.612 5.984-3.452a.5.5 0 0 1 .527.848l-2.3 1.533 4.126-2.381a.5.5 0 0 1 .535.843l-5.843 4.045 8.472-4.888a.5.5 0 0 1 .53.846l-4.709 3.19 7-4.038a.5.5 0 0 1 .538.84l-6.576 4.637 9.492-5.475a.5.5 0 0 1 .536.842l-6.142 4.285 8.885-5.127a.5.5 0 0 1 .543.838l-7.274 5.262 10.568-6.1a.5.5 0 0 1 .541.839l-7.008 5.019 10.148-5.858a.5.5 0 0 1 .524.85l-2 1.31 3.745-2.16a.5.5 0 0 1 .524.851l-1.28.834 2.919-1.685a.5.5 0 0 1 .539.841l-6.56 4.624 9.477-5.465a.5.5 0 0 1 .533.844l-5.459 3.749 7.963-4.6a.5.5 0 0 1 .537.841l-6.251 4.379 9.037-5.213a.5.5 0 0 1 .534.844l-5.571 3.839 7.864-4.54a.5.5 0 0 1 .544.837l-7.146 5.191 8.52-4.921a.5.5 0 0 1 .535.842l-4.15 2.885 4.407-2.544a.5.5 0 0 1 .537.842l-2.765 1.937 2.539-1.466a.5.5 0 0 1 .568.818l-4.09 3.372 3.566-2.057a.5.5 0 0 1 .56.824l-1.028.814.473-.273a.5.5 0 0 1 .6.793l-.889.856.3-.172a.5.5 0 0 1 .7.64l-.42.924a.5.5 0 0 1 .222.931l-1.016.587a.5.5 0 0 1 -.7-.639l.363-.8-2.494 1.436a.5.5 0 0 1 -.6-.793l.887-.855-2.858 1.65a.5.5 0 0 1 -.56-.825l1.03-.814-2.843 1.64a.5.5 0 0 1 -.568-.818l4.09-3.373-7.264 4.193a.5.5 0 0 1 -.537-.842l2.759-1.932-4.804 2.779a.5.5 0 0 1 -.535-.843l4.154-2.887-6.466 3.732a.5.5 0 0 1 -.544-.837l7.146-5.19-10.444 6.029a.5.5 0 0 1 -.534-.845l5.578-3.842-8.122 4.688a.5.5 0 0 1 -.537-.842l6.248-4.373-9.037 5.217a.5.5 0 0 1 -.533-.845l5.454-3.749-7.96 4.596a.5.5 0 0 1 -.538-.841l6.557-4.629-9.478 5.472a.5.5 0 0 1 -.523-.852l1.282-.835-2.924 1.688a.5.5 0 0 1 -.524-.851l2-1.31-3.752 2.162a.5.5 0 0 1 -.541-.839l7.007-5.019-10.149 5.86a.5.5 0 0 1 -.543-.838l7.275-5.265-10.569 6.105a.5.5 0 0 1 -.536-.843l6.143-4.284-8.887 5.129a.5.5 0 0 1 -.538-.841l6.568-4.638-9.493 5.481a.5.5 0 0 1 -.53-.847l4.71-3.192-7 4.04a.5.5 0 0 1 -.249.068z" fill="#eb5463"/><g id="icons-2" fill="#262626" data-name="icons"><path d="m59.521 7.541c-1.01-2.914-4.922-3.493-8.8-3.464v-3.271c0-.232-1.448-.028-1.448.388v2.919c-2.329.095-4.511.335-5.871.335h-2.678v-3.642c0-.212-1.448-.014-1.448.388v3.254h-8.552v-3.642c0-.2-1.448 0-1.448.388v3.254h-8.55v-3.532c0-.631-1.452-.338-1.452.168v3.364h-8.539v-3.498c0-.777-1.47-.577-1.47.1v3.371c-1.908-.085-4.16-.311-5.856.334-4.384 1.666-3.145 7.621-3.145 11.294v36.019c0 2.335-.368 5.009 1.818 6.59 1.68 1.216 4.074.894 6.03.894h41.941c4.99 0 9.519.2 9.683-6.118.237-9.158 0-18.354 0-27.516v-9.675c0-2.659.67-6.143-.215-8.702zm-54.41-1.989a11.22 11.22 0 0 1 4.154-.118v3.616c0 .777 1.47.577 1.47-.1v-3.412c.138.006.281.014.406.014h8.133v3.532c0 .631 1.452.338 1.452-.168v-3.364h8.55v3.642c0 .2 1.448 0 1.448-.388v-3.254h8.552v3.642c0 .212 1.448.014 1.448-.388v-3.254h8.362.19v3.642c0 .232 1.448.028 1.448-.388v-3.32a16.277 16.277 0 0 1 4.152.066c4.371.927 3.482 6.525 3.4 10.1h-56.545c-.055-3.606-1.014-8.531 3.38-10.1zm53.153 49.48c-1.079 4.217-4.3 3.416-7.191 3.416h-37.629c-2.452 0-5.324.413-7.749 0-4.087-.7-3.959-3.551-3.959-6.768v-35.335h56.528v32.791c0 1.764.441 4.175 0 5.896z"/><path d="m27.72 33.892q.383-1.79.767-3.58h2.957l.832 3.882c.087.41 1.543.054 1.448-.388l-3-14c-.09-.423-1.371-.037-1.444.3l-3 14c-.095.446 1.348.215 1.44-.214zm3.59-4.2h-2.689l1.344-6.275q.672 3.133 1.345 6.271z"/><path d="m23.678 34.029c.119-.3-.1-.463-.4-.463h-3.546v-13.627c0-.735-1.464-.5-1.464.122v14a.385.385 0 0 0 .026.1c0 .011.006.019.008.03.107.344.606.4.991.246h3.431c.287-.003.828-.096.954-.408z"/><path d="m27.715 39.4c.265 0 .844-.1.958-.391s-.095-.407-.388-.407h-1.816a1.093 1.093 0 0 0 -.56 0h-1.624c-.265 0-.844.1-.958.391s.095.407.388.407h1.559v13.092h-1.2c-.81 0-1.126 1.016-.14 1.016h4c.81 0 1.126-1.016.14-1.016h-1.348v-13.092z"/><path d="m43.271 39.073-3 14c-.135.631 1.336.424 1.458-.146l.762-3.553h2.966l.819 3.82c.125.586 1.578.217 1.448-.388l-3-14c-.124-.601-1.356-.189-1.453.267zm-.62 9.553 1.323-6.173 1.326 6.173z"/><path d="m15.646 31.088c.614-2.878-1.346-3.888-3.546-4.233a3.586 3.586 0 0 0 2.583-3.12c.4-3.381-2.8-4.059-5.377-4.059-.262 0-1.029.155-1.029.518v14c0 .1.167.133.382.126h.037c2.638.004 6.245.074 6.95-3.232zm-2.406-7.747c.222 2.133-1.676 3.18-3.516 3.318v-6.276c1.729.183 3.302.898 3.516 2.958zm-3.516 10.332v-6.332c2.2.081 4.575.566 4.552 3.353-.023 2.655-2.54 2.951-4.552 2.979z"/><path d="m37.406 40.883c-.949-2.228-3.061-2.385-5.133-2.393a.986.986 0 0 0 -.109 0h-.1a1.21 1.21 0 0 0 -.187.029.9.9 0 0 0 -.111.027c-.273.09-.5.271-.5.515v14c0 .372.354.452.664.452 1.989 0 3.952-.124 5.148-1.982 1-1.56.64-3.841.64-5.59.001-1.528.312-3.592-.312-5.058zm-1.152 8.541a3.823 3.823 0 0 1 -3.521 3.02v-12.9c3.749.357 3.521 3.315 3.521 6.512a19.381 19.381 0 0 1 0 3.368z"/><path d="m36.581 32.513c.971 2.049 3.225 1.881 5.133 1.881.522 0 1.545-.788.572-.788-2.185 0-4.213-.175-4.562-2.8a25.136 25.136 0 0 1 0-3.189c0-1.417-.047-2.843 0-4.26.079-2.326 2.033-2.963 3.99-2.963.522 0 1.545-.788.572-.788-1.853 0-3.879-.162-5.2 1.413-1.146 1.361-.806 3.444-.806 5.1-.004 1.829-.516 4.671.301 6.394z"/><path d="m46.728 33.923v-6.537l4.6 6.9c.273.409 1.679-.07 1.344-.572-1.855-2.782-3.558-5.772-5.608-8.411a4.319 4.319 0 0 0 -.307-.369.049.049 0 0 0 .068-.011 10.649 10.649 0 0 1 1.913-1.594l3.844-3.2c.639-.533-.8-.558-1.164-.25l-4.69 3.908v-3.86c0-.665-1.456-.388-1.456.154v14c0 .661 1.456.384 1.456-.158z"/><path d="m54.307 38.917c-.7 1.173-1.653 2.393-2.313 3.671l-2.27-3.782c-.232-.387-1.594.145-1.448.388l3 5a.245.245 0 0 0 .083.065c-.032.138-.073.274-.093.414-.388 2.678 0 5.67 0 8.382 0 .757 1.468.542 1.468-.11 0-2.671-.176-5.4 0-8.064.132-2 1.866-3.976 2.959-5.8.413-.687-1.059-.709-1.386-.164z"/><path d="m11.465 38.688h-5c-.28 0-1.189.1-1.189.506v14c0 .268 1.448.053 1.448-.388v-8.258h3.216c.84 0 1.1-1.1.12-1.1h-3.336v-4.14h3.811c.329.004 1.646-.62.93-.62z"/><path d="m20.684 41.758c.48-3.313-3.231-3.222-5.417-3.222-.267 0-1 .131-1 .538v14c0 .677 1.458.407 1.458-.148v-6.111l3.6 6.485c.266.48 1.667 0 1.336-.6l-4.561-8.231c2.012-.021 4.235-.305 4.584-2.711zm-4.955 1.777v-4.1c1.407-.047 3.079 0 3.457 1.6.559 2.365-1.768 2.495-3.457 2.5z"/></g></svg>