<svg id="Layer_1" enable-background="new 0 0 512 512" height="512" viewBox="0 0 512 512" width="512" xmlns="http://www.w3.org/2000/svg"><g><path d="m510.367 313.459c-2.561-5.027-7.726-8.193-13.367-8.193h-49.267v-81.4c0-6.497-4.183-12.255-10.361-14.265-6.179-2.008-12.947.188-16.77 5.442l-128.532 176.732c-3.319 4.562-3.797 10.602-1.237 15.63s7.725 8.194 13.367 8.194h49.267v81.4c0 6.497 4.183 12.255 10.361 14.265 6.179 2.008 12.947-.188 16.77-5.442l128.533-176.733c3.318-4.563 3.796-10.602 1.236-15.63z" fill="#ffef00"/><path d="m43.117 213.562c7.232 0 13.117 6.119 13.117 13.639 0 8.284 6.716 15 15 15s15-6.716 15-15c0-24.062-19.342-43.639-43.117-43.639s-43.117 19.576-43.117 43.639c0 17.942 9.536 34.637 24.884 43.569l21.373 12.445c6.154 3.582 9.977 10.342 9.977 17.643 0 7.525-5.884 13.647-13.117 13.647s-13.117-6.122-13.117-13.647c0-8.284-6.716-15-15-15s-15 6.716-15 15c0 24.067 19.342 43.647 43.117 43.647s43.117-19.58 43.117-43.647c0-17.942-9.536-34.637-24.884-43.569l-21.373-12.445c-6.154-3.582-9.977-10.343-9.977-17.643 0-7.521 5.884-13.639 13.117-13.639z" fill="#27325d"/><path d="m147.55 183.562c-23.774 0-43.117 19.342-43.117 43.117v101.621c0 8.284 6.716 15 15 15s15-6.716 15-15v-32.133c0-7.232 5.884-13.117 13.117-13.117s13.117 5.884 13.117 13.117v32.133c0 8.284 6.716 15 15 15s15-6.716 15-15v-101.622c0-23.774-19.343-43.116-43.117-43.116zm0 69.488c-4.573 0-8.978.722-13.117 2.047v-28.418c0-7.232 5.884-13.117 13.117-13.117s13.117 5.884 13.117 13.117v28.418c-4.139-1.326-8.545-2.047-13.117-2.047z" fill="#27325d"/><path d="m260.338 313.3h-13.438v-113.533c0-8.284-6.716-15-15-15s-15 6.716-15 15v128.533c0 8.284 6.716 15 15 15h28.438c8.284 0 15-6.716 15-15s-6.716-15-15-15z" fill="#27325d"/><path d="m336.333 313.3h-17.133v-34.267h9.1c8.284 0 15-6.716 15-15s-6.716-15-15-15h-9.1v-34.267h17.133c8.284 0 15-6.716 15-15s-6.716-15-15-15h-32.133c-8.284 0-15 6.716-15 15v128.534c0 8.284 6.716 15 15 15h32.133c8.284 0 15-6.716 15-15s-6.716-15-15-15z" fill="#27325d"/><g fill="#ffc900"><path d="m300.184 30c7.232 0 13.116 6.118 13.116 13.639 0 8.284 6.716 15 15 15s15-6.716 15-15c0-24.063-19.342-43.639-43.116-43.639s-43.117 19.576-43.117 43.639c0 17.941 9.536 34.637 24.885 43.569l21.372 12.446c6.153 3.582 9.977 10.342 9.977 17.643 0 7.525-5.884 13.647-13.116 13.647s-13.117-6.122-13.117-13.647c0-8.284-6.716-15-15-15s-15 6.716-15 15c0 24.067 19.343 43.647 43.117 43.647s43.116-19.58 43.116-43.647c0-17.942-9.536-34.637-24.884-43.569l-21.372-12.446c-6.154-3.582-9.978-10.342-9.978-17.643-.001-7.521 5.884-13.639 13.117-13.639z"/><path d="m195.75 0c-23.774 0-43.117 19.342-43.117 43.117v101.622c0 8.284 6.716 15 15 15s15-6.716 15-15v-32.133c0-7.232 5.884-13.117 13.117-13.117s13.117 5.884 13.117 13.117v32.133c0 8.284 6.716 15 15 15s15-6.716 15-15v-101.622c0-23.775-19.343-43.117-43.117-43.117zm0 69.488c-4.573 0-8.978.722-13.117 2.047v-28.418c0-7.232 5.884-13.117 13.117-13.117s13.117 5.884 13.117 13.117v28.418c-4.139-1.325-8.544-2.047-13.117-2.047z"/><path d="m123.771 129.738h-13.438v-113.533c0-8.284-6.716-15-15-15s-15 6.716-15 15v128.533c0 8.284 6.716 15 15 15h28.438c8.284 0 15-6.716 15-15s-6.716-15-15-15z"/><path d="m55.167 1.205h-40.167c-8.284 0-15 6.716-15 15v128.533c0 8.284 6.716 15 15 15s15-6.716 15-15v-32.133c0-9.447 7.686-17.133 17.133-17.133 8.284 0 15-6.716 15-15s-6.716-15-15-15c-6.044 0-11.819 1.156-17.133 3.238v-37.505h25.167c8.284 0 15-6.716 15-15s-6.716-15-15-15z"/><path d="m432.733 1.205c-8.284 0-15 6.716-15 15v49.267h-26.233v-49.267c0-8.284-6.716-15-15-15s-15 6.716-15 15v128.533c0 8.284 6.716 15 15 15s15-6.716 15-15v-49.266h26.233v49.267c0 8.284 6.716 15 15 15s15-6.716 15-15v-128.534c0-8.284-6.715-15-15-15z"/></g><path d="m497 305.266h-49.267v-81.4c0-6.497-4.183-12.255-10.361-14.265-6.179-2.008-12.947.188-16.77 5.442l-20.002 27.504v235.772l108.531-149.23c3.318-4.563 3.796-10.602 1.236-15.629-2.56-5.028-7.725-8.194-13.367-8.194z" fill="#ffc900"/><path d="m46.256 283.215c6.154 3.582 9.977 10.342 9.977 17.643 0 7.525-5.884 13.647-13.117 13.647s-13.116-6.122-13.116-13.647c0-8.284-6.716-15-15-15s-15 6.716-15 15c0 24.067 19.342 43.647 43.117 43.647s43.117-19.58 43.117-43.647c0-14.108-5.915-27.426-15.896-36.825h-54.434c2.711 2.551 5.703 4.83 8.98 6.737z" fill="#0f2341"/><path d="m119.433 343.3c8.284 0 15-6.716 15-15v-32.133c0-7.232 5.884-13.117 13.117-13.117s13.117 5.884 13.117 13.117v32.133c0 8.284 6.716 15 15 15s15-6.716 15-15v-64.267h-86.233v64.267c-.001 8.284 6.715 15 14.999 15z" fill="#0f2341"/><path d="m231.9 343.3h28.438c8.284 0 15-6.716 15-15s-6.716-15-15-15h-13.438v-49.267h-30v64.267c0 8.284 6.716 15 15 15z" fill="#0f2341"/><path d="m304.2 343.3h32.133c8.284 0 15-6.716 15-15s-6.716-15-15-15h-17.133v-34.267h9.1c8.284 0 15-6.716 15-15h-54.1v64.267c0 8.284 6.716 15 15 15z" fill="#0f2341"/><g fill="#ffa300"><path d="m303.323 99.654c6.153 3.582 9.977 10.342 9.977 17.643 0 7.525-5.884 13.647-13.116 13.647s-13.117-6.122-13.117-13.647c0-8.284-6.716-15-15-15s-15 6.716-15 15c0 24.067 19.343 43.647 43.117 43.647s43.116-19.58 43.116-43.647c0-14.108-5.915-27.426-15.896-36.825h-54.433c2.711 2.551 5.703 4.83 8.98 6.736z"/><path d="m167.633 159.738c8.284 0 15-6.716 15-15v-32.133c0-7.232 5.884-13.117 13.117-13.117s13.117 5.884 13.117 13.117v32.133c0 8.284 6.716 15 15 15s15-6.716 15-15v-64.266h-86.233v64.267c-.001 8.283 6.715 14.999 14.999 14.999z"/><path d="m95.333 159.738h28.438c8.284 0 15-6.716 15-15s-6.716-15-15-15h-13.438v-49.266h-30v64.267c0 8.283 6.716 14.999 15 14.999z"/><path d="m15 159.738c8.284 0 15-6.716 15-15v-32.133c0-9.447 7.686-17.133 17.133-17.133 8.284 0 15-6.716 15-15h-62.133v64.267c0 8.283 6.716 14.999 15 14.999z"/><path d="m376.5 159.738c8.284 0 15-6.716 15-15v-49.266h26.233v49.267c0 8.284 6.716 15 15 15s15-6.716 15-15v-64.267h-86.233v64.267c0 8.283 6.716 14.999 15 14.999z"/></g></g></svg>