<?xml version="1.0" encoding="iso-8859-1"?>
<!-- Generator: Adobe Illustrator 19.0.0, SVG Export Plug-In . SVG Version: 6.00 Build 0)  -->
<svg version="1.1" id="Capa_1" xmlns="http://www.w3.org/2000/svg" xmlns:xlink="http://www.w3.org/1999/xlink" x="0px" y="0px"
	 viewBox="0 0 512.001 512.001" style="enable-background:new 0 0 512.001 512.001;" xml:space="preserve">
<circle style="fill:#47D4FF;" cx="252.93" cy="59.061" r="21.766"/>
<path style="fill:#FFDC47;" d="M475.389,474.704H36.611c-14.675,0-26.572-11.897-26.572-26.572V249.873
	c0-14.675,11.897-26.572,26.572-26.572h438.778c14.675,0,26.572,11.897,26.572,26.572v198.259
	C501.961,462.808,490.064,474.704,475.389,474.704z"/>
<path d="M475.285,213.263h-4.369L284.347,54.1c-2.391-15.188-15.566-26.841-31.415-26.841c-15.85,0-29.025,11.653-31.416,26.841
	L34.894,213.309C15.492,214.262,0,230.344,0,249.977v198.051c0,20.244,16.471,36.715,36.715,36.715h438.571
	c20.244,0,36.715-16.471,36.715-36.715V249.977C512,229.733,495.529,213.263,475.285,213.263z M252.932,90.87
	c11.139,0,20.952-5.761,26.635-14.455l160.411,136.848H65.885L226.296,76.415C231.979,85.109,241.793,90.87,252.932,90.87z
	 M252.932,47.337c6.466,0,11.726,5.261,11.726,11.727c0,6.467-5.261,11.727-11.726,11.727c-6.467,0-11.727-5.261-11.727-11.727
	C241.205,52.598,246.466,47.337,252.932,47.337z M491.922,448.028c0,9.174-7.463,16.636-16.636,16.636H36.715
	c-9.174,0-16.636-7.463-16.636-16.636V249.977c0-9.173,7.463-16.636,16.636-16.636h438.571c9.174,0,16.636,7.463,16.636,16.636
	V448.028z"/>
<circle cx="48.621" cy="262.241" r="10.327"/>
<circle cx="48.621" cy="439.861" r="10.327"/>
<circle cx="466.85" cy="262.241" r="10.327"/>
<circle cx="466.85" cy="439.861" r="10.327"/>
<path d="M142.875,375.604c0-24.19-51.768-16.772-51.768-54.993c0-24.029,20.643-32.254,39.188-32.254
	c9.516,0,30.643,2.258,30.643,12.902c0,3.709-2.581,11.127-8.387,11.127c-5,0-8.709-6.129-22.256-6.129
	c-11.611,0-18.223,4.678-18.223,12.418c0,19.998,51.768,13.063,51.768,54.832c0,23.063-16.127,34.996-38.383,34.996
	c-21.126,0-37.253-10.645-37.253-19.998c0-4.516,4.192-11.289,9.192-11.289c6.611,0,10.967,12.418,27.416,12.418
	C134.488,389.634,142.875,385.28,142.875,375.604z"/>
<path d="M169.965,398.343c0-0.322,0.161-0.968,0.322-1.613l31.125-101.438c1.451-4.838,7.418-7.096,13.386-7.096
	c6.128,0,12.095,2.258,13.546,7.096L259.47,396.73c0.161,0.646,0.322,1.129,0.322,1.613c0,5-7.579,8.709-13.224,8.709
	c-3.549,0-6.29-1.129-7.096-4.193l-6.129-21.449h-36.931l-6.128,21.449c-0.807,3.064-3.549,4.193-7.096,4.193
	C177.545,407.052,169.965,403.503,169.965,398.343z M228.828,364.96l-14.03-49.51l-14.03,49.51H228.828z"/>
<path d="M280.11,407.052c-4.677,0-9.192-2.258-9.192-6.613V295.614c0-4.516,5.16-6.451,10.482-6.451
	c5.16,0,10.482,1.936,10.482,6.451v93.053h39.35c4.193,0,6.29,4.516,6.29,9.191c0,4.516-2.097,9.193-6.29,9.193L280.11,407.052
	L280.11,407.052z"/>
<path d="M369.936,339.802h24.514c4.193,0,6.611,4.031,6.611,8.386c0,3.71-2.096,8.063-6.611,8.063h-24.514v32.416h45.64
	c4.192,0,6.612,4.354,6.612,9.354c0,4.354-2.097,9.031-6.612,9.031h-57.412c-4.677,0-9.192-2.258-9.192-6.613V295.774
	c0-4.354,4.516-6.611,9.192-6.611h57.412c4.516,0,6.612,4.677,6.612,9.031c0,4.999-2.42,9.354-6.612,9.354h-45.64L369.936,339.802
	L369.936,339.802z"/>
<g>
</g>
<g>
</g>
<g>
</g>
<g>
</g>
<g>
</g>
<g>
</g>
<g>
</g>
<g>
</g>
<g>
</g>
<g>
</g>
<g>
</g>
<g>
</g>
<g>
</g>
<g>
</g>
<g>
</g>
</svg>
