<svg height="512" viewBox="0 0 58 58" width="512" xmlns="http://www.w3.org/2000/svg"><g id="Page-1" fill="none" fill-rule="evenodd"><g id="009---Flash-Sale" fill-rule="nonzero"><path id="Shape" d="m32.91 34 11.73-10.23c.3263262-.2703406.446828-.7170088.3007484-1.1147946-.1460795-.3977858-.5270188-.660309-.9507484-.6552054h-12.86c-.3275731.003142-.635914-.1543573-.8253763-.4215989s-.2360188-.6103343-.1246237-.9184011l7.05-19.32c.1107754-.3063999.0653389-.64755549-.1217679-.9142822-.1871068-.2667267-.4924222-.4255792-.8182321-.4257178h-24.96c-.4236174.00168758-.8002085.27010888-.94.67l-10.33 29c-.106695.305198-.05925277.643149.12735077.9071731.18660355.2640242.48934135.4215407.81264923.4228269h11.19c.3283415-.0010679.6362875.1591168.8239096.4285741s.2310123.6138511.1160904.9214259l-9.06 24.3c-.15448513.4247248-.00489633.9002753.36491336 1.1600783s.86790972.2392744 1.21508664-.0500783l10.16-8.86z" fill="#f0c419"/><path id="Shape" d="m25.27 34h30.73c1.1045695 0 2 .8954305 2 2v20c0 1.1045695-.8954305 2-2 2h-30.73c-1.1860669-.0007909-2.3106207-.5279026-3.07-1.439l-7.736-9.281c-.6176669-.7415621-.6176669-1.8184379 0-2.56l7.736-9.281c.7593793-.9110974 1.8839331-1.4382091 3.07-1.439z" fill="#e64c3c"/><g fill="#ecf0f1"><path id="Shape" d="m28 41c1.1045695 0 2 .8954305 2 2 0 .5522847.4477153 1 1 1s1-.4477153 1-1c0-2.209139-1.790861-4-4-4s-4 1.790861-4 4 1.790861 4 4 4c1.1045695 0 2 .8954305 2 2s-.8954305 2-2 2-2-.8954305-2-2c0-.5522847-.4477153-1-1-1s-1 .4477153-1 1c0 2.209139 1.790861 4 4 4s4-1.790861 4-4-1.790861-4-4-4c-1.1045695 0-2-.8954305-2-2s.8954305-2 2-2z"/><path id="Shape" d="m37 39c-2.209139 0-4 1.790861-4 4v9c0 .5522847.4477153 1 1 1s1-.4477153 1-1v-5h4v5c0 .5522847.4477153 1 1 1s1-.4477153 1-1v-9c0-2.209139-1.790861-4-4-4zm2 6h-4v-2c0-1.1045695.8954305-2 2-2s2 .8954305 2 2z"/><path id="Shape" d="m47 51h-3v-11c0-.5522847-.4477153-1-1-1s-1 .4477153-1 1v12c0 .5522847.4477153 1 1 1h4c.5522847 0 1-.4477153 1-1s-.4477153-1-1-1z"/><path id="Shape" d="m54 51h-3v-4h2c.5522847 0 1-.4477153 1-1s-.4477153-1-1-1h-2v-4h3c.5522847 0 1-.4477153 1-1s-.4477153-1-1-1h-4c-.5522847 0-1 .4477153-1 1v12c0 .5522847.4477153 1 1 1h4c.5522847 0 1-.4477153 1-1s-.4477153-1-1-1z"/></g><circle id="Oval" cx="20" cy="46" fill="#c03a2b" r="1"/></g></g></svg>