<svg id="Layer_1" enable-background="new 0 0 500 500" height="512" viewBox="0 0 500 500" width="512" xmlns="http://www.w3.org/2000/svg"><path d="m263.465 21.646c11.491-7.252 26.547-5.088 35.529 5.108 7.052 8.005 18.078 11.243 28.339 8.321 13.068-3.721 26.905 2.598 32.65 14.911 4.511 9.668 14.178 15.88 24.846 15.968 13.587.111 25.083 10.072 27.127 23.506 1.605 10.547 9.13 19.232 19.341 22.321 13.006 3.935 21.229 16.731 19.406 30.196-1.432 10.572 3.342 21.025 12.269 26.866 11.37 7.44 15.656 22.034 10.113 34.44-4.352 9.74-2.717 21.115 4.203 29.234 8.814 10.342 8.814 25.552 0 35.894-6.92 8.12-8.555 19.494-4.203 29.234 5.543 12.406 1.258 27.001-10.113 34.44-8.927 5.841-13.701 16.294-12.269 26.866 1.824 13.465-6.4 26.261-19.406 30.196-10.211 3.089-17.737 11.774-19.341 22.321-2.044 13.433-13.54 23.394-27.127 23.506-10.668.087-20.335 6.3-24.846 15.968-5.746 12.313-19.582 18.632-32.65 14.911-10.26-2.922-21.286.316-28.339 8.321-8.982 10.196-24.038 12.361-35.529 5.108-9.022-5.694-20.513-5.694-29.535 0-11.491 7.252-26.547 5.087-35.529-5.108-7.052-8.005-18.078-11.243-28.339-8.321-13.068 3.721-26.905-2.598-32.65-14.911-4.511-9.668-14.178-15.88-24.846-15.968-13.587-.111-25.083-10.072-27.127-23.506-1.605-10.547-9.13-19.232-19.341-22.321-13.006-3.935-21.229-16.731-19.406-30.196 1.432-10.572-3.342-21.025-12.269-26.866-11.37-7.44-15.656-22.034-10.113-34.44 4.352-9.74 2.717-21.115-4.203-29.234-8.814-10.342-8.814-25.553 0-35.894 6.92-8.12 8.555-19.494 4.203-29.234-5.543-12.406-1.258-27.001 10.113-34.44 8.927-5.841 13.701-16.294 12.269-26.866-1.824-13.465 6.4-26.261 19.406-30.196 10.211-3.089 17.737-11.774 19.341-22.321 2.044-13.433 13.54-23.394 27.127-23.506 10.668-.087 20.335-6.3 24.846-15.968 5.746-12.313 19.582-18.632 32.65-14.911 10.26 2.922 21.287-.316 28.339-8.321 8.982-10.196 24.038-12.36 35.529-5.108 9.022 5.694 20.513 5.694 29.535 0z" fill="#e91b24"/><g fill="#fff"><path d="m120.183 168.859v21.515h26.033v12.909h-26.033v25.818h-14.845v-73.15h46.687v12.909h-31.842z"/><path d="m204.089 215.977v13.124h-41.631v-73.15h14.845v60.026z"/><path d="m250.451 215.869h-25.601l-2.905 13.231h-14.845l16.459-73.15h28.184l16.459 73.15h-14.844zm-10.219-47.655h-5.164l-7.422 34.746h20.008z"/><path d="m277.991 227.81-3.873-.753 1.506-11.51c9.609 1.291 16.96 1.936 22.053 1.936 7.601 0 11.403-3.155 11.403-9.466 0-2.582-1.006-4.481-3.013-5.702-2.009-1.218-5.379-2.509-10.111-3.873-5.666-1.577-10.131-3.334-13.394-5.271-3.264-1.937-5.631-4.23-7.1-6.885-1.471-2.652-2.205-5.952-2.205-9.897 0-7.17 2.187-12.586 6.562-16.244 4.374-3.657 10.506-5.486 18.396-5.486 3.083 0 6.274.199 9.574.592 3.298.395 8.139 1.167 14.522 2.313l-1.184 11.726c-9.826-1.146-16.961-1.721-21.407-1.721-7.817 0-11.726 2.582-11.726 7.745 0 1.793.646 3.264 1.937 4.411 1.291 1.148 2.904 2.098 4.841 2.851s5.199 1.847 9.789 3.281c4.948 1.578 8.784 3.227 11.511 4.948 2.725 1.721 4.696 3.856 5.916 6.401 1.219 2.546 1.829 5.827 1.829 9.843 0 7.53-2.277 13.304-6.831 17.319-4.555 4.018-10.703 6.024-18.449 6.024-5.594 0-12.443-.861-20.546-2.582z"/><path d="m392.664 155.95v73.15h-14.846v-30.336h-27.216v30.336h-14.845v-73.15h14.845v29.906h27.216v-29.906z"/><path d="m141.321 342.81-3.873-.753 1.506-11.511c9.609 1.291 16.96 1.937 22.053 1.937 7.601 0 11.403-3.154 11.403-9.467 0-2.581-1.005-4.48-3.012-5.701-2.009-1.219-5.379-2.51-10.112-3.872-5.666-1.577-10.13-3.335-13.393-5.271-3.264-1.937-5.63-4.23-7.1-6.885-1.471-2.652-2.205-5.952-2.205-9.896 0-7.171 2.187-12.587 6.562-16.244 4.374-3.657 10.505-5.486 18.395-5.486 3.083 0 6.274.198 9.574.592 3.297.396 8.138 1.167 14.522 2.313l-1.184 11.726c-9.826-1.146-16.961-1.721-21.407-1.721-7.817 0-11.726 2.582-11.726 7.745 0 1.794.646 3.265 1.937 4.411 1.291 1.147 2.904 2.098 4.841 2.851 1.936.753 5.199 1.847 9.789 3.28 4.948 1.579 8.784 3.228 11.511 4.949 2.725 1.721 4.696 3.855 5.917 6.4 1.218 2.546 1.829 5.827 1.829 9.843 0 7.53-2.277 13.304-6.831 17.319-4.555 4.018-10.704 6.024-18.449 6.024-5.594-.001-12.444-.862-20.547-2.583z"/><path d="m235.448 330.869h-25.603l-2.905 13.231h-14.845l16.459-73.15h28.185l16.458 73.15h-14.845zm-10.22-47.655h-5.164l-7.422 34.746h20.009z"/><path d="m304.617 330.977v13.124h-41.631v-73.15h14.845v60.026z"/><path d="m328.604 283.859v17.104h26.033v12.693h-26.033v17.534h32.487v12.909h-47.332v-73.15h47.332v12.909h-32.487z"/></g></svg>