<svg id="Layer_1" height="512" viewBox="0 0 128 128" width="512" xmlns="http://www.w3.org/2000/svg" data-name="Layer 1"><path d="m104.013 45.875a.992.992 0 0 1 -.706-.292l-4.307-4.307a1 1 0 0 1 0-1.415l4.119-4.124a1.008 1.008 0 0 1 .707-.293.992.992 0 0 1 .706.292l4.312 4.307a1 1 0 0 1 0 1.415l-4.119 4.124a1.01 1.01 0 0 1 -.712.293z" fill="#f8b749"/><path d="m107.764 38.971-3.044 3.049a1.01 1.01 0 0 1 -.707.293.992.992 0 0 1 -.706-.292l-3.238-3.234-1.074 1.076a1 1 0 0 0 0 1.415l4.312 4.307a.992.992 0 0 0 .706.292 1.01 1.01 0 0 0 .707-.293l4.119-4.124a1 1 0 0 0 0-1.415z" fill="#f8a649"/><rect fill="#f8b749" height="7.928" rx="1" width="10.25" x="67.142" y="23.667"/><path d="m76.392 23.667h-.208v4.678a1 1 0 0 1 -1 1h-8.042v1.255a1 1 0 0 0 1 1h8.25a1 1 0 0 0 1-1v-5.933a1 1 0 0 0 -1-1z" fill="#f8a649"/><path d="m72.267 25.117a29.473 29.473 0 0 1 -8.981-1.409 2.934 2.934 0 0 1 -1.935-2.874v-4.5a2.934 2.934 0 0 1 1.935-2.874 29.338 29.338 0 0 1 17.962 0 2.935 2.935 0 0 1 1.936 2.874v4.5a2.935 2.935 0 0 1 -1.936 2.874 29.462 29.462 0 0 1 -8.981 1.409z" fill="#f9cc5a"/><path d="m81.247 13.458h-.016a3.32 3.32 0 0 1 .2 1.128v4.5a2.935 2.935 0 0 1 -1.931 2.872 29.462 29.462 0 0 1 -8.98 1.409 29.471 29.471 0 0 1 -8.965-1.4 2.767 2.767 0 0 0 1.734 1.745 29.473 29.473 0 0 0 8.981 1.409 29.462 29.462 0 0 0 8.98-1.409 2.935 2.935 0 0 0 1.936-2.874v-4.5a2.935 2.935 0 0 0 -1.939-2.88z" fill="#f8c150"/><path d="m72.267 115.949a42.833 42.833 0 1 1 42.833-42.833 42.882 42.882 0 0 1 -42.833 42.833z" fill="#f15550"/><path d="m30.734 75.366a44.079 44.079 0 0 1 57.417-42.017 42.807 42.807 0 0 0 -53.308 60.571 43.808 43.808 0 0 1 -4.109-18.554z" fill="#f77668"/><path d="m107.664 49.029a42.819 42.819 0 0 1 -73.129 44.341 42.821 42.821 0 1 0 73.129-44.34z" fill="#e94443"/><path d="m72.267 107.616a34.5 34.5 0 1 1 34.5-34.5 34.539 34.539 0 0 1 -34.5 34.5z" fill="#dae4e5"/><path d="m39.294 75.653a36.578 36.578 0 0 1 36.537-36.537c1.008 0 2 .052 2.991.133a34.475 34.475 0 0 0 -36.456 51.044 36.316 36.316 0 0 1 -3.072-14.64z" fill="#f4f5f6"/><path d="m97.763 49.9a34.48 34.48 0 0 1 -52.863 44.183 34.482 34.482 0 1 0 52.863-44.183z" fill="#aec7d5"/><path d="m70.31 92.575a.989.989 0 0 1 -.271-.039 1 1 0 0 1 -.721-1.044l1.233-14.963h-9.015a1 1 0 0 1 -.928-1.373l8.38-20.872a1 1 0 0 1 .929-.627h9.042a1 1 0 0 1 .919 1.395l-4.713 10.954h7.835a1 1 0 0 1 .889 1.458l-12.689 24.57a1 1 0 0 1 -.889.541z" fill="#349cbc"/><g fill="#348dbc"><path d="m70.594 76.529a1.386 1.386 0 0 0 -1.381-1.5h-8.554l-.051.127a1 1 0 0 0 .928 1.373z"/><path d="m73.355 66.006h1.812l4.711-10.954a1 1 0 0 0 -.919-1.395h-.293z"/><path d="m83.852 66.486a1.007 1.007 0 0 0 -.854-.48h-.3l-12.662 24.528a.992.992 0 0 1 -.681.512l-.037.446a1 1 0 0 0 .721 1.044.989.989 0 0 0 .271.039 1 1 0 0 0 .889-.541l12.687-24.569a1.006 1.006 0 0 0 -.034-.979z"/></g><path d="m74.267 45.658v1.5a2 2 0 0 1 -4 0v-1.5a2 2 0 0 1 4 0zm16 6.628-1.061 1.061a2 2 0 1 0 2.828 2.828l1.066-1.061a2 2 0 0 0 -2.828-2.828zm9.456 18.83h-1.5a2 2 0 0 0 0 4h1.5a2 2 0 1 0 0-4zm-7.687 18.942a2 2 0 0 0 -2.828 2.828l1.061 1.061a2 2 0 0 0 2.831-2.829zm-19.77 7.017a2 2 0 0 0 -2 2v1.5a2 2 0 1 0 4 0v-1.5a2 2 0 0 0 -1.999-2zm-19.766-7.017-1.061 1.061a2 2 0 1 0 2.828 2.828l1.061-1.061a2 2 0 0 0 -2.828-2.828zm-6.192-18.942h-1.5a2 2 0 0 0 0 4h1.5a2 2 0 0 0 0-4zm7.957-18.83a2 2 0 0 0 -2.828 2.828l1.063 1.061a2 2 0 0 0 2.828-2.828z" fill="#2b2468"/><path d="m14.6 31.533a2 2 0 0 1 2-2h4.084a2 2 0 1 1 0 4h-4.084a2 2 0 0 1 -2-2zm32.333-2h-18.25a2 2 0 0 0 0 4h18.25a2 2 0 0 0 0-4zm-12 9.125h-21.333a2 2 0 1 0 0 4h21.333a2 2 0 0 0 0-4zm-8 9.125h-8.333a2 2 0 1 0 0 4h8.333a2 2 0 0 0 0-4zm-3 9.125h-12.333a2 2 0 1 0 0 4h12.333a2 2 0 0 0 0-4z" fill="#f8c150"/><path d="m112.462 42.856a2.182 2.182 0 0 1 -1.01-.243 21.948 21.948 0 0 1 -9.5-9.488 2.425 2.425 0 0 1 .534-2.815l2.349-2.352a2.6 2.6 0 0 1 1.81-.78 2.168 2.168 0 0 1 1.006.242 21.951 21.951 0 0 1 9.5 9.489 2.427 2.427 0 0 1 -.534 2.816l-2.349 2.352a2.593 2.593 0 0 1 -1.806.779z" fill="#f9cc5a"/><path d="m117.152 36.908c-.241-.466-.5-.918-.772-1.363a2.539 2.539 0 0 1 -.763 2l-2.347 2.355a2.593 2.593 0 0 1 -1.808.78 2.182 2.182 0 0 1 -1.01-.243 21.926 21.926 0 0 1 -8.726-8.125 2.168 2.168 0 0 0 .228.815 21.948 21.948 0 0 0 9.5 9.488 2.182 2.182 0 0 0 1.01.243 2.593 2.593 0 0 0 1.808-.78l2.349-2.352a2.427 2.427 0 0 0 .531-2.818z" fill="#f8c150"/></svg>