<svg id="Layer_1" data-name="Layer 1" xmlns="http://www.w3.org/2000/svg" viewBox="0 0 40 40"><path d="M34.29,7.08H5.49a3.38,3.38,0,0,0-3.3,3.5v19.5a3.44,3.44,0,0,0,3.3,3.5h28.8a3.38,3.38,0,0,0,3.3-3.5V10.48A3.42,3.42,0,0,0,34.29,7.08ZM35.79,30a1.56,1.56,0,0,1-1.5,1.6H5.49A1.56,1.56,0,0,1,4,30V10.48a1.56,1.56,0,0,1,1.5-1.6h28.8a1.56,1.56,0,0,1,1.5,1.6Zm-1.5-19.2a.85.85,0,0,1,0,1.3h0l-7.8,8.2,7.5,8.1a1,1,0,0,1,0,1.3.85.85,0,0,1-1.3,0l-7.5-8.1L23,23.88a4.47,4.47,0,0,1-6.4,0l-2.2-2.3-7.5,8.1a.85.85,0,0,1-1.3,0,.85.85,0,0,1,0-1.3l7.5-8.1-7.8-8.1a.85.85,0,0,1,0-1.3.94.94,0,0,1,1.3,0l11.2,11.8a2.6,2.6,0,0,0,3.8,0l11.2-11.8c.6-.5,1.1-.5,1.5-.1Z"/></svg>