<svg id="Capa_1" enable-background="new 0 0 512 512" height="512" viewBox="0 0 512 512" width="512" xmlns="http://www.w3.org/2000/svg"><g><g><g><g><circle cx="256" cy="256" fill="#696e73" r="256"/></g></g></g><path d="m385.3 136.139-105.62-105.62-17.691 11.827-1.989 27.531 25.78 25.78-5.041 2.44-17.133 4.191-48.986-48.986-13.25 13.25 26.61 26.61-16.073 13.791-5.112 16.304 53.929 53.929-5.597 2.458-78.019-78.019-13.253 13.253 72.853 72.853-190.085 83.466 30.862 30.862-30.862-6.637 64.075 64.075-48.284 48.284 75.287 75.287c35.386 18.473 75.618 28.932 118.299 28.932 141.385 0 256-114.615 256-256 0-26.534-4.038-52.125-11.53-76.192l-76.09-76.09z" fill="#4b5055"/><g><g><path d="m260 309.71 196.684 37.552 8.693-112.918-205.377-39.211-15.666 56.484z" fill="#edbe00"/><path d="m260 197.359-190.107-36.296-23.27 110.134 213.377 40.74z" fill="#ffd944"/><path d="m260 126.632-19.249 60.766 19.249 53.811 180.171-25.133-55.137-49.539 39.346-62.819z" fill="#f9163d"/><path d="m260 380.012 205.377-28.864v-114.577l-205.377 28.864-15.666 59.994z" fill="#f9163d"/><path d="m260 126.632-213.377 29.988v114.577l213.377-29.988z" fill="#ff415b"/><path d="m260 380.012v-114.577l-213.377 29.988 55.137 49.539-39.346 62.819z" fill="#ff415b"/><g><g><g><g><path d="m196.161 234.376-13.952-3.183 17.025-74.632 12.319-1.746 36.711 67.123-12.555 6.867-27.011-49.386z" fill="#f7f9fa"/></g><g><path d="m195.766 217.11c-3.51 0-6.574-2.585-7.077-6.161-.55-3.913 2.176-7.531 6.09-8.081l33.718-4.739c3.912-.548 7.531 2.177 8.081 6.09s-2.176 7.531-6.09 8.081l-33.718 4.739c-.337.047-.672.071-1.004.071z" fill="#f7f9fa"/></g></g><g><g><path d="m140.373 239.154-10.489-74.634 14.171-1.992 8.498 60.462 14.104-1.982 1.991 14.171z" fill="#f7f9fa"/></g></g><g><g><path d="m317.289 137.546h14.311v75.419h-14.311z" fill="#e5e5e8" transform="matrix(.99 -.139 .139 .99 -21.233 46.859)"/></g><g><path d="m364.984 210.629-42.996-31.207-1.326-10.333 31.203-37.972 11.056 9.086-26.378 32.101 36.847 26.743z" fill="#e5e5e8"/></g></g><g><g><path d="m75.725 215.076-5.918-42.112 24.663-3.467c5.611-.787 11.195.655 15.721 4.066s7.453 8.379 8.241 13.991-.655 11.195-4.066 15.721-8.379 7.453-13.991 8.241c-3.806.535-17.537 2.528-17.537 2.528zm10.244-29.933 1.926 13.709c3.985-.576 8.536-1.232 10.487-1.506 1.827-.257 3.444-1.209 4.554-2.683 1.11-1.473 1.58-3.291 1.324-5.117-.257-1.827-1.209-3.444-2.683-4.554-1.473-1.111-3.292-1.582-5.117-1.324z" fill="#f7f9fa"/></g><g><path d="m80.306 247.679-6.584-46.851 27.732-3.897c6.243-.878 12.455.729 17.49 4.523s8.291 9.322 9.168 15.565c1.811 12.889-7.201 24.848-20.089 26.659-4.455.626-20.605 2.969-20.605 2.969zm9.579-34.672 2.592 18.447c4.941-.714 11.068-1.598 13.556-1.948 5.074-.713 8.622-5.422 7.909-10.497-.346-2.458-1.627-4.634-3.61-6.128s-4.429-2.126-6.886-1.781z" fill="#f7f9fa"/></g></g></g></g><g><g><g><g><path d="m341.88 352.694-13.952-3.183 17.237-75.563 12.357-1.748 37.167 67.957-12.555 6.867-27.493-50.269z" fill="#e5e5e8"/></g><g><path d="m341.559 335.194c-3.51 0-6.574-2.585-7.077-6.16-.55-3.914 2.176-7.532 6.089-8.082l34.217-4.809c3.917-.55 7.532 2.177 8.082 6.09s-2.176 7.531-6.089 8.081l-34.217 4.809c-.338.047-.674.071-1.005.071z" fill="#e5e5e8"/></g></g><g><g><path d="m239.596 287.268h14.311v76.322h-14.311z" fill="#f7f9fa" transform="matrix(.99 -.139 .139 .99 -42.89 37.509)"/></g></g><g><g><path d="m132.111 380.076-10.559-75.129 38.878-5.464 1.992 14.171-24.707 3.473 8.568 60.958z" fill="#f7f9fa"/></g><g><path d="m126.57 332.185h37.278v14.31h-37.278z" fill="#f7f9fa" transform="matrix(.99 -.139 .139 .99 -45.806 23.507)"/></g></g><g><g><path d="m272.217 360.413-1.021-7.083s-3.113-21.592-4.278-29.875c-.955-6.795-4.219-29.711-4.219-29.711l-1.011-7.097 23.977-3.37c18.634-2.622 33.233 10.444 36.333 32.504 2.949 20.984-7.719 38.244-25.368 41.04-4.794.759-16.82 2.497-17.329 2.57zm5.659-61.591c1.043 7.329 2.601 18.289 3.212 22.641.732 5.208 2.236 15.688 3.25 22.732 3.627-.532 7.753-1.145 10.053-1.509 8.247-1.307 15.6-9.517 13.436-24.915-1.543-10.979-7.643-22.083-20.171-20.324z" fill="#e5e5e8"/></g></g><g><g><path d="m410.436 308.903c-2.049 0-4.019-.881-5.388-2.448l-28.545-32.671 10.777-9.416 21.324 24.407 13.636-29.159 12.963 6.062-18.285 39.101c-1.024 2.19-3.086 3.715-5.48 4.054-.335.046-.67.07-1.002.07z" fill="#e5e5e8"/></g><g><path d="m405.447 294.443h14.31v45.986h-14.31z" fill="#e5e5e8" transform="matrix(.991 -.137 .137 .991 -39.536 59.41)"/></g></g><g><g><path d="m223.565 370.196-39.259-33.708 11.783-8.744 36.799 31.594z" fill="#f7f9fa"/></g><g><path d="m178.127 295.906h14.311v76.322h-14.311z" fill="#f7f9fa" transform="matrix(.99 -.139 .139 .99 -44.69 29.038)"/></g><g><path d="m185.588 342.49c-3.492 0-6.547-2.559-7.07-6.116 0 0-1.707-11.609-2.333-16.064-.512-3.644-2.28-15.931-2.28-15.931-.271-1.882.219-3.795 1.361-5.316s2.842-2.524 4.726-2.789l16.318-2.293c13.21-1.86 25.4 6.973 27.187 19.679.875 6.221-.876 12.423-4.928 17.466-3.93 4.89-9.534 8.066-15.782 8.944-4.518.635-16.151 2.342-16.151 2.342-.353.053-.703.078-1.048.078zm3.502-33.043c.489 3.411 1.021 7.127 1.266 8.871.289 2.056.81 5.645 1.285 8.901 3.329-.485 7.027-1.021 9.154-1.319 2.59-.364 5.002-1.726 6.618-3.737 1.552-1.931 2.231-4.243 1.912-6.511-.676-4.81-5.728-8.241-11.024-7.5z" fill="#f7f9fa"/></g></g></g></g><path d="m276.537 158.36c4.643-.652 9.313.084 13.505 2.133l6.428 3.142 6.284-12.857-6.429-3.142c-6.767-3.307-14.298-4.499-21.78-3.447-5.245.737-10.168 2.535-14.545 5.234l-3 9.824 3 9.833c3.547-5.628 9.449-9.724 16.537-10.72zm23.091 32.348-3.791 6.068c-.452.725-.952 1.411-1.487 2.041-2.747 3.237-6.549 5.217-11.301 5.885-9.396 1.317-18.285-3.165-23.05-10.706l-3 10.974 3 8.63c5.813 3.594 12.616 5.644 19.768 5.643 1.739 0 3.502-.121 5.273-.37 8.215-1.155 15.208-4.889 20.22-10.797.981-1.156 1.895-2.407 2.713-3.718l3.79-6.069z" fill="#e5e5e8"/><path d="m260 193.996c-1.716-2.716-2.903-5.826-3.378-9.209-.799-5.688.532-11.19 3.378-15.707v-19.657c-3.946 2.434-7.449 5.6-10.323 9.414-6.062 8.044-8.628 17.968-7.226 27.942 1.622 11.538 8.338 21.125 17.549 26.821z" fill="#f7f9fa"/></g><g fill="#edbe00"><path d="m314.248 409.364 25.178-36.089 18.8 34.578z"/><path d="m290.773 433.58 36.089 25.178-34.578 18.8z"/><path d="m260 428.887-4.643-19.523 4.643-12.905h16.214z"/><circle cx="377.11" cy="384.401" r="9.371"/><circle cx="344.854" cy="436.385" r="9.371"/></g><g><path d="m235.608 89.999-28.814 33.258-15.081-36.354z" fill="#ffd944"/><path d="m260 69.877-5.076-23.758 5.076-15.6h19.68z" fill="#edbe00"/><path d="m290.983 78.519 2.589 36.163-29.966-12.394z" fill="#edbe00"/><g fill="#ffd944"><circle cx="170.48" cy="108.251" r="9.371"/><circle cx="207.996" cy="59.926" r="9.371"/></g></g><g fill="#ffd944"><path d="m243.786 396.459 16.214 32.428v-32.428z"/><path d="m240.321 30.519 19.679 39.358v-39.358z"/></g></g></g></svg>