<?xml version="1.0" encoding="iso-8859-1"?>
<!-- Generator: Adobe Illustrator 19.0.0, SVG Export Plug-In . SVG Version: 6.00 Build 0)  -->
<svg version="1.1" id="Capa_1" xmlns="http://www.w3.org/2000/svg" xmlns:xlink="http://www.w3.org/1999/xlink" x="0px" y="0px"
	 viewBox="0 0 512 512" style="enable-background:new 0 0 512 512;" xml:space="preserve">
<path style="fill:#D3CDBF;" d="M352.288,422.074c-40.411,0-78.974-15.126-108.586-42.591c-3.082-2.859-3.263-7.675-0.405-10.758
	c2.859-3.081,7.674-3.263,10.757-0.404c26.788,24.846,61.674,38.529,98.234,38.529c79.671,0,144.49-64.817,144.49-144.49
	c0-4.205,3.408-7.611,7.611-7.611c4.204,0,7.611,3.407,7.611,7.611C512,350.427,440.354,422.074,352.288,422.074z"/>
<path style="fill:#4D5967;" d="M348.708,53.037c-16.564-0.038-47.301,0.042-77.048,0.065c-16.676,0.013-32.665,6.643-44.456,18.436
	l-207.4,207.4c-26.406,26.406-26.406,69.217,0,95.622l64.608,64.608c26.406,26.406,69.217,26.406,95.623,0l207.4-207.399
	c11.792-11.792,18.423-27.78,18.436-44.456c0.023-29.748,0.104-60.484,0.065-77.048c-0.036-15.614-6.958-29.771-17.2-40.028
	C378.479,59.995,364.322,53.072,348.708,53.037z M367.596,110.261c0,10.413-8.471,18.884-18.884,18.884s-18.884-8.471-18.884-18.884
	s8.471-18.884,18.884-18.884S367.596,99.849,367.596,110.261z"/>
<path style="fill:#35404A;" d="M388.737,70.236c-7.146-7.135-16.188-12.65-26.294-15.357c-6.817,11.654-5.238,26.868,4.75,36.87
	c5.259,5.266,8.283,12.041,8.299,18.585c0.024,10.554,0.001,26.6-0.026,45.18c-0.015,10.25-0.03,21.077-0.04,31.774
	c-0.007,8.67-3.388,16.821-9.518,22.952l-207.399,207.4c-14.491,14.491-38.074,14.491-52.565,0l-64.608-64.608
	c-10.225-10.226-25.908-11.65-37.663-4.289c3.236,9.431,8.608,18.291,16.133,25.816l64.608,64.609
	c26.406,26.406,69.217,26.406,95.622,0l207.401-207.4c11.792-11.793,18.423-27.78,18.436-44.456
	c0.023-29.748,0.104-60.484,0.065-77.048C405.901,94.651,398.979,80.494,388.737,70.236z"/>
<path style="fill:#D3CDBF;" d="M504.389,269.973c-4.204,0-7.611-3.407-7.611-7.612c0-77.73-60.786-141.14-138.385-144.363
	c-4.201-0.175-7.463-3.72-7.29-7.921c0.175-4.2,3.717-7.493,7.921-7.289c41.234,1.712,79.73,19.07,108.396,48.879
	C496.168,181.561,512,220.873,512,262.36C512,266.566,508.592,269.973,504.389,269.973z"/>
<g>
	<path style="fill:#FFF9EB;" d="M101.353,298.976c-0.555-3.944-2.348-7.743-5.374-10.768c-7.42-7.42-19.488-7.42-26.908-0.001
		l-10.225,10.225c-2.973,2.972-2.973,7.79-0.001,10.762l32.29,32.288c2.974,2.974,7.792,2.974,10.763,0.001l10.225-10.225
		c7.419-7.42,7.419-19.488-0.001-26.908C109.097,301.326,105.298,299.534,101.353,298.976z M85.217,304.352l-4.842,4.843
		l-5.382-5.382l4.842-4.843c1.485-1.484,3.898-1.484,5.382,0C86.699,300.453,86.701,302.868,85.217,304.352z M101.36,320.496
		l-4.843,4.842l-5.38-5.38l4.842-4.843c1.485-1.484,3.899-1.483,5.381-0.001C102.844,316.598,102.844,319.011,101.36,320.496z"/>
	<path style="fill:#FFF9EB;" d="M142.883,278.973l-11.122,11.121l-26.908-26.908c-2.972-2.972-7.791-2.97-10.762,0.001
		c-2.973,2.972-2.973,7.79-0.001,10.762l32.289,32.289c2.974,2.974,7.792,2.974,10.763,0.001l16.504-16.503
		c2.973-2.974,2.973-7.79-0.001-10.763C150.673,276.001,145.856,276,142.883,278.973z"/>
	<path style="fill:#FFF9EB;" d="M190.171,238.668l-44.397-20.182c-2.886-1.311-6.286-0.695-8.529,1.547
		c-2.242,2.244-2.859,5.644-1.548,8.529l20.183,44.398c1.738,3.827,6.252,5.519,10.078,3.78c3.824-1.745,5.519-6.251,3.78-10.079
		l-1.181-2.599l12.721-12.721l2.599,1.18c2.972,1.352,6.353,0.632,8.531-1.546c0.628-0.627,1.158-1.375,1.546-2.232
		C195.69,244.92,193.998,240.409,190.171,238.668z M161.827,249.267l-3.875-8.525l8.524,3.876L161.827,249.267z"/>
	<path style="fill:#FFF9EB;" d="M222.804,192.768c-4.203-0.001-7.611,3.406-7.61,7.61c0.002,8.393-6.829,15.219-15.22,15.221
		c-8.394-0.002-15.221-6.829-15.223-15.223c0-8.392,6.829-15.22,15.221-15.22c4.203,0.001,7.611-3.406,7.61-7.61
		c-0.001-4.204-3.407-7.609-7.609-7.609c-16.786-0.001-30.444,13.655-30.441,30.443c0,16.787,13.656,30.443,30.442,30.442
		c8.393,0,16.002-3.415,21.514-8.927c5.513-5.514,8.928-13.123,8.927-21.516C230.413,196.176,227.007,192.768,222.804,192.768z"/>
	<path style="fill:#FFF9EB;" d="M265.093,161.825l-26.252-6.426l-0.176-18.484c-0.042-4.205-3.482-7.579-7.684-7.539
		c-4.203,0.042-7.578,3.483-7.538,7.684l0.181,19.047l-5.846-5.846c-2.972-2.972-7.792-2.972-10.763,0
		c-2.972,2.973-2.972,7.791,0,10.762l32.289,32.289c2.974,2.974,7.791,2.973,10.763,0.001c2.972-2.972,2.974-7.79,0-10.763
		l-11.074-11.074l-0.005-0.372l22.484,5.506c2.681,0.656,5.378-0.196,7.196-2.014c0.951-0.952,1.661-2.167,2.005-3.568
		C271.675,166.943,269.174,162.824,265.093,161.825z"/>
</g>
<g>
	<path style="fill:#FF6473;" d="M131.898,388.273l6.816-6.817c2.973-2.973,2.973-7.789-0.001-10.762
		c-2.973-2.973-7.789-2.973-10.762,0l-6.817,6.816l-5.382-5.382l11.122-11.121c2.973-2.973,2.972-7.791-0.002-10.764
		c-2.972-2.972-7.789-2.972-10.762,0.001l-16.504,16.504c-2.972,2.973-2.974,7.789,0,10.762l32.289,32.289
		c2.974,2.974,7.79,2.972,10.762,0c2.972-2.972,2.975-7.79,0.001-10.763L131.898,388.273z"/>
	<path style="fill:#FF6473;" d="M190.164,343.956l-9.683-0.04c0.923-6.825-1.242-14.006-6.493-19.258
		c-8.901-8.901-23.346-8.942-32.199-0.09l-10.495,10.496c-2.973,2.972-2.973,7.79-0.001,10.762l32.289,32.289
		c2.974,2.974,7.792,2.974,10.763,0.001c2.972-2.972,2.973-7.791,0-10.763l-5.382-5.382l2.87-2.869l18.265,0.075
		c2.113,0.01,4.029-0.843,5.414-2.228c1.37-1.37,2.219-3.261,2.229-5.349C197.759,347.397,194.366,343.976,190.164,343.956z
		 M163.314,346.093l-5.113,5.114l-10.762-10.763l5.114-5.113c2.916-2.918,7.703-2.878,10.672,0.091
		C166.192,338.391,166.231,343.177,163.314,346.093z"/>
	<path style="fill:#FF6473;" d="M217.389,313.545l-2.512,2.511l-21.524-21.524l2.511-2.512c2.973-2.974,2.973-7.792-0.001-10.765
		c-2.972-2.972-7.79-2.972-10.762,0.002l-15.785,15.786c-2.973,2.972-2.974,7.789-0.001,10.762
		c2.974,2.974,7.792,2.974,10.764,0.002l2.511-2.512l21.525,21.525l-2.512,2.511c-2.972,2.973-2.972,7.791,0.001,10.763
		c2.974,2.974,7.791,2.973,10.762,0l15.786-15.785c2.974-2.973,2.974-7.791,0-10.764
		C225.181,310.572,220.362,310.572,217.389,313.545z"/>
	<path style="fill:#FF6473;" d="M211.036,255.32l-8.969,8.969c-2.972,2.973-2.973,7.79,0,10.762l32.289,32.289
		c2.974,2.974,7.791,2.973,10.763,0.001l8.969-8.969c11.869-11.869,11.869-31.182-0.002-43.053
		C242.217,243.451,222.905,243.451,211.036,255.32z M243.326,287.609l-3.588,3.587l-21.525-21.525l3.587-3.588
		c5.936-5.935,15.591-5.934,21.525,0C249.258,272.018,249.26,281.674,243.326,287.609z"/>
	<path style="fill:#FF6473;" d="M305.552,232.365l-44.397-20.182c-2.886-1.311-6.286-0.695-8.529,1.547
		c-2.242,2.244-2.859,5.644-1.548,8.529l20.182,44.398c1.739,3.827,6.253,5.519,10.079,3.78c3.824-1.745,5.518-6.252,3.78-10.079
		l-1.181-2.598l12.721-12.722l2.599,1.18c2.972,1.352,6.353,0.632,8.531-1.546c0.628-0.627,1.158-1.375,1.546-2.232
		C311.072,238.616,309.38,234.105,305.552,232.365z M277.207,242.963l-3.874-8.523l8.523,3.874L277.207,242.963z"/>
	<path style="fill:#FF6473;" d="M328.744,212.953l-14.451-14.451l-4.95-24.754c-0.826-4.121-4.836-6.794-8.957-5.971
		c-4.121,0.824-6.795,4.835-5.969,8.955l3.169,15.843l-15.844-3.168c-4.12-0.824-8.131,1.848-8.955,5.969
		c-0.824,4.121,1.849,8.132,5.97,8.954l24.799,4.961l14.424,14.424c2.974,2.974,7.791,2.974,10.764,0
		C331.715,220.744,331.716,215.927,328.744,212.953z"/>
</g>
<g>
</g>
<g>
</g>
<g>
</g>
<g>
</g>
<g>
</g>
<g>
</g>
<g>
</g>
<g>
</g>
<g>
</g>
<g>
</g>
<g>
</g>
<g>
</g>
<g>
</g>
<g>
</g>
<g>
</g>
</svg>
