<svg height="512" viewBox="0 0 64 64" width="512" xmlns="http://www.w3.org/2000/svg"><g id="shopping_cart_black_friday"><g><g><path d="m23 62c-2.757 0-5-2.243-5-5s2.243-5 5-5 5 2.243 5 5-2.243 5-5 5z" fill="#607d8b"/><path d="m57 62c-2.757 0-5-2.243-5-5s2.243-5 5-5 5 2.243 5 5-2.243 5-5 5z" fill="#607d8b"/><path d="m18 47-4.88-30h48.88l-3.209 24.047c-.432 3.283-3.478 5.953-6.791 5.953z" fill="#ff9800"/><path d="m4 6c-1.103 0-2-.897-2-2s.897-2 2-2h4c1.103 0 2 .897 2 2s-.897 2-2 2z" fill="#f44336"/></g><g opacity=".1"><path d="m23 52c-2.757 0-5 2.243-5 5s2.243 5 5 5 5-2.243 5-5-2.243-5-5-5z"/><path d="m57 52c-2.757 0-5 2.243-5 5s2.243 5 5 5 5-2.243 5-5-2.243-5-5-5z"/><path d="m62 17-3.21 24.05c-.43 3.28-3.48 5.95-6.79 5.95h-24.39c11.2-6.94 19.93-17.48 24.61-30z"/></g><g><path d="m62.606 54.858c-.194-.518-.771-.776-1.287-.585-.517.194-.779.771-.585 1.288.176.471.266.956.266 1.439 0 2.206-1.794 4-4 4s-4-1.794-4-4 1.794-4 4-4c.505 0 1.007.098 1.491.29.515.205 1.095-.047 1.298-.561.204-.513-.047-1.095-.56-1.299-.72-.285-1.47-.43-2.229-.43-2.967 0-5.431 2.167-5.91 5h-22.18c-.479-2.833-2.942-5-5.91-5s-5.431 2.167-5.91 5h-.09c-2.206 0-4-1.794-4-4 0-1.062.418-2.064 1.177-2.822.76-.76 1.762-1.178 2.823-1.178h35c3.796 0 7.287-3.06 7.781-6.818l3.21-24.05c.038-.285-.049-.573-.239-.79-.189-.218-.464-.342-.752-.342h-48.039l-1.334-8.207c-.187-1.173-.798-2.283-1.702-3.143.046-.21.075-.426.075-.65 0-1.654-1.346-3-3-3h-4c-1.654 0-3 1.346-3 3s1.346 3 3 3h4c.682 0 1.303-.237 1.808-.621.441.509.746 1.106.846 1.731l2.17 13.35c.08.491.504.84.986.84.053 0 .107-.004.162-.013.545-.089.915-.603.826-1.147l-.511-3.14h46.571l-3.059 22.919c-.362 2.755-3.018 5.081-5.799 5.081h-33.15l-3.403-20.901c-.088-.545-.605-.916-1.147-.826-.545.089-.915.603-.826 1.148l3.353 20.588c-1.53.044-2.968.659-4.063 1.755-1.138 1.134-1.764 2.639-1.764 4.236 0 3.309 2.691 6 6 6h.09c.479 2.833 2.942 5 5.91 5s5.431-2.167 5.91-5h22.18c.479 2.833 2.942 5 5.91 5 3.309 0 6-2.691 6-6 0-.725-.132-1.445-.394-2.142zm-54.606-49.858h-4c-.551 0-1-.448-1-1s.449-1 1-1h4c.551 0 1 .448 1 1s-.449 1-1 1zm15 56c-2.206 0-4-1.794-4-4s1.794-4 4-4 4 1.794 4 4-1.794 4-4 4z"/><circle cx="23" cy="57" r="2"/><circle cx="57" cy="57" r="2"/><path d="m47 33c-1.654 0-3 1.346-3 3v6c0 .553.448 1 1 1s1-.447 1-1v-1h2v1c0 .553.448 1 1 1s1-.447 1-1v-6c0-1.654-1.346-3-3-3zm1 6h-2v-3c0-.552.449-1 1-1s1 .448 1 1z"/><path d="m40 33h-2c-.552 0-1 .447-1 1v8c0 .553.448 1 1 1h2c1.654 0 3-1.346 3-3v-4c0-1.654-1.346-3-3-3zm1 7c0 .552-.449 1-1 1h-1v-6h1c.551 0 1 .448 1 1z"/><path d="m20 34v8c0 .553.448 1 1 1s1-.447 1-1v-3h2c.552 0 1-.447 1-1s-.448-1-1-1h-2v-2h3c.552 0 1-.447 1-1s-.448-1-1-1h-4c-.552 0-1 .447-1 1z"/><path d="m27 34v8c0 .553.448 1 1 1s1-.447 1-1v-2.913l2.152 3.443c.19.304.516.47.849.47.181 0 .364-.049.529-.152.469-.292.611-.909.318-1.378l-1.689-2.703c1.08-.454 1.841-1.523 1.841-2.767 0-1.654-1.346-3-3-3h-2c-.552 0-1 .447-1 1zm2 1h1c.551 0 1 .448 1 1s-.449 1-1 1c-.081 0-1 0-1 0z"/><path d="m34 34v8c0 .553.448 1 1 1s1-.447 1-1v-8c0-.553-.448-1-1-1s-1 .447-1 1z"/><path d="m54 43c.552 0 1-.447 1-1v-2.185c1.162-.414 2-1.514 2-2.815v-3c0-.553-.448-1-1-1s-1 .447-1 1v3c0 .552-.449 1-1 1s-1-.448-1-1v-3c0-.553-.448-1-1-1s-1 .447-1 1v3c0 1.302.838 2.401 2 2.815v2.185c0 .553.448 1 1 1z"/><path d="m24.5 21h-2c-.552 0-1 .447-1 1v8c0 .553.448 1 1 1h2c1.654 0 3-1.346 3-3 0-.771-.301-1.468-.78-2 .479-.532.78-1.229.78-2 0-1.654-1.346-3-3-3zm0 8h-1v-2h1c.551 0 1 .448 1 1s-.449 1-1 1zm0-4h-1v-2h1c.551 0 1 .448 1 1s-.449 1-1 1z"/><path d="m29.5 21c-.552 0-1 .447-1 1v8c0 .553.448 1 1 1h4c.552 0 1-.447 1-1s-.448-1-1-1h-3v-7c0-.553-.448-1-1-1z"/><path d="m38.5 21c-1.654 0-3 1.346-3 3v6c0 .553.448 1 1 1s1-.447 1-1v-1h2v1c0 .553.448 1 1 1s1-.447 1-1v-6c0-1.654-1.346-3-3-3zm1 6h-2v-3c0-.552.449-1 1-1s1 .448 1 1z"/><path d="m45.5 23h2c.552 0 1-.447 1-1s-.448-1-1-1h-2c-1.654 0-3 1.346-3 3v4c0 1.654 1.346 3 3 3h2c.552 0 1-.447 1-1s-.448-1-1-1h-2c-.551 0-1-.448-1-1v-4c0-.552.449-1 1-1z"/><path d="m50.5 21c-.552 0-1 .447-1 1v8c0 .553.448 1 1 1s1-.447 1-1v-2.334l2.2 2.934c.196.263.497.4.801.4.208 0 .419-.065.599-.2.442-.331.531-.958.2-1.399l-2.632-3.51 2.613-3.266c.345-.432.275-1.061-.156-1.406s-1.061-.275-1.405.156l-2.22 2.774v-2.149c0-.553-.448-1-1-1z"/></g></g></g></svg>