<svg id="Layer_1" enable-background="new 0 0 512 512" height="512" viewBox="0 0 512 512" width="512" xmlns="http://www.w3.org/2000/svg"><path d="m489.03 88.52h-467.61l29.96 55.42c1.28 2.37 1.28 5.23 0 7.61l-29.96 55.45h474.58v-111.49c0-3.79-3.19-6.99-6.97-6.99z" fill="#fc6067"/><path d="m460.6 360.44 29.98-55.42h-474.58v111.47c0 3.85 3.12 6.98 6.97 6.98h467.61l-29.98-55.42c-1.29-2.37-1.29-5.23 0-7.61z" fill="#fc6067"/><path d="m508.22 221.8c2.27-1.41 3.78-3.92 3.78-6.79v-119.5c0-12.67-10.3-22.98-22.97-22.98h-481.03c-2.82 0-5.43 1.48-6.87 3.9-1.44 2.42-1.51 5.42-.17 7.9l34.28 63.42-34.28 63.45c-1.34 2.48-1.28 5.48.17 7.9 1.44 2.42 4.05 3.9 6.87 3.9h106.85l-110.99 67.18c-.03.02-.05.04-.08.06-2.27 1.41-3.78 3.91-3.78 6.78v119.47c0 12.67 10.3 22.98 22.97 22.98h481.03c2.82 0 5.43-1.48 6.87-3.9s1.51-5.42.16-7.9l-34.31-63.42 34.31-63.42c1.34-2.48 1.28-5.48-.16-7.9s-4.05-3.9-6.87-3.9h-106.87l111.02-67.17c.02-.03.04-.05.07-.06zm-456.84-70.25c1.28-2.37 1.28-5.23 0-7.61l-29.96-55.42h467.61c3.78 0 6.97 3.2 6.97 6.98v111.5h-474.58zm409.22 208.89c-1.28 2.38-1.28 5.24 0 7.61l29.98 55.42h-467.61c-3.84 0-6.97-3.13-6.97-6.98v-111.47h474.58zm-423.93-71.42 109.08-66.01h329.57l-109.11 66.01zm26.12 111.27v-72.05c0-4.42 3.58-8 8-8h35.55c4.42 0 8 3.58 8 8s-3.58 8-8 8h-27.55v20.01h15.04c4.42 0 8 3.58 8 8s-3.58 8-8 8h-15.04v28.04c0 4.42-3.58 8-8 8s-8-3.58-8-8zm66.13 8c4.42 0 8-3.58 8-8v-28.04h4.13l17.73 31.92c1.46 2.63 4.19 4.12 7 4.12 1.31 0 2.65-.32 3.88-1.01 3.86-2.15 5.26-7.02 3.11-10.88l-13.72-24.71c11.76-2.48 20.62-12.95 20.62-25.46 0-14.33-11.65-25.99-25.97-25.99h-24.77c-4.42 0-8 3.58-8 8v72.05c-.01 4.42 3.58 8 7.99 8zm8-72.05h16.77c5.5 0 9.97 4.48 9.97 9.99 0 5.53-4.47 10.02-9.97 10.02h-16.77zm56.66 64.05v-72.05c0-4.42 3.58-8 8-8s8 3.58 8 8v72.05c0 4.42-3.58 8-8 8s-8-3.58-8-8zm38.81 8h25.48c18.46 0 33.48-15.03 33.48-33.51v-21.03c0-18.48-15.02-33.51-33.48-33.51h-25.48c-4.42 0-8 3.58-8 8v72.05c0 4.42 3.58 8 8 8zm8-72.05h17.48c9.64 0 17.48 7.86 17.48 17.51v21.03c0 9.66-7.84 17.51-17.48 17.51h-17.48zm62.05 70.83c1.05.46 2.14.68 3.22.68 3.07 0 6.01-1.78 7.33-4.78l6.83-15.51h34.25l6.84 15.52c1.78 4.04 6.5 5.88 10.55 4.09 4.04-1.78 5.88-6.5 4.09-10.55l-31.29-71c-1.28-2.9-4.15-4.77-7.32-4.77-3.17 0-6.04 1.87-7.32 4.78l-31.27 71c-1.79 4.04.04 8.76 4.09 10.54zm34.49-58.48 10.08 22.87h-20.15zm33.68-18.44c-2.59-3.58-1.79-8.58 1.79-11.17s8.58-1.79 11.17 1.79l21.38 29.55 21.36-29.54c2.59-3.58 7.59-4.39 11.17-1.8s4.39 7.59 1.8 11.17l-26.32 36.41v36.49c0 4.42-3.58 8-8 8s-8-3.58-8-8v-36.49zm-148-143.01c0 4.42-3.58 8-8 8h-41.75c-4.42 0-8-3.58-8-8v-77.59c0-4.42 3.58-8 8-8s8 3.58 8 8v69.59h33.75c4.42 0 8 3.58 8 8zm159.69-12.04c2.53 3.62 1.64 8.61-1.99 11.14-8.35 5.82-18.23 8.9-28.56 8.9-26.81 0-48.62-20.99-48.62-46.79s21.81-46.79 48.62-46.79c10.38 0 20.26 3.08 28.57 8.91 3.62 2.54 4.49 7.53 1.96 11.14s-7.53 4.49-11.14 1.96c-5.61-3.93-12.31-6.01-19.39-6.01-17.99 0-32.62 13.81-32.62 30.79s14.63 30.79 32.62 30.79c7.04 0 13.75-2.08 19.41-6.03 3.62-2.52 8.61-1.63 11.14 1.99zm79.32 16.76c-1.57 2.14-4 3.28-6.46 3.28-1.64 0-3.29-.5-4.72-1.54l-40.28-29.48v23.02c0 4.42-3.58 8-8 8s-8-3.58-8-8v-77.59c0-4.42 3.58-8 8-8s8 3.58 8 8v23.03l40.28-29.48c3.56-2.61 8.57-1.83 11.18 1.73s1.83 8.57-1.73 11.18l-44.19 32.34 44.19 32.34c3.56 2.6 4.33 7.61 1.73 11.17zm-186.93-84.96c-1.28-2.9-4.15-4.77-7.32-4.78-3.17 0-6.04 1.87-7.32 4.77l-33.7 76.45c-1.78 4.04.05 8.77 4.09 10.55s8.76-.05 10.55-4.09l7.53-17.08h37.69l7.52 17.08c1.32 2.99 4.25 4.78 7.33 4.78 1.08 0 2.17-.22 3.22-.68 4.04-1.78 5.88-6.5 4.1-10.55zm-19.12 49.82 11.8-26.76 11.79 26.76zm-112.48-12.37c3-4.4 4.75-9.7 4.75-15.42 0-15.1-12.27-27.38-27.36-27.38h-25.83c-4.42 0-8 3.58-8 8v77.59c0 4.42 3.58 8 8 8h34.19c15.1 0 27.39-12.3 27.39-27.41 0-9.88-5.27-18.56-13.14-23.38zm-22.61-26.8c6.26 0 11.36 5.11 11.36 11.38 0 6.29-5.1 11.41-11.36 11.41h-17.82v-22.79zm8.36 61.59h-26.19v-22.79h17.82.96 7.4c6.28 0 11.39 5.11 11.39 11.38.01 6.29-5.1 11.41-11.38 11.41z"/><path d="m36.67 289.02h329.55l109.1-66.01h-329.57z" fill="#fdcf66"/></svg>