<svg id="filled_expand" height="512" viewBox="0 0 64 64" width="512" xmlns="http://www.w3.org/2000/svg" data-name="filled expand"><path d="m6 12 6 8 34-11-6-3v-5z" fill="#fa412c"/><path d="m58 52-6-8-34 11 6 3v5z" fill="#fa412c"/><path d="m52 20-46 16 6 8 46-16z" fill="#fa412c"/><path d="m11.75 34-5.473 1.904-.229.096.127.233 5.825 7.767 28.75-10z" fill="#e6140a"/><path d="m23.25 30h29l5.75-2-6-8z" fill="#e6140a"/><path d="m42.909 10h-30.727l-6.182 2 6 8z" fill="#e6140a"/><path d="m52 44-30.909 10h30.727l6.182-2z" fill="#e6140a"/><path d="m6 12h52v16h-52z" fill="#444a5b"/><path d="m6 36h52v16h-52z" fill="#444a5b"/><path d="m6 28 1.5-2h48.5v-14h2v16z" fill="#323746"/><path d="m58 12h-52v16h2v-14h50z" fill="#555c6d"/><path d="m6 52h52v-16h-2v14h-50z" fill="#323746"/><path d="m8 38h48l2-2h-52v16h2z" fill="#555c6d"/><g fill="#eff0fa"><path d="m41 17a1 1 0 0 0 2 0 2.0027 2.0027 0 0 0 -2-2h-2a2.0027 2.0027 0 0 0 -2 2v6a2.0027 2.0027 0 0 0 2 2h2a2.0027 2.0027 0 0 0 2-2 1 1 0 0 0 -2 0h-2v-6z"/><path d="m16 15h-2a1 1 0 0 0 -1 1v8a1 1 0 0 0 1 1h2a2.9869 2.9869 0 0 0 2.22-5 2.9869 2.9869 0 0 0 -2.22-5zm-1 2h1a1 1 0 0 1 0 2h-1zm1 6h-1v-2h1a1 1 0 0 1 0 2z"/><path d="m26 23h-3v-7a1 1 0 0 0 -2 0v8a1 1 0 0 0 1 1h4a1 1 0 0 0 0-2z"/><path d="m48.0812 20 2.7-3.3751a1 1 0 1 0 -1.5624-1.25l-2.2188 2.7735v-2.1484a1 1 0 0 0 -2 0v8a1 1 0 0 0 2 0v-2.1483l2.2188 2.7733a1 1 0 0 0 1.5624-1.25z"/><path d="m33 15h-2a2.0027 2.0027 0 0 0 -2 2v7a1 1 0 0 0 2 0v-3h2v3a1 1 0 0 0 2 0v-7a2.0027 2.0027 0 0 0 -2-2zm-2 4v-2h2v2z"/><path d="m40 49a1 1 0 0 0 1-1v-3h2v3a1 1 0 0 0 2 0v-7a2.0027 2.0027 0 0 0 -2-2h-2a2.0027 2.0027 0 0 0 -2 2v7a1 1 0 0 0 1 1zm3-8v2h-2v-2z"/><path d="m28 39a1 1 0 0 0 -1 1v8a1 1 0 0 0 2 0v-8a1 1 0 0 0 -1-1z"/><path d="m32 39a1 1 0 0 0 -1 1v8a1 1 0 0 0 1 1h2a3.0033 3.0033 0 0 0 3-3v-4a3.0033 3.0033 0 0 0 -3-3zm3 3v4a1.0006 1.0006 0 0 1 -1 1h-1v-6h1a1.0006 1.0006 0 0 1 1 1z"/><path d="m49 44.2363v3.7637a1 1 0 0 0 2 0v-3.7637l1.8945-3.789a1 1 0 0 0 -1.789-.8946l-1.1055 2.211-1.1055-2.211a1 1 0 0 0 -1.789.8946z"/><path d="m16 41a1 1 0 0 0 0-2h-4a1 1 0 0 0 -1 1v8a1 1 0 0 0 2 0v-3h3a1 1 0 0 0 0-2h-3v-2z"/><path d="m25 42a3.0033 3.0033 0 0 0 -3-3h-2a1 1 0 0 0 -1 1v8a1 1 0 0 0 2 0v-1.5859l2.293 2.2929a1 1 0 0 0 1.414-1.414l-2.331-2.331a2.9941 2.9941 0 0 0 2.624-2.962zm-3 1h-1v-2h1a1 1 0 0 1 0 2z"/></g><path d="m59 28v-16a1 1 0 0 0 -1-1h-14.9341l3.2417-1.0488a1 1 0 0 0 .14-1.8457l-5.4476-2.7237v-4.3818a1 1 0 0 0 -1.3076-.9512l-34 11a.9987.9987 0 0 0 -.6924.9512v16a1 1 0 0 0 1 1h17.0819l-17.41 6.0557a.9993.9993 0 0 0 -.6719.9443v16a1 1 0 0 0 1 1h14.9341l-3.2417 1.0488a1 1 0 0 0 -.14 1.8457l5.4476 2.7237v4.3818a1.0007 1.0007 0 0 0 1 1 .9788.9788 0 0 0 .3076-.0488l34-11a.9987.9987 0 0 0 .6924-.9512v-16a1 1 0 0 0 -1-1h-17.0819l17.41-6.0557a.9993.9993 0 0 0 .6719-.9443zm-19.4473-21.1055 3.8135 1.9063-6.7954 2.1992h-24.2308l26.66-8.625v3.625a1 1 0 0 0 .5527.8945zm-32.5527 6.1055h50v14h-50zm17.4473 44.1055-3.8135-1.9063 6.7954-2.1992h24.2308l-26.66 8.625v-3.625a1 1 0 0 0 -.5527-.8945zm32.5527-6.1055h-50v-14h50zm-45.0812-16 17.2493-6h22.9131l-17.2493 6z"/></svg>