<svg height="512" viewBox="0 0 64 64" width="512" xmlns="http://www.w3.org/2000/svg"><g id="_06-Flash_sales" data-name="06-Flash sales"><path d="m38.719 63a17.825 17.825 0 0 0 7.422-1.5 14.41 14.41 0 0 0 8.859-13.5c0-9-2-11-5-17s0-12 0-12a10.819 10.819 0 0 0 -6 4c0-21-14-22-14-22a15.091 15.091 0 0 1 -2 14c-5 7-10 11-12 19 0 0-4-2-3-6 0 0-4 7-4 18 0 12.062 9.662 15.6 14.418 16.61a18.53 18.53 0 0 0 3.846.39z" fill="#febd55"/><path d="m24.842 63s-10.316-3.868-10.316-15.474c0-12.894 8.948-17.526 8.948-17.526s-2.5 4.632.079 5.921c0 0 4.315-14.053 15.921-17.921 0 0-4.053 4.263-1.474 12s11.316 9.474 11.474 18v1a14.54 14.54 0 0 1 -2.2 8.213c-1.988 3.097-4.283 5.787-9.537 5.787z" fill="#fc9e20"/><path d="m26 63a13.024 13.024 0 0 1 -8-12c0-10 5-14 5-14s0 4 2 5c0 0 2-14 11-17 0 0-3 2-1 8s11 8 11 18v.871a12.287 12.287 0 0 1 -1.831 6.641 9.274 9.274 0 0 1 -8.169 4.488z" fill="#e03e3e"/><g fill="#fbfbfb"><path d="m26 58a1 1 0 0 1 -.707-1.707l12-12a1 1 0 0 1 1.414 1.414l-12 12a1 1 0 0 1 -.707.293z"/><path d="m35 59a3 3 0 1 1 3-3 3 3 0 0 1 -3 3zm0-4a1 1 0 1 0 1 1 1 1 0 0 0 -1-1z"/><path d="m29 49a3 3 0 1 1 3-3 3 3 0 0 1 -3 3zm0-4a1 1 0 1 0 1 1 1 1 0 0 0 -1-1z"/></g></g></svg>