<svg id="Dypta" viewBox="0 0 64 64" xmlns="http://www.w3.org/2000/svg"><g fill="#293a4c"><path d="m13.34174 52.5c-1.27588 0-2.49609-.54492-3.34863-1.49414-.85205-.94922-1.26221-2.22168-1.125-3.48926l3.28125-30.35547c.04639-.42969-.08691-.84277-.375-1.16309-.28809-.32129-.68457-.49805-1.11621-.49805h-5.65821c-.82861 0-1.5-.67188-1.5-1.5s.67139-1.5 1.5-1.5h5.6582c1.27588 0 2.49658.54492 3.34863 1.49414s1.26221 2.2207 1.125 3.48926l-3.28125 30.35547c-.04639.42871.08691.8418.375 1.16309.28857.32129.68506.49805 1.11621.49805l33.6582-.00098c.82861 0 1.5.67188 1.5 1.5s-.67139 1.5-1.5 1.5l-33.6582.00098z"/><path d="m19.99994 60.5c-3.03271 0-5.5-2.46777-5.5-5.5s2.46729-5.5 5.5-5.5 5.5 2.46777 5.5 5.5-2.46729 5.5-5.5 5.5zm0-8c-1.37842 0-2.5 1.12109-2.5 2.5s1.12158 2.5 2.5 2.5 2.5-1.12109 2.5-2.5-1.12158-2.5-2.5-2.5z"/><path d="m37.99994 60.5c-3.03271 0-5.5-2.46777-5.5-5.5s2.46729-5.5 5.5-5.5 5.5 2.46777 5.5 5.5-2.46729 5.5-5.5 5.5zm0-8c-1.37842 0-2.5 1.12109-2.5 2.5s1.12158 2.5 2.5 2.5 2.5-1.12109 2.5-2.5-1.12158-2.5-2.5-2.5z"/><path d="m37.68988 26.5h-24.87988c-.82861 0-1.5-.67188-1.5-1.5s.67139-1.5 1.5-1.5h24.87988c.82861 0 1.5.67188 1.5 1.5s-.67139 1.5-1.5 1.5z"/><path d="m44.6601 46.5h-34.01026c-.82861 0-1.5-.67188-1.5-1.5s.67139-1.5 1.5-1.5h34.01026c.69238 0 1.28955-.46387 1.45312-1.12793l3.70068-14.64355c.20215-.80371 1.01416-1.29199 1.82178-1.08691.80322.20312 1.28955 1.01855 1.08643 1.82129l-3.69824 14.63477c-.4917 2-2.28711 3.40234-4.36377 3.40234z"/><path d="m49.26996 37.5h-37.6499c-.82861 0-1.5-.67188-1.5-1.5s.67139-1.5 1.5-1.5h37.6499c.82861 0 1.5.67188 1.5 1.5s-.67139 1.5-1.5 1.5z"/><path d="m23.00141 46.5c-.09717 0-.19629-.00879-.29541-.0293-.8125-.16211-1.33936-.95215-1.17676-1.76465l4-20c.1626-.81152.94971-1.34375 1.76465-1.17676.8125.16211 1.33936.95215 1.17676 1.76465l-4 20c-.14258.71289-.76855 1.20605-1.46924 1.20605z"/><path d="m36.00141 45.5c-.10254 0-.20654-.01074-.31055-.03223-.81104-.1709-1.32959-.9668-1.15869-1.77734l3.45996-16.41992c.1709-.81055.96875-1.32324 1.77686-1.1582.81104.1709 1.32959.9668 1.15869 1.77734l-3.45996 16.41992c-.14893.70605-.77197 1.19043-1.46631 1.19043z"/><path d="m21.99994 21.5h-17c-.82861 0-1.5-.67188-1.5-1.5s.67139-1.5 1.5-1.5h17c.82861 0 1.5.67188 1.5 1.5s-.67139 1.5-1.5 1.5z"/><path d="m28.99994 21.5h-1c-.82861 0-1.5-.67188-1.5-1.5s.67139-1.5 1.5-1.5h1c.82861 0 1.5.67188 1.5 1.5s-.67139 1.5-1.5 1.5z"/><path d="m5.99945 33.5h-.99951c-.82861 0-1.5-.67188-1.5-1.5s.67139-1.5 1.5-1.5h.99951c.82861 0 1.5.67188 1.5 1.5s-.67139 1.5-1.5 1.5z"/><path d="m8.19916 27.35254h-3.12988c-.82861 0-1.5-.67188-1.5-1.5s.67139-1.5 1.5-1.5h3.12988c.82861 0 1.5.67188 1.5 1.5s-.67139 1.5-1.5 1.5z"/></g><path d="m60.45404 16.63184c-.16895-.66602-.76758-1.13184-1.4541-1.13184h-6.79736l7.94971-9.54004c.37256-.44727.45312-1.06934.20605-1.5957-.24707-.52734-.77637-.86426-1.3584-.86426h-16.00146c-.50146 0-.96973.25098-1.24805.66797l-7.99854 12c-.30713.45996-.33545 1.05176-.07422 1.54004.26074.4873.76904.79199 1.32227.79199h4.48877l-5.80957 10.78906c-.31445.58398-.20801 1.30469.26123 1.77246.28857.28809.67188.43848 1.06006.43848.24365 0 .48926-.05957.71387-.18066l24-13c.60352-.32715.9082-1.02246.73975-1.6875z" fill="#ff5f00"/></svg>