<svg id="Layer_1" enable-background="new 0 0 512 512" viewBox="0 0 512 512" xmlns="http://www.w3.org/2000/svg"><g><path d="m484.3 294.3v2.3c0 1.5-.4 3.1-1.2 4.4l-56.9 96.8c-1.6 2.7-4.4 4.3-7.5 4.3-4.8 0-8.7-3.9-8.7-8.7v-46.7h-40c-4.8 0-8.7-3.9-8.7-8.7v-2.3c0-1.5.4-3.1 1.2-4.4l56.9-96.8c1.6-2.7 4.4-4.3 7.5-4.3 4.8 0 8.7 3.9 8.7 8.7v46.7h40c4.8 0 8.7 3.9 8.7 8.7z" fill="#fbb03a"/><g><g fill="#fbb03a"><path d="m59.9 171.7h40.3v-20h-40.3v-20h45.7v-20h-71.5v91.3h25.8z"/><path d="m187.1 182.5h-43.5v-70.8h-25.8v91.3h69.3z"/><path d="m227.5 111.7-40.3 91.3h26.3l7.1-17.7h38.7l7.1 17.7h26.9l-40.4-91.2h-25.4zm.8 54.5 11.7-29.2 11.7 29.2z"/><path d="m341.4 183.7c-2.2.7-5 1-8.6 1-5.3 0-10.6-.8-16-2.5s-10.1-3.8-14.1-6.5l-8.5 19c4.3 3 10 5.4 16.9 7.2 6.9 1.9 14.1 2.8 21.6 2.8 9 0 16.5-1.3 22.5-4s10.4-6.3 13.4-10.8 4.5-9.4 4.5-14.7c0-4.8-.9-8.8-2.8-11.9-1.9-3.2-4.3-5.7-7.4-7.7-3-2-6.4-3.5-10.1-4.7s-7.4-2.2-11.1-2.9c-3.7-.8-7.1-1.5-10.2-2.3-3.1-.7-5.6-1.7-7.4-2.9-1.9-1.2-2.8-2.8-2.8-4.8 0-1.6.5-3 1.4-4.2 1-1.2 2.5-2.2 4.7-2.9s5-1.1 8.6-1.1c4 0 8.1.6 12.4 1.8s8.6 2.9 12.9 5.3l8-19.2c-4.5-2.6-9.7-4.6-15.4-5.9-5.8-1.3-11.7-2-17.7-2-9 0-16.4 1.3-22.4 4s-10.5 6.3-13.5 10.7-4.5 9.4-4.5 14.9c0 4.9 1 8.9 2.9 12.1s4.4 5.7 7.4 7.7 6.4 3.5 10.1 4.8c3.7 1.2 7.4 2.2 11.1 3s7.1 1.6 10.1 2.3c3 .8 5.5 1.8 7.4 3s2.9 2.9 2.9 5c0 1.5-.5 2.8-1.5 3.8-1 1.1-2.6 2-4.8 2.6z"/><path d="m445.9 111.7v34.3h-35.1v-34.3h-25.9v91.3h25.9v-35.6h35.1v35.6h25.9v-91.3z"/></g><path d="m96.4 278.1c-3-2-6.4-3.5-10.1-4.7s-7.4-2.2-11.1-2.9c-3.7-.8-7.1-1.5-10.2-2.3-3.1-.7-5.6-1.7-7.4-2.9-1.9-1.2-2.8-2.8-2.8-4.8 0-1.6.5-3 1.4-4.2 1-1.2 2.5-2.2 4.7-2.9s5-1.1 8.6-1.1c4 0 8.1.6 12.4 1.8s8.6 2.9 12.9 5.3l8-19.2c-4.5-2.6-9.7-4.6-15.4-5.9-5.8-1.3-11.7-2-17.7-2-9 0-16.4 1.3-22.4 4s-10.5 6.3-13.5 10.7-4.5 9.4-4.5 14.9c0 4.9 1 8.9 2.9 12.1s4.4 5.7 7.4 7.7 6.4 3.5 10.1 4.8c3.7 1.2 7.4 2.2 11.1 3s7.1 1.6 10.1 2.3c3 .8 5.5 1.8 7.4 3s2.9 2.9 2.9 5c0 1.5-.5 2.8-1.5 3.8-1 1.1-2.6 2-4.8 2.6-2.2.7-5 1-8.6 1-5.3 0-10.6-.8-16-2.5-5.3-1.7-10.1-3.8-14.1-6.5l-8.5 19c4.3 3 10 5.4 16.9 7.2 6.9 1.9 14.1 2.8 21.6 2.8 9 0 16.5-1.3 22.5-4s10.4-6.3 13.4-10.8 4.5-9.4 4.5-14.7c0-4.8-.9-8.8-2.8-11.9-1.9-3.2-4.4-5.8-7.4-7.7z" fill="#272361"/><path d="m147.7 234.1-40.3 91.2h26.3l7.1-17.7h38.7l7.1 17.7h26.9l-40.4-91.2zm.8 54.5 11.7-29.2 11.7 29.2z" fill="#272361"/><path d="m246.7 234.1h-25.8v91.2h69.3v-20.4h-43.5z" fill="#272361"/><path d="m325.9 288.7h40.5v-19.3h-40.5v-15.4h46v-19.9h-71.5v91.2h73.2v-19.9h-47.7z" fill="#272361"/></g></g></svg>