<?xml version="1.0" encoding="UTF-8"?><svg xmlns="http://www.w3.org/2000/svg" viewBox="0 0 64 64"><title>WPForms icon - Uncanny Automator</title><g id="a"><rect width="64" height="64" style="fill:none;"/></g><g id="b"><path d="M7.24,37.88c3.3,.59,6.7-.37,9.2-2.6l4.22,.23-2.3,6.79c-2.56,4.06-6.28,4.93-10.09,4.7l-1.03-9.12Z" style="fill:#7eaaba;"/><path d="M8.81,39.41l.71,6.22c3.06,.16,5.96-1.34,7.59-3.94l1.66-4.87-1.85-.1c-2.27,1.88-5.16,2.84-8.11,2.69Z" style="fill:#d3e8ef;"/><path d="M8.81,39.41l.42,3.69c4.36-.52,7.75-2.31,9.51-6.28l-1.86-.1c-2.25,1.88-5.14,2.84-8.07,2.69" style="fill:#fff;"/><path d="M8.27,32.56c3.98,0,7.21,3.23,7.21,7.21s-3.23,7.21-7.21,7.21-7.21-3.23-7.21-7.21h0c.01-3.98,3.23-7.2,7.21-7.21" style="fill:#7eaaba;"/><path d="M8.27,34c-3.19-.02-5.79,2.54-5.81,5.73s2.54,5.79,5.73,5.81c3.19,.02,5.79-2.54,5.81-5.73,0-.03,0-.05,0-.08-.02-3.16-2.57-5.71-5.73-5.73" style="fill:#d3e8ef;"/><path d="M8.27,34c-1.89-.01-3.67,.91-4.74,2.47,.2,3.03,2.72,5.4,5.76,5.41,1.89,0,3.65-.94,4.71-2.5-.21-3.02-2.71-5.36-5.73-5.38" style="fill:#fff;"/><path d="M7.53,33.62c2.97,0,5.38,2.41,5.38,5.38s-2.41,5.38-5.38,5.38-5.38-2.41-5.38-5.38c.01-2.96,2.42-5.36,5.38-5.35" style="fill:#7eaaba;"/><path d="M7.15,32.18c2.98,0,5.4,2.43,5.39,5.41,0,2.98-2.43,5.4-5.41,5.39-2.98,0-5.4-2.43-5.39-5.41,0,0,0,0,0,0,.02-2.98,2.43-5.38,5.41-5.38" style="fill:#7f3e13;"/><path d="M7.66,34.23c-2.37,.03-4.27,1.97-4.24,4.34s1.97,4.27,4.34,4.24c2.35-.03,4.24-1.94,4.24-4.29,0-2.37-1.92-4.29-4.29-4.29h0" style="fill:#b85a1b;"/><path d="M4.43,27.82c0-1.3,1.05-2.35,2.35-2.35,1.3,0,2.35,1.05,2.35,2.35,1.32-2.21,5.45-1,4.17,2.47,.07,.27,.12,.55,.16,.83,2.24,.13,3,3.62-.1,4.71-.22,.9-.64,1.74-1.22,2.46-2.62,2.28-3.49,.42-4.9-1.12-1.37,0-5.12-.93-4.06,2.6-2.4-1.54-3.94-4.65-2.79-9.2-1.6-3.68,2.66-5.06,4-2.75h.04Z" style="fill:#7f3e13;"/><path d="M1.83,31.09c-.54,2.21-.57,4.71,1,6.5,1.92,2.17,5.24,2.38,7.41,.45,.4-.35,.74-.77,1.02-1.22,.81-1.81,.98-3.84,.48-5.76-3.27-.66-6.63-.66-9.9,0v.03Z" style="fill:#b85a1b;"/><path d="M1.83,31.09c-.54,2.21-.57,4.71,1,6.5,1.03,1.12,2.48,1.76,4,1.76v-8.78c-1.68,.01-3.35,.19-5,.52" style="fill:#e1762f;"/><path d="M4,32.78c-.43,1.23-.21,2.59,.58,3.62,1.04,1.21,2.86,1.36,4.07,.32,.24-.2,.44-.45,.61-.72,.45-1.01,.54-2.14,.26-3.21-1.82-.36-3.69-.36-5.51,0" style="fill:#7f3e13;"/><path d="M6.76,29.39c.69,0,1.25-.56,1.25-1.25s-.56-1.25-1.25-1.25v2.5Zm4.52-1.57c.69,.02,1.24,.59,1.22,1.28-.02,.69-.59,1.24-1.28,1.22-.68-.02-1.22-.57-1.22-1.25,0-.69,.56-1.24,1.25-1.25" style="fill:#b85a1b;"/><path d="M2.5,28c.69,0,1.25,.56,1.25,1.25s-.56,1.25-1.25,1.25c-.7-.02-1.26-.6-1.24-1.3,0,0,0,0,0,0,.03-.67,.57-1.2,1.24-1.2m4.26,1.44v-2.52c-.68,.02-1.23,.57-1.24,1.25,0,.67,.55,1.22,1.22,1.22,0,0,.01,0,.02,0v.05Z" style="fill:#e1762f;"/><path d="M12.69,32.34c.69,0,1.25,.56,1.25,1.25s-.56,1.25-1.25,1.25-1.25-.56-1.25-1.25c-.01-.68,.53-1.24,1.21-1.25,.01,0,.03,0,.04,0" style="fill:#b85a1b;"/><path d="M55.54,47.07c-.29-3.75-2-6.44-5.32-7.88l.68-2.59,5.38-1.45c4.67,1.41,6.53,4.42,7.43,8.17l-8.17,3.75Z" style="fill:#7eaaba;"/><path d="M56.66,45l5.34-2.48c-.93-3.14-2.5-5.16-5.8-6l-4.2,1.16-.2,.71c2.49,1.41,4.26,3.81,4.86,6.61Z" style="fill:#fff;"/><path d="M50.35,47.71c-1.21-3.67,.78-7.63,4.45-8.84,3.67-1.21,7.63,.78,8.84,4.45,1.21,3.67-.78,7.63-4.45,8.84,0,0,0,0,0,0-3.67,1.21-7.63-.78-8.84-4.45" style="fill:#7eaaba;"/><path d="M51.5,47.32c1.01,3.03,4.28,4.67,7.31,3.66s4.67-4.28,3.66-7.31c-1-3.02-4.26-4.66-7.28-3.67-3.03,.99-4.69,4.26-3.69,7.29,0,0,0,0,0,0" style="fill:#d3e8ef;"/><path d="M62.71,44.73c-.04-.34-.11-.67-.22-1-.97-3.04-4.21-4.71-7.25-3.75-.02,0-.03,.01-.05,.02-.89,.31-1.7,.81-2.37,1.48,.05,.34,.12,.67,.22,1,1,3.03,4.27,4.68,7.3,3.68h0c.91-.27,1.72-.78,2.37-1.47" style="fill:#fff;"/><path d="M49,49.5c-1.14-3.46,.74-7.18,4.2-8.32,3.46-1.14,7.18,.74,8.32,4.2,1.14,3.46-.74,7.18-4.2,8.32-3.44,1.15-7.15-.71-8.3-4.14,0-.02-.01-.04-.02-.06" style="fill:#7f3e13;"/><path d="M50.38,49.09c-.9-2.73,.58-5.67,3.31-6.57,2.73-.9,5.67,.58,6.57,3.31,.89,2.71-.56,5.63-3.26,6.55-2.72,.9-5.66-.57-6.57-3.29" style="fill:#b85a1b;"/><path d="M50.16,46.62c.32-1.92,1.67-3.51,3.52-4.13,2.73-.9,5.67,.57,6.57,3.3,.13,.42,.22,.85,.25,1.28-3.2,2.03-7.33,1.85-10.34-.45Z" style="fill:#e1762f;"/><path d="M26.2,7.07c2.69,.08,4.82,2.31,4.78,5,.12,2.64-1.92,4.87-4.56,4.99-2.64,.12-4.87-1.92-4.99-4.56,0-.15,0-.29,0-.44-.04-2.69,2.08-4.91,4.77-5" style="fill:#7f3e13;"/><path d="M26.2,8.44c-1.94,.08-3.44,1.72-3.36,3.65,0,0,0,0,0,0-.07,1.93,1.43,3.56,3.36,3.65,1.94-.08,3.45-1.71,3.37-3.64,0,0,0,0,0,0,.06-1.93-1.44-3.56-3.37-3.66" style="fill:#b85a1b;"/><path d="M26.2,9.85c-1.17,.07-2.07,1.08-2,2.25,0,0,0,.02,0,.03-.06,1.17,.83,2.18,2,2.27,1.17-.07,2.07-1.08,2-2.25,0,0,0-.01,0-.02,.06-1.18-.83-2.18-2-2.28" style="fill:#63300f;"/><path d="M46.44,7.07c2.69,.08,4.82,2.31,4.78,5,.12,2.64-1.92,4.87-4.56,4.99-2.64,.12-4.87-1.92-4.99-4.56,0-.15,0-.29,0-.44-.04-2.69,2.08-4.91,4.77-5" style="fill:#7f3e13;"/><path d="M46.44,8.44c-1.94,.08-3.44,1.72-3.36,3.65,0,0,0,0,0,0-.18,1.86,1.19,3.51,3.05,3.68s3.51-1.19,3.68-3.05c.02-.21,.02-.42,0-.64,.06-1.93-1.44-3.56-3.37-3.66" style="fill:#b85a1b;"/><path d="M46.44,9.85c-1.17,.07-2.07,1.08-2,2.25,0,0,0,.02,0,.03-.06,1.17,.83,2.18,2,2.27,1.17-.07,2.07-1.08,2-2.25,0,0,0-.01,0-.02,.06-1.18-.83-2.18-2-2.28" style="fill:#4f2800;"/><path d="M38.25,9.44c.83,0,1.51,.68,1.51,1.51,0,.83-.68,1.51-1.51,1.51-.83,0-1.51-.68-1.51-1.51,0,0,0,0,0,0,0-.83,.67-1.5,1.5-1.5,0,0,0,0,.01,0m-3.85,0c.83,0,1.51,.67,1.52,1.5s-.67,1.51-1.5,1.52c-.83,0-1.51-.67-1.52-1.5,0,0,0-.01,0-.02,0-.83,.67-1.5,1.5-1.5" style="fill:#7f3e13;"/><path d="M53.91,15.71v9.39h.09c1.36,.51,2.26,1.82,2.24,3.27v6.72l-19.92,6.6-19.92-6.41v-6.88c-.01-1.45,.89-2.76,2.25-3.27h.09V15.68c0-6.47,35.17-6.47,35.17,0v.03Z" style="fill:#7f3e13;"/><path d="M20.34,16.07v10.12l-.83,.32c-.92,.33-1.53,1.2-1.51,2.18v7.11l18.32,5.89,18.31-6v-7c.02-.96-.57-1.84-1.47-2.18l-.83-.32v-10.12c0-4.81-32-4.81-32,0h.01Z" style="fill:#b85a1b;"/><path d="M20.34,16.07v10.12l-.83,.32c-.92,.33-1.53,1.2-1.51,2.18v7.11l18.32,5.89v-3.85c-6.35,0-12.69-4.13-11-12.36h11V12.48c-8,0-16,1.22-16,3.59h.02Z" style="fill:#e1762f;"/><path d="M24.47,23.34h23.8c3.36,17.87-27.45,17.74-23.8,0" style="fill:#e5895b;"/><path d="M25.63,24.75c-.45,2.72,.4,5.49,2.3,7.49,2.31,2.1,5.35,3.2,8.46,3.07,2.99,.05,5.89-1.02,8.13-3,2-1.98,2.94-4.8,2.53-7.59l-21.42,.03Z" style="fill:#e5895b;"/><path d="M40.33,33.07c1.6,2.08,6.27,1.22,4.87-3.17l-4.87,3.17Z" style="fill:#fad395;"/><path d="M38.85,32.62c1.8,2.31,7.63,.93,6.28-4.06l-6.28,4.06Z" style="fill:#4f2800;"/><path d="M44.23,28.78c.37-.09,.75,.14,.84,.51,.11,.36-.09,.75-.45,.87-.37,.09-.74-.14-.83-.51-.11-.36,.09-.74,.44-.87m-3.81,2.66c.39-.07,.77,.18,.84,.58,.06,.34-.13,.68-.45,.8-.36,.06-.71-.17-.81-.52-.11-.36,.09-.74,.45-.86" style="fill:#fff;"/><path d="M42.76,33.52c1.4-.41,2.41-1.62,2.56-3.07-1-.16-2.82,1.37-2.56,3.07" style="fill:#ad6151;"/><path d="M26.91,23.34h18.86c2.69,12.78-21.77,12.66-18.86,0" style="fill:#fad395;"/><path d="M36.32,30.61c.12-.77,.43-1.5,.9-2.12,2.25-.18,3.93-2.15,3.75-4.4-.02-.25-.06-.5-.13-.75-1.44-.51-2.95-.77-4.48-.77l-.93,2.91,.89,5.13Z" style="fill:#4f2800;"/><path d="M36.32,30.61c-.12-.77-.42-1.5-.89-2.12-2.25-.18-3.93-2.15-3.75-4.4,.02-.25,.06-.5,.13-.75,1.44-.51,2.95-.77,4.48-.77l.03,8.04Z" style="fill:#63300f;"/><path d="M33,23.79c2.2-.58,4.5-.58,6.7,0,.93,2.33-7.72,2.3-6.7,0" style="fill:#ad6151;"/><path d="M32.74,17.28c1.4,0,2.53,1.13,2.53,2.53s-1.13,2.53-2.53,2.53-2.53-1.13-2.53-2.53c0-1.4,1.13-2.52,2.53-2.53" style="fill:#fff;"/><path d="M32.93,18.18c1.04,.02,1.87,.89,1.85,1.93-.02,1.04-.89,1.87-1.93,1.85-1.03-.02-1.85-.86-1.85-1.89-.01-1.03,.82-1.88,1.85-1.89,.01,0,.03,0,.04,0" style="fill:#1b1d23;"/><path d="M40,17.28c-1.4,0-2.53,1.13-2.53,2.53,0,1.4,1.13,2.53,2.53,2.53,1.4,0,2.53-1.13,2.53-2.53h0c0-1.4-1.13-2.52-2.53-2.53" style="fill:#fff;"/><path d="M39.81,18.18c-1.04,0-1.89,.85-1.89,1.89s.85,1.89,1.89,1.89c1.04,0,1.89-.85,1.89-1.89h0c-.01-1.04-.85-1.88-1.89-1.89" style="fill:#1b1d23;"/><path d="M34.56,16.48c-1.79-.4-3.67-.06-5.22,.93-.54-3.1,4.68-4,5.22-.93" style="fill:#63300f;"/><path d="M37.64,14.91c1.79-.4,3.67-.06,5.22,.93,.54-3.1-4.65-4-5.22-.93" style="fill:#4f2800;"/><path d="M56.21,35.15v19.41c0,1.31-1.06,2.36-2.37,2.37H18.74c-1.31,0-2.36-1.06-2.37-2.37v-19.21l19.92,4.77,19.92-4.97Z" style="fill:#7eaaba;"/><path d="M54.64,37.17l-18.32,4.52-18.32-4.36v16.82c-.01,.64,.5,1.17,1.14,1.18,.01,0,.03,0,.04,0H53.48c.64,.01,1.17-.5,1.18-1.14,0-.01,0-.03,0-.04v-17l-.02,.02Z" style="fill:#d3e8ef;"/><path d="M36.32,41.72l-18.32-4.39v16.82c-.01,.64,.5,1.17,1.14,1.18,.01,0,.03,0,.04,0h17.18v-13.61h-.04Z" style="fill:#fff;"/><path d="M36.32,50.72h15.38v2.05h-15.38v-2.05Zm0-4.26h15.38v2h-15.38v-2Z" style="fill:#036aab;"/><path d="M36.32,52.8v-2.08h-15.32v2.05h15.32v.03Zm-15.32-6.34h15.32v2.08h-15.32v-2.08Z" style="fill:#0399ed;"/><polygon points="29.12 54.53 27.2 54.53 27.2 45.12 29.12 45.12 29.12 54.53" style="fill:#fff;"/><path d="M21.78,36.6c4.87,1.15,9.71,2.33,14.54,3.49l-5.18,4.91c-3.37-2-6.7-4.17-9.36-8.39" style="fill:#7eaaba;"/><path d="M25.88,39.22c1.51,1.46,3.19,2.73,5,3.78l2.18-2.08c-2.37-.55-4.8-1.15-7.21-1.7" style="fill:#fff;"/><path d="M50.86,36.6c-4.86,1.15-9.7,2.33-14.54,3.49l5.19,4.91c3.36-2,6.7-4.17,9.35-8.39" style="fill:#7eaaba;"/><path d="M46.76,39.22c-1.51,1.46-3.18,2.73-5,3.78l-2.18-2.08c2.4-.55,4.8-1.15,7.2-1.7" style="fill:#fff;"/></g></svg>