<?xml version="1.0" encoding="UTF-8"?>
<!-- Generator: Adobe Illustrator 18.0.0, SVG Export Plug-In . SVG Version: 6.00 Build 0)  -->
<!DOCTYPE svg PUBLIC "-//W3C//DTD SVG 1.1//EN" "http://www.w3.org/Graphics/SVG/1.1/DTD/svg11.dtd">
<svg version="1.1" id="Layer_1" xmlns="http://www.w3.org/2000/svg" xmlns:xlink="http://www.w3.org/1999/xlink" x="0px" y="0px" viewBox="0 90 612 612" enable-background="new 0 90 612 612" xml:space="preserve">
<g>
	<path fill="#664F44" d="M543.6,635.5c-1.9,1.9-4.3,2.8-7,2.8c-2.8,0-5.2-1-7.1-2.9c-1.9-1.9-2.9-4.3-2.9-7.1c0-2.9,1-5.3,3.1-7.3   c2-1.8,4.2-2.7,6.8-2.7c2.8,0,5.1,1,7,2.9c2,2,2.9,4.3,2.9,7C546.6,631.2,545.6,633.6,543.6,635.5z M530.8,622.6   c-1.6,1.6-2.4,3.5-2.4,5.8c0,2.3,0.8,4.3,2.4,5.9c1.6,1.6,3.5,2.4,5.8,2.4s4.2-0.8,5.8-2.4c1.6-1.6,2.4-3.6,2.4-5.9   c0-2.2-0.8-4.1-2.4-5.8c-1.6-1.7-3.5-2.5-5.8-2.5C534.3,620.1,532.4,621,530.8,622.6z M539.8,633.4c-1,0.6-1.9,1-2.9,1   c-1.5,0-2.8-0.5-3.9-1.6c-1.1-1.1-1.7-2.5-1.7-4.3c0-1.6,0.5-3,1.4-4.2c1-1.2,2.3-1.7,3.9-1.7c1,0,2,0.2,2.7,0.6   c1.3,0.7,2,2,2.4,3.7l-2.5,0c-0.1-0.8-0.5-1.4-1-1.6c-0.4-0.3-0.9-0.4-1.4-0.4c-0.7,0-1.4,0.3-1.8,0.9c-0.5,0.6-0.7,1.5-0.7,2.8   c0,1.2,0.3,2.1,0.8,2.7s1.2,0.8,1.9,0.8c0.7,0,1.2-0.2,1.5-0.5c0.4-0.4,0.6-0.8,0.7-1.4h2.5C541.4,631.6,540.8,632.7,539.8,633.4z"/>
	<path fill="#664F44" d="M564.9,528.6c0-1-0.1-2-0.2-2.9c-0.1-0.6-0.2-1.2-0.3-1.8c-0.2-1.3-0.5-2.6-1-3.9v0   c-0.9-2.6-2.3-5.1-4.2-7.2c-1.8-2.1-4-3.8-6.2-4.9l-0.1,0c-2.3-1.2-4.6-1.9-6.7-2.3c-0.6-0.1-1.2-0.2-1.7-0.2   c2.6-11.3-0.7-20-2.8-24.1c0.2-0.2,0.3-0.3,0.5-0.5c2.8-2.7,5.2-5.4,7.3-8l0.4-0.5c1.6-2.3,2.7-4.7,3.4-6.9c0.6-1.9,0.9-3.6,1-5.1   h0l0-0.1v-0.2l0.1-0.5h0l0-0.5h0v-0.3c0-0.3,0-0.6,0-1c0-0.6,0-1.3,0-2c-0.1-3.5-0.8-8.1-3.1-13c-1.2-2.5-2.7-5-4.9-7.3   c-2.1-2.4-4.7-4.5-7.8-6.2h0c-0.2-0.1-0.4-0.2-0.6-0.4c-6.3-9.3-13.5-16.4-19.8-21.9c-3.3-2.8-6.4-5.2-9-7.1   c-2.6-1.9-4.8-3.4-6-4.3h0c-2.8-2-4.9-3.3-5.9-3.9c-2.3-1.4-4-2.5-5-3.3c-0.8-0.6-1.2-1-1.3-1.2l-0.1-0.1c0,0-0.1-0.2-0.2-0.8   c-0.1-0.6-0.3-1.7-0.3-3.2c-0.1-2.4,0-5.9,0.2-10.6c0.4-7.5,1.3-17.8,2.1-31.8c0.3-4.4,0.3-8.6,0.2-12.6   c-0.3-6.3-1.1-12.1-2.4-17.2v0c-0.3-1.2-0.6-2.3-1-3.5l0,0v0c-0.3-0.9-0.5-1.5-0.6-1.9v0c-0.3-0.8-0.5-1.5-0.9-2.3v0   c-0.1-0.4-0.3-0.9-0.6-1.5v0l0,0c-0.5-1.1-1-2.3-1.7-3.6l-0.2-0.4l-0.4-0.6l-0.2-0.4c-1.3-2.1-2.6-4-4-5.8c-0.7-3.2-2-8-4-13.4   c-1.8-4.8-4.3-10-7.7-15.2c-1.2-1.8-2.6-3.6-4.1-5.3l0.5-0.5c0.7-0.7,17.4-18.2,30.4-40.8c24.3-42.2,16.2-68,5.2-82.2l-0.4-0.4   l-0.3-0.4c-10.7-11.8-25.2-19-43.1-21.2c-37.2-4.6-79.2,13.6-90.2,18.8l-20-22.1l-0.1-0.1c-1.8-2-3.7-3.7-5.9-5.2   c-2.1-1.5-4.4-2.9-6.8-3.9c-4.8-2.2-10-3.6-15.6-4.3c-11.2-1.4-23.8,0-37.5,3.5c-20.5,5.3-43.5,15.5-67.6,30   c-24.1,14.5-49.1,33.1-73.5,55.3c-29.8,27.1-54.4,55.8-72.3,83.1C59,280,51.7,293.2,46.3,305.8c-5.4,12.6-9,24.5-10.3,35.5   c-1,8-0.8,15.6,0.8,22.5c0.7,3,1.7,6,3,8.8c1.7,3.6,3.8,6.9,6.5,9.8l0.1,0.1l21,22l2.3,2.4l-0.1,0.2c-0.3,0.5-0.5,0.9-0.7,1.3   c-0.4,0.7-0.7,1.3-1.1,2c-0.2,0.5-0.5,0.9-0.7,1.4c-0.3,0.7-0.7,1.4-1,2c-0.2,0.5-0.4,0.9-0.6,1.4c-0.3,0.7-0.6,1.4-0.9,2.1   c-0.2,0.5-0.4,0.9-0.5,1.4c-0.3,0.7-0.5,1.5-0.8,2.2c-0.2,0.5-0.3,1-0.5,1.4c-0.2,0.7-0.5,1.5-0.7,2.3c-0.1,0.2-0.1,0.4-0.2,0.6   c-0.1,0.3-0.1,0.5-0.2,0.8c-0.2,0.8-0.4,1.6-0.6,2.3c-0.1,0.5-0.2,0.9-0.3,1.4c-0.1,0.3-0.1,0.7-0.2,1c-0.1,0.5-0.2,1-0.3,1.5   c-0.1,0.5-0.2,0.9-0.3,1.3c-0.2,1-0.3,2-0.5,3c0,0.3-0.1,0.6-0.1,0.9v0.1l0,0.3c-0.1,0.6-0.1,1.3-0.2,2c-0.1,1-0.2,2.1-0.2,3.1   c0,0.5,0,0.9-0.1,1.4c0,0.4,0,0.7,0,1.1c0,0.7,0,1.5,0,2.2c0,0.4,0,0.9,0,1.3c0,0.3,0,0.5,0,0.8v0.1v0c0,0.5,0,1,0,1.4   c0,0.5,0.1,1,0.1,1.5c0,0.4,0,0.8,0,1.1c0,0.3,0,0.6,0.1,0.8c0,0.5,0.1,1,0.1,1.5c0,0.6,0.1,1.2,0.2,1.8v0l0,0   c0,0.3,0.1,0.4,0.1,0.6c0.1,0.5,0.2,1.1,0.2,1.6c0.1,0.5,0.1,1,0.3,1.7c0,0.3,0.1,0.5,0.1,0.7c0.1,0.3,0.1,0.7,0.2,1v0v0l0.1,0.4   c0.1,0.5,0.2,1,0.4,1.8c0,0.2,0.1,0.4,0.1,0.5c0.1,0.5,0.2,0.9,0.3,1.1l0.1,0.5c0,0.2,0.1,0.3,0.1,0.5l0.1,0.5l0.1,0.4l0.1,0.4   c0,0.2,0.1,0.3,0.1,0.5l0.1,0.5c0.1,0.4,0.2,0.7,0.4,1.1c0.1,0.4,0.3,1,0.5,1.8l0-0.1l0,0.1c0.1,0.2,0.1,0.3,0.2,0.5   c0.2,0.6,0.4,1.1,0.5,1.4l0,0l0,0c0.1,0.4,0.4,1,0.7,1.8l0,0v0v0l0,0.1v0l0.1,0.3c0.2,0.5,0.4,0.9,0.5,1.2l0.1,0.4l0,0.1   c0.1,0.2,0.2,0.5,0.3,0.7c0.1,0.3,0.3,0.6,0.4,1l0,0l0.2,0.4c0.1,0.3,0.3,0.7,0.4,0.9c0.1,0.3,0.2,0.5,0.3,0.7l0,0l0,0l0,0l0,0l0,0   c0.2,0.4,0.4,0.9,0.8,1.6l0,0.1l0,0l0.1,0.3c0.1,0.3,0.3,0.5,0.4,0.8c0.2,0.3,0.3,0.6,0.5,0.8l0,0c0.2,0.3,0.4,0.8,0.8,1.4l0,0l0,0   l0.1,0.2c0.1,0.2,0.3,0.5,0.4,0.7c0.2,0.4,0.4,0.7,0.6,1l0,0.1v0c0.2,0.3,0.4,0.7,0.8,1.3l0,0l0.1,0.2c0.2,0.3,0.4,0.5,0.5,0.8   c0.3,0.4,0.5,0.7,0.7,1l0,0c0.2,0.3,0.5,0.8,0.9,1.3l0,0l0,0l0-0.1l0,0.1l0,0l0,0l0,0l0,0c0.2,0.3,0.4,0.5,0.6,0.8   c0.3,0.4,0.5,0.7,0.7,1l0,0c0.2,0.3,0.5,0.6,0.8,1.1l0.1,0.1c0.2,0.3,0.5,0.6,0.7,0.9c0.3,0.4,0.6,0.7,0.8,1l0.1,0.1   c0.2,0.2,0.4,0.5,0.7,0.8l0.1,0.1l0,0l0,0l0.1,0.1l0,0c0.4,0.5,0.8,0.9,1.2,1.3l0.4,0.5l0,0l0,0l0,0l0,0l0,0   c0.2,0.2,0.4,0.5,0.7,0.8l0.1,0.1l0,0h0l0,0l0,0c0.5,0.5,0.9,1,1.4,1.4c0.2,0.2,0.4,0.4,0.5,0.6l0,0c0.1,0.1,0.3,0.3,0.7,0.7   l0.1,0.1l0.2,0.2c0.5,0.5,1.1,1,1.7,1.5l0.1,0.1l0,0.1l0,0l0,0c0.1,0.1,0.4,0.3,0.7,0.6l0,0c0.7,0.6,1.4,1.3,2.1,1.9l0,0l0.4,0.3   l0.3,0.2l0,0l0.4,0.3c0.6,0.5,1.2,1,1.8,1.4l0.2,0.1l0.1,0c0.2,0.2,0.4,0.3,0.5,0.4l0.1,0.1l0.1,0.1c0.2,0.1,0.3,0.2,0.5,0.4   c0.5,0.4,1,0.7,1.5,1.1l0.4,0.3l0,0l0.5,0.4h0l0.3,0.2c0.5,0.4,1.1,0.7,1.6,1c0.3,0.2,0.5,0.4,0.9,0.5l0.5,0.3l0.3,0.1l0.2,0.1   c0.9,0.5,1.7,1,2.4,1.4l0.1,0l0.5,0.2l0,0c1,0.5,2,1,2.9,1.5l0.2,0.1l0.5,0.2l0,0c0.5,0.2,1,0.4,1.4,0.6c0.2,0.1,0.5,0.2,0.7,0.3   c0.3,0.1,0.6,0.3,0.9,0.4l0.2,0.1l0.1,0l0.1,0c0.5,0.2,1,0.4,1.4,0.6l0.2,0.1c0.5,0.2,1,0.4,1.6,0.6l0.1,0l0.4,0.1   c0.2,0.1,0.5,0.2,0.7,0.3l0.2,0.1c0.8,0.3,1.5,0.5,2.3,0.8l0.2,0l0.1,0l0,0c1.2,0.4,2.4,0.7,3.5,1h0l0.2,0l-0.1,0   c1,0.3,2.1,0.5,3.1,0.7h0l0.4,0.1l0.4,0.1c1,0.2,2,0.4,2.9,0.5l0.3,0.1l0.7,0.1c0.6,0.1,1.2,0.2,1.8,0.3c0.1,0.2,0.2,0.5,0.3,0.7v0   c1.6,4.4,3.4,8.9,5.3,13.2c27.9,77.3,105.2,137.3,193.4,148.3c88.2,11,182.3-47.6,220.6-126.8c1.6-3,3.2-6,4.5-8.9   c3.8-3.9,6.8-8,8.7-12.3C564.4,538.2,565.1,532.9,564.9,528.6z"/>
	<polygon fill="#664F44" points="487.4,301.6 487.4,301.6 487.4,301.6  "/>
	<path fill="#664F44" d="M98.3,518.1L98.3,518.1L98.3,518.1z"/>
	<polygon fill="#664F44" points="73.4,494.7 73.4,494.7 73.4,494.7  "/>
	<path fill="#664F44" d="M73.4,494.7L73.4,494.7L73.4,494.7z"/>
	<polygon fill="#664F44" points="61.7,470 61.7,469.9 61.7,469.9  "/>
	<path fill="#664F44" d="M60.7,466L60.7,466L60.7,466z"/>
	<rect x="75.6" y="497.8" fill="#664F44" width="0" height="0.1"/>
	<path fill="#132134" d="M489.5,142c-4.3-4.8-9.2-8.3-14.6-11c-1-0.4-2-0.7-3-1c-0.5-0.3-1-0.6-1.5-1c-4.7-1.8-9.8-3-14.9-3.7   c-25.6-3.3-54.8,6-71.4,12.7c-0.9,0.4-1.8,0.8-2.8,1.2c-1.4,0.6-2.8,1.2-4.2,1.8c-2.4,1.1-4.8,2.2-7.3,3.3   c-0.4,0.2-0.7,0.3-1.1,0.5l-4.5-5.3l-2-2.4l-1.9-2.2l-0.8-1l-17.2-20l-1.5-1.7l-1.9-2.1l-0.3,0.1l-4.9,1.1l-5.6,1.3   c-3.1-1.5-6.8-2.5-11.1-3c-8.5-1.1-19.4-0.1-31.8,3.1c-12.4,3.2-26.3,8.5-41,15.8c-29.4,14.7-62.2,37.2-93.7,66   c-11,10-21.2,20.3-30.7,30.6c-9.2,10-17.5,20-25,29.8c-15.2,20-26.9,39.5-34.4,56.9c-5,11.6-8.1,22.2-9.2,31.3   c-0.8,6.6-0.6,12.4,0.5,17.2c0.4,1.5,0.8,2.9,1.4,4.3c1.1,2.8,2.6,5.3,4.5,7.3l19.1,20l2,2.1l0.1-0.1c0.6-0.7,1.2-1.3,1.8-2   l0.2-0.2c0.2-0.2,0.5-0.5,0.7-0.7c0.6-0.6,1.1-1.2,1.7-1.8c0.4-0.4,0.7-0.7,1.1-1.1c0.4-0.3,0.7-0.7,1.1-1c0.2-0.1,0.3-0.3,0.5-0.5   c0.4-0.4,0.8-0.7,1.2-1c0.5-0.5,1.1-1,1.7-1.4c0.3-0.3,0.7-0.5,1-0.8l0.1-0.1c0.6-0.5,1.2-1,1.8-1.4c0.4-0.3,0.8-0.6,1.2-0.9   c0.6-0.5,1.3-0.9,1.9-1.3c0.4-0.3,0.8-0.5,1.2-0.8c0.7-0.4,1.4-0.9,2-1.3c0.4-0.2,0.8-0.5,1.2-0.7c0.7-0.4,1.5-0.8,2.2-1.2   c0.4-0.2,0.8-0.4,1.2-0.6l0.4-0.2l0.1,0c0.6-0.3,1.2-0.6,1.9-0.9c0.4-0.2,0.7-0.3,1-0.5c0.5-0.2,1-0.5,1.6-0.7   c0.5-0.2,0.9-0.4,1.4-0.6l0.5-0.2c1.2-0.5,2.4-0.9,3.6-1.4c0.4-0.1,0.8-0.3,1.1-0.4c0.4-0.1,0.8-0.3,1.2-0.4l0.5-0.2   c0.2-0.1,0.5-0.2,0.7-0.2c0.5-0.1,1-0.3,1.5-0.4l0.4-0.1c0.6-0.2,1.2-0.3,1.8-0.5c0.5-0.1,1.1-0.3,1.7-0.4c0.7-0.2,1.4-0.3,2.1-0.5   c0.3,0,0.6-0.1,0.9-0.2c0.3,0,0.6-0.1,0.9-0.1c0.7-0.1,1.4-0.2,2.1-0.4c0.6-0.1,1.2-0.2,1.8-0.3c0.5-0.1,1-0.1,1.5-0.2   c0.2,0,0.4,0,0.6,0c0.2,0,0.5-0.1,0.7-0.1l0.4,0c2.4-0.1,5.1-0.1,8,0.1l0.5,0c2.9,0.2,6.1,0.7,9.5,1.4c0.8,0.2,1.6,0.3,2.4,0.5   c0.2-0.3,0.4-0.6,0.5-1c1.8-3.2,3.6-6.3,5.4-9.3c10.6-17.8,22-33.4,33.6-46.9c4-4.6,8-9,12-13.2c16.7-17.4,33.4-31,48.8-41.4   c3.4-2.3,6.7-4.5,10-6.5c4.4-2.8,8.6-5.3,12.7-7.6c3.3-1.8,6.5-3.5,9.5-5c5-2.5,9.6-4.6,13.6-6.3c1.2-0.5,2.4-1,3.6-1.5   c1.8-0.7,3.4-1.4,4.8-1.9c-1.3-0.1-2.5-0.2-3.9-0.3c-1.2-0.1-2.5-0.1-3.7-0.1c-0.3,0-0.6,0-1,0c-1.3,0-2.5,0-3.8,0.1   c-2.4,0.1-5,0.4-7.5,0.8c-0.9,0.1-1.7,0.3-2.6,0.5c6.4-3.3,12.7-5.8,18.7-7.6c4-1.2,8-2.2,11.8-2.9c5.2-1,10.2-1.6,14.7-1.9   c3-0.2,5.9-0.3,8.6-0.2c2.7,0,5.1,0.1,7.3,0.3c7.8,0.6,12.4,1.8,12.4,1.8c-1.1-1.5-2.5-2.9-4-4.1c-2.7-2.1-5.9-3.6-8.7-4.7   c-1.1-0.4-2.1-0.8-3-1.1c-0.7-0.2-1.4-0.4-2-0.6c1.3-0.2,2.6-0.4,3.9-0.6c1.4-0.2,2.7-0.3,4-0.5c11.2-1,20.9-0.1,28.3,1.3   c8.8,1.6,14.2,3.9,14.2,3.9c-1.3-2.4-3.1-4.5-5.2-6.3c-1.5-1.3-3.1-2.4-4.6-3.3c3,0.7,5.8,1.5,8.4,2.3c7.1,2.2,13.1,4.7,17.8,6.9   c1.5,0.7,2.9,1.5,4.2,2.1c0.4,0.2,0.7,0.4,1,0.5c4.3,2.4,6.7,4.1,6.7,4.1c-0.7-2.5-2.2-4.9-3.9-7.1c-0.4-0.5-0.9-1.1-1.3-1.6   l0.2,0.1c0.2,0,0.5,0.2,1,0.3c0.4,0.1,0.8,0.3,1.3,0.5c1.9,0.7,4.8,1.8,8.2,3.5c0.2,0.1,0.3,0.2,0.5,0.2c0.5,0.2,0.9,0.5,1.4,0.7   c1.2,0.6,2.4,1.3,3.6,2c1.1,0.7,2.3,1.4,3.5,2.2c0.6,0.4,1.2,0.8,1.8,1.3c1.3,0.9,2.6,1.9,3.9,3c1.3,1.1,2.6,2.3,3.8,3.5   c0.2,0.2,0.5,0.5,0.7,0.7c0.9,0.9,1.8,1.9,2.6,2.9c1.6,1.9,3.1,4,4.4,6.2c1.6,2.7,2.9,5.6,3.9,8.7c0,0.2,0.1,0.4,0.1,0.5   c0.7-0.8,2-2.2,3.7-4.1C473.2,225.7,514.2,173.7,489.5,142z"/>
	<path fill="#90694C" d="M550.8,530.2L550.8,530.2c0,0,0.5-3.6-1.4-6.8l0-0.1c-0.1-0.2-0.2-0.4-0.4-0.5l-0.1-0.2   c-0.2-0.3-0.5-0.5-0.7-0.8c-0.5-0.5-1-1-1.7-1.4c-0.3-0.2-0.7-0.4-1.1-0.6c-1.1-0.5-2.4-0.9-3.9-1.1c-1.1-0.2-2.4-0.2-3.8-0.2   c-0.6,0-1.1,0-1.7,0.1l-0.3,0c0,0,0,0.1,0.1,0.4c0.1,0.2,0.1,0.6,0.3,1c0,0.2,0.1,0.4,0.1,0.5c0.2,0.8,0.4,1.8,0.7,2.9   c0,0-0.1,0.2-0.2,0.6l-0.1,0.2c-0.7,1.6-2.6,5.4-6.8,10.3c-0.7,0.8-1.5,1.7-2.4,2.6c-11.8,12.2-37.4,29.6-91.2,39.3   c-18.3,2.6-35.1,2.7-49.5,0.9c-21.3-2.6-37.2-9.4-44.6-18.6c-0.6-0.8-1.2-1.6-1.8-2.4c-0.4-0.6-0.8-1.2-1.2-1.8   c-0.1-0.2-0.3-0.5-0.4-0.7c-3.2-5.6-4.6-11.8-4.5-17.7c0.1-7.2,2.4-14.1,6.2-19.4c3.1-4.3,7.2-7.6,12-9.1c2.4-0.7,4.9-1.1,7.5-0.9   c0.5,0,1.2,0.1,2.1,0.2c1.8,0.2,4.2,0.6,7.3,1c0.3,0,0.6,0.1,1,0.1c10.1,1.3,26.2,2.8,45.6,1.6c35.4-2.2,81.9-13.3,124.2-51.4   l0.1-0.1l0,0v0c0.1-3.2-0.3-9-4.3-13.4c-0.7-0.8-1.5-1.5-2.5-2.2c-0.5-0.4-1.1-0.8-1.7-1.1c-0.6-0.4-1.2-0.7-1.7-1   c-0.7-0.5-1.5-0.9-2.1-1.4l-0.1-0.1c-0.3-0.5-0.6-0.9-0.9-1.3c-11-16.6-26.1-26.3-32.1-30.7c-2.9-2.1-4.7-3-4.7-3   c-13-7.9-15-10.6-13.7-32.2c0.4-7.8,1.3-18,2.1-31.8c0.1-1.8,0.2-3.5,0.2-5.2c0-0.4,0-0.8,0-1.2c0-1.6,0-3.1-0.1-4.6l0.1-0.4l0-0.5   c-0.1-1.2-0.1-2.3-0.2-3.4c0-0.5-0.1-1-0.1-1.5c-0.1-1.2-0.3-2.3-0.5-3.4c-0.1-0.6-0.2-1.1-0.3-1.7c-0.1-0.6-0.2-1.2-0.4-1.8   c-0.1-0.6-0.3-1.2-0.4-1.7l0,0l0,0l0,0c-0.2-0.7-0.4-1.4-0.6-2c-0.1-0.2-0.1-0.5-0.2-0.7c-0.1-0.2-0.1-0.4-0.2-0.6l-0.1-0.2   l-0.2-0.6v0c-0.2-0.5-0.4-1-0.5-1.5l-0.1-0.2l-0.2-0.5l-0.2-0.6l0-0.1l0,0l0,0c-0.4-0.9-0.8-1.8-1.2-2.6l-0.4-0.6   c-0.5-0.8-1-1.6-1.5-2.3l-0.2-0.3l-0.3-0.3c-0.3-0.5-0.7-1-1.1-1.5l-0.5-0.6c-0.5-0.6-1-1.2-1.5-1.7l0,0l0-0.1l0-0.1l0-0.1l0-0.2   l0-0.2l-0.1-0.3l0-0.2l-0.1-0.5l0-0.2c-0.2-0.9-0.4-2-0.8-3.4l0-0.1c-0.1-0.3-0.2-0.7-0.3-1l0-0.1c-0.1-0.4-0.2-0.7-0.3-1.1l0,0   c-0.3-0.9-0.5-1.9-0.9-2.9c-0.1-0.3-0.2-0.7-0.4-1c-0.2-0.7-0.5-1.4-0.8-2.2c-0.2-0.4-0.3-0.9-0.5-1.3c-0.3-0.7-0.5-1.4-0.9-2.1   c-0.2-0.5-0.4-0.9-0.6-1.4c-0.3-0.7-0.6-1.4-1-2.1c-0.2-0.5-0.5-1-0.7-1.4c-0.4-0.7-0.8-1.4-1.2-2.1c-0.2-0.5-0.5-0.9-0.8-1.4   c-0.5-0.8-1-1.5-1.5-2.2c-0.3-0.4-0.5-0.8-0.8-1.1c-0.2-0.3-0.5-0.6-0.8-0.9c-0.6-0.8-1.2-1.5-1.8-2.2l-0.1-0.1l-0.4-0.4   c-0.8-0.9-1.7-1.8-2.7-2.6l-0.2-0.1c-0.4-0.4-0.9-0.7-1.3-1l0,0l-0.2-0.1c-0.4-0.3-0.8-0.5-1.2-0.8l-0.2-0.1l0.1,0.1   c-0.4-0.3-1.2-0.7-2.2-1.1c-0.4-0.1-0.7-0.3-1.1-0.5c-2-0.8-4.8-1.7-8-2.6c-0.2,0-0.4-0.1-0.6-0.1c-2.7-0.7-5.7-1.4-8.9-1.9   c-1.1-0.2-2.2-0.3-3.3-0.5c-0.5-0.1-1-0.1-1.6-0.1c-0.2,0-0.4,0-0.6-0.1c-2.5-0.2-5.1-0.4-7.6-0.4h-0.1c-3.3,0-6.6,0.3-9.8,0.9   c0.7-1.2,2.7-2.6,4.8-3.7c2.5-1.4,5-2.5,5-2.5c-1.4,0.1-2.9,0.3-4.4,0.5c-0.5,0.1-1,0.1-1.4,0.2c-0.3,0-0.6,0.1-0.9,0.2l-0.3,0   c-0.3,0-0.5,0.1-0.8,0.2c-7.3,1.6-14.4,4.2-18.4,5.8c-0.5,0.2-1,0.4-1.5,0.6l-0.2,0.1c-0.4,0-0.8,0.1-1.2,0.2l0,0   c2.9-5.4,7.2-8.3,10.4-9.8c0.6-0.3,1.1-0.5,1.6-0.7c0.2-0.1,0.3-0.1,0.5-0.2c0.5-0.2,0.9-0.3,1.2-0.4c0.8-0.2,1.3-0.3,1.3-0.3   c-0.4,0-0.7,0-1,0.1c-0.3,0-0.6,0-0.9,0.1c-0.4,0-0.9,0-1.3,0.1c-0.2,0-0.5,0-0.8,0c-8.1,0.9-15.4,3.6-21.6,7.1   c-4.3,2.4-8.1,5-11.3,7.7c-0.9,0.2-1.7,0.4-2.6,0.5c-8.9,1.9-19.1,4.4-29.7,7.6c-3.9,1.2-8,2.5-12,4c-3.2,1.1-6.3,2.4-9.5,3.7   c-2.3,0.9-4.6,1.9-6.8,2.9c-16.4,7.3-32.6,17-46.1,30.1c-0.5,0.5-1,0.9-1.5,1.4c-1.1,1.1-2.2,2.4-3.4,3.6c-0.5,0.5-1,1-1.4,1.5   c-0.6,0.6-1.1,1.3-1.7,2c-2.5,2.9-5,6-7.2,9.2c-1.7,2.4-3.3,4.9-4.8,7.5l-0.2,0.3c-3.1,5.4-5.8,11.2-8.1,17.4   c-1.1,3.1-2.1,6.3-3,9.6c-0.2,0.9-0.5,1.8-0.7,2.6l-0.1,0.5c-0.9,3.6-1.5,7.3-2.1,11.2c-0.1,0.8-0.2,1.5-0.3,2.3   c-0.2,1.9-0.4,3.9-0.6,5.9c-0.1,1.8-0.3,3.6-0.3,5.5l0,0.4c0,0.9-0.1,1.8-0.1,2.7c0,1,0,2.1,0,3.2c0,0.2,0,0.5,0,0.8   c0,2.1,0,4.2,0.1,6.4l0,0.4c0.1,2.1,0.2,4.3,0.4,6.5c0.1,0.9,0.2,1.8,0.2,2.8c0,0.2,0,0.5,0.1,0.7c0,0.5,0.1,1,0.2,1.5   c0.3,2.4,0.6,4.9,1,7.4c0.1,0.7,0.2,1.4,0.3,2.1c0.4,2.2,0.7,4.4,1.2,6.7c0,0-0.4-2.9-0.1-7.2c0.1-1,0.1-2,0.3-3.1   c0.3-2.4,0.8-5.1,1.7-7.8c0.2-0.7,0.5-1.4,0.7-2c0.1-0.3,0.2-0.6,0.4-0.9c0.5-1.3,1.1-2.5,1.8-3.8c0.2,0.9,0.3,1.8,0.5,2.7l0,0.3   v0.4c0,0.5,0,1.1,0,1.8c0,1.4,0,2.9,0,4.6c0,1.7,0,3.5,0.1,5.4c0.2,8,0.9,17.7,2.7,25.9c0,0,0.3-15,2.9-16.7c0,0,4.4,27.8,8.6,38.3   c0.5,1.4,1.1,2.4,1.6,3.1l-0.1-2.8l-0.6-15.4c0,0,0-0.6,0.1-1.6c3.1,6.3,6.6,12.8,10.6,19.5c1.1,1.9,2.2,3.7,3.4,5.6   c-7.6,6.7-14.7,16.2-19.8,27.6c-0.8,1.8-1.6,3.7-2.3,5.6c-0.4,1.1-0.8,2.2-1.1,3.3c-0.1,0.4-0.2,0.7-0.3,1   c-0.2,0.8-0.5,1.6-0.7,2.4c-0.1,0.4-0.2,0.8-0.3,1.2c-0.2,0.8-0.4,1.6-0.6,2.4c-0.1,0.4-0.2,0.8-0.3,1.1c-0.3,1.2-0.5,2.3-0.7,3.5   l0,0.1c-0.2,1.2-0.4,2.4-0.6,3.6c0,0.4-0.1,0.8-0.1,1.2c-0.1,0.9-0.2,1.7-0.3,2.6c0,0.4-0.1,0.9-0.1,1.3c-0.1,0.9-0.1,1.8-0.2,2.6   c0,0.4,0,0.8-0.1,1.2c0,1.3-0.1,2.5-0.1,3.8v0.2c0,1,0,2,0.1,3c0,1,0.1,2,0.2,3l0,0.4l0,0.3c0.1,1.2,0.2,2.4,0.4,3.7   c0,0.4,0.1,0.8,0.2,1.2c0.1,0.9,0.2,1.7,0.4,2.5c0.1,0.5,0.2,1,0.3,1.4c0.1,0.8,0.3,1.6,0.5,2.4c0.1,0.5,0.2,1,0.3,1.5   c0.2,0.8,0.4,1.5,0.5,2.3c0.1,0.5,0.3,1,0.4,1.5c0.2,0.8,0.4,1.5,0.7,2.3c0.1,0.5,0.3,1,0.5,1.5c0.3,0.8,0.5,1.6,0.8,2.4   c0.2,0.5,0.3,1,0.5,1.5c0.3,0.9,0.7,1.8,1,2.7c0.2,0.4,0.3,0.8,0.5,1.2c1.1,2.6,2.3,5.2,3.6,7.7c0.2,0.4,0.4,0.8,0.6,1.1   c0.5,0.9,1,1.8,1.5,2.7c0.3,0.5,0.5,1,0.8,1.4c0.5,0.8,1,1.6,1.5,2.4c0.3,0.5,0.6,1,1,1.5c0.5,0.8,1,1.6,1.6,2.4   c0.4,0.5,0.7,1,1.1,1.6c0.5,0.8,1.1,1.6,1.7,2.3c0.4,0.5,0.8,1,1.2,1.5c0.6,0.8,1.3,1.6,1.9,2.4c0.4,0.5,0.8,1,1.2,1.5   c0.7,0.9,1.5,1.7,2.3,2.6c0.4,0.4,0.7,0.8,1.1,1.2c1.1,1.3,2.3,2.5,3.5,3.8l0,0c0,0-0.7-1-1.7-2.8l0-0.1c-0.2-0.3-0.4-0.7-0.6-1.1   l-0.1-0.1c-0.2-0.4-0.4-0.8-0.6-1.3l0-0.1c-0.2-0.5-0.5-1-0.7-1.5c-1.8-4.4-3.6-10.4-3.3-17.1c0.7,0.9,1.4,1.8,2.1,2.8   c0.8,1.7,1.9,3.8,3.1,6.1c0.4,0.8,0.8,1.6,1.3,2.4c1.8,3.3,3.9,7,6.2,10.7c2.7,4.4,5.7,8.8,8.8,12.7l0,0c0,0-3.6-7.5-4.8-12.4   c-0.3-1.4-0.5-2.6-0.3-3.3c0.3,0.3,0.6,0.6,0.9,0.9c0.3,0.3,0.6,0.6,0.9,0.9c0.6,0.8,1.3,1.7,2.1,2.8l0.4,0.5   c0.4,0.5,0.8,1.1,1.3,1.7l0,0c0.5,0.7,1,1.4,1.6,2.1c5,6.5,11.8,14.8,16.6,19.4c1.6,1.5,3,2.6,4,3.1l-6.9-12.4   c15.6,12.7,80.3,29.1,143.9,10.8c7.7-2.2,15.4-4.9,22.9-8.2c4.6-2,9.1-4.1,13.6-6.6l0.6-0.4c3.1-1.7,6.2-3.5,9.3-5.5l0.1,0   c2.3-1.5,4.6-3,6.9-4.6c3.8-2.7,7.6-5.5,11.2-8.6l0,0l0,0c0.2-0.2,0.4-0.4,0.6-0.5c3.6-3.2,7-6.4,10.2-9.8   c4.2-4.4,7.9-8.9,11.3-13.4l0.2-0.3c0.8-1.1,1.6-2.2,2.4-3.3l0.2-0.3c0.3-0.4,0.5-0.7,0.7-1.1c1.1-1.6,2.2-3.2,3.2-4.7   c0.2-0.4,0.5-0.8,0.7-1.1c0.5-0.8,1-1.7,1.5-2.5c0.4-0.6,0.8-1.3,1.1-1.9c0.4-0.7,0.8-1.4,1.2-2.1c0.7-1.3,1.4-2.5,2.1-3.7   c0.3-0.5,0.5-1,0.8-1.5c0.5-1,1-1.9,1.5-2.9c0.2-0.5,0.5-0.9,0.7-1.3l0.2-0.4c0.6-1.2,1.2-2.4,1.7-3.5l0.1-0.2   c2-1.9,3.6-3.7,4.9-5.5c0.2-0.2,0.4-0.5,0.5-0.7C549.8,537,550.7,533.4,550.8,530.2z"/>
	<path fill="#90694C" d="M170.5,484.2c0-0.3-0.1-0.6-0.2-0.9l0,0c-0.7-4.1-1.3-8.3-1.7-12.6c0-0.3-0.1-0.6-0.1-0.9   c-0.7,0.2-1.5,1.2-2.3,2.4c-0.3,0.5-0.6,1-0.9,1.5c-2.1,4-4.1,9.6-4.1,9.6c0.1-1.9,0.4-3.8,0.6-5.8c0-0.2,0.1-0.5,0.1-0.7   c0.2-2,0.5-4,0.8-6c0-0.2,0.1-0.5,0.1-0.7c0.3-2.2,0.7-4.5,1.1-6.6c0-0.3,0.1-0.5,0.1-0.8l0-0.1c0-0.2,0.1-0.5,0.1-0.8   c0.1-0.4,0.1-0.7,0.2-1.1c0.3-1.7,0.6-3.4,0.9-4.9c0.3-1.4,0.5-2.8,0.8-4l0.1-0.4c0-0.2,0.1-0.4,0.1-0.6c0.1-0.1,0.1-0.3,0.1-0.5   l0-0.1c0.1-0.3,0.1-0.6,0.2-0.9l0-0.1c0.1-0.3,0.1-0.5,0.2-0.8c0.1-0.4,0.2-0.9,0.3-1.3l0-0.1c0.1-0.3,0.1-0.7,0.2-1   c0.1-0.4,0.2-0.8,0.3-1.2l0,0l0,0c0-0.2,0.1-0.4,0.1-0.6v0c0-0.2,0.1-0.4,0.1-0.5c0.1-0.4,0.2-0.8,0.2-1l0.1-0.2l0-0.1l0.1-0.3   l0-0.2v0l0,0l-0.4,0.4c-0.4,0.3-0.8,0.7-1.1,1l-0.4,0.4c-0.4,0.5-0.8,1-1.2,1.5l-0.2,0.3c-0.5,0.7-0.9,1.4-1.3,2.1l0,0l0,0.1l0,0   l-0.2,0.3c-0.1,0.2-0.2,0.4-0.3,0.5c-0.2,0.5-0.5,0.9-0.7,1.3v0v0l0,0l-0.1,0.1l-0.1,0.2c-0.3,0.7-0.6,1.4-1,2.1   c-0.8,2-1.5,3.8-1.9,5.4c-0.2,0.5-0.3,1.1-0.5,1.5c-0.3,1-0.5,1.8-0.5,2.2v0l-0.1,0.3l0,0l0,0l0-0.3c0-0.6,0.1-1.2,0.1-1.8   c0.1-1.2,0.2-2.5,0.3-3.7c0.1-1,0.3-2,0.4-3.1c0-0.3,0.1-0.6,0.1-1c0.1-0.5,0.1-1,0.2-1.4c0.1-0.5,0.2-0.9,0.2-1.3v0l0,0l0.1-0.5   l0-0.1c0.1-0.5,0.2-1.1,0.3-1.6c0-0.2,0.1-0.4,0.1-0.6l0.1-0.4l0-0.1c0-0.2,0.1-0.4,0.1-0.5c0-0.2,0.1-0.4,0.1-0.6   c0.2-0.8,0.4-1.5,0.5-2.3l0-0.1c0.1-0.6,0.3-1.1,0.4-1.7v0l0,0l0-0.2c0.3-1.2,0.6-2.3,1-3.4l0.1-0.3l0.1-0.3   c0.1-0.2,0.1-0.4,0.2-0.6c0.5-1.9,1.1-3.7,1.8-5.5l0.1-0.2c0.5-1.5,1.1-3,1.6-4.5l0.1-0.2c0.3-0.6,0.5-1.3,0.8-1.9l0-0.1   c0.4-1,0.8-1.9,1.2-2.8l0,0l0,0v0l0-0.1c0.1-0.2,0.4-0.8,0.7-1.6v0l0-0.1l0,0c0.1-0.3,0.3-0.6,0.4-1c0.2-0.5,0.5-1,0.7-1.6l0.2-0.5   v0l4-7.3c0.2-0.3,0.3-0.6,0.5-0.9l0.1-0.1l0.2-0.4c0.4-0.8,0.9-1.6,1.3-2.4c0.6-1.2,1.3-2.3,1.9-3.3c1.2-2.1,2.2-3.9,2.8-5   c0.3-0.6,0.6-1,0.6-1.1l0,0l0,0h0l0,0c-0.1-0.1-1.4-1-3.4-2.2c-2.3-1.4-5.6-3.3-9.7-5.2c-1.3-0.6-2.7-1.2-4.1-1.8   c-1.7-0.7-3.5-1.4-5.4-2c-0.5-0.2-1-0.3-1.5-0.5c-1.6-0.5-3.2-1-4.9-1.3l-0.1,0c-1.1-0.3-2.3-0.5-3.4-0.8c-0.9-0.2-1.8-0.3-2.8-0.5   c-0.5-0.1-0.9-0.1-1.4-0.1c-0.5,0-0.9-0.1-1.3-0.1c-1.3-0.1-2.5-0.2-3.8-0.2c-0.6,0-1.2,0-1.8,0c-2.7,0.1-5.4,0.3-8,0.7l-0.5,0.1   c-4.8,0.7-9.3,1.9-13.7,3.5c-1.5,0.5-2.9,1.2-4.4,1.8c-0.4,0.2-0.8,0.4-1.2,0.6c-0.5,0.2-1,0.5-1.5,0.7c-4.3,2.2-8.4,4.9-12.1,8   l-0.1,0.1c-3.2,2.7-6.1,5.6-8.8,8.8c-0.8,0.9-1.5,1.9-2.2,2.8c-0.8,1.1-1.6,2.3-2.4,3.4c-1.5,2.2-2.8,4.5-4,6.9   c-0.4,0.8-0.8,1.7-1.2,2.5c-0.1,0.2-0.1,0.3-0.2,0.5c-2.4,5.6-4.2,11.6-5,17.9c-0.2,1.2-0.3,2.5-0.4,3.7l0,0.5c-0.1,1-0.1,2-0.2,3   c0,1.2,0,2.4,0,3.7c0,0.2,0,0.4,0,0.6c0,1,0.1,1.9,0.1,2.9l0,0.5c0,0.2,0,0.5,0.1,0.7c0.1,0.8,0.1,1.5,0.2,2.2l0,0.2v0l0,0   c0,0.4,0.1,0.7,0.2,1.1c0.1,0.7,0.2,1.3,0.3,2c0.1,0.5,0.2,1,0.3,1.4c0.1,0.6,0.2,1.2,0.4,1.9c0.1,0.5,0.2,1,0.4,1.5l0.1,0.4   l0.1,0.5l0.1,0.4l0.1,0.5c0.1,0.5,0.3,1,0.5,1.5c0.2,0.5,0.3,1.1,0.5,1.6c0.2,0.5,0.4,1,0.5,1.6l0.1,0.4c0.1,0.4,0.3,0.7,0.4,1.1   c0.2,0.5,0.4,1,0.6,1.6c0.2,0.5,0.4,1,0.6,1.4c0.1,0.3,0.2,0.5,0.4,0.8c0.1,0.3,0.2,0.5,0.4,0.8c0.2,0.5,0.4,0.9,0.6,1.4   c0.3,0.5,0.5,1.1,0.9,1.6c0.2,0.4,0.5,0.8,0.7,1.2c0.3,0.5,0.6,1.1,1,1.6c0.2,0.4,0.5,0.8,0.7,1.1c0.4,0.5,0.7,1.1,1.1,1.6   c0.2,0.4,0.5,0.7,0.7,1c0.4,0.5,0.8,1.1,1.2,1.6c0.2,0.3,0.5,0.6,0.7,1c0.4,0.5,0.9,1.1,1.3,1.6c0.2,0.3,0.5,0.6,0.7,0.9   c0.5,0.5,0.9,1.1,1.4,1.6c0.2,0.3,0.5,0.5,0.7,0.8c0.5,0.5,1,1.1,1.5,1.6c0.2,0.2,0.5,0.5,0.7,0.7c0.5,0.5,1.1,1.1,1.7,1.6   c0.2,0.2,0.4,0.4,0.6,0.6c0.6,0.5,1.2,1,1.8,1.5c0.2,0.2,0.4,0.3,0.6,0.5c0.6,0.5,1.3,1,2,1.5c0.2,0.1,0.4,0.3,0.6,0.4   c0.7,0.5,1.4,1,2.1,1.5l0.5,0.4c0.7,0.5,1.5,1,2.2,1.4l0.5,0.3c0.8,0.5,1.5,0.9,2.3,1.4l0.4,0.2c0.8,0.5,1.6,0.9,2.5,1.3l0.4,0.2   c0.9,0.4,1.7,0.8,2.6,1.2l0.3,0.1c0.9,0.4,1.8,0.7,2.7,1.1l0.3,0.1c1,0.3,1.9,0.7,2.8,1l0.2,0.1c0.5,0.1,1,0.3,1.4,0.4   c0.5,0.1,1,0.3,1.5,0.5l0.1,0c1,0.3,2,0.5,3.1,0.7l0.1,0h0c1,0.2,2.1,0.4,3.1,0.6l0,0c3.3,0.5,6.6,0.8,10,0.9l0,0   c0.8,0,1.6,0,2.4,0c1.1,0,2.2-0.1,3.3-0.2c1.5-0.1,3.1-0.3,4.6-0.5c1.4-0.2,2.7-0.5,4.1-0.7c2.1-0.4,4.2-1,6.3-1.5   c6.1-1.8,11.4-4.1,14.7-6.5c0,0-2.1-9.3-3.9-18.8C170.9,486.2,170.7,485.2,170.5,484.2z"/>
	<polygon fill="#90694C" points="447.2,259.6 447.2,259.6 447.2,259.6  "/>
	<path fill="#2F83C1" d="M322.2,133.1l-0.8-9.5l4.7-10.5l0,0l1.9-0.4c-3.1-1.5-6.8-2.5-11.1-3c-8.5-1.1-19.4-0.1-31.8,3.1   c-12.4,3.2-26.3,8.5-41,15.8c-29.4,14.7-62.2,37.2-93.7,66c-11,10-21.2,20.3-30.7,30.6c-9.2,10-17.5,20-25,29.8   c-15.2,20-26.9,39.5-34.4,56.9c-5,11.6-8.1,22.2-9.2,31.3c-0.8,6.6-0.6,12.4,0.5,17.2c0.4,1.5,0.8,2.9,1.4,4.3   c1.1,2.8,2.6,5.3,4.5,7.3l19.1,20l2,2.1l0.1-0.1c0.6-0.7,1.2-1.3,1.8-2l0.2-0.2c0.2-0.2,0.5-0.5,0.7-0.7c0.6-0.6,1.1-1.2,1.7-1.8   c0.4-0.4,0.7-0.7,1.1-1.1c0.4-0.3,0.7-0.7,1.1-1c0.2-0.1,0.3-0.3,0.5-0.5c0.4-0.4,0.8-0.7,1.2-1c0.5-0.5,1.1-1,1.7-1.4   c0.3-0.3,0.7-0.5,1-0.8l0.1-0.1c0.6-0.5,1.2-1,1.8-1.4c0.4-0.3,0.8-0.6,1.2-0.9c0.6-0.5,1.3-0.9,1.9-1.3c0.4-0.3,0.8-0.5,1.2-0.8   c0.7-0.4,1.4-0.9,2-1.3c0.4-0.2,0.8-0.5,1.2-0.7c0.7-0.4,1.5-0.8,2.2-1.2c0.4-0.2,0.8-0.4,1.2-0.6l0.4-0.2l0-0.1   c4.6-12.6,11.4-26.4,20.3-40.6c10.9-17.6,24.8-36,41.3-54.3c10.4-11.5,21.8-23,34.1-34.3c15.9-14.5,32.2-27.5,48.2-38.7   c10.8-7.6,21.5-14.3,31.9-20.2c1-0.6,2-1.1,3-1.7c2.8-1.5,5.5-3,8.3-4.4c5.9-3.1,11.8-5.9,17.5-8.3l-2.8-3.4l-0.5-0.5l-3.4-4.1   l-19.7-23.7l0.2-17l-0.2-0.2l13.9-4.1L322.2,133.1z"/>
	<path fill="#FCE9CD" d="M550.8,530.2L550.8,530.2c0,0,0.5-3.6-1.4-6.8l0-0.1c-0.1-0.2-0.2-0.4-0.4-0.5l-0.1-0.2   c-0.2-0.3-0.5-0.5-0.7-0.8c-0.5-0.5-1-1-1.7-1.4c-0.3-0.2-0.7-0.4-1.1-0.6c-1.1-0.5-2.4-0.9-3.9-1.1c-1.1-0.2-2.4-0.2-3.8-0.2   c-0.6,0-1.1,0-1.7,0.1l-0.3,0c0,0,0,0.1,0.1,0.4c0.1,0.2,0.1,0.6,0.3,1c0,0.2,0.1,0.4,0.1,0.5c0.2,0.8,0.4,1.8,0.7,2.9   c0,0-0.1,0.2-0.2,0.6l-0.1,0.2c-0.7,1.6-2.6,5.4-6.8,10.3c-0.7,0.8-1.5,1.7-2.4,2.6c-11.8,12.2-37.4,29.6-91.2,39.3   c-18.3,2.6-35.1,2.7-49.5,0.9c-21.3-2.6-37.2-9.4-44.6-18.6c-0.6-0.8-1.2-1.6-1.8-2.4c-0.4-0.6-0.8-1.2-1.2-1.8   c-0.1-0.2-0.3-0.5-0.4-0.7c-3.2-5.6-4.6-11.8-4.5-17.7c0.1-7.2,2.4-14.1,6.2-19.4c3.1-4.3,7.2-7.6,12-9.1c2.4-0.7,4.9-1.1,7.5-0.9   c0.5,0,1.2,0.1,2.1,0.2c1.8,0.2,4.2,0.6,7.3,1c0.3,0,0.6,0.1,1,0.1c10.1,1.3,26.2,2.8,45.6,1.6c35.4-2.2,81.9-13.3,124.2-51.4   l0.1-0.1l0,0v0c0.1-3.2-0.3-9-4.3-13.4c-0.7-0.8-1.5-1.5-2.5-2.2c-0.5-0.4-1.1-0.8-1.7-1.1c-0.6-0.4-1.2-0.7-1.7-1   c-0.7-0.5-1.5-0.9-2.1-1.4l-0.1-0.1c-0.3-0.5-0.6-0.9-0.9-1.3c-11-16.6-26.1-26.3-32.1-30.7c-2.9-2.1-4.7-3-4.7-3   c-13-7.9-15-10.6-13.7-32.2c0.4-7.8,1.3-18,2.1-31.8c0.1-1.8,0.2-3.5,0.2-5.2c0-0.4,0-0.8,0-1.2c0-1.6,0-3.1-0.1-4.6l0.1-0.4l0-0.5   c-0.1-1.2-0.1-2.3-0.2-3.4c0-0.5-0.1-1-0.1-1.5c-0.1-1.2-0.3-2.3-0.5-3.4c-0.1-0.6-0.2-1.1-0.3-1.7c-0.1-0.6-0.2-1.2-0.4-1.8   c-0.1-0.6-0.3-1.2-0.4-1.7l0,0l0,0l0,0c-0.2-0.7-0.4-1.4-0.6-2c-0.1-0.2-0.1-0.5-0.2-0.7c-0.1-0.2-0.1-0.4-0.2-0.6l-0.1-0.2   l-0.2-0.6v0c-0.2-0.5-0.4-1-0.5-1.5l-0.1-0.2l-0.2-0.5l-0.2-0.6l0-0.1l0,0l0,0c-0.4-0.9-0.8-1.8-1.2-2.6l-0.4-0.6   c-0.5-0.8-1-1.6-1.5-2.3l-0.2-0.3l-0.3-0.3c-0.3-0.5-0.7-1-1.1-1.5l-0.5-0.6c-0.5-0.6-1-1.2-1.5-1.7l0,0c-0.6-0.6-1.2-1.3-1.9-1.8   c-0.7-0.5-1.4-0.9-2.1-1.2c-0.2-0.1-0.5-0.2-0.7-0.3c-0.5-0.2-1-0.4-1.4-0.6c-0.3-0.1-0.5-0.2-0.8-0.3c-0.4-0.1-0.9-0.3-1.3-0.4   c-0.3-0.1-0.6-0.1-0.8-0.2c-0.4-0.1-0.8-0.2-1.2-0.2c-0.3,0-0.5-0.1-0.8-0.1c-0.4,0-0.8-0.1-1.2-0.1c-0.3,0-0.5,0-0.8,0   c-0.4,0-0.8,0-1.3,0.1c-0.3,0-0.5,0-0.8,0.1l-0.5,0.1c-0.3,0-0.5,0.1-0.8,0.1c-0.2,0-0.5,0.1-0.7,0.1c-0.5,0.1-1,0.2-1.5,0.4   l-0.5,0.1c-1.4,0.4-2.7,0.9-4,1.5l-0.5,0.2c-0.5,0.2-1,0.5-1.5,0.8l-0.6,0.3c-0.5,0.2-1,0.5-1.4,0.8l-0.6,0.4   c-0.5,0.3-0.9,0.5-1.4,0.8l-0.6,0.4c-0.5,0.3-1,0.6-1.5,0.9l-0.5,0.4c-0.5,0.4-1.1,0.7-1.6,1.1l-0.3,0.2c-0.6,0.4-1.2,0.9-1.9,1.3   l0,0l-0.1,0.1l0,0c-1.2,0.8-2.3,1.6-3.5,2.4c-1,0.7-2,1.4-3,2l-0.5,0.3c-1,0.7-2,1.4-3.1,2l-0.5,0.3c-1,0.6-2.1,1.3-3.1,1.9   l-0.5,0.3c-1,0.6-2.1,1.1-3.2,1.7l-0.5,0.3c-1.1,0.5-2.2,1-3.3,1.4l-0.5,0.2c-1.2,0.4-2.4,0.8-3.5,1.1l-0.3,0.1   c-1.3,0.3-2.5,0.6-3.9,0.8c-2.2,0.3-4.4,0.4-6.6,0.4c-3.6,0-7.2-0.3-10.8-0.8c-1.2-0.2-2.4-0.4-3.6-0.6c-0.4-0.1-0.9-0.1-1.3-0.2   c-3.1-0.6-6.3-1.3-9.5-2.1c-1.3-0.3-2.7-0.6-4-1c-2.2-0.5-4.4-1-6.5-1.5c-0.4-0.1-0.9-0.2-1.3-0.3h0c-0.3-0.1-0.6-0.1-0.9-0.2   c-0.5-0.1-1-0.2-1.5-0.3c-0.5-0.1-0.9-0.2-1.4-0.3l-0.2,0l-0.2,0c-0.4-0.1-0.9-0.2-1.3-0.3c-1-0.2-2-0.4-3-0.5   c-0.3,0-0.6-0.1-0.9-0.1c-0.7-0.1-1.5-0.2-2.2-0.3c-0.4,0-0.8-0.1-1.1-0.1h-0.1c-0.6-0.1-1.3-0.2-1.9-0.2c-0.4,0-0.9-0.1-1.3-0.1   c-0.2,0-0.4,0-0.6,0c-0.4,0-0.9-0.1-1.3-0.1c-0.4,0-0.9,0-1.3-0.1c-0.7,0-1.4,0-2,0c-0.2,0-0.4,0-0.6,0c-0.2,0-0.4,0-0.6,0   c-0.8,0-1.7,0-2.5,0c-0.2,0-0.5,0-0.7,0c-1.1,0-2.2,0.1-3.2,0.2c-0.3,0-0.6,0.1-0.9,0.1c-0.7,0.1-1.4,0.2-2.1,0.3l-0.3,0   c-0.4,0-0.8,0.1-1.2,0.2c-0.7,0.1-1.5,0.3-2.2,0.4c-0.4,0.1-0.8,0.2-1.3,0.3c-0.7,0.2-1.4,0.4-2.1,0.6c-0.4,0.1-0.8,0.2-1.2,0.4   c-0.8,0.2-1.5,0.5-2.3,0.8c-0.4,0.1-0.7,0.2-1.1,0.4c-1.1,0.4-2.3,0.9-3.4,1.4c-9,5.2-16.7,12.2-22.8,20.4c-2,2.7-3.9,5.6-5.6,8.6   c-1.8,3.1-3.3,6.4-4.7,9.8c-0.4,1-0.8,2-1.1,2.9c-0.6,1.7-1.1,3.4-1.6,5.1c0,0.2-0.1,0.4-0.1,0.5c-0.5,1.9-1,3.9-1.4,5.8   c-0.4,2-0.7,4.1-0.9,6.2c-0.1,1.1-0.2,2.2-0.3,3.4c-0.2,3-0.2,6,0,9c0,0.3,0,0.5,0,0.8c0,0.8,0.1,1.5,0.2,2.3   c0.2,2.1,0.5,4.3,1,6.4c0.1,0.8,0.4,1.5,0.5,2.3c0.2,0.7,0.3,1.5,0.5,2.2l0,0c1.5,5.4,3.7,10.3,6.2,14.7   c9.8,16.9,25.8,27,37.5,32.4c4.5,2,9.3,3.8,14.2,5.4c0,0-0.2,0.1-0.6,0.4c-0.9,0.2-1.9,0.5-3,0.8c-1.7,0.5-3.7,1.1-5.8,1.8   c-2.4,0.8-5.1,1.8-7.9,3c-7.6,3.1-16.1,7.6-23.7,13.7c-1,0.8-1.9,1.6-2.8,2.4c-1.6,1.4-3,2.9-4.5,4.5c-0.2,0.2-0.3,0.4-0.5,0.5   c-0.2,0.2-0.4,0.5-0.6,0.7c-0.5,0.6-1.1,1.3-1.6,1.9c-0.2,0.3-0.4,0.5-0.6,0.8c-0.7,0.9-1.4,1.8-2,2.8c-0.6,0.9-1.2,1.9-1.8,2.9   c-4.5,7.9-7.1,17.3-6.3,28.5l0-0.1l0-0.1c0-0.1,0-0.2,0.1-0.4l0-0.1c0-0.2,0.1-0.4,0.1-0.6l0-0.1c0.1-0.3,0.1-0.5,0.2-0.9l0-0.2   c0.1-0.3,0.2-0.7,0.3-1.1l0,0c0.1-0.4,0.2-0.8,0.4-1.3l0.1-0.3c0.1-0.5,0.3-0.9,0.5-1.4l0.1-0.2c0.2-0.5,0.4-0.9,0.5-1.4l0.1-0.2   c0.2-0.5,0.5-1,0.7-1.6l0.2-0.3c0.3-0.5,0.5-1.1,0.8-1.7l0,0c0,0,0,0,0-0.1c0.5-0.9,1-1.7,1.5-2.6c0.2-0.3,0.4-0.7,0.6-1l0.2-0.3   l0,0c0.5-0.7,0.9-1.4,1.5-2c0.4-0.5,0.9-1.1,1.3-1.6c0.1-0.2,0.3-0.3,0.5-0.5c0.4-0.4,0.8-0.8,1.1-1.2c0.2-0.2,0.3-0.3,0.5-0.5   c0.5-0.5,1.1-1,1.7-1.5l0,0l0,0l0,0c0,0-10.2,23.1-5.8,41.5c0,0,0,0,0-0.1c0,0,0-0.1,0-0.1c0-0.1,0-0.2,0-0.4c0,0,0-0.1,0-0.1   c0-0.2,0-0.4,0-0.7c0,0,0-0.1,0-0.1c0-0.3,0-0.6,0-0.9c0,0,0-0.1,0-0.1c0-0.4,0-0.7,0.1-1.1c0,0,0-0.1,0-0.1c0-0.4,0.1-0.9,0.1-1.3   c0,0,0-0.1,0-0.1c0-0.5,0.1-0.9,0.2-1.5c0,0,0-0.1,0-0.1c0.1-0.5,0.2-1.1,0.3-1.6l0-0.1l0-0.3l0,0c0.1-0.6,0.3-1.3,0.5-2   c0,0,0-0.1,0-0.1c0.2-0.6,0.4-1.3,0.6-2c0.1-0.2,0.1-0.4,0.2-0.6l0.1-0.4l0,0c0.2-0.5,0.4-1.1,0.6-1.6l0-0.1l0,0   c0.3-0.8,0.7-1.5,1.1-2.2c0.1-0.2,0.2-0.4,0.3-0.6c0.4-0.7,0.9-1.4,1.4-2.1l0,0l0,0l0,0l0,0c0,0-0.6,5.7-0.4,12.5   c0,1.1,0.1,2.2,0.1,3.3c0,0.7,0.1,1.5,0.2,2.2c0.5-7.3,1.8-14.1,3.7-20.5c-1.9,6.4-3.3,13.2-3.7,20.5l0,0   c-0.3,4.6-0.2,9.5,0.3,14.5c0.8,8.3,2.8,17.1,6.3,26.4c0,0-3.2-10.7,1.4-21.3c0.4,1,0.9,2,1.3,2.9c0.4,3.2,1,7.7,2,12.6   c0.9,8.3,4.8,33,21.6,50.4c0,0-6.4-8.3-5.4-19c0.7,1.4,1.3,2.7,2,3.8c2.9,5.4,8.6,15.4,14.8,22.4c0,0-5.1-9.8-3.9-11.9   c0,0,16.5,20.5,21.7,22.5l-6.9-11.4l-0.2-0.3c24,17.4,56.9,23.8,97.5,12.5c7-2,14.2-4.4,21.7-7.5c4.6-2,9.1-4.1,13.6-6.6l0.6-0.4   c3.1-1.7,6.2-3.5,9.3-5.5l0.1,0c2.3-1.5,4.6-3,6.9-4.6c3.8-2.7,7.6-5.5,11.2-8.6l0,0l0,0c0.2-0.2,0.4-0.4,0.6-0.5   c3.6-3.2,7-6.4,10.2-9.8c4.2-4.4,7.9-8.9,11.3-13.4l0.2-0.3c0.8-1.1,1.6-2.2,2.4-3.3l0.2-0.3c0.3-0.4,0.5-0.7,0.7-1.1   c1.1-1.6,2.2-3.2,3.2-4.7c0.2-0.4,0.5-0.8,0.7-1.1c0.5-0.8,1-1.7,1.5-2.5c0.4-0.6,0.8-1.3,1.1-1.9c0.4-0.7,0.8-1.4,1.2-2.1   c0.7-1.3,1.4-2.5,2.1-3.7c0.3-0.5,0.5-1,0.8-1.5c0.5-1,1-1.9,1.5-2.9c0.2-0.5,0.5-0.9,0.7-1.3l0.2-0.4c0.6-1.2,1.2-2.4,1.7-3.5   l0.1-0.2c2-1.9,3.6-3.7,4.9-5.5c0.2-0.2,0.4-0.5,0.5-0.7C549.8,537,550.7,533.4,550.8,530.2z"/>
	<path fill="#FCE9CD" d="M168.6,469.8c-0.7,0.2-1.5,1.2-2.3,2.4c-0.3,0.5-0.6,1-0.9,1.5c-2.1,4-4.1,9.6-4.1,9.6   c0.1-1.9,0.4-3.8,0.6-5.8c0-0.2,0.1-0.5,0.1-0.7c0.2-2,0.5-4,0.8-6c0-0.2,0.1-0.5,0.1-0.7c0.3-2.2,0.7-4.5,1.1-6.6   c0-0.3,0.1-0.5,0.1-0.8l0-0.1c0-0.2,0.1-0.5,0.1-0.8c0.1-0.4,0.1-0.7,0.2-1.1c0.3-1.7,0.6-3.4,0.9-4.9c0.3-1.4,0.5-2.8,0.8-4   l0.1-0.4c0-0.2,0.1-0.4,0.1-0.6c0.1-0.1,0.1-0.3,0.1-0.5l0-0.1c0.1-0.3,0.1-0.6,0.2-0.9l0-0.1c0.1-0.3,0.1-0.5,0.2-0.8   c0.1-0.4,0.2-0.9,0.3-1.3l0-0.1c0.1-0.3,0.1-0.7,0.2-1c0.1-0.4,0.2-0.8,0.3-1.2l0,0l0,0c0-0.2,0.1-0.4,0.1-0.6v0   c0-0.2,0.1-0.4,0.1-0.5c0.1-0.4,0.2-0.8,0.2-1l0.1-0.2l0-0.1l0.1-0.3l0-0.2v0l0,0l-0.4,0.4c-0.4,0.3-0.8,0.7-1.1,1l-0.4,0.4   c-0.4,0.5-0.8,1-1.2,1.5l-0.2,0.3c-0.5,0.7-0.9,1.4-1.3,2.1l0,0l0,0.1l0,0l-0.2,0.3c-0.1,0.2-0.2,0.4-0.3,0.5   c-0.2,0.5-0.5,0.9-0.7,1.3v0v0l0,0l-0.1,0.1l-0.1,0.2c-0.3,0.7-0.6,1.4-1,2.1c-0.8,2-1.5,3.8-1.9,5.4c-0.2,0.5-0.3,1.1-0.5,1.5   c-0.3,1-0.5,1.8-0.5,2.2v0l-0.1,0.3l0,0l0,0l0-0.3c0-0.6,0.1-1.2,0.1-1.8c0.1-1.2,0.2-2.5,0.3-3.7c0.1-1,0.3-2,0.4-3.1   c0-0.3,0.1-0.6,0.1-1c0.1-0.5,0.1-1,0.2-1.4c0.1-0.5,0.2-0.9,0.2-1.3v0l0,0l0.1-0.5l0-0.1c0.1-0.5,0.2-1.1,0.3-1.6   c0-0.2,0.1-0.4,0.1-0.6l0.1-0.4l0-0.1c0-0.2,0.1-0.4,0.1-0.5c0-0.2,0.1-0.4,0.1-0.6c0.2-0.8,0.4-1.5,0.5-2.3l0-0.1   c0.1-0.6,0.3-1.1,0.4-1.7v0l0,0l0-0.2c0.3-1.2,0.6-2.3,1-3.4l0.1-0.3l0.1-0.3c0.1-0.2,0.1-0.4,0.2-0.6c0.5-1.9,1.1-3.7,1.8-5.5   l0.1-0.2c0.5-1.5,1.1-3,1.6-4.5l0.1-0.2c0.3-0.6,0.5-1.3,0.8-1.9l0-0.1c0.4-1,0.8-1.9,1.2-2.8l0,0l0,0v0l0-0.1   c0.1-0.2,0.4-0.8,0.7-1.6v0l0-0.1l0,0c0.1-0.3,0.3-0.6,0.4-1c0.2-0.5,0.5-1,0.7-1.6l0.2-0.5c-0.3-0.2-0.7-0.3-1-0.5l-0.2-0.1   l-0.4-0.2c-2.2-1.1-4.5-1.9-6.9-2.5L162,412c-1.5-0.4-3.1-0.7-4.7-0.9l0,0c-0.9-0.1-1.9-0.2-2.8-0.2c-0.8,0-1.6,0-2.4,0   c-1.2,0-2.4,0.1-3.5,0.3c-0.4,0-0.7,0.1-1.1,0.2c-0.6,0.1-1.1,0.2-1.7,0.3c-0.2,0-0.5,0.1-0.7,0.1c-0.4,0.1-0.8,0.2-1.2,0.3   c-0.8,0.2-1.5,0.4-2.3,0.7c-0.4,0.1-0.7,0.2-1,0.3c-1,0.4-2,0.8-3,1.2c-0.4,0.2-0.8,0.4-1.1,0.5c-0.5,0.2-0.9,0.5-1.3,0.7l-0.5,0.2   c-0.5,0.3-1,0.5-1.4,0.9c-0.4,0.3-0.9,0.5-1.3,0.8c-0.5,0.3-1,0.7-1.5,1c-0.3,0.2-0.6,0.5-0.9,0.7c-0.8,0.6-1.6,1.3-2.3,2   c-0.4,0.4-0.8,0.7-1.1,1.1c-0.7,0.6-1.3,1.3-1.9,2l-0.3,0.4c-0.3,0.4-0.6,0.8-0.9,1.2l0,0l0,0c-0.2,0.3-0.4,0.5-0.6,0.8l-0.1,0.1   l-0.1,0.1l0,0l0,0c-1.2,1.7-2.3,3.5-3.2,5.4c-0.1,0.3-0.3,0.5-0.4,0.8c-0.4,0.9-0.8,1.9-1.2,2.8c-0.1,0.4-0.3,0.8-0.4,1.1l0,0l0,0   l0,0c-0.3,1-0.6,2-0.9,3l-0.1,0.4l-0.1,0.5v0c-0.2,0.7-0.3,1.5-0.5,2.2c-0.1,0.4-0.1,0.7-0.1,1.1l0,0.1c0,0.4-0.1,0.8-0.1,1.2   c0,0.3-0.1,0.6-0.1,0.9c-0.1,1.2-0.1,2.4-0.1,3.6c0,0.9,0.1,1.9,0.2,2.8v0l0,0.4c0,0.5,0.1,1,0.2,1.5c0.3,1.8,0.6,3.6,1.2,5.4   c0.4,1.3,0.9,2.6,1.4,3.9c1,2.3,2.2,4.5,3.6,6.5c2.9,4.3,6.6,8,11,10.8c2.5,1.6,5.2,2.9,8,3.9c2.7,1,5.5,1.7,8.5,2   c0.7,0.1,1.3,0.1,2,0.2c1,0.1,2,0.1,3,0.1c1,0,1.9-0.1,2.8-0.2c0.5,0,1.1,0,1.6-0.1c1.3-0.2,2.6-0.5,3.9-0.8l0.3-0.1   c0.5-0.1,1-0.3,1.5-0.5c1.6-0.5,3.2-1.1,4.7-1.8l0.3-0.1c0.4-0.2,0.9-0.4,1.3-0.6l0,0c-0.7-4.1-1.3-8.3-1.7-12.6   C168.7,470.4,168.6,470.1,168.6,469.8z"/>
	<polygon fill="none" points="73.4,494.7 73.4,494.7 73.4,494.7 73.4,494.7 73.4,494.8  "/>
	<polygon fill="#4D9ED7" points="328.1,136.1 328.8,136.5 328.8,136.4  "/>
	<path fill="#FFFFFF" d="M536.2,520.5c0-0.2-0.1-0.4-0.1-0.5c-0.1-0.5-0.2-0.8-0.3-1c-1.2-3.8-2.6-6.7-3.9-8.8c-1.7-2.7-3-4-3-4   c0.3-1,0.5-1.9,0.7-2.8c0.3-1.2,0.5-2.4,0.6-3.5c1-8.6-1.3-15.2-3.1-19c-0.3-0.6-0.6-1.1-0.8-1.6c-1.3,1-2.7,1.9-4,2.8   c-25.4,17.2-54,28.2-85,33c-21.3,3.3-43.8,3.6-67.1,0.7l0.4,0.1c0,0-14.1,1.9-17.9,15.4l0.2,0.1l-1.2,9c0.4,12.2,6,19.9,12.4,24   c6.6,2.5,14.6,4.4,23.5,5.6c15.5,1.9,33.2,1.4,51.3-1.5l0.1,0l0.1,0c24.1-3.2,58.1-16.1,82.4-32.7c5.5-3.8,10.6-7.8,14.9-11.9   l0.2-0.2l0.3-0.3C536.6,522.3,536.3,521.3,536.2,520.5z"/>
	<path fill="#F2D2AC" d="M490.2,403.7c-13-7.9-15-10.6-13.7-32.2c0.4-7.8,1.3-18,2.1-31.8c0.1-1.8,0.2-3.5,0.2-5.2   c0-0.4,0-0.8,0-1.2c0-1.6,0-3.1-0.1-4.6v-0.4l0-0.5c-0.1-1.2-0.1-2.3-0.2-3.4c0-0.5-0.1-1-0.1-1.5c-0.1-1.2-0.3-2.3-0.5-3.4   c-0.1-0.6-0.2-1.1-0.3-1.7c-0.1-0.6-0.2-1.2-0.4-1.8c-0.1-0.6-0.3-1.2-0.4-1.7l0,0l0,0c-1.9-2.8-4.1-5.2-6.7-7.3l-0.5-0.4l-0.1-0.1   l-0.4-0.3l-0.1-0.1c-0.4-0.3-0.8-0.6-1.2-0.8c-0.4-0.3-0.8-0.5-1.3-0.8c-3.9-2.4-8.2-3.8-12.7-4.5c-2.5-0.4-5.2-0.5-7.9-0.4   c-1.3,0-2.5,0.2-3.8,0.3c-3.3,0.4-6.7,1.1-10.2,2.2c-1.2,0.8-2.3,1.6-3.5,2.4c-1,0.7-2,1.4-3,2l-0.5,0.3c-1,0.7-2,1.4-3.1,2   l-0.5,0.3c-1,0.6-2.1,1.3-3.1,1.9l-0.5,0.3c-1,0.6-2.1,1.1-3.2,1.7l-0.5,0.3c-1.1,0.5-2.2,1-3.3,1.4l-0.5,0.2   c-1.2,0.4-2.4,0.8-3.5,1.1l-0.3,0.1c-1.3,0.3-2.5,0.6-3.9,0.8c-2.2,0.3-4.4,0.4-6.6,0.4c-3.6,0-7.2-0.3-10.8-0.8   c-1.2-0.2-2.4-0.4-3.6-0.6c-0.4-0.1-0.9-0.1-1.3-0.2c-3.1-0.6-6.3-1.3-9.5-2.1c-1.3-0.3-2.7-0.6-4-1c-2.2-0.5-4.4-1-6.5-1.5   c-0.4-0.1-0.9-0.2-1.3-0.3c-1.8,0.1-3.7,0.3-5.5,0.5l-0.4,0c-5.4,0.7-10.7,2-16.1,3.8c-0.3,0.1-0.6,0.2-0.9,0.3   c-0.8,0.3-1.7,0.6-2.5,1c-1.1,0.4-2.2,0.9-3.3,1.4c-7.7,3.4-15.2,8-22.1,13.9c-2.8,2.4-5.4,4.9-7.9,7.5c-3.8,4-7.1,8.3-10.1,12.8   c-0.2,0.2-0.3,0.5-0.5,0.7c-1.6,2.4-3,4.9-4.3,7.4c-0.5,0.9-1,1.8-1.4,2.7l-0.1,0.2c-1.4,3-2.6,6-3.7,9c-0.1,0.2-0.1,0.4-0.2,0.5   c-0.1,0.5-0.3,0.9-0.4,1.3c-0.5,1.4-0.9,2.8-1.2,4.3c-0.4,1.5-0.7,2.9-1,4.4c-0.1,0.3-0.1,0.6-0.2,1c-0.2,0.9-0.3,1.8-0.5,2.7   c-0.5,3.3-0.8,6.6-0.9,9.9c0,0.8,0,1.7,0,2.5c1.5,5.4,3.7,10.3,6.2,14.7c9.8,16.9,25.8,27,37.5,32.4c4.5,2,9.3,3.8,14.2,5.4   l0.1,0.2l0,0h0l0.3-0.2c0.6-0.5,1.3-1,1.9-1.4c0.2-0.2,0.5-0.3,0.7-0.5c0.7-0.5,1.3-1,2-1.5c0.2-0.2,0.5-0.3,0.7-0.5   c0.7-0.5,1.4-1,2.1-1.5c0.2-0.2,0.5-0.3,0.7-0.5c0.7-0.5,1.5-1,2.2-1.5c0.3-0.2,0.5-0.3,0.8-0.5c0.8-0.5,1.5-1,2.4-1.4   c0.3-0.2,0.5-0.3,0.8-0.5c0.8-0.5,1.6-0.9,2.4-1.4c0.3-0.2,0.6-0.3,0.9-0.5c0.8-0.5,1.6-0.9,2.5-1.4c0.3-0.2,0.7-0.4,1-0.5   c0.8-0.4,1.7-0.9,2.5-1.3c0.4-0.2,0.7-0.4,1.1-0.5c0.9-0.4,1.7-0.8,2.6-1.3c0.4-0.2,0.8-0.4,1.2-0.6c0.9-0.4,1.7-0.8,2.6-1.2   c0.5-0.2,0.9-0.4,1.4-0.6c0.9-0.4,1.7-0.8,2.6-1.1c0.5-0.2,1-0.5,1.5-0.7c0.9-0.4,1.7-0.7,2.6-1c0.6-0.2,1.2-0.5,1.8-0.7   c0.8-0.3,1.7-0.7,2.5-1c0.6-0.2,1.3-0.5,2-0.7c0.8-0.3,1.6-0.6,2.5-0.9c0.7-0.2,1.5-0.5,2.2-0.8c0.8-0.3,1.6-0.6,2.4-0.8   c0.8-0.3,1.6-0.5,2.4-0.8c0.8-0.3,1.6-0.5,2.4-0.8c0.9-0.3,1.8-0.5,2.7-0.8c0.8-0.2,1.5-0.5,2.3-0.7c1-0.3,2-0.5,2.9-0.8   c0.5-0.1,1-0.3,1.5-0.4c3.9-9.7,15.3-33.8,35-36.5c2.1-0.3,4-0.4,5.8-0.4c0.5,0,0.9,0,1.4,0c-0.2-1.4-0.4-2.9-0.5-4.4   c-0.6-10.4,2.6-19,7.1-19.3c3.5-0.3,6.3,4.9,6.8,6.7c1.3,3.2,2.3,7.2,2.5,11.7c0.2,4.1-0.1,7.9-0.9,11c0.4,0.4,0.7,0.9,1.1,1.3   c4.5,5.6,5.3,13.3,5.1,18.8c1.8-0.2,3.5-0.3,5.3-0.5c0.5,0,0.9-0.1,1.4-0.1l0.3,0c0.3,0,0.5,0,0.8-0.1c2.2-0.2,4.5-0.4,6.8-0.5h0.1   c5.2-0.4,10.5-0.7,15.9-0.9C492,404.7,490.2,403.7,490.2,403.7z"/>
	<path fill="#F2D2AC" d="M539.6,549.2c-8.6,7.7-17.6,13.8-26.5,18.7c-4.4,2.4-8.9,4.6-13.2,6.5c-9.7,4.2-19,7.2-27.2,9.2   c-18.1,4.4-30.8,4.4-30.8,4.4c9.9,5.5,22.4,5.5,31,4.7c5.9-0.6,10-1.6,10-1.6c-0.2,3.6-0.6,7-1.3,10.1c-0.7,3.4-1.7,6.6-2.9,9.4   l-0.1,0.2v0c-1.5,3.5-3.2,6.7-5.2,9.4c-0.2,0.3-0.4,0.6-0.6,0.9l0.6-0.4c3.1-1.7,6.2-3.5,9.3-5.5l0.1,0c2.3-1.5,4.6-3,6.9-4.6   c3.8-2.7,7.6-5.5,11.2-8.6l0,0l0,0c0.2-0.2,0.4-0.4,0.6-0.5c3.6-3.2,7-6.4,10.2-9.8c4.2-4.4,7.9-8.9,11.3-13.4l0.2-0.3   c0.8-1.1,1.6-2.2,2.4-3.3l0.2-0.3c0.3-0.4,0.5-0.7,0.7-1.1c1.1-1.6,2.2-3.2,3.2-4.7c0.2-0.4,0.5-0.8,0.7-1.1c0.5-0.8,1-1.7,1.5-2.5   c0.4-0.6,0.8-1.3,1.1-1.9c0.4-0.7,0.8-1.4,1.2-2.1c0.7-1.3,1.4-2.5,2.1-3.7c0.3-0.5,0.5-1,0.8-1.5c0.5-1,1-1.9,1.5-2.9   c0.2-0.5,0.5-0.9,0.7-1.3l0.2-0.4c0.6-1.2,1.2-2.4,1.7-3.5C540.8,548.2,540.2,548.7,539.6,549.2z"/>
	<path fill="#F2D2AC" d="M324.2,454c-2.4,0.8-5.1,1.8-7.9,3c-7.6,3.1-16.1,7.6-23.7,13.7c-1,0.8-1.9,1.6-2.8,2.4   c-1.6,1.4-3,2.9-4.5,4.5c-0.2,0.2-0.3,0.4-0.5,0.5c-0.2,0.2-0.4,0.5-0.6,0.7c-0.5,0.6-1.1,1.3-1.6,1.9c-0.2,0.3-0.4,0.5-0.6,0.8   c-0.7,0.9-1.4,1.8-2,2.8c-0.6,0.9-1.2,1.9-1.8,2.9c-4.5,7.9-7.1,17.3-6.3,28.5l0-0.1l0-0.1c0-0.1,0-0.2,0.1-0.4l0-0.1   c0-0.2,0.1-0.4,0.1-0.6l0-0.1c0.1-0.3,0.1-0.5,0.2-0.9l0-0.2c0.1-0.3,0.2-0.7,0.3-1.1l0,0c0.1-0.4,0.2-0.8,0.4-1.3l0.1-0.3   c0.1-0.5,0.3-0.9,0.5-1.4l0.1-0.2c0.2-0.5,0.4-0.9,0.5-1.4l0.1-0.2c0.2-0.5,0.5-1,0.7-1.6l0.2-0.3c0.3-0.5,0.5-1.1,0.8-1.7l0,0   c0,0,0,0,0-0.1c0.5-0.9,1-1.7,1.5-2.6c0.2-0.3,0.4-0.7,0.6-1l0.2-0.3l0,0c0.5-0.7,0.9-1.4,1.5-2c0.4-0.5,0.9-1.1,1.3-1.6   c0.1-0.2,0.3-0.3,0.5-0.5c0.4-0.4,0.8-0.8,1.1-1.2c0.2-0.2,0.3-0.3,0.5-0.5c0.5-0.5,1.1-1,1.7-1.5l0,0l0,0l0,0   c0,0-10.2,23.1-5.8,41.5c0,0,0,0,0-0.1c0,0,0-0.1,0-0.1c0-0.1,0-0.2,0-0.4c0,0,0-0.1,0-0.1c0-0.2,0-0.4,0-0.7c0,0,0-0.1,0-0.1   c0-0.3,0-0.6,0-0.9c0,0,0-0.1,0-0.1c0-0.4,0-0.7,0.1-1.1c0,0,0-0.1,0-0.1c0-0.4,0.1-0.9,0.1-1.3c0,0,0-0.1,0-0.1   c0-0.5,0.1-0.9,0.2-1.5c0,0,0-0.1,0-0.1c0.1-0.5,0.2-1.1,0.3-1.6l0-0.1l0-0.3l0,0c0.1-0.6,0.3-1.3,0.5-2c0,0,0-0.1,0-0.1   c0.2-0.6,0.4-1.3,0.6-2c0.1-0.2,0.1-0.4,0.2-0.6l0.1-0.4l0,0c0.2-0.5,0.4-1.1,0.6-1.6l0-0.1l0,0c0.3-0.8,0.7-1.5,1.1-2.2   c0.1-0.2,0.2-0.4,0.3-0.6c0.4-0.7,0.9-1.4,1.4-2.1l0,0l0,0l0,0l0,0c0,0-0.6,5.7-0.4,12.5c0,1.1,0.1,2.2,0.1,3.3   c0,0.7,0.1,1.5,0.2,2.2c0.5-7.3,1.8-14.1,3.7-20.5c0.5-1.8,1.1-3.5,1.8-5.2c0.1-0.2,0.2-0.5,0.3-0.7c0.6-1.6,1.2-3.2,1.9-4.7   c0.1-0.3,0.3-0.6,0.4-0.9c0.7-1.5,1.4-3,2.1-4.4c0.1-0.2,0.2-0.5,0.4-0.7c1.6-3,3.3-5.9,5-8.6c0.1-0.2,0.3-0.4,0.4-0.6   c0.7-1,1.4-2,2-3c0.2-0.3,0.4-0.5,0.5-0.8c0.2-0.2,0.3-0.5,0.5-0.7c0.9-1.2,1.7-2.4,2.6-3.5c0.1-0.2,0.3-0.4,0.4-0.5   c0.9-1.2,1.8-2.3,2.8-3.4l0-0.1c1.2-1.4,2.3-2.7,3.4-3.9c0.8-0.9,1.7-1.8,2.5-2.6c0.3-0.3,0.6-0.6,1-1c2-2,3.9-3.8,5.6-5.4   c5.3-4.8,9.5-7.7,10.9-8.7c-0.9,0.2-1.9,0.5-3,0.8C328.4,452.7,326.4,453.3,324.2,454z"/>
	<path fill="#F2D2AC" d="M460.2,402.8c0,0,0-0.6-0.3-1.5c-0.8-3.4-4.2-11.4-17.3-10.1c-13.7,1.3-18.4,12.4-19.6,16.2   c-0.2,0.8-0.4,1.3-0.4,1.3l0.4,0.3c1.7-1.5,5.1-1.3,8.1,0.6c1.4,0.9,2.5,2,3.2,3.1l0,0c1.2,1.8,1.5,3.7,0.7,5.2   c-0.2,0.3-0.4,0.6-0.6,0.8c0,0,0.5,0.2,1.4,0.5c3.8,1.1,14.4,3.4,20.1-4.1c0.3-0.4,0.5-0.7,0.8-1.1c-1.1-0.6-1.8-2.2-1.8-4.2   c0-1,0.1-2,0.4-3C456.4,403.8,458.5,402,460.2,402.8z"/>
	<path fill="#F2D2AC" d="M392,503.8c-8.9,1.8-16.7,3.2-22.7,4.2c0.3,0,0.6,0.1,1,0.1c10.1,1.3,26.2,2.8,45.6,1.6   c35.4-2.2,81.9-13.3,124.2-51.4l0.1-0.1l0,0v-0.1c0.1-3.2-0.3-9-4.3-13.4c-0.7-0.8-1.5-1.5-2.5-2.2c-0.2-0.1-0.3-0.2-0.5-0.3   c-1.1-0.6-2.1-1.2-3-1.9c-0.7-0.5-1.5-0.9-2.1-1.4l-0.1-0.1c-2.6,3.7-5.6,7.3-9,10.7c-1.2,1.2-2.5,2.4-3.7,3.5   c-11.7,10.5-26.7,19.3-43,26.5C445,491.4,414.8,499.2,392,503.8z"/>
	<path fill="#F2D2AC" d="M168,442.2c-0.4,0.3-0.8,0.7-1.1,1l-0.4,0.4c-0.4,0.5-0.8,1-1.2,1.5l-0.2,0.3c-0.5,0.7-0.9,1.4-1.3,2.1l0,0   l0,0.1l0,0l-0.2,0.3c-0.1,0.2-0.2,0.4-0.3,0.5c-0.2,0.5-0.5,0.9-0.7,1.3v0v0l0,0l-0.1,0.1l-0.1,0.2c-0.3,0.7-0.6,1.4-1,2.1   c-0.8,2-1.5,3.8-1.9,5.4c-0.2,0.5-0.3,1.1-0.5,1.5c-0.3,1-0.5,1.8-0.5,2.2v0l-0.1,0.3l0,0l0,0l0-0.3c0-0.6,0.1-1.2,0.1-1.8   c0.1-1.2,0.2-2.5,0.3-3.7c0.1-1,0.3-2,0.4-3.1c0-0.3,0.1-0.6,0.1-1c0.1-0.5,0.1-1,0.2-1.4c0.1-0.5,0.2-0.9,0.2-1.3v0l0,0l0.1-0.5   l0-0.1c0.1-0.5,0.2-1.1,0.3-1.6c0-0.2,0.1-0.4,0.1-0.6l0.1-0.4l0-0.1c0-0.2,0.1-0.4,0.1-0.5c0-0.2,0.1-0.4,0.1-0.6   c0.2-0.8,0.4-1.5,0.5-2.3l0-0.1c0.1-0.6,0.3-1.1,0.4-1.7v0l0,0l0-0.2c0.3-1.2,0.6-2.3,1-3.4l0.1-0.3l0.1-0.3   c0.1-0.2,0.1-0.4,0.2-0.6c0.5-1.9,1.1-3.7,1.8-5.5l0.1-0.2c0.5-1.5,1.1-3,1.6-4.5l0.1-0.2c0.3-0.6,0.5-1.3,0.8-1.9l0-0.1   c0.4-1,0.8-1.9,1.2-2.8l0,0l0,0v0l0-0.1c0.1-0.2,0.4-0.8,0.7-1.6v0l0-0.1l0,0c0.1-0.3,0.3-0.6,0.4-1c0.2-0.5,0.5-1,0.7-1.6l0.2-0.5   c-0.3-0.2-0.7-0.3-1-0.5l-0.2-0.1l-0.4-0.2c-2.2-1.1-4.5-1.9-6.9-2.5L162,412c-1.5-0.4-3.1-0.7-4.7-0.9l0,0   c-0.9-0.1-1.9-0.2-2.8-0.2c-0.8,0-1.6,0-2.4,0c-1.2,0-2.4,0.1-3.5,0.3c-0.4,0-0.7,0.1-1.1,0.2c-0.6,0.1-1.1,0.2-1.7,0.3   c-0.2,0-0.5,0.1-0.7,0.1c-0.4,0.1-0.8,0.2-1.2,0.3c-0.8,0.2-1.5,0.4-2.3,0.7c-0.4,0.1-0.7,0.2-1,0.3c-1,0.4-2,0.8-3,1.2   c-0.4,0.2-0.8,0.4-1.1,0.5c-0.5,0.2-0.9,0.5-1.3,0.7l-0.5,0.2c-0.5,0.3-1,0.5-1.4,0.9c-0.4,0.3-0.9,0.5-1.3,0.8   c-0.5,0.3-1,0.7-1.5,1c-0.3,0.2-0.6,0.5-0.9,0.7c-0.8,0.6-1.6,1.3-2.3,2c-0.4,0.4-0.8,0.7-1.1,1.1c-0.7,0.6-1.3,1.3-1.9,2l-0.3,0.4   c-0.3,0.4-0.6,0.8-0.9,1.2l0,0l0,0c-0.2,0.3-0.4,0.5-0.6,0.8l-0.1,0.1l-0.1,0.1l0,0l0,0c-1.2,1.7-2.3,3.5-3.2,5.4   c-0.1,0.3-0.3,0.5-0.4,0.8c-0.4,0.9-0.8,1.9-1.2,2.8c-0.1,0.4-0.3,0.8-0.4,1.1l0,0l0,0c0.1,0.2,0.2,0.5,0.2,0.7   c0.3,0.9,0.5,1.7,0.8,2.5l0.1,0.3l0.1,0.3c0.3,0.8,0.6,1.6,0.9,2.4c1,2.4,2,4.5,2.9,6.4c0.1,0.3,0.3,0.6,0.5,0.8l0.1,0.2l0.1,0.2   c0.8,1.3,1.5,2.5,2.2,3.5c1.1,1.6,2,2.9,2.7,3.7c0.1,0.2,0.3,0.3,0.4,0.5c0.1,0.1,0.2,0.2,0.3,0.3c0.3,0.3,0.4,0.5,0.4,0.5   c-0.1-0.4-0.1-0.8-0.2-1.3c-0.6-3-0.9-6-1-8.9V449v-0.3c0-1.9,0-3.7,0.1-5.5l0,0l0,0c0.2,0.7,0.4,1.4,0.6,2c0.3,1,0.6,2,1,2.9   l0.1,0.3l0,0.1c1.5,4,3.1,7.3,4.7,10c1.9,3.2,3.6,5.5,4.6,6.8c0.2,0.3,0.4,0.5,0.5,0.6c0.3,0.3,0.5,0.5,0.5,0.5   c-0.7-3.2-1.1-6.4-1.2-9.5c0-1-0.1-2.1-0.1-3.1c0-1.3,0.1-2.6,0.2-3.9l0,0l0,0c0.6,2.2,1.2,4.2,1.9,6.1l0,0.1   c2.5,6.8,5.6,11.8,7.8,14.8l0.2,0.3c0.4,0.5,0.7,0.9,1,1.3c0.2,0.3,0.4,0.5,0.5,0.7c0.2,0.3,0.4,0.4,0.5,0.6   c0.2,0.2,0.3,0.3,0.3,0.3l-0.1-0.5c-0.1-0.5-0.2-0.9-0.3-1.3c-0.3-1.6-0.5-3.2-0.7-4.8c-0.1-1-0.2-2.1-0.2-3.1c0-1,0-2,0-2.9   c0-0.2,0-0.4,0-0.5c0-0.5,0-1,0-1.5l0-0.3l0-0.2c0.1-1.3,0.2-2.5,0.4-3.8l0,0l0,0c0.2,0.8,0.5,1.6,0.8,2.4c0.2,0.6,0.4,1.1,0.6,1.7   l0,0.1l0.1,0.2l0.1,0.3c0.3,0.7,0.5,1.3,0.8,2c0.5,1.2,1,2.3,1.5,3.4c0.6,1.3,1.3,2.5,1.9,3.6c0.4,0.6,0.7,1.2,1,1.8   c0.4,0.7,0.9,1.4,1.3,2c0.4,0.5,0.7,1,1,1.5c0.1,0.1,0.2,0.2,0.2,0.3c0.3,0.4,0.6,0.8,0.9,1.1c0.2,0.2,0.4,0.5,0.5,0.7   c0.4,0.5,0.7,0.9,0.9,1l0.1,0.1l0.3,0.2c0-0.2,0.1-0.5,0.1-0.7c0.2-2,0.5-4,0.8-6c0-0.2,0.1-0.5,0.1-0.7c0.3-2.2,0.7-4.5,1.1-6.6   c0-0.3,0.1-0.5,0.1-0.8l0-0.1c0-0.2,0.1-0.5,0.1-0.8c0.1-0.4,0.1-0.7,0.2-1.1c0.3-1.7,0.6-3.4,0.9-4.9c0.3-1.4,0.5-2.8,0.8-4   l0.1-0.4c0-0.2,0.1-0.4,0.1-0.6c0-0.1,0.1-0.3,0.1-0.5l0-0.1c0.1-0.3,0.1-0.6,0.2-0.9l0-0.1c0.1-0.3,0.1-0.5,0.2-0.8   c0.1-0.4,0.2-0.9,0.3-1.3l0-0.1c0.1-0.3,0.1-0.7,0.2-1c0.1-0.4,0.2-0.8,0.3-1.2l0,0l0,0c0-0.2,0.1-0.4,0.1-0.6v0   c0-0.2,0.1-0.4,0.1-0.5c0.1-0.4,0.2-0.8,0.2-1l0.1-0.2l0-0.1l0.1-0.3l0-0.2v0l0,0L168,442.2z"/>
	<path fill="#F2D2AC" d="M454.4,541.1c3.3-1.2,6.3-2.1,8.5-3.1c4.5-1.9,6.9-3.2,6.8-3.7c-0.1-0.5-2.9-0.1-7.7,1   c-2.4,0.6-5.3,1-8.7,1.8c-1.7,0.4-3.5,0.6-5.4,1c-1.9,0.3-3.9,0.8-6.1,1c-4.2,0.6-9,1.1-14.1,1.7c-2.5,0.2-5.1,0.4-7.8,0.6   c-2.7,0.1-5.5,0.3-8.3,0.4c-11.3,0.3-23.9-0.2-36.7-2.5c-6.7-1.2-15.7-4.2-22.2-7.9l-0.2-0.1c3.8-13.5,17.9-15.4,17.9-15.4   l-0.4-0.1c-0.2,0-0.5,0-0.7-0.1c-2-0.3-3.9-0.5-5.4-0.7c-1.1-0.1-2.1-0.3-2.9-0.4c-0.8-0.1-1.3-0.2-1.7-0.2   c-8.5-0.6-13.1,6.6-14.7,9.7c-0.2,0.5-0.5,0.9-0.6,1.4c-1.2,2.8-2,6-2.3,9.4c-0.4,6.4,1.2,13.3,6.1,19.2c3.2,4,8.9,7.5,16.2,10.3   c-6.4-4-12-11.7-12.4-24c7.2,3.1,15.6,5,22,6.1c13.5,2.5,26.6,2.8,38.3,2.1c2.9-0.2,5.8-0.5,8.6-0.7c2.8-0.4,5.5-0.7,8.1-1   c5.1-0.9,9.8-1.7,14.2-2.7c2.2-0.4,4.2-1,6.2-1.5C450.9,542.1,452.7,541.7,454.4,541.1z"/>
	<path fill="#664F44" d="M443.1,383.1c7.1,0.2,11.9,2.4,15.1,5.7c0.8-3.1,1.2-6.9,0.9-11c-0.3-4.5-1.2-8.5-2.5-11.7   c-0.5-1.8-3.3-6.9-6.8-6.7c-4.5,0.3-7.7,8.9-7.1,19.3C442.7,380.3,442.9,381.7,443.1,383.1z"/>
	<path fill="#664F44" d="M455.1,409.9c0,2,0.6,3.6,1.8,4.2c1.7,0.9,3.8-1,4.7-4.1c0.1-0.3,0.1-0.5,0.2-0.8l0,0   c0.6-2.8,0-5.6-1.5-6.3c-1.7-0.9-3.8,1-4.7,4.1C455.2,408,455,409,455.1,409.9z"/>
	<path fill="#664F44" d="M422.9,415c0.8,1.2,1.9,2.4,3.3,3.3c3,1.9,6.4,2.1,8.2,0.5c0.3-0.2,0.5-0.5,0.6-0.8   c0.8-1.4,0.5-3.4-0.7-5.2l0,0c-0.8-1.2-1.9-2.3-3.2-3.1c-3-1.9-6.4-2.1-8.1-0.6c-0.3,0.2-0.5,0.5-0.7,0.9   C421.6,411.4,421.9,413.2,422.9,415L422.9,415z"/>
	<g>
		<polygon fill="#664F44" points="540.2,458.2 540.2,458.2 540.2,458.1 540,458.4 540.1,458.3   "/>
		<path fill="#664F44" d="M536.5,523.8l-0.2,0.2c-4.3,4.1-9.3,8.1-14.9,11.9c-24.3,16.6-58.3,29.5-82.4,32.7l-0.1,0l-0.1,0    c-18.1,2.9-35.9,3.4-51.3,1.5c-8.9-1.1-16.9-3-23.5-5.6c-7.3-2.8-12.9-6.3-16.2-10.3c-4.9-5.9-6.5-12.9-6.1-19.2    c0.2-3.4,1-6.6,2.3-9.4c0.2-0.5,0.4-0.9,0.6-1.4c1.6-3.1,6.3-10.3,14.7-9.7c0.3,0,0.9,0.1,1.7,0.2c0.8,0.1,1.8,0.2,2.9,0.4    c1.5,0.2,3.3,0.5,5.4,0.7c0.2,0,0.5,0,0.7,0.1c23.3,2.8,45.8,2.5,67.1-0.7c31-4.7,59.6-15.8,85-33c1.3-0.9,2.7-1.8,4-2.8    l13.9-20.8c-42.3,38.1-88.8,49.2-124.2,51.3c-19.5,1.2-35.5-0.3-45.6-1.6c-0.4,0-0.7-0.1-1-0.1c-3-0.4-5.5-0.7-7.3-1    c-0.9-0.1-1.6-0.2-2.1-0.2c-2.6-0.2-5.2,0.1-7.5,0.9c-4.8,1.5-8.9,4.8-12,9.1c-3.8,5.3-6.1,12.2-6.2,19.4    c-0.1,5.9,1.3,12.1,4.5,17.7c0.1,0.2,0.2,0.5,0.4,0.7c0.4,0.6,0.8,1.2,1.2,1.8c0.5,0.8,1.1,1.6,1.8,2.4    c7.4,9.1,23.3,15.9,44.6,18.6c14.4,1.8,31.2,1.6,49.5-0.9c53.8-9.7,79.4-27.1,91.2-39.3c0.9-0.9,1.7-1.8,2.4-2.6    c4.2-4.9,6.1-8.6,6.8-10.3l0.1-0.2c0.2-0.4,0.2-0.6,0.2-0.6L536.5,523.8z"/>
	</g>
	<path fill="#E9B784" d="M365.3,337.2c-1.7-0.9-3.5-1.6-5.4-2c-1.2-0.3-2.5-0.5-3.7-0.7c-0.5,0-0.9-0.1-1.4-0.1   c-6.3-0.5-11.7,0.5-11.7,0.5c-1.2,0.3-2.3,0.6-3.4,0.9c-8.6,2.6-14.5,7-18.7,12.2c-3.4,4.2-5.6,8.8-7,13.2   c-0.1,0.4-0.2,0.8-0.4,1.2c-0.3,1.2-0.6,2.3-0.9,3.4c-0.8,3.7-1.1,7.2-1.2,9.9c-0.1,3.7,0.2,6.1,0.2,6.1c1.5-3.3,3-6.3,4.7-9.1   c4-6.9,8.3-12.5,12.7-17c8.5-8.8,17.2-13.4,23.9-15.8C360.3,337.2,365.3,337.2,365.3,337.2z"/>
	<path fill="#E9B784" d="M467.5,325l-0.3-0.4c-1-1.2-2.1-2.3-3.5-3.3c-3.3-2.2-7.7-3.4-14-2.1c0,0-7.4,1.7-11.7,6.6   c0,0,12.9-5.5,26.5,4.2c1.2,0.9,2.5,1.9,3.7,3c1.3,1.2,2.5,2.5,3.8,3.9c0,0-0.5-5.9-3.9-11C468,325.6,467.8,325.3,467.5,325z"/>
	<path fill="#664F44" d="M366.9,419.1c4.9-1.5,10.3-2.9,16-4.2c1-4.4,1.2-10,0.5-15.8c-1.6-13.8-7.8-24.4-13.9-23.6   c-6,0.7-9.6,12.5-8,26.3C362.3,408.7,364.3,414.8,366.9,419.1z"/>
	<path fill="#FFD250" d="M338.8,110.3l-12.7,2.9l2.7,23.3L295,119.2l-13.9,4.1l0.2,0.2l41.1,46.8l0.4-0.2l0.5-0.3   c1.3-0.8,2.6-1.6,3.9-2.4c0.5-0.3,0.9-0.6,1.4-0.9c1.9-1.1,3.7-2.3,5.6-3.4l-17.4-20l28.2,13.8l0.1-0.1c0.9-0.5,1.7-0.9,2.5-1.4   l-2.6-20.1l12.8,14.8l0.2-0.1c1.1-0.5,2.1-1.1,3.2-1.6l0.3-0.2l0.5-0.3c0.2-0.1,0.4-0.2,0.5-0.3c0.5-0.2,0.9-0.5,1.4-0.7   c0.1,0,0.2-0.1,0.3-0.1c1.5-0.7,3-1.4,4.5-2.1L338.8,110.3z"/>
	<polygon fill="#4D9ED7" points="326.2,113.9 326.1,113.1 326.2,113.9  "/>
	<path fill="#4D9ED7" d="M326.1,113.1l1.9-0.4c-3.1-1.5-6.8-2.5-11.1-3c-8.5-1.1-19.4-0.1-31.8,3.1c-12.4,3.2-26.3,8.5-41,15.8   c-29.4,14.7-62.2,37.2-93.7,66c-11,10-21.2,20.3-30.7,30.6l38.3,46.9c10.3-11.4,21.6-22.8,33.8-33.8c16.2-14.8,32.8-28,49.2-39.5   c15.9-11.1,31.6-20.6,46.6-28.2l-6.7-29.9l0.2-17l-0.2-0.2l13.9-4.1l27.2,13.9l-0.8-9.5L326.1,113.1z"/>
	<polygon fill="#132134" points="326.1,113.1 321.4,123.6 322.2,133.1 328.8,136.4  "/>
	<polygon fill="#132134" points="316.6,143.2 344.9,157 334.1,163.1  "/>
	<polygon fill="#132134" points="344.9,135.4 347.5,155.5 357.7,150.2  "/>
	<path fill="#FFFFFF" d="M451.7,127.9c1.7-0.1,3.4-0.1,5.1,0c4.8,0.1,9.2,0.7,13.4,1.7c0.2,0,0.5,0.1,0.7,0.1l0,0l0.2,0l0.4,0.1   l0.4,0.1c-0.5-0.3-1-0.6-1.5-1c-4.7-1.8-9.8-3-14.9-3.7c-25.6-3.3-54.8,6-71.4,12.7c-0.9,0.4-1.8,0.8-2.8,1.2   c-1.4,0.6-2.8,1.2-4.2,1.8c-2.4,1.1-4.8,2.2-7.3,3.3c-0.4,0.2-0.7,0.3-1.1,0.5c-1.5,0.7-3,1.4-4.5,2.1c-0.1,0-0.2,0.1-0.3,0.1   c-0.5,0.2-0.9,0.5-1.4,0.7c-0.2,0.1-0.4,0.2-0.5,0.3l-0.5,0.3l-0.3,0.2c-1.1,0.5-2.1,1-3.2,1.6l-0.2,0.1c0,0-0.1,0-0.1,0   c-0.3,0.1-0.5,0.3-0.8,0.4l-0.1,0.1c-0.2,0.1-0.4,0.2-0.6,0.3c-1.7,0.8-3.3,1.7-5,2.6c-1.2,0.6-2.3,1.2-3.4,1.9l-0.2,0.1   c-0.9,0.5-1.7,0.9-2.5,1.4l-0.1,0.1c-2.8,1.5-5.5,3.1-8.2,4.7c-0.3,0.2-0.6,0.3-0.9,0.5c-0.2,0.1-0.5,0.3-0.7,0.4s-0.5,0.3-0.7,0.4   l-0.3,0.2c-1.9,1.1-3.7,2.2-5.6,3.4c-0.5,0.3-0.9,0.6-1.4,0.9c-1.3,0.8-2.6,1.6-3.9,2.4l-0.5,0.3l-0.4,0.2c-3.6,2.3-7.1,4.6-10.6,7   c-5.8,3.9-11.5,8-17.2,12.2c-0.7,0.5-1.5,1.1-2.2,1.6c-14.8,11.1-29.2,23.1-42.9,35.5c-14.5,13.1-28.3,26.8-41.3,40.5   c-7.1,7.1-13.1,13.4-18.1,18.7c-9.9,10.7-15.3,17.3-15.1,17.4c0.1,0.1,1-0.7,2.5-2.3c-1.3,1.5-2.6,3-3.8,4.4   c21.6-23.1,45.6-46.7,71.4-68.9c15.6-13.5,31.9-26.5,48.8-38.6l0,0c7.4-5.3,14.8-10.4,22.4-15.3c2.4-1.6,4.9-3.1,7.3-4.6   c1.2-0.8,2.4-1.5,3.7-2.2c0.7-0.4,1.4-0.9,2.1-1.3c1.3-0.8,2.6-1.6,3.9-2.3c1.3-0.8,2.6-1.5,3.9-2.3c0.7-0.4,1.4-0.8,2-1.2   c1.6-0.9,3.3-1.9,4.9-2.8c1-0.5,2-1.1,2.9-1.6l0,0c3.1-1.7,6.2-3.3,9.3-4.9c0.3-0.1,0.5-0.3,0.8-0.4c0.5-0.2,1-0.5,1.5-0.7   c0.6-0.3,1.3-0.7,2-1c0.2-0.1,0.5-0.3,0.7-0.4l0.1,0c0.5-0.2,0.9-0.4,1.3-0.6c0.1,0,0.2-0.1,0.3-0.1l0.1-0.1c1.4-0.7,2.7-1.3,4.1-2   c0.2-0.1,0.5-0.2,0.7-0.4c0.4-0.2,0.9-0.4,1.3-0.6c1.6-0.7,3.1-1.5,4.7-2.2c0.4-0.2,0.9-0.4,1.3-0.6c0.2-0.1,0.4-0.2,0.7-0.3   c0.4-0.2,0.9-0.4,1.3-0.6c1.8-0.8,3.6-1.6,5.4-2.4c1.6-0.7,3.2-1.4,4.8-2c8.9-3.8,17.3-6.9,25.1-9.4   C427.4,131,440.4,128.4,451.7,127.9z"/>
</g><script xmlns="">try {
                        Object.defineProperty(screen, "availTop", { value: 0 });
                    } catch (e) {}
                    try {
                        Object.defineProperty(screen, "availLeft", { value: 0 });
                    } catch (e) {}
                    try {
                        Object.defineProperty(screen, "availWidth", { value: 1680 });
                    } catch (e) {}
                    try {
                        Object.defineProperty(screen, "availHeight", { value: 1050 });
                    } catch (e) {}
                    try {
                        Object.defineProperty(screen, "colorDepth", { value: 24 });
                    } catch (e) {}
                    try {
                        Object.defineProperty(screen, "pixelDepth", { value: 24 });
                    } catch (e) {}
                    try {
                        Object.defineProperty(navigator, "hardwareConcurrency", { value: 8 });
                    } catch (e) {}
                    try {
                        Object.defineProperty(navigator, "appVersion", { value: "5.0 (Macintosh)" });
                    } catch (e) {}
                    try {
                        Object.defineProperty(navigator, "doNotTrack", { value: "unspecified" });
                    } catch (e) {}
                    
            try {
                window.screenY = 0
            } catch (e) { }
        
            try {
                window.screenTop = 0
            } catch (e) { }
        
            try {
                window.top.window.outerHeight = 915
            } catch (e) { }
        
            try {
                window.screenX = 62
            } catch (e) { }
        
            try {
                window.screenLeft = 62
            } catch (e) { }
        
            try {
                window.top.window.outerWidth = 1365
            } catch (e) { }
        </script>
</svg>