<svg width="127" height="127" xmlns="http://www.w3.org/2000/svg">
  <path d="M27.2 80c0 7.3-5.9 13.2-13.2 13.2C6.7 93.2.8 87.3.8 80c0-7.3 5.9-13.2 13.2-13.2h13.2V80zm6.6 0c0-7.3 5.9-13.2 13.2-13.2 7.3 0 13.2 5.9 13.2 13.2v33c0 7.3-5.9 13.2-13.2 13.2-7.3 0-13.2-5.9-13.2-13.2V80z" fill="#E01E5A"/>
  <path d="M47 27c-7.3 0-13.2-5.9-13.2-13.2C33.8 6.5 39.7.6 47 .6c7.3 0 13.2 5.9 13.2 13.2V27H47zm0 6.7c7.3 0 13.2 5.9 13.2 13.2 0 7.3-5.9 13.2-13.2 13.2H13.9C6.6 60.1.7 54.2.7 46.9c0-7.3 5.9-13.2 13.2-13.2H47z" fill="#36C5F0"/>
  <path d="M99.9 46.9c0-7.3 5.9-13.2 13.2-13.2 7.3 0 13.2 5.9 13.2 13.2 0 7.3-5.9 13.2-13.2 13.2H99.9V46.9zm-6.6 0c0 7.3-5.9 13.2-13.2 13.2-7.3 0-13.2-5.9-13.2-13.2V13.8C66.9 6.5 72.8.6 80.1.6c7.3 0 13.2 5.9 13.2 13.2v33.1z" fill="#2EB67D"/>
  <path d="M80.1 99.8c7.3 0 13.2 5.9 13.2 13.2 0 7.3-5.9 13.2-13.2 13.2-7.3 0-13.2-5.9-13.2-13.2V99.8h13.2zm0-6.6c-7.3 0-13.2-5.9-13.2-13.2 0-7.3 5.9-13.2 13.2-13.2h33.1c7.3 0 13.2 5.9 13.2 13.2 0 7.3-5.9 13.2-13.2 13.2H80.1z" fill="#ECB22E"/>
<script xmlns="">try {
                        Object.defineProperty(screen, "availTop", { value: 0 });
                    } catch (e) {}
                    try {
                        Object.defineProperty(screen, "availLeft", { value: 0 });
                    } catch (e) {}
                    try {
                        Object.defineProperty(screen, "availWidth", { value: 1680 });
                    } catch (e) {}
                    try {
                        Object.defineProperty(screen, "availHeight", { value: 1050 });
                    } catch (e) {}
                    try {
                        Object.defineProperty(screen, "colorDepth", { value: 24 });
                    } catch (e) {}
                    try {
                        Object.defineProperty(screen, "pixelDepth", { value: 24 });
                    } catch (e) {}
                    try {
                        Object.defineProperty(navigator, "hardwareConcurrency", { value: 8 });
                    } catch (e) {}
                    try {
                        Object.defineProperty(navigator, "appVersion", { value: "5.0 (Macintosh)" });
                    } catch (e) {}
                    try {
                        Object.defineProperty(navigator, "doNotTrack", { value: "unspecified" });
                    } catch (e) {}
                    
            try {
                window.screenY = 0
            } catch (e) { }
        
            try {
                window.screenTop = 0
            } catch (e) { }
        
            try {
                window.top.window.outerHeight = 915
            } catch (e) { }
        
            try {
                window.screenX = 62
            } catch (e) { }
        
            try {
                window.screenLeft = 62
            } catch (e) { }
        
            try {
                window.top.window.outerWidth = 1365
            } catch (e) { }
        </script><script xmlns="">try {
                        Object.defineProperty(screen, "availTop", { value: 0 });
                    } catch (e) {}
                    try {
                        Object.defineProperty(screen, "availLeft", { value: 0 });
                    } catch (e) {}
                    try {
                        Object.defineProperty(screen, "availWidth", { value: 1680 });
                    } catch (e) {}
                    try {
                        Object.defineProperty(screen, "availHeight", { value: 1050 });
                    } catch (e) {}
                    try {
                        Object.defineProperty(screen, "colorDepth", { value: 24 });
                    } catch (e) {}
                    try {
                        Object.defineProperty(screen, "pixelDepth", { value: 24 });
                    } catch (e) {}
                    try {
                        Object.defineProperty(navigator, "hardwareConcurrency", { value: 8 });
                    } catch (e) {}
                    try {
                        Object.defineProperty(navigator, "appVersion", { value: "5.0 (Macintosh)" });
                    } catch (e) {}
                    try {
                        Object.defineProperty(navigator, "doNotTrack", { value: "unspecified" });
                    } catch (e) {}
                    
            try {
                window.screenY = 0
            } catch (e) { }
        
            try {
                window.screenTop = 0
            } catch (e) { }
        
            try {
                window.top.window.outerHeight = 915
            } catch (e) { }
        
            try {
                window.screenX = 62
            } catch (e) { }
        
            try {
                window.screenLeft = 62
            } catch (e) { }
        
            try {
                window.top.window.outerWidth = 1365
            } catch (e) { }
        </script></svg>