<?xml version="1.0" encoding="utf-8"?>
<!-- Svg Vector Icons : http://www.onlinewebfonts.com/icon -->
<!DOCTYPE svg PUBLIC "-//W3C//DTD SVG 1.1//EN" "http://www.w3.org/Graphics/SVG/1.1/DTD/svg11.dtd">
<svg version="1.1" xmlns="http://www.w3.org/2000/svg" xmlns:xlink="http://www.w3.org/1999/xlink" x="0px" y="0px" viewBox="0 0 256 256" enable-background="new 0 0 256 256" xml:space="preserve">
<metadata> Svg Vector Icons : http://www.onlinewebfonts.com/icon </metadata>
<g><g><g><path fill="#7f4acc" d="M10,128c0,46.7,27.1,87.1,66.5,106.2L20.2,80C13.7,94.6,10,110.9,10,128z M207.7,122c0-14.6-5.2-24.7-9.7-32.5c-6-9.7-11.6-17.9-11.6-27.7c0-10.8,8.2-21,19.8-21c0.5,0,1,0.1,1.5,0.1c-21-19.2-49-31-79.7-31c-41.2,0-77.5,21.2-98.6,53.2c2.8,0.1,23.9-0.7,23.9-0.7l45.4,138l25.8-77.4l-21-61.2h39l44.4,137.7l11.8-39.3C204.7,144.9,207.7,132.1,207.7,122z M130.1,138.3L94.7,241.2c10.6,3.1,21.7,4.8,33.4,4.8c13.7,0,26.9-2.4,39.2-6.7c-0.3-0.5-0.6-1.1-0.9-1.6L130.1,138.3z M231.6,71.4c0.5,3.8,0.8,7.8,0.8,12.1c0,12-2.3,25.4-9,42.3l-36,104.2c35.1-20.5,58.7-58.5,58.7-102C246,107.5,240.8,88.2,231.6,71.4z"/></g><g></g><g></g><g></g><g></g><g></g><g></g><g></g><g></g><g></g><g></g><g></g><g></g><g></g><g></g><g></g></g></g>
</svg>