<svg xmlns="http://www.w3.org/2000/svg" xmlns:xlink="http://www.w3.org/1999/xlink" viewBox="0 0 65 65" fill="#fff" fill-rule="evenodd" stroke="#000" stroke-linecap="round" stroke-linejoin="round"><use xlink:href="#A" x=".5" y=".5"/><symbol id="A" overflow="visible"><path d="M62.952 26.417H44.177L57.37 13.224c-1.015-1.522-2.03-2.537-3.045-4.06a29.03 29.03 0 0 1-4.059-3.552l-13.19 13.194V.54a17.25 17.25 0 0 0-5.074-.507c-1.708-.1-3.423.06-5.076.507v18.775l-13.7-13.7a13.7 13.7 0 0 0-4.06 3.551c-1.015 1.522-2.537 2.537-3.552 4.06l13.192 13.192H.54L.032 31.49c-.1 1.708.06 3.422.507 5.074h18.776l-13.7 13.7a27.2 27.2 0 0 0 7.611 7.611L26.42 44.683V63.46c1.657.42 3.367.6 5.074.507a15.63 15.63 0 0 0 5.074-.507V44.685L49.76 57.88a13.7 13.7 0 0 0 4.059-3.552 29.03 29.03 0 0 0 3.552-4.059L44.177 37.073h18.775c.42-1.657.59-3.367.508-5.074a19.03 19.03 0 0 0-.507-5.582zM39.6 31.49a25.73 25.73 0 0 1-1.015 6.597c-2.097.822-4.35 1.17-6.597 1.015a25.73 25.73 0 0 1-6.597-1.015 15.22 15.22 0 0 1-1.015-6.597c.05-2.234.392-4.45 1.015-6.597a15.22 15.22 0 0 1 6.597-1.015c2.234.05 4.45.392 6.597 1.015a29.69 29.69 0 0 1 1.015 6.597z" stroke="none" fill="#ff4a00" fill-rule="nonzero"/></symbol></svg>