<?xml version="1.0" encoding="iso-8859-1"?>
<!-- Generator: Adobe Illustrator 19.0.0, SVG Export Plug-In . SVG Version: 6.00 Build 0)  -->
<svg version="1.1" id="Capa_1" xmlns="http://www.w3.org/2000/svg" xmlns:xlink="http://www.w3.org/1999/xlink" x="0px" y="0px"
	 viewBox="0 0 512.001 512.001" style="enable-background:new 0 0 512.001 512.001;" xml:space="preserve">
<g>
	<g>
		<path d="M414.991,116.89c-0.002-1.597-0.004-3.11-0.007-4.52c-0.038-16.518-6.836-32.4-19.15-44.732
			c-12.325-12.305-28.209-19.103-44.728-19.141h-0.001l-75.947,0.064c-18.548,0.015-35.987,7.246-49.105,20.362L21.677,273.286
			c-28.903,28.901-28.903,75.928,0,104.829l63.667,63.662c28.97,28.967,75.862,28.971,104.835,0l204.376-204.362
			c13.117-13.117,20.349-30.556,20.364-49.103c0.017-20.592,0.055-38.987,0.069-55.136c48.678,22.674,82.018,71.963,82.011,129.08
			c0,78.688-63.698,142.37-142.38,142.37h-0.05c-25.872,0-52.894-7.9-76.075-22.24c-3.345-2.096-8.045-1.231-10.321,2.431
			c-2.174,3.541-1.098,8.135,2.441,10.33c24.76,15.31,54.023,24.479,84.006,24.479c86.843,0,157.381-70.365,157.381-157.37
			C512,197.013,472.25,140.701,414.991,116.89z M399.918,188.301c-0.012,14.545-5.683,28.221-15.971,38.507L179.572,431.17
			c-23.054,23.053-60.567,23.053-83.621,0l-63.666-63.662c-23.109-23.107-23.111-60.506,0-83.614L236.661,79.532
			c10.288-10.287,23.964-15.959,38.51-15.97l75.901-0.064c12.529,0.028,24.662,5.269,34.156,14.748
			c9.262,9.275,14.462,21.06,14.731,33.271c-7.666-2.304-15.495-4.022-23.458-5.127c-2.718-11.514-13.073-20.112-25.406-20.112
			c-14.396,0-26.108,11.712-26.108,26.107c0,14.395,11.712,26.106,26.108,26.106c11.224,0,20.814-7.118,24.498-17.077
			c8.406,1.229,16.559,3.185,24.401,5.798C399.984,143.917,399.936,167.02,399.918,188.301z M357.959,120.017h1.182
			c-2.026,2.134-4.88,3.474-8.048,3.474c-6.124,0-11.107-4.982-11.107-11.106c0-6.125,4.983-11.107,11.107-11.107
			c3.297,0,6.255,1.452,8.291,3.74h-1.424c-4.14,0-7.5,3.36-7.5,7.5C350.459,116.648,353.819,120.017,357.959,120.017z"/>
	</g>
</g>
<g>
	<g>
		<path d="M117.953,303.63c-2.981-2.98-6.725-4.746-10.612-5.296c-0.547-3.886-2.315-7.63-5.295-10.61
			c-7.311-7.311-19.204-7.311-26.515-0.001l-10.076,10.075c-2.929,2.928-2.929,7.676-0.001,10.604l31.819,31.816
			c2.93,2.93,7.678,2.93,10.606,0.001l10.075-10.075C125.264,322.833,125.264,310.941,117.953,303.63z M91.439,303.631l-4.772,4.772
			l-5.303-5.303l4.772-4.772c1.463-1.462,3.841-1.462,5.303,0C92.9,299.789,92.902,302.169,91.439,303.631z M107.348,319.539
			l-4.773,4.771l-5.301-5.301l4.772-4.772c1.463-1.462,3.842-1.461,5.302-0.001C108.81,315.698,108.81,318.076,107.348,319.539z"/>
	</g>
</g>
<g>
	<g>
		<path d="M158.871,278.625c-2.929-2.929-7.676-2.93-10.605,0l-10.96,10.958l-26.515-26.514c-2.928-2.928-7.677-2.927-10.605,0.001
			c-2.929,2.928-2.929,7.676-0.001,10.604l31.818,31.816c2.93,2.93,7.678,2.93,10.606,0.001l16.263-16.261
			C161.801,286.3,161.801,281.554,158.871,278.625z"/>
	</g>
</g>
<g>
	<g>
		<path d="M194.864,238.909l-43.75-19.886c-2.844-1.292-6.195-0.685-8.405,1.524c-2.209,2.211-2.818,5.561-1.525,8.404
			l19.887,43.749c1.713,3.771,6.161,5.438,9.93,3.725c3.768-1.719,5.438-6.159,3.725-9.931l-1.164-2.561l12.536-12.535l2.561,1.163
			c2.928,1.332,6.26,0.623,8.407-1.523c0.619-0.618,1.141-1.355,1.524-2.199C200.303,245.069,198.636,240.624,194.864,238.909z
			 M166.933,249.354l-3.819-8.4l8.4,3.819L166.933,249.354z"/>
	</g>
</g>
<g>
	<g>
		<path d="M227.02,193.682c-4.141-0.001-7.501,3.356-7.5,7.499c0.002,8.27-6.73,14.996-14.998,14.998
			c-8.271-0.002-14.999-6.729-15.001-15c0-8.269,6.729-14.997,14.999-14.997c4.141,0.001,7.501-3.356,7.5-7.499
			c-0.001-4.142-3.358-7.498-7.499-7.498c-16.541-0.001-30,13.455-29.997,29.997c0.001,16.541,13.458,29.997,29.999,29.996
			c8.27,0,15.769-3.365,21.201-8.796c5.432-5.433,8.797-12.931,8.796-21.201C234.519,197.039,231.161,193.682,227.02,193.682z"/>
	</g>
</g>
<g>
	<g>
		<path d="M268.694,163.194l-25.869-6.332l-0.173-18.213c-0.041-4.143-3.431-7.468-7.572-7.429
			c-4.141,0.041-7.467,3.432-7.428,7.571l0.178,18.768l-5.76-5.76c-2.928-2.928-7.678-2.928-10.606,0
			c-2.928,2.929-2.928,7.677,0,10.604l31.818,31.816c2.93,2.93,7.677,2.929,10.606,0.001c2.928-2.928,2.93-7.676,0-10.605
			l-10.913-10.912l-0.005-0.367l22.157,5.425c2.642,0.646,5.299-0.193,7.091-1.985c0.937-0.938,1.637-2.135,1.976-3.516
			C275.179,168.237,272.715,164.178,268.694,163.194z"/>
	</g>
</g>
<g>
	<g>
		<path d="M148.047,396.93l-10.607-10.606l6.716-6.717c2.929-2.929,2.929-7.675-0.001-10.604c-2.929-2.929-7.675-2.929-10.604,0
			l-6.717,6.716l-5.303-5.303l10.96-10.958c2.929-2.929,2.928-7.677-0.002-10.606c-2.928-2.928-7.675-2.928-10.604,0.001
			l-16.263,16.262c-2.928,2.929-2.93,7.675,0,10.604l31.819,31.816c2.93,2.93,7.676,2.928,10.605,0
			C150.975,404.607,150.977,399.859,148.047,396.93z"/>
	</g>
</g>
<g>
	<g>
		<path d="M194.856,342.656l-9.542-0.039c0.909-6.725-1.224-13.801-6.399-18.976c-8.771-8.771-23.005-8.811-31.729-0.089
			l-10.342,10.342c-2.929,2.928-2.929,7.676-0.001,10.604l31.819,31.816c2.93,2.93,7.678,2.93,10.606,0.001
			c2.928-2.928,2.929-7.677,0-10.605l-5.303-5.303l2.828-2.827l17.998,0.074c2.082,0.01,3.97-0.831,5.335-2.195
			c1.35-1.35,2.186-3.213,2.196-5.271C202.341,346.045,198.997,342.674,194.856,342.656z M168.398,344.761l-5.038,5.039
			l-10.605-10.604l5.039-5.038c2.873-2.875,7.59-2.836,10.516,0.09C171.234,337.171,171.273,341.888,168.398,344.761z"/>
	</g>
</g>
<g>
	<g>
		<path d="M232.29,312.69c-2.927-2.929-7.676-2.929-10.606,0l-2.475,2.474l-21.21-21.209l2.474-2.475
			c2.929-2.93,2.929-7.678-0.001-10.607c-2.928-2.928-7.676-2.928-10.605,0.002l-15.555,15.555
			c-2.929,2.928-2.93,7.675-0.001,10.604c2.93,2.93,7.678,2.93,10.607,0.002l2.474-2.475l21.211,21.21l-2.475,2.474
			c-2.928,2.929-2.928,7.677,0.001,10.605c2.93,2.93,7.677,2.929,10.605,0l15.556-15.554
			C235.22,320.367,235.22,315.619,232.29,312.69z"/>
	</g>
</g>
<g>
	<g>
		<path d="M257.847,255.317c-11.696-11.695-30.727-11.695-42.423,0.001l-8.838,8.838c-2.928,2.929-2.929,7.676,0,10.604
			l31.819,31.816c2.93,2.93,7.677,2.929,10.606,0.001l8.838-8.838C269.545,286.044,269.545,267.014,257.847,255.317z
			 M247.243,287.134l-3.535,3.534l-21.211-21.21l3.534-3.535c5.849-5.848,15.364-5.847,21.211,0
			C253.09,271.771,253.091,281.285,247.243,287.134z"/>
	</g>
</g>
<g>
	<g>
		<path d="M308.562,232.699l-43.75-19.886c-2.844-1.292-6.195-0.685-8.405,1.524c-2.209,2.211-2.818,5.561-1.525,8.404
			l19.887,43.748c1.714,3.771,6.162,5.438,9.931,3.725c3.768-1.719,5.437-6.16,3.725-9.931l-1.164-2.56l12.536-12.536l2.561,1.163
			c2.928,1.332,6.26,0.623,8.407-1.523c0.619-0.618,1.141-1.355,1.524-2.199C314.001,238.859,312.334,234.413,308.562,232.699z
			 M280.631,243.142l-3.818-8.398l8.399,3.817L280.631,243.142z"/>
	</g>
</g>
<g>
	<g>
		<path d="M331.415,213.571l-14.24-14.239l-4.877-24.391c-0.815-4.061-4.765-6.694-8.827-5.884
			c-4.061,0.812-6.696,4.764-5.882,8.824l3.123,15.611l-15.613-3.122c-4.06-0.812-8.012,1.821-8.825,5.882
			c-0.812,4.061,1.822,8.013,5.883,8.823l24.437,4.888l14.214,14.213c2.93,2.93,7.677,2.93,10.607,0
			C334.344,221.247,334.345,216.5,331.415,213.571z"/>
	</g>
</g>
<g>
</g>
<g>
</g>
<g>
</g>
<g>
</g>
<g>
</g>
<g>
</g>
<g>
</g>
<g>
</g>
<g>
</g>
<g>
</g>
<g>
</g>
<g>
</g>
<g>
</g>
<g>
</g>
<g>
</g>
</svg>
