<svg id="Capa_1" enable-background="new 0 0 400.909 400.909" height="512" viewBox="0 0 400.909 400.909" width="512" xmlns="http://www.w3.org/2000/svg"><g><path d="m339.341 34.879v19.53h-277.773v-19.53c.014-19.257 15.622-34.865 34.879-34.879h208.015c19.257.014 34.865 15.622 34.879 34.879z" fill="#00acf4"/><path d="m339.341 346.5v19.53c-.014 19.257-15.622 34.865-34.879 34.879h-208.015c-19.257-.014-34.865-15.622-34.879-34.879v-19.53z" fill="#00acf4"/><g fill="#dfe3ef"><path d="m61.568 54.409h277.773v292.091h-277.773z"/><path d="m230.523 379.432h-60.136c-3.163 0-5.727-2.564-5.727-5.727s2.564-5.727 5.727-5.727h60.136c3.163 0 5.727 2.564 5.727 5.727s-2.564 5.727-5.727 5.727z"/><path d="m297.15 379.432h-25.773c-3.163 0-5.727-2.564-5.727-5.727s2.564-5.727 5.727-5.727h25.773c3.163 0 5.727 2.564 5.727 5.727s-2.564 5.727-5.727 5.727z"/><path d="m129.532 379.432h-25.773c-3.163 0-5.727-2.564-5.727-5.727s2.564-5.727 5.727-5.727h25.773c3.163 0 5.727 2.564 5.727 5.727s-2.564 5.727-5.727 5.727z"/></g><g fill="#00acf4"><path d="m120.804 235.842-16.167-.006c-3.163-.01-5.72-2.581-5.71-5.744.009-3.151 2.562-5.702 5.713-5.71h.003l16.164.006c1.408-.016 2.751-.594 3.731-1.605 1.219-1.254 1.895-2.938 1.882-4.687.179-3.305-2.34-6.136-5.643-6.342h-4.807c-9.61-.201-17.252-8.13-17.098-17.741-.053-4.808 1.824-9.436 5.213-12.847 3.121-3.163 7.378-4.946 11.821-4.95l16.2.003c3.163 0 5.727 2.564 5.727 5.727s-2.564 5.727-5.727 5.727l-16.2-.003c-1.402.012-2.74.585-3.717 1.591-1.218 1.242-1.889 2.92-1.863 4.659-.195 3.318 2.329 6.171 5.646 6.382h4.804c9.611.201 17.253 8.132 17.098 17.744.017 4.8-1.864 9.411-5.232 12.83-3.123 3.171-7.387 4.96-11.838 4.966z"/><path d="m190.628 211.758-32.47-.006c-3.161.002-5.724-2.558-5.727-5.719l-.008-6.963c-.051-6.168 2.37-12.099 6.723-16.469 4.017-4.074 9.497-6.37 15.219-6.376 12.364.265 22.189 10.472 21.983 22.836l.008 6.963c.005 3.161-2.554 5.728-5.715 5.733-.005.001-.009.001-.013.001zm-26.749-11.457 21.016.003-.003-1.23c.214-6.046-4.488-11.132-10.532-11.393-2.678.015-5.239 1.101-7.112 3.015-2.196 2.226-3.411 5.238-3.373 8.364z"/><path d="m190.658 235.831c-3.161-.001-5.724-2.561-5.727-5.722l-.022-18.351h-21.016l.022 18.34c.002 3.162-2.557 5.728-5.719 5.733h-.008c-3.161-.001-5.724-2.561-5.727-5.722l-.031-24.072c-.004-3.164 2.558-5.732 5.722-5.736h.005l32.47.003c3.16-.001 5.723 2.559 5.727 5.719l.031 24.075c.002 3.162-2.557 5.728-5.719 5.733z"/><path d="m240.601 235.836h-.003l-21.673-.006c-3.16-.001-5.722-2.561-5.724-5.722l-.053-48.15c-.003-3.163 2.559-5.73 5.722-5.733h.006c3.161-.001 5.725 2.561 5.727 5.722l.048 42.429 15.954.006c3.163.01 5.72 2.581 5.71 5.744-.01 3.151-2.563 5.702-5.714 5.71z"/><path d="m296.283 211.764-31.514-.006c-3.161.002-5.724-2.558-5.727-5.719l-.022-20.017c-.005-2.634 1.029-5.163 2.878-7.039 1.739-1.759 4.109-2.75 6.583-2.752l27.775.003c3.163 0 5.727 2.564 5.727 5.727s-2.564 5.727-5.727 5.727l-25.778-.003.014 12.621 25.792.003c3.163 0 5.727 2.564 5.727 5.727-.001 3.164-2.565 5.728-5.728 5.728z"/><path d="m296.311 235.836h-27.775c-5.312-.097-9.545-4.47-9.469-9.782l-.025-20.012c-.004-3.164 2.558-5.732 5.722-5.736h.005l31.514.003c3.163 0 5.727 2.564 5.727 5.727s-2.564 5.727-5.727 5.727h-25.778l.014 12.618h25.792c3.163 0 5.727 2.564 5.727 5.727 0 3.164-2.564 5.728-5.727 5.728z"/><path d="m159.273 124.47h-.031l-25.292-.031c-3.157-.004-5.716-2.562-5.722-5.719l-.053-31.341c-.004-3.164 2.558-5.732 5.722-5.736h.005 25.37c11.826 0 21.413 9.587 21.413 21.413s-9.586 21.414-21.412 21.414zm-19.598-11.479 19.581.025h.014c5.5-.012 9.949-4.48 9.937-9.98-.012-5.482-4.452-9.924-9.934-9.937h-19.634z"/><path d="m159.326 155.831h-25.317c-3.16 0-5.723-2.559-5.727-5.719l-.053-31.391c-.006-3.161 2.551-5.729 5.712-5.736h.015.006l25.39.031c11.823.025 21.387 9.629 21.362 21.452-.025 11.798-9.59 21.351-21.388 21.363zm-19.598-11.455h19.598c5.497-.01 9.945-4.474 9.935-9.97-.01-5.479-4.445-9.919-9.924-9.935l-19.646-.025z"/><path d="m251.332 155.831h-9.698c-11.782-.018-21.335-9.555-21.371-21.337l-.056-32.059c-.02-11.461 9.254-20.769 20.716-20.789h.037 11.969c10.89.017 19.719 8.831 19.755 19.721l.003 1.664c.005 3.162-2.554 5.73-5.716 5.736-.001 0-.002 0-.003 0h-.008c-3.16 0-5.723-2.559-5.727-5.719l-.003-1.661c-.015-4.575-3.725-8.278-8.3-8.286h-11.969c-5.136.001-9.299 4.165-9.298 9.301v.014l.056 32.059c.016 5.468 4.449 9.894 9.916 9.902h9.698c5.495.002 9.951-4.45 9.953-9.945 0-.007 0-.014 0-.022l-.017-10.02-9.922.081c-3.163-.002-5.725-2.568-5.723-5.731s2.568-5.725 5.731-5.723h.008l10.014.014c6.256.018 11.324 5.084 11.346 11.34l.017 10.02c.022 11.82-9.543 21.419-21.363 21.441-.015-.001-.03-.001-.045-.001z"/><path d="m199.901 155.831c-3.16 0-5.722-2.559-5.727-5.719l-.106-62.732c-.005-3.162 2.554-5.73 5.716-5.736h.003.008c3.16 0 5.722 2.559 5.727 5.719l.106 62.731c.005 3.162-2.554 5.73-5.716 5.736-.001 0-.002 0-.003 0z"/><path d="m168.06 328.96c-3.163-.001-5.727-2.565-5.726-5.729 0-1.518.603-2.974 1.677-4.048l64.79-64.79c2.25-2.222 5.876-2.2 8.099.051 2.203 2.23 2.203 5.817 0 8.048l-64.79 64.79c-1.074 1.076-2.531 1.68-4.05 1.678z"/><path d="m170.456 289.188c-10.072.002-18.237-8.162-18.239-18.233-.002-10.072 8.162-18.237 18.233-18.239 10.072-.002 18.237 8.162 18.239 18.233-.01 10.067-8.166 18.225-18.233 18.239zm0-25.018c-3.745-.002-6.783 3.033-6.784 6.779-.002 3.745 3.033 6.783 6.779 6.784 3.745.002 6.783-3.033 6.784-6.779 0-.002 0-.004 0-.006-.006-3.74-3.037-6.772-6.779-6.778z"/><path d="m230.453 328.96c-10.072 0-18.236-8.165-18.236-18.236 0-10.072 8.165-18.236 18.236-18.236 10.072 0 18.236 8.165 18.236 18.236v.003c-.011 10.067-8.17 18.224-18.236 18.233zm0-25.017c-3.745 0-6.782 3.036-6.781 6.782 0 3.745 3.036 6.782 6.782 6.781 3.744 0 6.78-3.034 6.781-6.779-.003-3.745-3.037-6.781-6.782-6.784z"/><path d="m367.977 352.227c-3.162.001-5.726-2.562-5.727-5.724 0-.001 0-.002 0-.003v-63.039c0-3.163 2.564-5.727 5.727-5.727s5.727 2.564 5.727 5.727v63.039c.001 3.162-2.562 5.726-5.724 5.727-.001 0-.002 0-.003 0z"/><path d="m32.932 82.092c-3.163 0-5.727-2.564-5.727-5.727v-21.956c0-3.163 2.564-5.727 5.727-5.727s5.727 2.564 5.727 5.727v21.956c0 3.163-2.564 5.727-5.727 5.727z"/><path d="m32.932 186.519c-3.163 0-5.727-2.564-5.727-5.727v-77.318c0-3.163 2.564-5.727 5.727-5.727s5.727 2.564 5.727 5.727v77.318c0 3.163-2.564 5.727-5.727 5.727z"/></g></g></svg>