<svg id="Capa_1" enable-background="new 0 0 511.746 511.746" height="512" viewBox="0 0 511.746 511.746" width="512" xmlns="http://www.w3.org/2000/svg"><g><path d="m194.83 287.221c5.147 0 9.853-2.919 12.226-7.988.721-1.539 1.021-3.243 1.021-4.943v-.045c0-2.823-.773-5.631-2.42-7.924-2.551-3.553-6.48-5.569-10.73-5.602-.034 0-.068 0-.102 0-7.26 0-13.193 5.879-13.248 13.151-.055 7.306 5.843 13.295 13.149 13.35.035 0 .07.001.104.001z"/><path d="m317.019 384.672c-.035 0-.069-.001-.103-.001-4.842 0-9.294 2.583-11.78 7.11-.335.609-.608 1.253-.814 1.916-1.551 4.987-.278 10.037 3.157 13.524 2.483 2.521 5.8 3.925 9.34 3.952.034 0 .068.001.102.001 7.26 0 13.193-5.879 13.248-13.151.055-7.307-5.844-13.296-13.15-13.351z"/><path d="m465.55 209.94c-3.291-9.226-16.214-9.809-20.197-.86-36.356 81.668-118.355 15.397-78.541-45.236 9.905-15.084 14.616-33.094 12.075-50.96-1.874-13.175-6.635-26.544-14.816-37.1-5.389-6.954-16.37-5.096-19.066 3.279-6.288 19.539-21.24 48.779-53.874 44.799-39.697-4.841-59.197-65.181-44.014-109.605 3.268-9.562-7.32-17.847-15.991-12.658-39.532 23.656-66.069 66.534-58.886 109.813 6.547 39.448 28.551 65.476-5.792 84.356-17.722 9.427-39.673.781-46.208-18.199 0 0-7.02-34.109-36.491-43.895-5.167-1.716-10.813.673-13.211 5.56-12.197 24.855-46.937 105.343-37.626 168.868 13.451 114.692 107.3 203.679 225.319 203.644 127.647 0 222.168-103.478 222.168-231.125-.69-22.158-5.89-45.565-14.849-70.681zm-314.715 63.698c.184-24.144 19.886-43.661 43.986-43.661.114 0 .224.001.338.001 12.361.094 23.903 5.244 32.269 14.451 6.972 7.673 11.027 17.675 11.367 28.037.408 12.435-4.291 24.17-13.097 32.845-8.29 8.166-19.24 12.651-30.862 12.651-.115 0-.228-.001-.342-.001-24.256-.183-43.841-20.067-43.659-44.323zm57.583 158.609c-2.961 4.445-7.838 6.85-12.806 6.85-2.929 0-5.888-.835-8.508-2.58-7.065-4.707-8.976-14.25-4.27-21.314l118.238-177.477c4.706-7.066 14.25-8.975 21.314-4.27 7.065 4.707 8.976 14.25 4.27 21.314zm152.493-33.992c-.184 24.143-19.886 43.66-43.986 43.66-.114 0-.224-.001-.338-.002-11.751-.089-22.763-4.748-31.01-13.12-8.669-8.801-13.189-20.597-12.599-33.017.49-10.32 4.662-20.23 11.704-27.791 8.433-9.055 19.956-14.057 32.229-14.057.097 0 .192 0 .288.001 24.22.179 43.713 19.975 43.713 44.196v.13z"/></g></svg>