<svg id="Capa_1" enable-background="new 0 0 512 512" height="512" viewBox="0 0 512 512" width="512" xmlns="http://www.w3.org/2000/svg"><g><g><path d="m504.5 146.638v53.781l-248.5 33.035-248.5-33.035v-53.781c0-57.47 46.586-104.057 104.057-104.057h288.887c57.47 0 104.056 46.587 104.056 104.057z" fill="#ff899f"/><path d="m37.5 200.419v-53.781c0-57.47 46.586-104.057 104.057-104.057h-30c-57.471.001-104.057 46.587-104.057 104.057v53.781l248.5 33.036 15-1.994z" fill="#ff5f7f"/><path d="m504.5 200.419v192.757c0 57.47-46.586 104.067-104.057 104.067h-288.887c-57.47 0-104.056-46.596-104.056-104.066v-192.758z" fill="#eee"/><path d="m37.5 393.176v-192.757h-30v192.757c0 57.471 46.586 104.067 104.057 104.067h30c-57.471 0-104.057-46.596-104.057-104.067z" fill="#e0e0de"/><g fill="#fbf198"><path d="m99.232 14.756c-13.537 0-24.51 10.973-24.51 24.51v39.25c0 13.536 10.973 24.51 24.51 24.51 13.536 0 24.51-10.974 24.51-24.51v-39.25c0-13.536-10.974-24.51-24.51-24.51z"/><path d="m203.744 14.756c-13.537 0-24.51 10.973-24.51 24.51v39.25c0 13.536 10.973 24.51 24.51 24.51 13.536 0 24.51-10.974 24.51-24.51v-39.25c0-13.536-10.974-24.51-24.51-24.51z"/><path d="m308.256 14.756c-13.537 0-24.51 10.973-24.51 24.51v39.25c0 13.536 10.974 24.51 24.51 24.51 13.536 0 24.51-10.974 24.51-24.51v-39.25c0-13.536-10.974-24.51-24.51-24.51z"/><path d="m412.768 14.756c13.537 0 24.51 10.973 24.51 24.51v39.25c0 13.536-10.973 24.51-24.51 24.51-13.536 0-24.51-10.974-24.51-24.51v-39.25c0-13.536 10.974-24.51 24.51-24.51z"/></g></g><g><path d="m160.681 123.913c-4.143 0-7.5 3.358-7.5 7.5v18.316c0 4.142 3.357 7.5 7.5 7.5 4.142 0 7.5-3.358 7.5-7.5v-18.316c0-4.142-3.359-7.5-7.5-7.5z"/><path d="m351.318 123.913c-4.142 0-7.5 3.358-7.5 7.5v18.316c0 4.142 3.358 7.5 7.5 7.5 4.143 0 7.5-3.358 7.5-7.5v-18.316c0-4.142-3.357-7.5-7.5-7.5z"/><path d="m286.058 143.53c-3.123-2.72-7.86-2.395-10.582.727-4.916 5.641-12.015 8.876-19.476 8.876s-14.56-3.235-19.476-8.876c-2.722-3.123-7.459-3.448-10.582-.727-3.123 2.722-3.448 7.459-.727 10.582 7.766 8.91 18.986 14.021 30.785 14.021s23.019-5.11 30.785-14.021c2.72-3.123 2.395-7.86-.727-10.582z"/><path d="m504.5 346.608c-4.142 0-7.5 3.358-7.5 7.5v39.069c0 53.247-43.315 96.567-96.557 96.567h-288.886c-53.242 0-96.557-43.32-96.557-96.567v-115.379c0-4.142-3.358-7.5-7.5-7.5-4.143 0-7.5 3.358-7.5 7.5v115.378c0 61.518 50.044 111.567 111.557 111.567h288.886c61.512 0 111.557-50.049 111.557-111.567v-39.069c0-4.141-3.358-7.499-7.5-7.499z"/><path d="m253.292 238.242c-.026-.069-.053-.138-.081-.206-1.412-3.432-4.72-5.648-8.431-5.648-.003 0-.006 0-.01 0-3.714.004-7.022 2.228-8.428 5.666-.023.056-.045.113-.067.169l-26.775 70.303c-1.475 3.871.469 8.204 4.339 9.678 3.871 1.476 8.204-.469 9.678-4.339l4.829-12.678h32.668l4.777 12.657c1.133 3.003 3.987 4.854 7.018 4.854 5.208 0 8.876-5.223 7.016-10.15zm-19.233 47.944 10.696-28.083 10.599 28.083z"/><path d="m166.479 232.388c-4.142 0-7.5 3.358-7.5 7.5v71.247c0 3.653 2.632 6.774 6.231 7.392.541.093 18.143.153 26.28.108 4.142-.023 7.481-3.4 7.458-7.542-.023-4.128-3.376-7.458-7.499-7.458-.014 0-.029 0-.043 0-6.083.034-12.628.058-17.428.06v-63.807c.001-4.142-3.356-7.5-7.499-7.5z"/><path d="m373.601 232.388c-4.142 0-7.5 3.358-7.5 7.5v71.307c0 4.142 3.358 7.5 7.5 7.5 4.143 0 7.5-3.358 7.5-7.5v-21.792l28.182 27.189c2.972 2.867 7.72 2.8 10.605-.19 2.876-2.981 2.791-7.729-.19-10.605l-32.876-31.717 30.212-27.771c3.05-2.803 3.25-7.548.446-10.598-2.803-3.05-7.547-3.25-10.597-.446l-25.783 23.699v-19.077c.001-4.141-3.357-7.499-7.499-7.499z"/><path d="m118.222 232.388h-20.713c-4.142 0-7.5 3.358-7.5 7.5v71.307c0 4.066 3.272 7.5 7.533 7.5 0 0 19.047-.084 24.297-.084 14.719 0 26.694-11.975 26.694-26.694 0-8.852-4.334-16.707-10.988-21.566 2.879-3.948 4.585-8.805 4.585-14.055 0-13.183-10.726-23.908-23.908-23.908zm0 15c4.912 0 8.908 3.996 8.908 8.908s-3.996 8.908-8.908 8.908c-1.51 0-13.213.019-13.213.019v-17.835zm3.617 56.223c-3.076 0-10.877.029-16.83.053v-23.419c1.862-.007 16.83-.022 16.83-.022 6.448 0 11.694 5.246 11.694 11.694s-5.246 11.694-11.694 11.694z"/><path d="m326.948 247.388c5.643 0 11.084 1.661 15.735 4.804 3.433 2.32 8.095 1.417 10.414-2.017 2.319-3.432 1.416-8.094-2.016-10.413-7.142-4.824-15.486-7.374-24.133-7.374-23.795 0-43.154 19.359-43.154 43.154s19.359 43.153 43.154 43.153c11.236 0 21.188-4.373 28.208-12.746 2.661-3.174 2.246-7.905-.929-10.566-3.173-2.662-7.905-2.245-10.566.928-13.47 16.073-44.868 4.679-44.868-20.77.001-15.523 12.631-28.153 28.155-28.153z"/><path d="m348.21 339.841c-1.412-3.432-4.721-5.647-8.431-5.647-.003 0-.007 0-.01 0-3.714.004-7.022 2.228-8.428 5.666-.023.056-.045.113-.067.169l-26.776 70.303c-1.474 3.871.468 8.204 4.339 9.678s8.204-.468 9.678-4.339l4.829-12.679h32.667l4.776 12.657c1.134 3.003 3.987 4.854 7.019 4.854 5.215 0 8.871-5.233 7.016-10.15l-26.533-70.306c-.024-.069-.052-.138-.079-.206zm-19.152 48.151 10.696-28.083 10.598 28.083z"/><path d="m202.055 341.694v71.307c0 4.142 3.358 7.5 7.5 7.5s7.5-3.358 7.5-7.5v-71.307c0-4.142-3.358-7.5-7.5-7.5s-7.5 3.358-7.5 7.5z"/><path d="m74.608 342.216v70.785c0 4.142 3.358 7.5 7.5 7.5s7.5-3.358 7.5-7.5v-28.563h18.911c4.142 0 7.5-3.358 7.5-7.5s-3.358-7.5-7.5-7.5h-18.911v-19.722h21.189c4.142 0 7.5-3.358 7.5-7.5s-3.358-7.5-7.5-7.5h-28.689c-4.142 0-7.5 3.358-7.5 7.5z"/><path d="m244.334 336.303c-4.146 0-7.507 3.367-7.5 7.514v.056.002c.059 71.868-.144 68.092.161 69.547.225 4 3.518 7.079 7.479 7.079 1.87 0 15.443-.071 20.163-.153 20.129-.352 34.74-17.993 34.74-41.946 0-25.181-14.244-42.099-35.444-42.099zm40.043 42.099c0 12.811-6.259 26.708-20.002 26.948-2.836.05-8.045.088-12.426.114-.027-8.173-.064-20.907-.064-27.138 0-5.199-.022-18.526-.037-27.023h12.085c15.073 0 20.444 13.998 20.444 27.099z"/><path d="m407.194 420.501h.019c4.133 0 7.489-3.346 7.5-7.481l.084-34.208 21.381-32.845c2.26-3.472 1.277-8.118-2.194-10.377-3.472-2.261-8.118-1.277-10.377 2.194l-16.314 25.062-16.488-25.251c-2.264-3.468-6.911-4.445-10.38-2.179-3.468 2.265-4.444 6.912-2.179 10.38l21.552 33.006-.084 34.182c-.012 4.141 3.338 7.507 7.48 7.517z"/><path d="m140.739 334.194c-.004 0-.007 0-.011 0-4.143 0-7.5 3.358-7.5 7.5v71.307c0 4.142 3.357 7.5 7.5 7.5 4.142 0 7.5-3.358 7.5-7.5v-23.93l25.423 28.885c1.482 1.685 3.552 2.545 5.633 2.545 6.38 0 9.911-7.587 5.627-12.455l-19.662-22.34c12.28-2.468 21.532-12.954 21.532-25.48 0-14.354-12.148-26.032-27.081-26.032h-18.95c-.003 0-.007 0-.011 0zm18.96 15c6.549 0 12.081 5.052 12.081 11.032s-5.532 11.032-12.081 11.032c-2.626 0-7.314.02-11.36.041-.021-3.966-.042-8.53-.042-11.073 0-2.149-.013-6.883-.024-11.032z"/><path d="m444.778 44.262v-4.996c0-17.65-14.36-32.01-32.01-32.01-16.231 0-29.67 12.146-31.728 27.825h-41.057c-2.058-15.679-15.497-27.825-31.728-27.825s-29.67 12.146-31.728 27.825h-41.057c-2.058-15.679-15.497-27.825-31.728-27.825s-29.669 12.146-31.728 27.825h-41.057c-2.058-15.679-15.497-27.825-31.728-27.825-17.65 0-32.01 14.36-32.01 32.01v4.996c-18.876 8.169-35.046 21.314-46.978 38.281-13.241 18.832-20.241 40.995-20.241 64.095v101.16c0 4.142 3.357 7.5 7.5 7.5 4.142 0 7.5-3.358 7.5-7.5v-39.879h482v116.188c0 4.142 3.358 7.5 7.5 7.5s7.5-3.358 7.5-7.5v-177.47c0-23.1-7-45.263-20.243-64.095-11.933-16.965-28.103-30.11-46.979-38.28zm-32.01-22.006c9.379 0 17.01 7.631 17.01 17.01v39.25c0 9.379-7.631 17.01-17.01 17.01-9.352 0-17.01-7.604-17.01-17.01 0-15.729 0-24.535 0-39.25 0-9.379 7.63-17.01 17.01-17.01zm-104.512 0c9.379 0 17.01 7.631 17.01 17.01v39.25c0 8.207-5.842 15.075-13.586 16.664-10.573 2.17-20.434-5.951-20.434-16.664 0-.103 0-39.352 0-39.25 0-9.379 7.63-17.01 17.01-17.01zm-104.513 0c9.38 0 17.01 7.631 17.01 17.01v39.25c0 10.033-8.693 17.946-18.747 16.922-8.566-.873-15.273-8.129-15.273-16.922 0-38.911 0 .493 0-39.25 0-9.379 7.631-17.01 17.01-17.01zm-104.512 0c9.379 0 17.01 7.631 17.01 17.01v39.25c0 10.033-8.693 17.946-18.747 16.922-8.567-.873-15.273-8.129-15.273-16.922-.001-48.79 0-26.971 0-39.25 0-9.379 7.631-17.01 17.01-17.01zm397.769 170.663h-482v-46.281c0-19.995 6.056-39.174 17.513-55.466 9.055-12.875 20.918-23.216 34.708-30.336v17.681c0 18.24 15.312 32.897 33.655 31.969 16.889-.859 30.365-14.87 30.365-31.969v-28.436h40.492v28.435c0 18.265 15.332 32.896 33.655 31.969 16.889-.859 30.366-14.87 30.366-31.969v-28.435h40.492v28.435c0 19.525 17.452 34.618 36.878 31.641 15.357-2.352 27.142-15.655 27.142-31.641v-28.435h40.492v28.435c0 18.265 15.332 32.896 33.655 31.969 16.889-.859 30.365-14.87 30.365-31.969v-17.68c13.791 7.12 25.654 17.461 34.709 30.336 11.457 16.292 17.513 35.471 17.513 55.466z"/></g></g></svg>