<svg id="Layer_1" enable-background="new 0 0 512 512" height="512" viewBox="0 0 512 512" width="512" xmlns="http://www.w3.org/2000/svg"><g clip-rule="evenodd" fill-rule="evenodd"><g><path d="m37.607 167.077h436.786c20.684 0 37.607 16.923 37.607 37.607v269.709c0 20.684-16.923 37.607-37.607 37.607h-436.786c-20.684 0-37.607-16.923-37.607-37.607v-269.709c0-20.684 16.923-37.607 37.607-37.607z" fill="#4b5055"/><path d="m256 167.077h218.393c20.684 0 37.607 16.923 37.607 37.607v269.709c0 20.684-16.923 37.607-37.607 37.607h-218.393z" fill="#373c41"/><path d="m229.575 270.745h36.968c.972 0 1.863-.404 2.514-1.055s1.055-1.542 1.055-2.514v-25.165c0-.973-.404-1.864-1.055-2.515s-1.542-1.055-2.514-1.055h-36.968zm-59.111 57.078c0 4.561-3.697 8.258-8.258 8.258s-8.258-3.697-8.258-8.258v-53.93l-27.043-39.031c-2.583-3.741-1.644-8.868 2.097-11.451s8.868-1.644 11.452 2.097l21.753 31.396 21.753-31.396c2.583-3.741 7.71-4.68 11.452-2.097 3.741 2.583 4.68 7.71 2.097 11.451l-27.043 39.031v53.93zm201.701-8.259c4.56 0 8.258 3.698 8.258 8.258 0 4.561-3.698 8.258-8.258 8.258h-57.054c-4.561 0-8.258-3.697-8.258-8.258v-97.639c0-4.561 3.698-8.258 8.258-8.258h57.054c4.56 0 8.258 3.697 8.258 8.258s-3.698 8.258-8.258 8.258h-48.796v32.303h36.969c4.56 0 8.258 3.698 8.258 8.258 0 4.561-3.698 8.258-8.258 8.258h-36.969v32.303h48.796zm40.608 8.259c0 4.561-3.697 8.258-8.258 8.258s-8.258-3.697-8.258-8.258v-97.639c0-4.561 3.697-8.258 8.258-8.258h45.227c5.532 0 10.556 2.257 14.192 5.894 3.636 3.636 5.894 8.66 5.894 14.192v25.165c0 5.532-2.257 10.556-5.894 14.191-3.636 3.637-8.66 5.894-14.192 5.894h-2.314l21.271 36.4c2.298 3.937.969 8.992-2.968 11.29s-8.992.969-11.29-2.968l-26.134-44.723h-15.533v40.562zm0-89.381v32.303h36.969c.973 0 1.863-.404 2.514-1.055s1.055-1.541 1.055-2.514v-25.165c0-.973-.404-1.863-1.055-2.514s-1.542-1.055-2.514-1.055zm-313.546 62.031c0-4.561 3.698-8.258 8.258-8.258 4.561 0 8.258 3.697 8.258 8.258v15.522c0 5.532-2.257 10.556-5.894 14.192-3.636 3.636-8.66 5.894-14.192 5.894h-33.399c-5.532 0-10.555-2.257-14.192-5.894-3.637-3.636-5.894-8.66-5.894-14.192v-73.984c0-5.532 2.257-10.556 5.894-14.192 3.636-3.637 8.66-5.894 14.192-5.894h33.399c5.532 0 10.556 2.257 14.192 5.894 3.636 3.636 5.894 8.66 5.894 14.192v15.522c0 4.561-3.698 8.258-8.258 8.258s-8.258-3.697-8.258-8.258v-15.522c0-.973-.405-1.864-1.055-2.515-.651-.651-1.542-1.055-2.515-1.055h-33.399c-.973 0-1.863.404-2.514 1.055s-1.055 1.541-1.055 2.515v73.984c0 .973.405 1.864 1.055 2.515.651.651 1.541 1.055 2.514 1.055h33.399c.973 0 1.864-.404 2.515-1.055s1.055-1.542 1.055-2.515zm167.317-13.212h-36.968v32.303h36.968c.973 0 1.864-.404 2.515-1.055.65-.651 1.055-1.542 1.055-2.514v-25.165c0-.973-.404-1.864-1.055-2.514-.652-.651-1.543-1.055-2.515-1.055zm16.217-8.258c2.429 3.32 3.868 7.412 3.868 11.827v25.165c0 5.532-2.257 10.556-5.893 14.192-3.637 3.636-8.66 5.894-14.192 5.894h-45.226c-4.561 0-8.258-3.697-8.258-8.258v-97.639c0-4.561 3.697-8.258 8.258-8.258h45.226c5.532 0 10.556 2.257 14.192 5.894 3.637 3.636 5.894 8.66 5.894 14.192v25.165c-.001 4.414-1.439 8.506-3.869 11.826z" fill="#f7f9fa"/><path d="m284.491 372.252h24.56c9.034 0 17.24 3.69 23.184 9.634s9.634 14.151 9.634 23.184v34.941c0 9.034-3.69 17.24-9.634 23.184s-14.15 9.634-23.184 9.634h-24.56c-4.561 0-8.258-3.698-8.258-8.258v-84.061c0-4.561 3.698-8.258 8.258-8.258zm-225.802 92.317c0 4.561-3.697 8.258-8.258 8.258s-8.258-3.698-8.258-8.258v-84.059c0-4.561 3.698-8.258 8.258-8.258 3.14 0 5.871 1.753 7.268 4.334l17.292 29.592 17.43-29.829c2.298-3.937 7.353-5.266 11.29-2.968 2.626 1.533 4.091 4.293 4.094 7.129l.003 84.059c0 4.561-3.698 8.258-8.258 8.258-4.561 0-8.258-3.698-8.258-8.258v-53.565l-9.118 15.604c-.695 1.23-1.714 2.298-3.022 3.061-3.937 2.298-8.992.969-11.29-2.968l-9.172-15.697v53.565zm156.04 0c0 4.561-3.697 8.258-8.258 8.258s-8.258-3.698-8.258-8.258v-84.059c0-4.561 3.697-8.258 8.258-8.258 3.14 0 5.871 1.753 7.267 4.334l33.593 57.489v-53.565c0-4.561 3.697-8.258 8.258-8.258s8.258 3.697 8.258 8.258v84.059c-.005 2.836-1.471 5.596-4.097 7.129-3.937 2.298-8.992.969-11.29-2.968l-33.731-57.726zm-28.901-10.182c0 5.079-2.072 9.692-5.41 13.03s-7.951 5.411-13.031 5.411h-28.754c-5.08 0-9.692-2.073-13.03-5.411s-5.41-7.95-5.41-13.03v-63.694c0-5.08 2.073-9.692 5.41-13.03 3.338-3.338 7.95-5.41 13.03-5.41h28.754c5.08 0 9.693 2.072 13.03 5.41 3.338 3.338 5.41 7.95 5.41 13.03v63.694zm-17.088 1.352c.353-.353.572-.832.572-1.352v-63.694c0-.52-.219-1-.572-1.353s-.832-.572-1.353-.572h-28.754c-.52 0-1 .219-1.353.572s-.572.832-.572 1.353v63.694c0 .52.219 1 .572 1.352.353.353.832.572 1.353.572h28.754c.521 0 1-.219 1.353-.572zm193.021 11.346c-1.39 4.329-6.026 6.712-10.355 5.322-4.329-1.389-6.712-6.026-5.323-10.355l26.965-84.059c1.389-4.329 6.026-6.712 10.355-5.323 2.651.851 4.572 2.92 5.344 5.39l26.943 83.992c1.39 4.329-.993 8.965-5.323 10.355-4.329 1.39-8.965-.993-10.355-5.322l-6.326-19.719h-25.601zm19.126-59.623-7.502 23.388h15.005zm64.381 57.107v-46.076l23.076-33.305c2.583-3.741 1.644-8.868-2.097-11.452-3.741-2.583-8.868-1.644-11.451 2.097l-17.785 25.669-17.785-25.669c-2.583-3.741-7.711-4.68-11.452-2.097s-4.68 7.711-2.097 11.452l23.075 33.305v46.076c0 4.561 3.698 8.258 8.258 8.258s8.258-3.697 8.258-8.258zm-136.217-75.801h-16.302v67.543h16.302c4.474 0 8.548-1.837 11.506-4.795s4.795-7.032 4.795-11.506v-34.941c0-4.474-1.837-8.548-4.795-11.506s-7.032-4.795-11.506-4.795z" fill="#ff415b"/></g><g><circle cx="256.001" cy="103.226" fill="#ffd944" r="103.226"/><path d="m256 0c57.01 0 103.226 46.215 103.226 103.226 0 57.01-46.216 103.226-103.226 103.226z" fill="#ffc107"/><path d="m289.101 45.063c2.359-3.278 6.93-4.022 10.208-1.663s4.022 6.93 1.663 10.208l-78.006 108.581c-2.359 3.278-6.93 4.022-10.208 1.663s-4.022-6.93-1.663-10.208zm-2.111 69.421c-7.141 0-13.606 2.895-18.286 7.575s-7.575 11.146-7.575 18.286c0 7.141 2.895 13.606 7.575 18.286s11.145 7.575 18.286 7.575 13.606-2.895 18.286-7.574c4.68-4.68 7.575-11.146 7.575-18.286 0-7.141-2.895-13.606-7.575-18.286-4.68-4.681-11.145-7.576-18.286-7.576zm7.907 17.955c-2.022-2.022-4.818-3.274-7.906-3.274s-5.883 1.252-7.906 3.274c-2.022 2.023-3.274 4.818-3.274 7.906s1.251 5.883 3.274 7.906 4.818 3.274 7.906 3.274 5.884-1.251 7.906-3.273c2.023-2.023 3.274-4.818 3.274-7.906-.001-3.09-1.252-5.885-3.274-7.907zm-69.888-92.193c-7.141 0-13.606 2.895-18.286 7.575s-7.575 11.145-7.575 18.286c0 7.14 2.895 13.606 7.575 18.286s11.145 7.575 18.286 7.575 13.606-2.895 18.286-7.575 7.575-11.146 7.575-18.286c0-7.141-2.894-13.606-7.574-18.286-4.681-4.68-11.146-7.575-18.287-7.575zm7.906 17.955c-2.023-2.022-4.818-3.274-7.906-3.274s-5.884 1.251-7.906 3.274c-2.023 2.022-3.274 4.818-3.274 7.906s1.251 5.884 3.274 7.906c2.022 2.023 4.818 3.274 7.906 3.274s5.883-1.251 7.906-3.274c2.023-2.022 3.274-4.818 3.274-7.906s-1.251-5.884-3.274-7.906z" fill="#4b5055"/><path d="m289.101 45.063c2.359-3.278 6.93-4.022 10.208-1.663s4.022 6.93 1.663 10.208l-44.972 62.598v-25.068zm-2.111 69.421c-7.141 0-13.606 2.895-18.286 7.575s-7.575 11.146-7.575 18.286c0 7.141 2.895 13.606 7.575 18.286s11.145 7.575 18.286 7.575 13.606-2.895 18.286-7.574c4.68-4.68 7.575-11.146 7.575-18.286 0-7.141-2.895-13.606-7.575-18.286-4.68-4.681-11.145-7.576-18.286-7.576zm7.907 17.955c2.023 2.023 3.274 4.818 3.274 7.906s-1.251 5.884-3.274 7.906c-2.022 2.022-4.818 3.273-7.906 3.273s-5.884-1.251-7.906-3.274-3.274-4.818-3.274-7.906 1.251-5.884 3.274-7.906 4.818-3.274 7.906-3.274c3.088.001 5.883 1.252 7.906 3.275z" fill="#373c41"/></g></g></svg>