<?xml version="1.0" encoding="iso-8859-1"?>
<!-- Generator: Adobe Illustrator 19.0.0, SVG Export Plug-In . SVG Version: 6.00 Build 0)  -->
<svg version="1.1" id="Capa_1" xmlns="http://www.w3.org/2000/svg" xmlns:xlink="http://www.w3.org/1999/xlink" x="0px" y="0px"
	 viewBox="0 0 512 512" style="enable-background:new 0 0 512 512;" xml:space="preserve">
<path style="fill:#FED130;" d="M502.751,318.579L273.632,89.46c-1.855-1.855-4.222-3.115-6.797-3.618l-98.116-19.159
	c-4.306-0.841-8.749,0.515-11.851,3.618l-86.561,86.561c-3.103,3.103-4.459,7.545-3.618,11.852l19.159,98.116
	c0.503,2.575,1.763,4.942,3.618,6.797l229.119,229.119c12.332,12.332,32.327,12.332,44.659,0l139.509-139.509
	C515.083,350.906,515.083,330.912,502.751,318.579z M160.949,160.945c-9.387,9.387-24.607,9.387-33.994,0s-9.387-24.607,0-33.994
	s24.607-9.387,33.994,0C170.336,136.338,170.336,151.558,160.949,160.945z"/>
<path style="fill:#FCA629;" d="M266.834,85.842l-98.116-19.159c-4.306-0.841-8.749,0.515-11.851,3.618l-34.296,34.296
	l108.762,21.468l254.295,254.296l17.122-17.122c12.332-12.332,12.332-32.327,0-44.659L273.632,89.46
	C271.776,87.605,269.41,86.345,266.834,85.842z"/>
<g>
	<path style="fill:#FFFFFF;" d="M199.163,235.468c-8.979-8.979-4.577-18.134-8.186-21.743c-2.729-2.729-8.715-1.321-11.18,1.144
		c-5.106,5.106-2.112,19.719,9.419,31.251c12.149,12.149,27.466,14.438,40.054,1.849c22.8-22.8-9.243-47.272,1.673-58.188
		c4.226-4.225,10.388-3.17,16.726,3.169c7.395,7.395,6.075,12.765,8.804,15.494c3.169,3.169,8.627,0.529,10.651-1.496
		c5.81-5.81-4.49-18.575-9.684-23.769c-10.123-10.123-25.881-16.901-38.997-3.785c-20.864,20.864,11.444,45.072-1.761,58.277
		C211.4,242.951,204.445,240.75,199.163,235.468z"/>
	<path style="fill:#FFFFFF;" d="M260.522,315.842c3.081,3.081,9.243,5.193,11.972,2.464c0.265-0.264,0.441-0.616,0.705-1.056
		l38.381-72.362c1.849-3.433-0.176-7.923-3.521-11.268c-3.258-3.258-7.747-5.282-11.18-3.433l-72.362,38.381
		c-0.44,0.265-0.88,0.529-1.056,0.705c-2.816,2.817-0.617,8.891,2.465,11.973c1.936,1.937,4.049,2.816,6.161,1.584l15.053-8.363
		l20.16,20.159l-8.363,15.054C257.706,311.792,258.586,313.905,260.522,315.842z M258.497,267.865l34.685-19.367l-19.367,34.684
		L258.497,267.865z"/>
	<path style="fill:#FFFFFF;" d="M348.291,274.909c-2.905-2.905-6.778-4.665-9.243-2.2l-57.22,57.22
		c-2.377,2.377-1.145,6.074,1.408,8.628l27.905,27.905c2.289,2.289,5.987,0.881,8.451-1.584c2.553-2.553,3.874-6.163,1.584-8.451
		l-21.48-21.48l50.794-50.794C352.956,281.687,351.108,277.726,348.291,274.909z"/>
	<path style="fill:#FFFFFF;" d="M415.9,362.589c2.289,2.289,5.986,1.233,8.715-1.496c2.377-2.377,3.786-6.074,1.321-8.539
		l-31.338-31.338c-2.554-2.553-6.251-3.786-8.628-1.409l-57.132,57.132c-2.377,2.377-1.145,6.075,1.409,8.628l31.338,31.338
		c2.465,2.465,6.162,1.057,8.539-1.32c2.729-2.729,3.785-6.427,1.497-8.716l-24.914-24.913l17.695-17.694l13.381,13.381
		c2.464,2.464,5.986,1.232,8.011-0.793c2.376-2.377,3.257-5.898,0.969-8.186l-13.381-13.381l17.606-17.606L415.9,362.589z"/>
</g>
<path style="fill:#5E566A;" d="M106.101,24.555C77.94-3.605,36.739-8.224,14.254,14.26C-8.229,36.744-3.611,77.946,24.549,106.106
	c13.522,13.523,36.753,28.453,58.68,37.833l11.863-11.863c-1.349-0.454-2.197-0.872-2.82-1.124
	c-20.772-8.41-44.122-23.127-56.781-35.787c-10.974-10.974-17.97-24.502-19.7-38.091c-1.636-12.853,1.705-24.173,9.405-31.873
	C41.646,8.75,73.034,13.368,95.16,35.496c12.338,12.339,26.403,34.387,34.997,54.865c9.012,21.473,10.855,38.567,4.81,44.612
	c-3.319,3.318-9.729,3.659-14.397,3.388c-1.263,5.142-0.723,10.637,1.504,15.559c0.341,0.006,0.781,0.031,1.118,0.031
	c9.747,0,17.378-2.697,22.718-8.037C171.278,120.543,130.715,49.17,106.101,24.555z"/>
<g>
</g>
<g>
</g>
<g>
</g>
<g>
</g>
<g>
</g>
<g>
</g>
<g>
</g>
<g>
</g>
<g>
</g>
<g>
</g>
<g>
</g>
<g>
</g>
<g>
</g>
<g>
</g>
<g>
</g>
</svg>
