<svg id="Capa_1" enable-background="new 0 0 414.127 414.127" height="512" viewBox="0 0 414.127 414.127" width="512" xmlns="http://www.w3.org/2000/svg"><g><path d="m383.449 127.937-122.848 28.584-203.423 47.39-26.801-115.026c-.919-3.9 1.498-7.808 5.398-8.727.022-.005.044-.01.066-.015l318.736-74.192c3.913-.924 7.834 1.499 8.758 5.411.363 1.537.216 3.15-.418 4.596l-24.787 56.478 48.541 42.962c3.002 2.681 3.263 7.287.582 10.289-1.005 1.126-2.334 1.912-3.804 2.25z" fill="#ffdc40"/><path d="m57.175 209.664c-2.671-.003-4.988-1.845-5.594-4.446l-26.802-115.026c-1.641-6.993 2.697-13.992 9.689-15.634.024-.006.048-.011.072-.017l318.732-74.193c7.006-1.644 14.018 2.702 15.662 9.707.646 2.754.379 5.643-.762 8.232l-23.089 52.621 45.398 40.183c5.381 4.788 5.862 13.032 1.073 18.413-1.798 2.02-4.179 3.432-6.813 4.039l-326.257 75.972c-.429.099-.868.149-1.309.149zm299.113-198.165c-.134.002-.268.019-.399.051l-318.748 74.197c-.408.084-.763.332-.983.685-.21.34-.275.749-.18 1.137l25.499 109.438 320.669-74.671.011-.003c.573-.122 1.023-.566 1.151-1.137.157-.54-.019-1.123-.449-1.486l-48.543-42.966c-1.869-1.658-2.456-4.331-1.455-6.619l24.786-56.477c.258-.523.171-1.15-.219-1.584-.274-.353-.694-.561-1.14-.565z"/><path d="m390.063 327.852-346.17 80.345c-3.945.882-7.858-1.601-8.74-5.546-.343-1.535-.183-3.14.458-4.576l27.434-60.389-49.807-38.936c-3.172-2.461-3.749-7.027-1.288-10.199 1.026-1.322 2.476-2.25 4.106-2.627l148.671-34.508 204.113-47.333 26.687 115.026c.941 3.865-1.429 7.762-5.294 8.703-.056.014-.113.027-.17.04z" fill="#ffdc40"/><path d="m42.258 414.127c-7.219-.023-13.053-5.894-13.031-13.113.006-1.831.396-3.641 1.146-5.312l25.561-56.272-46.241-36.15c-5.673-4.418-6.691-12.598-2.273-18.271 1.837-2.359 4.431-4.015 7.345-4.687l352.778-81.841c3.09-.702 6.168 1.218 6.897 4.302l26.69 115.026c.811 3.411.207 7.005-1.674 9.964-1.835 2.908-4.761 4.957-8.121 5.687l-346.14 80.339c-.964.217-1.949.328-2.937.328zm322.28-203.141-347.178 80.541c-.817.186-1.329.999-1.143 1.817.077.339.269.642.542.857l49.83 38.956c2.091 1.636 2.79 4.491 1.691 6.908l-27.431 60.389c-.25.525-.162 1.149.225 1.584.357.481.97.698 1.55.548l346.139-80.336.079-.017c.372-.073.697-.297.899-.618.224-.363.291-.8.185-1.213z"/><path d="m368.841 204.084-204.114 47.333-107.549-47.506 203.424-47.391z" fill="#fe9000"/><path d="m164.726 257.168c-.801 0-1.593-.167-2.325-.491l-107.545-47.505c-2.905-1.282-4.221-4.677-2.939-7.583.731-1.656 2.198-2.871 3.961-3.28l203.419-47.392c1.211-.278 2.479-.16 3.617.337l108.241 47.563c2.908 1.276 4.231 4.668 2.955 7.576-.73 1.663-2.202 2.884-3.972 3.292l-204.115 47.333c-.425.1-.861.15-1.297.15zm-89.471-51.559 90.038 39.773 185.395-42.992-90.65-39.835z"/><path d="m80.091 139.974c-2.672-.003-4.989-1.846-5.594-4.448l-6.15-26.417c-.722-3.091 1.2-6.183 4.291-6.904.002 0 .004-.001.006-.001l19.596-4.563c10.21-2.354 20.401 3.99 22.797 14.19l.152.649c2.356 10.209-3.992 20.399-14.193 22.786l-19.596 4.561c-.43.097-.869.147-1.309.147zm.758-27.872 3.544 15.215 13.996-3.258c4.023-.943 6.525-4.963 5.594-8.989l-.152-.649c-.94-4.021-4.962-6.518-8.983-5.578-.001 0-.003.001-.004.001z"/><path d="m86.246 166.394c-2.674.001-4.996-1.843-5.6-4.448l-6.15-26.42c-.719-3.093 1.204-6.184 4.297-6.905l19.596-4.561c10.212-2.378 20.418 3.973 22.796 14.185 0 .002.001.004.001.006l.152.649c2.368 10.21-3.985 20.408-14.193 22.783l-19.596 4.563c-.427.098-.864.147-1.303.148zm.758-27.875 3.538 15.218 13.996-3.26c4.025-.938 6.529-4.96 5.594-8.986l-.151-.649c-.942-4.021-4.965-6.518-8.986-5.577z"/><path d="m141.4 153.555c-2.673.001-4.994-1.842-5.6-4.445l-12.306-52.84c-.727-3.091 1.189-6.187 4.28-6.914s6.187 1.189 6.914 4.28c.002.007.003.015.005.022l11.003 47.24 18.046-4.204c3.095-.715 6.184 1.214 6.899 4.31.714 3.089-1.206 6.173-4.293 6.895l-23.645 5.507c-.427.099-.864.148-1.303.149z"/><path d="m250.029 128.025c-2.864-.008-5.662-.857-8.049-2.44-3.327-2.194-5.679-5.587-6.566-9.472l-7.975-34.244c-1.994-8.077 2.921-16.246 10.992-18.268l18.265-4.252c3.097-.706 6.18 1.232 6.887 4.33.702 3.078-1.209 6.147-4.281 6.875l-18.265 4.252c-1.884.579-2.951 2.567-2.393 4.457l7.97 34.238c.223 1.008.824 1.891 1.679 2.468.71.493 1.595.663 2.438.469l18.271-4.252c3.094-.72 6.186 1.205 6.906 4.299s-1.205 6.186-4.299 6.906l-18.271 4.252c-1.085.253-2.195.382-3.309.382z"/><path d="m289.03 119.179c-2.671-.003-4.988-1.845-5.594-4.446l-12.306-52.837c-.727-3.091 1.189-6.187 4.28-6.914s6.187 1.189 6.914 4.28c.002.007.003.015.005.022l12.306 52.837c.722 3.092-1.199 6.185-4.291 6.907-.002 0-.004.001-.006.001-.428.1-.867.15-1.308.15z"/><path d="m181.929 144.116c-.255 0-.511-.017-.764-.051-3.149-.419-5.362-3.311-4.943-6.46 0-.001 0-.001 0-.002l7.666-57.485c.42-3.149 3.314-5.361 6.462-4.941 1.636.218 3.099 1.129 4.018 2.5l32.272 48.187c1.768 2.64 1.061 6.213-1.578 7.981-2.64 1.768-6.213 1.061-7.981-1.578l-23.801-35.543-5.656 42.402c-.381 2.854-2.815 4.987-5.695 4.99z"/><path d="m184.192 127.062c-3.177-.004-5.748-2.583-5.744-5.76.004-2.671 1.845-4.988 4.447-5.594l28.088-6.54c3.095-.715 6.184 1.214 6.899 4.31.714 3.089-1.206 6.173-4.293 6.895l-28.088 6.54c-.429.099-.868.149-1.309.149z"/><path d="m317.511 112.549c-1.872.003-3.629-.907-4.707-2.438-7.272-9.955-18.478-16.299-30.756-17.411-3.144-.459-5.321-3.379-4.862-6.523.286-1.958 1.558-3.632 3.368-4.432 7.464-3.294 13.918-13.235 19.175-29.551.982-3.022 4.228-4.676 7.251-3.694 3.013.979 4.667 4.209 3.701 7.226-2.889 10.405-7.895 20.102-14.704 28.484 10.6 3.413 19.805 10.177 26.229 19.273 1.83 2.596 1.209 6.184-1.387 8.014-.967.684-2.123 1.051-3.308 1.052z"/><path d="m143.916 328.133c-2.671-.003-4.988-1.844-5.594-4.445l-6.156-26.417c-.72-3.094 1.203-6.186 4.297-6.908l19.596-4.563c10.21-2.354 20.402 3.99 22.797 14.19l.152.649c2.367 10.211-3.985 20.408-14.193 22.786l-19.59 4.561c-.429.097-.868.147-1.309.147zm.759-27.873 3.544 15.215 13.991-3.258c4.024-.933 6.529-4.951 5.596-8.975-.001-.003-.001-.006-.002-.009l-.152-.654c-.943-4.021-4.965-6.517-8.986-5.577z"/><path d="m150.067 354.553c-2.672-.003-4.989-1.846-5.594-4.448l-6.15-26.42c-.722-3.091 1.2-6.183 4.291-6.904.002 0 .004-.001.006-.001l19.905-4.634c4.906-1.143 10.065-.204 14.255 2.592 4.212 2.773 7.187 7.07 8.301 11.988l3.078 13.204c.727 3.091-1.19 6.187-4.281 6.913-3.091.727-6.187-1.19-6.913-4.281-.002-.007-.003-.014-.005-.021l-3.078-13.207c-.453-2.039-1.677-3.824-3.415-4.982-1.562-1.062-3.495-1.425-5.336-1.003l-14.305 3.328 4.847 20.82c.722 3.092-1.2 6.183-4.291 6.904-.002 0-.004.001-.005.001-.431.101-.87.151-1.31.151z"/><path d="m230.534 335.819c-2.674.001-4.996-1.843-5.6-4.448l-12.3-52.84c-.722-3.091 1.2-6.183 4.291-6.904.002 0 .004-.001.006-.001l16.378-3.814c12.259-2.603 24.313 5.207 26.948 17.459l4.426 19.02c1.404 5.875.483 12.065-2.572 17.276-3.01 5.201-8.037 8.924-13.889 10.287l-16.383 3.816c-.429.098-.866.148-1.305.149zm-5.397-54.295 9.694 41.638 10.784-2.513c2.78-.659 5.163-2.44 6.583-4.92 1.55-2.667 2.011-5.83 1.286-8.829l-4.426-19.023c-1.197-6.067-7.07-10.026-13.143-8.86z"/><path d="m88.768 340.975c-2.671-.003-4.988-1.844-5.594-4.445l-6.156-26.42c-.72-3.094 1.203-6.186 4.297-6.908l32.491-7.563c3.094-.72 6.186 1.205 6.906 4.299s-1.205 6.186-4.299 6.905l-26.887 6.257 3.544 15.218 26.886-6.262c3.094-.72 6.186 1.205 6.905 4.299.72 3.094-1.205 6.186-4.299 6.905l-32.486 7.566c-.429.099-.868.149-1.308.149z"/><path d="m96.277 373.228c-2.672-.003-4.989-1.846-5.594-4.448l-7.509-32.253c-.728-3.091 1.188-6.186 4.279-6.914s6.186 1.188 6.914 4.279c.002.01.005.019.007.029l7.509 32.253c.722 3.091-1.2 6.183-4.291 6.904-.002 0-.004.001-.006.001-.429.099-.868.149-1.309.149z"/><path d="m205.692 341.601c-2.672-.003-4.989-1.846-5.594-4.448l-12.3-52.837c-.72-3.093 1.204-6.183 4.297-6.903s6.183 1.204 6.903 4.297l12.3 52.837c.722 3.091-1.2 6.183-4.291 6.904-.002 0-.004.001-.006.001-.429.099-.868.149-1.309.149z"/><path d="m278.982 324.538c-.255 0-.511-.017-.764-.051-3.149-.419-5.362-3.311-4.943-6.46 0-.001 0-.001 0-.002l7.667-57.485c.42-3.149 3.314-5.361 6.462-4.941 1.636.218 3.099 1.129 4.018 2.5l32.272 48.187c1.768 2.64 1.061 6.213-1.578 7.981-2.64 1.768-6.213 1.061-7.981-1.578l-23.803-35.544-5.656 42.402c-.38 2.855-2.814 4.988-5.694 4.991z"/><path d="m281.246 307.484c-3.177-.004-5.748-2.583-5.744-5.76.004-2.671 1.845-4.988 4.446-5.594l28.088-6.54c3.094-.72 6.186 1.205 6.906 4.299s-1.205 6.186-4.299 6.905l-28.088 6.54c-.43.1-.869.15-1.309.15z"/><path d="m335.147 280.055c-1.215 0-2.398-.384-3.381-1.098l-25.336-18.397c-2.57-1.867-3.139-5.464-1.272-8.034s5.464-3.139 8.034-1.272l19.961 14.496 11.025-20.913c.068-.213.146-.422.236-.626 1.246-2.875 4.586-4.195 7.461-2.949.02.009.039.017.059.026 1.473.662 2.614 1.893 3.162 3.412.546 1.502.45 3.162-.264 4.591l-14.597 27.695c-.779 1.476-2.16 2.541-3.786 2.921-.426.098-.863.148-1.302.148z"/><path d="m342.078 309.845c-2.672-.003-4.989-1.846-5.594-4.448l-6.936-29.79c-.722-3.092 1.2-6.184 4.292-6.905 3.092-.722 6.184 1.2 6.905 4.292.001.002.001.005.002.007l6.936 29.79c.722 3.091-1.2 6.183-4.291 6.904-.002 0-.004.001-.006.001-.429.099-.868.149-1.308.149z"/><path d="m62.455 49.711c-3.177-.004-5.748-2.583-5.744-5.76.004-2.671 1.845-4.988 4.446-5.594l100.777-23.463c3.095-.718 6.185 1.209 6.903 4.303.717 3.092-1.206 6.181-4.297 6.901l-100.777 23.464c-.429.099-.868.149-1.308.149z"/><path d="m19.505 59.711c-3.177-.004-5.748-2.583-5.744-5.76.004-2.671 1.845-4.988 4.446-5.594l18.838-4.386c3.094-.72 6.186 1.205 6.906 4.299s-1.205 6.186-4.299 6.906l-18.838 4.386c-.429.1-.868.15-1.309.149z"/><path d="m342.078 374.755c-3.176-.001-5.75-2.577-5.748-5.753.001-2.677 1.849-4.999 4.457-5.601l61.619-14.291c3.094-.717 6.183 1.211 6.9 4.305s-1.211 6.183-4.305 6.9l-61.619 14.291c-.428.1-.865.15-1.304.149z"/></g></svg>