<svg clip-rule="evenodd" fill-rule="evenodd" height="512" stroke-linejoin="round" stroke-miterlimit="2" viewBox="0 0 534 534" width="512" xmlns="http://www.w3.org/2000/svg"><g id="Layer2"><path d="m243.829 47.858c5.764-6.583 14.088-10.358 22.838-10.358 8.749 0 17.074 3.775 22.838 10.358 0 0 10.898 12.446 10.898 12.446 1.289 1.472 3.428 1.849 5.142.907l14.498-7.968c7.668-4.214 16.781-4.915 25.003-1.923 8.222 2.993 14.753 9.388 17.918 17.545 0 0 5.985 15.423 5.985 15.423.707 1.823 2.588 2.909 4.521 2.61l16.349-2.528c8.647-1.338 17.451 1.121 24.153 6.745 6.703 5.624 10.653 13.867 10.837 22.614 0 .001.349 16.54.349 16.54.041 1.956 1.437 3.619 3.356 4l16.228 3.215c8.582 1.701 16.014 7.022 20.389 14.599 4.375 7.578 5.267 16.674 2.449 24.958 0 0-5.33 15.661-5.33 15.661-.63 1.852.113 3.893 1.786 4.906l14.149 8.572c7.484 4.533 12.647 12.076 14.167 20.692 1.519 8.617-.753 17.47-6.235 24.29 0 0-10.365 12.894-10.365 12.894-1.225 1.525-1.225 3.697 0 5.221l10.365 12.894c5.482 6.82 7.754 15.673 6.235 24.29-1.52 8.617-6.683 16.159-14.167 20.692 0 0-14.149 8.572-14.149 8.572-1.673 1.014-2.416 3.054-1.786 4.906l5.33 15.662c2.818 8.283 1.926 17.38-2.449 24.957s-11.807 12.899-20.389 14.599c0 0-16.228 3.216-16.228 3.216-1.919.38-3.315 2.044-3.356 3.999l-.349 16.54c-.184 8.748-4.134 16.99-10.837 22.615-6.702 5.624-15.506 8.082-24.153 6.745 0 0-16.349-2.529-16.349-2.529-1.933-.299-3.814.787-4.521 2.61l-5.985 15.423c-3.165 8.158-9.696 14.552-17.918 17.545-8.222 2.992-17.335 2.292-25.003-1.922 0 0-14.498-7.968-14.498-7.968-1.714-.942-3.853-.565-5.142.906l-10.898 12.446c-5.764 6.583-14.089 10.358-22.838 10.358-8.75 0-17.074-3.775-22.838-10.358 0 0-10.899-12.446-10.899-12.446-1.289-1.471-3.427-1.848-5.141-.906l-14.499 7.968c-7.668 4.214-16.781 4.914-25.003 1.922-8.222-2.993-14.753-9.387-17.918-17.545 0 0-5.985-15.423-5.985-15.423-.707-1.823-2.588-2.909-4.521-2.61l-16.349 2.529c-8.647 1.337-17.45-1.121-24.153-6.745-6.702-5.625-10.652-13.867-10.837-22.615 0 0-.348-16.54-.348-16.54-.042-1.955-1.438-3.619-3.356-3.999l-16.228-3.216c-8.583-1.7-16.015-7.022-20.389-14.599-4.375-7.577-5.268-16.674-2.449-24.957 0 0 5.329-15.662 5.329-15.662.63-1.852-.113-3.892-1.785-4.906l-14.15-8.572c-7.484-4.533-12.647-12.075-14.166-20.692-1.52-8.617.753-17.47 6.234-24.29 0 0 10.365-12.894 10.365-12.894 1.225-1.524 1.225-3.696 0-5.221l-10.365-12.894c-5.481-6.82-7.754-15.673-6.234-24.29 1.519-8.616 6.682-16.159 14.166-20.692 0 0 14.15-8.572 14.15-8.572 1.672-1.013 2.415-3.054 1.785-4.906l-5.329-15.661c-2.819-8.284-1.926-17.38 2.449-24.958 4.374-7.577 11.806-12.898 20.389-14.599 0 0 16.228-3.215 16.228-3.215 1.918-.381 3.314-2.044 3.356-4l.348-16.539c.185-8.748 4.135-16.991 10.837-22.615 6.703-5.624 15.506-8.083 24.153-6.745 0 0 16.349 2.528 16.349 2.528 1.933.299 3.814-.787 4.521-2.61l5.985-15.423c3.165-8.157 9.696-14.552 17.918-17.545 8.222-2.992 17.335-2.291 25.003 1.923 0 0 14.499 7.968 14.499 7.968 1.714.942 3.852.565 5.141-.907 0 0 10.899-12.446 10.899-12.446z"/><path d="m264.491 435.105 2.176.014c92.971 0 168.452-75.481 168.452-168.452 0-92.972-75.481-168.453-168.452-168.453-92.972 0-168.453 75.481-168.453 168.453 0 92.246 74.308 167.273 166.277 168.438z" fill="#fff"/><path d="m266.667 426.786c88.372 0 160.119-71.747 160.119-160.119s-71.747-160.119-160.119-160.119-160.119 71.747-160.119 160.119 71.747 160.119 160.119 160.119z" fill="#ffde15"/><path d="m266.667 404.167c-2.715 0-5.412-.079-8.088-.235-2.295-.133-4.268 1.623-4.401 3.918-.133 2.296 1.622 4.268 3.918 4.402 2.836.164 5.694.248 8.571.248 2.299 0 4.166-1.867 4.166-4.167 0-2.299-1.867-4.166-4.166-4.166z"/><path d="m289.362 402.3c-2.646.44-5.318.804-8.013 1.091-2.286.243-3.946 2.297-3.702 4.584.243 2.286 2.297 3.945 4.583 3.702 2.859-.304 5.693-.69 8.499-1.157 2.269-.377 3.804-2.526 3.427-4.794s-2.525-3.804-4.794-3.426z"/><path d="m234.606 400.403c-2.631-.629-5.234-1.334-7.804-2.113-2.201-.667-4.529.579-5.196 2.78-.666 2.201.579 4.529 2.78 5.196 2.728.826 5.489 1.574 8.281 2.242 2.237.535 4.487-.847 5.022-3.083.535-2.237-.846-4.487-3.083-5.022z"/><path d="m320.346 393.279c-2.475 1.051-4.986 2.032-7.532 2.94-2.166.773-3.297 3.159-2.525 5.325.773 2.166 3.159 3.297 5.325 2.524 2.701-.963 5.366-2.004 7.991-3.12 2.116-.899 3.104-3.348 2.205-5.464-.899-2.117-3.348-3.105-5.464-2.205z"/><path d="m204.329 389.236c-2.406-1.227-4.771-2.523-7.092-3.885-1.984-1.164-4.539-.498-5.703 1.485-1.163 1.984-.498 4.539 1.486 5.703 2.462 1.445 4.971 2.819 7.523 4.121 2.048 1.045 4.56.23 5.605-1.819 1.044-2.048.23-4.56-1.819-5.605z"/><path d="m348.36 377.246c-2.165 1.603-4.379 3.144-6.638 4.62-1.926 1.258-2.468 3.842-1.21 5.767 1.258 1.926 3.842 2.468 5.767 1.21 2.396-1.565 4.744-3.199 7.04-4.899 1.848-1.368 2.237-3.98.869-5.828s-3.98-2.238-5.828-.87z"/><path d="m177.492 371.296c-2.052-1.751-4.052-3.561-5.997-5.428-1.659-1.592-4.299-1.538-5.892.122-1.592 1.659-1.538 4.299.122 5.891 2.062 1.979 4.182 3.898 6.358 5.755 1.749 1.492 4.381 1.284 5.874-.465 1.493-1.75 1.284-4.382-.465-5.875z"/><path d="m371.891 355.14c-1.737 2.064-3.534 4.076-5.388 6.033-1.581 1.67-1.51 4.309.16 5.89 1.67 1.582 4.309 1.51 5.89-.16 1.966-2.075 3.871-4.208 5.713-6.396 1.481-1.759 1.255-4.39-.504-5.871s-4.39-1.255-5.871.504z"/><path d="m155.542 347.619c-1.588-2.175-3.114-4.399-4.575-6.669-1.245-1.933-3.826-2.492-5.759-1.248-1.934 1.245-2.493 3.826-1.248 5.759 1.549 2.407 3.168 4.765 4.852 7.072 1.356 1.858 3.965 2.265 5.822.909s2.264-3.965.908-5.823z"/><path d="m389.651 328.184c-1.211 2.414-2.491 4.788-3.837 7.118-1.151 1.991-.468 4.542 1.523 5.693 1.991 1.15 4.542.467 5.692-1.524 1.428-2.472 2.786-4.989 4.071-7.55 1.031-2.056.199-4.562-1.856-5.593-2.056-1.031-4.562-.199-5.593 1.856z"/><path d="m139.698 319.499c-1.035-2.482-1.999-5-2.89-7.552-.758-2.171-3.136-3.318-5.307-2.56s-3.319 3.136-2.561 5.307c.946 2.708 1.969 5.38 3.067 8.012.885 2.123 3.327 3.127 5.449 2.242 2.123-.885 3.127-3.327 2.242-5.449z"/><path d="m400.614 297.833c-.612 2.635-1.299 5.242-2.061 7.818-.651 2.205.61 4.525 2.815 5.177 2.206.651 4.525-.61 5.177-2.815.808-2.733 1.537-5.499 2.187-8.296.519-2.241-.877-4.481-3.117-5.001s-4.481.877-5.001 3.117z"/><path d="m130.886 288.455c-.422-2.649-.769-5.323-1.038-8.02-.227-2.289-2.27-3.961-4.559-3.733-2.288.227-3.961 2.27-3.733 4.559.285 2.86.653 5.696 1.101 8.506.362 2.271 2.499 3.821 4.77 3.459s3.821-2.5 3.459-4.771z"/><path d="m404.164 265.747c.002.306.003.613.003.92 0 2.404-.062 4.794-.184 7.169-.118 2.296 1.65 4.257 3.947 4.375 2.296.118 4.257-1.651 4.375-3.947.129-2.516.195-5.049.195-7.597 0-.325-.001-.65-.003-.975-.015-2.299-1.895-4.154-4.194-4.139-2.3.015-4.154 1.894-4.139 4.194z"/><path d="m129.56 256.195c.204-2.704.486-5.386.845-8.044.307-2.279-1.294-4.378-3.573-4.686-2.279-.307-4.379 1.294-4.686 3.573-.38 2.819-.679 5.663-.896 8.53-.173 2.293 1.549 4.295 3.842 4.468s4.295-1.548 4.468-3.841z"/><path d="m400.186 233.713c.642 2.607 1.21 5.242 1.701 7.905.417 2.261 2.591 3.759 4.853 3.342 2.261-.417 3.759-2.592 3.342-4.853-.521-2.825-1.123-5.621-1.804-8.387-.55-2.233-2.81-3.599-5.042-3.049-2.233.55-3.6 2.809-3.05 5.042z"/><path d="m135.756 224.522c.829-2.574 1.732-5.114 2.706-7.619.833-2.144-.23-4.56-2.373-5.394-2.143-.833-4.56.23-5.394 2.373-1.033 2.658-1.991 5.354-2.871 8.085-.705 2.189.5 4.538 2.688 5.243 2.189.705 4.539-.499 5.244-2.688z"/><path d="m388.816 203.512c1.239 2.388 2.409 4.817 3.509 7.285.936 2.1 3.402 3.045 5.502 2.109 2.101-.936 3.046-3.402 2.109-5.502-1.166-2.618-2.408-5.195-3.722-7.728-1.059-2.042-3.576-2.84-5.617-1.781-2.042 1.059-2.84 3.575-1.781 5.617z"/><path d="m149.209 195.186c1.407-2.304 2.879-4.564 4.415-6.777 1.311-1.889.841-4.487-1.048-5.798s-4.488-.842-5.799 1.047c-1.628 2.347-3.189 4.743-4.681 7.187-1.198 1.963-.577 4.529 1.386 5.727s4.529.577 5.727-1.386z"/><path d="m370.698 176.795c1.763 2.038 3.467 4.129 5.11 6.27 1.4 1.824 4.018 2.168 5.842.768s2.169-4.018.769-5.842c-1.742-2.269-3.549-4.486-5.418-6.647-1.505-1.74-4.138-1.931-5.878-.426-1.739 1.504-1.93 4.137-.425 5.877z"/><path d="m169.135 169.785c1.9-1.913 3.856-3.771 5.866-5.57 1.713-1.534 1.858-4.171.324-5.884s-4.17-1.858-5.884-.324c-2.13 1.907-4.204 3.876-6.218 5.905-1.621 1.631-1.612 4.271.019 5.892 1.632 1.621 4.272 1.612 5.893-.019z"/><path d="m346.876 155.003c2.19 1.577 4.331 3.216 6.423 4.916 1.784 1.45 4.41 1.179 5.861-.605 1.45-1.785 1.179-4.411-.605-5.862-2.217-1.802-4.488-3.54-6.811-5.212-1.866-1.344-4.472-.919-5.815.947-1.344 1.866-.92 4.472.947 5.816z"/><path d="m194.404 149.691c2.288-1.418 4.621-2.771 6.996-4.055 2.023-1.094 2.777-3.625 1.683-5.648-1.094-2.022-3.624-2.776-5.647-1.682-2.519 1.362-4.994 2.797-7.421 4.301-1.955 1.211-2.559 3.781-1.348 5.736s3.782 2.559 5.737 1.348z"/><path d="m318.65 139.347c2.5 1.024 4.964 2.118 7.389 3.282 2.073.996 4.564.12 5.56-1.953.995-2.073.12-4.564-1.954-5.559-2.572-1.235-5.186-2.397-7.84-3.482-2.128-.871-4.563.15-5.434 2.278s.15 4.563 2.279 5.434z"/><path d="m223.648 136.04c2.552-.84 5.136-1.608 7.751-2.301 2.223-.589 3.549-2.872 2.96-5.095s-2.872-3.55-5.095-2.961c-2.775.736-5.517 1.551-8.224 2.443-2.184.72-3.373 3.077-2.653 5.261s3.077 3.373 5.261 2.653z"/><path d="m287.547 130.744c2.677.409 5.329.895 7.954 1.456 2.249.48 4.465-.955 4.945-3.204.481-2.249-.955-4.465-3.204-4.946-2.784-.595-5.597-1.11-8.438-1.544-2.273-.346-4.401 1.218-4.747 3.491-.347 2.273 1.217 4.401 3.49 4.747z"/><path d="m255.278 129.632c2.672-.219 5.366-.362 8.079-.426 2.299-.055 4.121-1.965 4.067-4.264-.055-2.299-1.965-4.122-4.265-4.067-2.875.068-5.73.219-8.563.452-2.291.188-3.999 2.202-3.811 4.494s2.202 3.999 4.493 3.811z"/><path d="m181.733 286.537 25.167-3.845-.962 8.673-15.654 2.392-1.875 16.914 12.28-1.877-.961 8.674-12.281 1.876-2.934 26.455-9.513 1.453zm29.75-4.546 14.097-2.154c4.901-.749 8.349-.153 10.344 1.788 1.996 1.94 2.73 5.281 2.205 10.023l-.414 3.729c-.699 6.303-3.217 10.61-7.554 12.921l-.019.174c2.229.341 3.701 1.509 4.415 3.503s.872 4.784.474 8.369l-1.183 10.668c-.192 1.735-.29 3.129-.293 4.181s.168 2.063.514 3.033l-9.687 1.481c-.237-.931-.365-1.821-.384-2.67-.019-.85.097-2.402.347-4.658l1.231-11.102c.308-2.775.076-4.644-.696-5.606s-2.253-1.276-4.444-.941l-3.287.502-2.885 26.021-9.513 1.453zm34.854-5.325 9.513-1.454-6.733 60.715-9.513 1.454zm16.604-2.538 14.53-2.22c4.728-.722 8.132.008 10.214 2.191s2.85 5.732 2.305 10.647l-3.405 30.705c-.545 4.915-2.14 8.825-4.786 11.73-2.646 2.906-6.333 4.72-11.061 5.442l-14.529 2.22zm42.291-6.462 12.886-1.969 3.126 59.209-9.513 1.453-.392-11.792-.02.174-10.81 1.652-3.048 12.147-8.821 1.348zm-33.705 56.31c1.556-.238 2.804-.883 3.743-1.936.938-1.053 1.523-2.62 1.754-4.702l3.501-31.572c.231-2.082-.02-3.521-.754-4.319-.733-.797-1.878-1.077-3.435-.839l-4.843.74-4.809 43.368zm61.924-26.345-7.636-33.11 10.119-1.546 4.014 21.3.173-.027 8.959-23.282 9.253-1.414-15.369 36.625-2.866 25.848-9.513 1.453zm-22.342 9.042-.91-29.364-.173.027-7.479 30.645zm-89.538-.643c1.902-.291 3.384-1.001 4.444-2.129s1.719-2.849 1.975-5.162l.52-4.684c.243-2.197.03-3.728-.639-4.592s-1.84-1.168-3.512-.913l-4.324.661-1.924 17.347zm-29.886-94.026 14.356-2.193c4.901-.749 8.349-.153 10.344 1.787 1.996 1.94 2.73 5.281 2.204 10.023l-.269 2.429c-.346 3.122-1.133 5.743-2.36 7.864-1.227 2.12-2.926 3.772-5.098 4.957l-.019.173c4.548.897 6.444 4.757 5.687 11.58l-.577 5.204c-.519 4.684-2.14 8.442-4.863 11.274s-6.449 4.609-11.176 5.331l-14.962 2.286zm34.939-5.339 9.514-1.453-5.771 52.041 15.653-2.392-.962 8.674-25.167 3.845zm37.448-5.722 12.886-1.969 3.126 59.209-9.513 1.453-.393-11.792-.019.174-10.81 1.652-3.048 12.147-8.821 1.348zm-63.197 60.817c1.672-.256 2.962-.893 3.868-1.913.907-1.02 1.482-2.628 1.726-4.825l.586-5.291c.308-2.776.046-4.626-.787-5.55-.833-.925-2.344-1.219-4.535-.885l-4.238.648-2.068 18.648zm96.929-5.432c-4.555.696-7.885-.074-9.989-2.311-2.104-2.236-2.893-5.725-2.367-10.467l3.616-32.613c.526-4.741 2.13-8.596 4.811-11.564 2.681-2.967 6.299-4.799 10.854-5.495s7.884.074 9.989 2.311c2.104 2.236 2.893 5.725 2.367 10.467l-.712 6.418-8.994 1.374.779-7.025c.417-3.759-.96-5.396-4.131-4.911-3.171.484-4.965 2.606-5.382 6.365l-3.761 33.913c-.41 3.701.97 5.309 4.141 4.825 3.171-.485 4.962-2.578 5.372-6.278l1.03-9.281 8.994-1.375-.952 8.587c-.526 4.742-2.13 8.597-4.811 11.564-2.681 2.968-6.299 4.8-10.854 5.496zm26.547-64.596 9.514-1.453-2.838 25.587 14.945-27.438 9.514-1.453-13.802 24.022 7.242 36.666-9.946 1.52-5.042-25.832-4.661 8.301-2.145 19.342-9.514 1.453zm-54.402 48.218-.91-29.363-.173.026-7.479 30.645zm-67.773-5.248c1.902-.291 3.384-1 4.444-2.129 1.06-1.128 1.719-2.849 1.975-5.162l.375-3.382c.244-2.198.031-3.728-.638-4.592s-1.84-1.169-3.512-.913l-4.584.7-1.779 16.046z" fill-rule="nonzero"/></g></svg>