<svg enable-background="new 0 0 64 64" height="512" viewBox="0 0 64 64" width="512" xmlns="http://www.w3.org/2000/svg"><g id="_x30_4_black_friday_sign"><g><g clip-rule="evenodd" fill-rule="evenodd"><path d="m61.0345 28.9252v-24.3084c0-1.438-1.1818-2.6168-2.627-2.6168h-52.8184c-1.4418 0-2.6236 1.1788-2.6236 2.6168v24.3083c0 1.438 1.1818 2.6168 2.6236 2.6168h21.6992 9.1704 21.9487c1.4453.0001 2.6271-1.1787 2.6271-2.6167z" fill="#fb3a82"/><path d="m36.4587 39.3682v-7.8262h-9.1704v6.2949c3.237-.1486 6.2869-.2593 7.4653 1.5314h1.7051z" fill="#808080"/><path d="m27.2917 62v-14.6777c1.8681-.6084 2.2354-3.1837 2.1904-4.2104.9184 2.762 3.4311 3.1526 5.1501 3.201 1.1194.0346 1.9027-.3699 1.6809-1.0336l-.0139-.0588-1.2269-5.1852c-.0797-.2454-.1872-.4667-.3189-.6672-1.1957-1.8148-4.3184-1.6766-7.6039-1.5245-1.9686.0899-4.308.2109-5.7081 1.4726l-4.2525 3.8302h-2.6617v16.3196h4.9249c1.9513 1.7528 4.6407 2.534 5.8399 2.534z" fill="#f9d5b4"/><path d="m37.0306 51.1871c-2.686-.0346-4.1-3.0005-2.3983-4.8741-1.719-.0484-4.2317-.439-5.1501-3.201.0451 1.0267-.3223 3.602-2.1904 4.2104v14.6776h8.862c-3.0499 0-3.2648-5.0297.8768-5.0297-4.0654 0-4.1971-5.8247 0-5.7832z" fill="#808080"/><path d="m40.9642 56.9703c3.691 0 3.8227-5.5102.1802-5.7833h-4.1139c-4.1971-.0415-4.0654 5.7833 0 5.7833z" fill="#e8bb97"/><path d="m41.6574 51.1871c3.8747 0 3.9579-5.9665-.2807-5.9665h-5.0774l.0139.0588c.2218.6637-.5615 1.0682-1.6809 1.0336-1.7017 1.8736-.2877 4.8395 2.3983 4.8741h4.1139z" fill="#e8bb97"/><path d="m14.5273 59.4661v-16.3196-.9748c0-.9437-.7729-1.718-1.7225-1.718h-5.4863c-.9462 0-1.7225.7743-1.7225 1.718v17.3913c0 .9437.7763 1.718 1.7225 1.718h5.4863c.9496 0 1.7225-.7743 1.7225-1.718z" fill="#fb3a82"/><path d="m14.5273 59.4661v-4.3418c0 .9472-.7729 1.718-1.7225 1.718h-5.4863c-.9462 0-1.7225-.7709-1.7225-1.718v4.4386c0 .9437.7763 1.718 1.7225 1.718h5.4863c.9496 0 1.7225-.7743 1.7225-1.718z" fill="#e21469"/><path d="m43.5913 52.9362c-.3778.9679-1.2581 1.725-2.6271 1.725h-3.9337c-1.4972 0-2.4572-.7882-2.8697-1.7803-.7209 1.7042.2703 4.0894 2.8697 4.0894h3.9337c2.3983 0 3.296-2.3299 2.6271-4.0341z" fill="#d8a373"/><path d="m41.1444 48.6671h-4.1139c-1.3343-.0173-2.3567-.757-2.835-1.7284-.9531 1.839.4298 4.2173 2.835 4.2484h4.1139.5129c2.4746 0 3.3999-2.4301 2.6479-4.1897-.4055.9472-1.2962 1.6696-2.6479 1.6696h-.5129z" fill="#d8a373"/><path d="m40.9642 56.9703h-3.9337c-4.1415 0-3.9267 5.0297-.8768 5.0297h4.2525c3.6287 0 3.0326-4.9121.558-5.0297z" fill="#e8bb97"/><path d="m40.4236 60.3027h-4.2525c-1.1125 0-1.8473-.6706-2.1315-1.5175-.5095 1.438.305 3.2148 2.1141 3.2148h4.2525c2.2216 0 2.8593-1.8425 2.4538-3.2978-.2877.8884-1.0571 1.6005-2.4364 1.6005z" fill="#d8a373"/><path d="m42.0837 39.3682h-5.625-1.7052c.1317.2005.2391.4217.3189.6672l1.2269 5.1852h.1871 4.8902c4.918 0 4.3669-5.8524.7071-5.8524z" fill="#e8bb97"/><path d="m40.5137 42.6591h-4.8209l.6065 2.5615h.1871 4.8902c3.6321 0 4.2837-3.1941 2.8974-4.8637.0763 1.5244-1.1922 2.3022-3.7603 2.3022z" fill="#d8a373"/><path d="m61.0345 4.6168c0-1.438-1.1818-2.6168-2.627-2.6168h-4.1659c1.4452 0 2.6236 1.1788 2.6236 2.6168v24.3083c0 1.438-1.1784 2.6168-2.6236 2.6168h4.1659c1.4452 0 2.6271-1.1788 2.6271-2.6168v-24.3083z" fill="#e21469"/><path d="m27.2917 62v-14.6777c1.8681-.6084 2.2354-3.1837 2.1904-4.2104-.402-.4321-.5441-.7259-.6966-1.2721-.2773-.9817-1.4244-1.158-1.4106.1556.0069.9022-.506 2.3714-1.5804 2.9521-1.064.5738-1.2615.6741-1.2615 2.0879v11.0826c0 .6568.1178 1.1615-.5441.999-1.1645-.2835-1.4036-.8919-2.6998-1.877-.7209-.5462-.4402-.4701-1.3759-.4701h-5.3858v2.6963h4.9249c1.9511 1.7526 4.6405 2.5338 5.8397 2.5338z" fill="#e8bb97"/><path d="m36.4587 39.3682v-7.8262h-4.9769v6.2949c1.4591.1556 2.6375.5669 3.2717 1.5314h1.7052z" fill="#676767"/><path d="m37.0306 51.1871c-2.4052-.0311-3.7881-2.4094-2.835-4.2484.1109-.2178.2565-.4252.4367-.6257-.9427-.0277-2.1245-.1556-3.1504-.7225v16.4095h4.6719c-1.8091 0-2.6236-1.7768-2.1141-3.2148.3466-.9852 1.3101-1.8148 2.991-1.8148-2.5993 0-3.5905-2.3852-2.8697-4.0894.4054-.9611 1.355-1.7078 2.8696-1.6939z" fill="#676767"/></g><g><path d="m40.7764 15.3716c.2656 0 .5391-.0171.8193-.0522.5479-.0688.9355-.5688.8672-1.1167s-.5508-.9385-1.1172-.8677c-1.2754.1597-2.2754-.2041-2.8057-1.0259-.5059-.7852-.5127-1.856-.0156-2.665.5313-.8647 1.5439-1.2637 2.8438-1.1323.5342.0571 1.04-.3428 1.0977-.8916.0566-.5493-.3428-1.041-.8926-1.0977-2.0752-.2148-3.8115.541-4.7529 2.0752-.8906 1.4502-.875 3.377.0391 4.7949.8251 1.2807 2.2255 1.9795 3.9169 1.979z"/><path d="m20.9512 12.6333c0-.8881-.4349-1.6705-1.0966-2.1669.2042-.3815.3309-.8105.3309-1.2726 0-1.499-1.2217-2.7183-2.7227-2.7183h-1.9131c-.5527 0-1 .4478-1 1v3.4395 3.436c0 .5522.4473 1 1 1h2.6787c1.5011.0001 2.7228-1.2192 2.7228-2.7177zm-4.4014-4.1577h.9131c.3916 0 .7227.3291.7227.7183 0 .3911-.3311.7212-.7227.7212h-.9131zm1.6787 4.8755h-1.6787v-1.436h.9131.7656c.3984 0 .7227.3223.7227.7183s-.3242.7177-.7227.7177z"/><path d="m26.1338 13.3511h-1.7754v-5.8755c0-.5522-.4473-1-1-1s-1 .4478-1 1v6.8755c0 .5522.4473 1 1 1h2.7754c.5527 0 1-.4478 1-1s-.4473-1-1-1z"/><path d="m33.4901 14.2417.1886.4771c.1553.3931.5313.6328.9297.6328.123 0 .2471-.0229.3672-.0703.5137-.2031.7656-.7842.5625-1.2979l-2.7178-6.8755c-.3256-.814-1.5327-.8126-1.8594-.0005l-2.7207 6.8755c-.2031.5137.0479 1.0947.5615 1.2979.1211.0479.2451.0708.3682.0708.3975 0 .7744-.2397.9297-.6323l.189-.4775h3.2015zm-2.4101-2 .8102-2.0475.8094 2.0475z"/><path d="m46.7409 12.4354 1.3782 2.4118c.1846.3232.5215.5039.8691.5039.168 0 .3389-.0425.4951-.1318.4795-.2739.6465-.8848.3721-1.3643l-1.8683-3.2694 1.7189-2.5514c.3086-.458.1875-1.0796-.2705-1.3877-.457-.3096-1.0781-.188-1.3877.2705l-1.748 2.5946v-2.036c0-.5522-.4473-1-1-1s-1 .4478-1 1v6.8755c0 .5522.4473 1 1 1s1-.4478 1-1v-1.261z"/><path d="m15.7334 17.6548h-3.3828c-.5527 0-1 .4478-1 1v6.876c0 .5522.4473 1 1 1s1-.4478 1-1v-2.436h1.7695c.5527 0 1-.4478 1-1s-.4473-1-1-1h-1.7695v-1.4399h2.3828c.5527 0 1-.4478 1-1s-.4473-1.0001-1-1.0001z"/><path d="m23.1149 22.6632c.7574-.4838 1.264-1.3267 1.264-2.2902 0-1.499-1.2217-2.7183-2.7227-2.7183h-1.9131c-.5527 0-1 .4478-1 1v3.4399 3.436c0 .5522.4473 1 1 1s1-.4478 1-1v-2.436h.3246l1.6207 2.9214c.1826.3291.5234.5146.875.5146.1641 0 .3301-.0405.4844-.1255.4824-.2681.6572-.8765.3887-1.3599zm-.736-2.2902c0 .3911-.3311.7217-.7227.7217h-.9131v-1.4399h.9131c.3917 0 .7227.3291.7227.7182z"/><path d="m28.04 17.6548c-.5527 0-1 .4478-1 1v6.876c0 .5522.4473 1 1 1s1-.4478 1-1v-6.876c0-.5523-.4472-1-1-1z"/><path d="m34.5283 17.6548h-2.1143c-.5527 0-1 .4478-1 1v6.876c0 .5522.4473 1 1 1h2.1143c1.7188 0 3.1172-1.3945 3.1172-3.1089v-2.6582c0-1.7144-1.3984-3.1089-3.1172-3.1089zm1.1172 5.7671c0 .6113-.501 1.1089-1.1172 1.1089h-1.1143v-4.876h1.1143c.6162 0 1.1172.4976 1.1172 1.1089z"/><path d="m43.4258 18.2866c-.324-.8146-1.5345-.8117-1.8594.0005l-2.7168 6.876c-.2031.5137.0488 1.0947.5625 1.2979.1201.0474.2441.0703.3672.0703.3984 0 .7744-.2402.9297-.6328l.1887-.4775h3.2003l.1891.478c.1553.3926.5313.6323.9297.6323.123 0 .2471-.0229.3682-.0708.5137-.2031.7646-.7842.5615-1.2979zm-1.7379 5.1343.8088-2.0469.8099 2.0469z"/><path d="m52.6572 17.7725c-.4893-.2617-1.0928-.0752-1.3535.4116l-1.5124 2.8364-1.513-2.8364c-.2588-.4868-.8623-.6733-1.3525-.4116-.4873.2598-.6719.8657-.4111 1.353l2.2773 4.2692v2.136c0 .5522.4473 1 1 1s1-.4478 1-1v-2.1343l2.2773-4.2709c.2598-.4873.0752-1.0933-.4121-1.353z"/><path d="m8.0537 6.123c-.5527 0-1 .4478-1 1s.4473 1 1 1h.0068c.5527 0 .9971-.4478.9971-1s-.4512-1-1.0039-1z"/><path d="m8.0537 25.4189c-.5527 0-1 .4478-1 1s.4473 1 1 1h.0068c.5527 0 .9971-.4478.9971-1s-.4512-1-1.0039-1z"/><path d="m55.9434 6.123h-.0039c-.5527 0-.998.4478-.998 1s.4492 1 1.002 1 1-.4478 1-1-.4474-1-1.0001-1z"/><path d="m55.9434 25.4189h-.0039c-.5527 0-.998.4478-.998 1s.4492 1 1.002 1 1-.4478 1-1-.4474-1-1.0001-1z"/><path d="m58.4072 1h-52.8183c-1.998 0-3.623 1.6226-3.623 3.6167v24.3086c0 1.9941 1.625 3.6167 3.623 3.6167h20.6992v4.3433c-1.899.1074-4.0479.3655-5.5156 1.688l-3.9668 3.5732h-1.2809c-.014-1.4871-1.2278-2.6929-2.7201-2.6929h-5.4863c-1.501 0-2.7227 1.2192-2.7227 2.7183v17.3911c0 1.4985 1.2217 2.7178 2.7227 2.7178h5.4863c1.1823 0 2.1809-.761 2.5562-1.8145h3.7202c2.1103 1.7451 4.8623 2.5337 6.2109 2.5337h15.1143c2.4082 0 3.5264-1.6895 3.5664-3.3633.0198-.8365-.2315-1.6957-.7062-2.3744 1.007-.7353 1.5309-1.944 1.5382-3.1442.0061-.9288-.3057-1.8617-.9075-2.5893 1.0919-.7413 1.6624-2.0065 1.6624-3.2706 0-1.0479-.373-2.0293-1.0527-2.7637-.0423-.0458-.0923-.0928-.1402-.1396.1584-.1139.3008-.2293.4175-.3409.75-.7178 1.1631-1.6978 1.1631-2.7593 0-1.9106-1.4453-3.8867-3.8633-3.8867h-4.625v-5.826h20.9482c2 0 3.627-1.6226 3.627-3.6167v-24.3086c0-1.9941-1.627-3.6167-3.627-3.6167zm-44.8799 58.563c0 .396-.3242.7178-.7227.7178h-5.4862c-.3916 0-.7227-.3286-.7227-.7178v-17.3911c0-.3892.3311-.7183.7227-.7183h5.4863c.3984 0 .7227.3223.7227.7183v17.2944.0967zm6.5928-.8408c-.1836-.1646-.4209-.2559-.668-.2559h-3.9248v-14.3198h1.6621c.2471 0 .4854-.0918.6689-.2568l4.252-3.8301c1.1514-1.0376 3.332-1.1367 5.085-1.2168 2.8711-.1333 5.8369-.27 6.7227 1.0742.0869.1318.1523.2705.1807.3481l1.1826 4.9971c-.1357.0327-.3438.0601-.6211.0513-2.3682-.0669-3.6729-.8428-4.2285-2.5171-.1572-.4736-.6396-.7573-1.1309-.668-.4902.0903-.8389.5288-.8174 1.0269.0371.8428-.29 2.8218-1.501 3.2163-.3903.127-.6904.5428-.6904.9507v13.6777h-1c-.919 0-3.3799-.668-5.1719-2.2778zm20.8438-6.5352c1.3621.0498 1.8466 1.056 1.8408 1.9185-.0049.8604-.4902 1.8647-1.8408 1.8647h-3.9336c-1.0713 0-1.5908-.5137-1.8379-.9448-.3418-.5967-.3457-1.3838-.0088-1.9585.3428-.584.9795-.8774 1.8369-.8799 0 0 .0018-.0005.0027-.0005.0024.0001.0047.0005.0071.0005zm-12.6719-4.228c.8281-.4956 1.3848-1.3101 1.7295-2.189.7746.6965 1.7916 1.1498 3.0267 1.376-.2433.8325-.1983 1.7359.1677 2.5776.2405.5529.592 1.0288 1.024 1.4122-.3052.2589-.5719.5622-.7809.9193-.6982 1.1914-.6992 2.7476-.002 3.9644.1938.3386.4354.6335.7109.8895-.0817.0681-.1564.136-.2236.2023-.6807.6719-1.0547 1.5771-1.0547 2.5483 0 .4824.0914.9338.2561 1.3403h-4.8537zm12.1143 13.041h-4.2529c-.998 0-1.2637-.8428-1.2637-1.3403 0-.4326.1631-.832.4609-1.1255.373-.3691.9541-.564 1.6797-.564h3.8906c.6523.0349 1.0703.8638 1.0528 1.6187-.0128.5273-.2335 1.4111-1.5674 1.4111zm2.6318-14.1475c.332.3584.5215.8706.5215 1.4058 0 .7163-.4004 1.9287-1.9023 1.9287h-.6702c-.0219-.0005-.0402-.0065-.0623-.0068-.0049 0-.0088 0-.0127 0-.0121 0-.0222.0064-.0342.0068h-3.835c-1.0703-.0137-1.7314-.6606-1.9932-1.2612-.1218-.281-.3267-.9517.0948-1.6384.8502-.0675 1.5236-.357 1.8954-.8572.049-.0659.0821-.1386.1197-.2095h4.2172c.715 0 1.2746.2124 1.6613.6318zm.9092-4.5976c0 .5103-.1943.9771-.5459 1.3135-.4463.4268-1.1465.6523-2.0244.6523h-4.2871l-.9136-3.8525h5.9078c1.2235 0 1.8632.9492 1.8632 1.8867zm-8.4883-3.8867h-.2227c-1.4491-1.6035-4.0687-1.6844-6.9482-1.5747v-4.2515h7.1709zm24.5752-9.4429c0 .8916-.7295 1.6167-1.627 1.6167h-52.8183c-.8945 0-1.623-.7251-1.623-1.6167v-24.3086c-.0001-.8916.7284-1.6167 1.623-1.6167h52.8184c.8975 0 1.627.7251 1.627 1.6167v24.3086z"/></g></g></g></svg>