<svg height="512" viewBox="0 0 64 64" width="512" xmlns="http://www.w3.org/2000/svg"><g id="Black_friday_ribbon"><g><g><g><path d="m2 42 30-20h30l-30 20z" fill="#455a64"/><g fill="#f44336"><path d="m2 22 2-10-2-10h60v20z"/><path d="m2 62v-20h60l-2 10 2 10z"/></g></g><path d="m62 42-2 10 2 10h-60v-6.3c12.31-1.22 23.54-6.17 32.52-13.7z" opacity=".1"/><path d="m62 2v20l-21.67 14.45c8.46-9.29 14.06-21.24 15.37-34.45z" opacity=".1"/><path d="m35.3 41 1.5-1c-.37.34-.74.67-1.11 1z" fill="#e0e0e0"/></g><g><path d="m16 9c0-2.206-1.794-4-4-4h-3c-.552 0-1 .448-1 1v12c0 .552.448 1 1 1h3c2.206 0 4-1.794 4-4 0-1.2-.542-2.266-1.382-3 .84-.734 1.382-1.8 1.382-3zm-2 6c0 1.103-.897 2-2 2h-2v-4h2c1.103 0 2 .897 2 2zm-4-4v-4h2c1.103 0 2 .897 2 2s-.897 2-2 2z"/><path d="m19 5c-.552 0-1 .448-1 1v12c0 .552.448 1 1 1h6c.552 0 1-.448 1-1s-.448-1-1-1h-5v-11c0-.552-.448-1-1-1z"/><path d="m42 7h3c.552 0 1-.448 1-1s-.448-1-1-1h-3c-2.206 0-4 1.794-4 4v6c0 2.206 1.794 4 4 4h3c.552 0 1-.448 1-1s-.448-1-1-1h-3c-1.103 0-2-.897-2-2v-6c0-1.103.897-2 2-2z"/><path d="m49 5c-.552 0-1 .448-1 1v12c0 .552.448 1 1 1s1-.448 1-1v-2.697l.71-1.065 3.509 4.387c.198.247.488.375.781.375.219 0 .44-.072.624-.219.432-.345.501-.974.156-1.405l-3.907-4.884 3.958-5.937c.306-.459.182-1.081-.277-1.387-.46-.307-1.081-.183-1.387.277l-4.167 6.252v-5.697c0-.552-.448-1-1-1z"/><path d="m35 19c.552 0 1-.448 1-1v-9c0-2.206-1.794-4-4-4s-4 1.794-4 4v9c0 .552.448 1 1 1s1-.448 1-1v-3h4v3c0 .552.448 1 1 1zm-5-6v-4c0-1.103.897-2 2-2s2 .897 2 2v4z"/><path d="m47 59c.552 0 1-.448 1-1v-9c0-2.206-1.794-4-4-4s-4 1.794-4 4v9c0 .552.448 1 1 1s1-.448 1-1v-3h4v3c0 .552.448 1 1 1zm-5-6v-4c0-1.103.897-2 2-2s2 .897 2 2v4z"/><path d="m31 45c-.552 0-1 .448-1 1v12c0 .552.448 1 1 1h3c2.206 0 4-1.794 4-4v-6c0-2.206-1.794-4-4-4zm5 4v6c0 1.103-.897 2-2 2h-2v-10h2c1.103 0 2 .897 2 2z"/><path d="m13 47c.552 0 1-.448 1-1s-.448-1-1-1h-6c-.552 0-1 .448-1 1v12c0 .552.448 1 1 1s1-.448 1-1v-5h4c.552 0 1-.448 1-1s-.448-1-1-1h-4v-4z"/><path d="m26 46v12c0 .552.448 1 1 1s1-.448 1-1v-12c0-.552-.448-1-1-1s-1 .448-1 1z"/><path d="m51 45c-.552 0-1 .448-1 1v4c0 1.858 1.28 3.411 3 3.858v4.142c0 .552.448 1 1 1s1-.448 1-1v-4.142c1.72-.447 3-2 3-3.858v-4c0-.552-.448-1-1-1s-1 .448-1 1v4c0 1.103-.897 2-2 2s-2-.897-2-2v-4c0-.552-.448-1-1-1z"/><path d="m24 49c0-2.206-1.794-4-4-4h-3c-.552 0-1 .448-1 1v12c0 .552.448 1 1 1s1-.448 1-1v-11h2c1.103 0 2 .897 2 2s-.897 2-2 2h-1c-.369 0-.708.203-.882.528s-.155.72.05 1.026l4 6c.193.29.51.446.833.446.19 0 .383-.054.554-.168.459-.306.583-.927.277-1.387l-3.019-4.528c1.817-.377 3.187-1.99 3.187-3.917z"/><path d="m63 22v-20c0-.552-.448-1-1-1h-60c-.3 0-.583.134-.773.366s-.267.536-.207.83l.59 2.95c.108.542.632.89 1.177.784.541-.107.892-.634.783-1.176l-.35-1.754h57.78v18h-57.78l1.761-8.804c.026-.13.026-.264 0-.394l-.63-3.13c-.11-.541-.638-.891-1.178-.782-.542.109-.892.636-.783 1.177l.59 2.933-1.96 9.803c-.059.294.017.599.207.83.19.233.473.367.773.367h26.697l-27.252 18.168.01.015c-.267.18-.455.47-.455.817v20c0 .552.448 1 1 1h46c.552 0 1-.448 1-1s-.448-1-1-1h-45v-18h57.78l-1.761 8.804c-.026.13-.026.263 0 .393l1.761 8.803h-8.78c-.552 0-1 .448-1 1s.448 1 1 1h10c.3 0 .583-.134.773-.366.19-.231.266-.536.207-.83l-1.96-9.804 1.96-9.804c.059-.294-.017-.599-.207-.83-.19-.232-.473-.366-.773-.366h-26.697l27.252-18.168-.01-.015c.268-.18.455-.47.455-.817zm-57.697 19 27-18h26.395l-27 18z"/></g></g></g></svg>