<?xml version="1.0" encoding="iso-8859-1"?>
<!-- Generator: Adobe Illustrator 19.0.0, SVG Export Plug-In . SVG Version: 6.00 Build 0)  -->
<svg version="1.1" id="Capa_1" xmlns="http://www.w3.org/2000/svg" xmlns:xlink="http://www.w3.org/1999/xlink" x="0px" y="0px"
	 viewBox="0 0 511.999 511.999" style="enable-background:new 0 0 511.999 511.999;" xml:space="preserve">
<polygon style="fill:#EF5350;" points="477.338,288.903 504.502,263.663 478.851,236.887 499.462,206.063 468.328,185.923 
	481.275,151.177 446.336,138.76 450.921,101.965 414.06,97.941 410.036,61.08 373.24,65.665 360.824,30.726 326.077,43.672 
	305.938,12.538 275.114,33.149 248.338,7.499 223.098,34.663 191.128,15.879 172.833,48.131 137.392,37.227 127.028,72.829 
	90.029,70.391 88.154,107.424 51.59,113.584 58.306,150.051 24.148,164.478 39.093,198.413 9.183,220.328 31.551,249.902 
	7.502,278.124 36.087,301.742 19.194,334.75 52.455,351.139 43.63,387.153 79.774,395.43 79.492,432.509 116.571,432.226 
	124.847,468.371 160.862,459.545 177.25,492.807 210.259,475.914 233.876,504.499 262.099,480.449 291.672,502.817 313.588,472.907 
	347.523,487.852 361.95,453.694 398.416,460.411 404.577,423.846 441.609,421.972 439.172,384.972 474.774,374.608 463.869,339.168 
	496.122,320.873 "/>
<path d="M488.442,236.045c0,0,17.22-25.753,17.263-25.816c2.172-3.248,1.479-8.111-2.161-10.466l-26.076-16.868
	c0,0,10.782-28.936,10.843-29.101c1.451-3.895-0.642-8.31-4.516-9.686l-29.263-10.4c0,0,3.824-30.689,3.84-30.817
	c0.485-3.891-2.346-7.916-6.628-8.383l-30.873-3.371c0,0-3.368-30.85-3.371-30.873c-0.453-4.147-4.25-7.144-8.383-6.628
	l-30.818,3.84c0,0-10.345-29.11-10.399-29.263c-1.394-3.921-5.788-5.969-9.686-4.517l-29.102,10.842
	c0,0-16.868-26.076-16.869-26.077c-2.274-3.513-6.973-4.488-10.466-2.16l-25.816,17.263c0,0-22.425-21.481-22.427-21.483
	c-3.022-2.895-7.839-2.75-10.682,0.311l-21.14,22.751c0,0-26.69-15.681-26.777-15.732c-3.593-2.111-8.286-0.87-10.323,2.767
	l-15.323,27.011c0,0-29.522-9.084-29.682-9.133c-4.016-1.236-8.241,1.065-9.407,5.072l-8.681,29.819c0,0-30.786-2.029-30.988-2.042
	c-4.193-0.276-7.773,2.922-7.984,7.104l-1.57,31.017c0,0-30.521,5.143-30.624,5.16c-3.889,0.655-6.914,4.499-6.13,8.754
	l5.625,30.542c0,0-28.536,12.053-28.609,12.084c-3.858,1.629-5.636,6.093-3.946,9.932L29.81,195.92c0,0-25.049,18.354-25.051,18.355
	c-3.371,2.47-4.081,7.226-1.549,10.574l18.734,24.77L1.801,273.258c-2.732,3.206-2.277,7.959,0.932,10.646l23.941,19.781
	c0,0-14.11,27.571-14.148,27.645c-1.778,3.474-0.527,8.23,3.361,10.145l27.858,13.727c0,0-7.366,30.06-7.392,30.164
	c-1.003,4.092,1.529,8.162,5.61,9.096l30.273,6.932c0,0-0.235,30.861-0.236,31.054c-0.032,4.237,3.419,7.536,7.557,7.558
	l31.055-0.236c0,0,6.921,30.226,6.932,30.273c0.874,3.817,4.88,6.642,9.096,5.61l30.164-7.392c0,0,13.646,27.694,13.726,27.857
	c1.853,3.761,6.415,5.272,10.145,3.362l27.646-14.149c0,0,19.781,23.942,19.782,23.943c2.656,3.213,7.457,3.663,10.645,0.93
	l23.638-20.143c0,0,24.703,18.684,24.769,18.734c3.113,2.355,8.013,1.947,10.574-1.549l18.355-25.051
	c0,0,28.274,12.452,28.421,12.517c3.823,1.684,8.312-0.109,9.933-3.945l12.083-28.609c0,0,30.46,5.61,30.543,5.626
	c4.111,0.756,8.057-2.005,8.753-6.13l5.16-30.625c0,0,30.909-1.564,31.016-1.57c4.17-0.211,7.383-3.815,7.105-7.983l-2.042-30.989
	c0,0,29.818-8.68,29.82-8.681c3.998-1.165,6.304-5.388,5.07-9.407l-9.133-29.683c0,0,27.013-15.323,27.014-15.324
	c3.816-2.165,4.639-6.575,2.765-10.323l-15.732-26.776c0,0,22.731-21.121,22.75-21.14c3.059-2.843,3.178-7.69,0.311-10.682
	L488.442,236.045z M472.241,283.405c-2.578,2.396-3.144,6.26-1.361,9.294l14.926,25.404l-25.628,14.538
	c-3.06,1.736-4.502,5.366-3.468,8.729l8.665,28.162l-28.291,8.235c-3.378,0.984-5.619,4.183-5.388,7.694l1.937,29.401l-29.427,1.489
	c-3.514,0.178-6.432,2.775-7.017,6.245l-4.896,29.055l-28.978-5.337c-3.459-0.638-6.898,1.217-8.268,4.458l-11.464,27.143
	l-26.965-11.875c-3.22-1.417-6.993-0.408-9.073,2.431l-17.413,23.768l-23.5-17.774c-2.807-2.123-6.711-2.009-9.389,0.273
	l-22.427,19.111l-18.768-22.715c-1.464-1.772-3.604-2.724-5.785-2.724c-1.158,0-2.327,0.269-3.414,0.824l-26.229,13.424
	l-13.023-26.431c-1.555-3.156-5.093-4.807-8.513-3.97l-28.619,7.013l-6.577-28.721c-0.781-3.411-3.815-5.826-7.31-5.826
	c-0.019,0-0.039,0-0.058,0l-29.464,0.225l0.224-29.464c0.027-3.519-2.396-6.583-5.826-7.368l-28.722-6.577l7.013-28.618
	c0.837-3.417-0.813-6.957-3.97-8.513l-26.431-13.023l13.424-26.229c1.603-3.133,0.813-6.958-1.899-9.199l-22.715-18.768
	l19.111-22.426c2.282-2.678,2.396-6.583,0.273-9.389l-17.775-23.5l23.768-17.415c2.838-2.08,3.85-5.853,2.431-9.073L34.087,168.42
	l27.143-11.464c3.241-1.369,5.095-4.808,4.458-8.268l-5.337-28.978l29.055-4.896c3.47-0.584,6.066-3.502,6.244-7.017l1.49-29.427
	l29.401,1.937c3.507,0.23,6.711-2.009,7.694-5.388l8.236-28.291l28.162,8.666c3.362,1.034,6.993-0.407,8.729-3.468l14.54-25.626
	l25.404,14.926c3.034,1.782,6.898,1.217,9.293-1.361l20.057-21.585l21.278,20.383c2.541,2.434,6.433,2.774,9.357,0.818
	l24.494-16.378l16.003,24.74c1.911,2.955,5.618,4.182,8.916,2.955l27.61-10.288l9.867,27.764c1.178,3.315,4.499,5.365,7.994,4.931
	l29.239-3.643l3.198,29.291c0.382,3.498,3.144,6.26,6.642,6.642l29.291,3.198l-3.643,29.239c-0.435,3.491,1.616,6.816,4.931,7.994
	l27.764,9.867l-10.288,27.61c-1.229,3.297,0,7.005,2.955,8.916l24.74,16.003l-16.378,24.494c-1.956,2.925-1.616,6.816,0.818,9.356
	l20.382,21.278L472.241,283.405z"/>
<path d="M160.066,318.374c-8.514-19.034-46.636,5.022-60.088-25.05c-8.457-18.907,4.891-32.644,19.484-39.171
	c7.486-3.349,24.904-9.007,28.65-0.632c1.306,2.919,1.886,9.663-2.683,11.707c-3.934,1.759-9.008-1.757-19.668,3.011
	c-9.137,4.086-12.692,10.094-9.968,16.185c7.038,15.734,45.329-7.941,60.028,24.924c8.117,18.146-0.371,33.211-17.883,41.043
	c-16.623,7.435-33.058,4.737-36.35-2.623c-1.59-3.553-0.674-10.358,3.26-12.118c5.203-2.327,12.999,5.911,25.942,0.122
	C158.406,332.364,163.471,325.987,160.066,318.374z"/>
<path d="M199.533,322.191c-0.113-0.253-0.214-0.817-0.313-1.382l-11.211-90.769c-0.561-4.317,3.34-8.194,8.035-10.295
	c4.821-2.156,10.312-2.479,13.156,0.816l60.191,68.861c0.354,0.451,0.652,0.775,0.822,1.155c1.76,3.934-2.9,9.521-7.342,11.507
	c-2.791,1.249-5.346,1.325-7.058-0.802l-12.371-14.72l-29.059,12.998l2.727,19.033c0.445,2.694-1.314,4.548-4.107,5.796
	C208.561,326.377,201.349,326.252,199.533,322.191z M234.1,275.208l-28.465-34.018l6.385,43.894L234.1,275.208z"/>
<path d="M299.41,285.74c-3.68,1.646-8.025,1.458-9.559-1.968l-36.892-82.48c-1.59-3.554,1.79-6.893,5.976-8.766
	c4.061-1.816,8.93-2.166,10.518,1.387l32.75,73.217l30.963-13.849c3.299-1.476,6.537,1.339,8.184,5.019
	c1.59,3.553,1.584,7.971-1.715,9.447L299.41,285.74z"/>
<path d="M356.568,196.673l19.287-8.627c3.301-1.476,6.623,0.845,8.156,4.271c1.305,2.918,1.188,7.083-2.365,8.671l-19.289,8.627
	l11.408,25.506l35.912-16.063c3.299-1.476,6.734,1.099,8.494,5.033c1.533,3.426,1.527,7.844-2.025,9.433l-45.174,20.206
	c-3.68,1.646-8.025,1.458-9.559-1.968l-36.836-82.353c-1.533-3.426,1.227-6.792,4.906-8.438l45.174-20.206
	c3.553-1.589,6.848,1.353,8.381,4.779c1.76,3.934,1.389,8.211-1.912,9.687l-35.91,16.063L356.568,196.673z"/>
<g>
</g>
<g>
</g>
<g>
</g>
<g>
</g>
<g>
</g>
<g>
</g>
<g>
</g>
<g>
</g>
<g>
</g>
<g>
</g>
<g>
</g>
<g>
</g>
<g>
</g>
<g>
</g>
<g>
</g>
</svg>
