<svg id="Layer_4" height="512" viewBox="0 0 24 24" width="512" xmlns="http://www.w3.org/2000/svg" xmlns:xlink="http://www.w3.org/1999/xlink" data-name="Layer 4"><linearGradient id="linear-gradient" gradientUnits="userSpaceOnUse" x1="6.043" x2="15.957" y1="5.543" y2="15.457"><stop offset="0" stop-color="#fd0"/><stop offset="1" stop-color="#feb100"/></linearGradient><g id="Gradient"><path id="Flash" d="m19.906 8.576a1 1 0 0 0 -.906-.576h-4.382l2.276-4.553a1 1 0 0 0 -.894-1.447h-6a1 1 0 0 0 -.874.514l-5 9a1 1 0 0 0 .874 1.486h4.753l-1.729 7.783a1 1 0 0 0 1.744.857l10-12a1 1 0 0 0 .138-1.064z" fill="url(#linear-gradient)"/></g></svg>