<svg id="Capa_1" enable-background="new 0 0 512 512" viewBox="0 0 512 512" xmlns="http://www.w3.org/2000/svg"><g><g><path d="m194.16 7.5h249.249c13.094 0 20.193 15.324 11.726 25.313l-129.725 153.035h66.722c9.58 0 15.108 10.876 9.461 18.615l-115.16 157.842h42.345c9.925 0 15.351 11.572 9.004 19.202l-91.526 110.019c-6.838 8.219-16.976 12.973-27.668 12.973h-25.378c-11.138 0-18.579-11.476-14.035-21.645l34.028-76.139h-78.066c-8.666 0-14.331-9.086-10.516-16.867l83.212-169.738h-91.221c-8.061 0-13.713-7.954-11.06-15.566l62.115-178.223c3.929-11.27 14.558-18.821 26.493-18.821z" fill="#ffe177"/><path d="m401.59 204.46-115.16 157.85h42.35c9.92 0 15.35 11.57 9 19.2l-91.52 110.02c-6.84 8.22-16.98 12.97-27.67 12.97h-25.38c-2.53 0-4.87-.59-6.92-1.63 6.56-2.04 12.48-5.94 16.97-11.34l91.53-110.02c6.34-7.63.92-19.2-9.01-19.2h-15.565c-11.132 0-17.556-12.638-10.995-21.631l99.38-136.219c5.64-7.74.12-18.61-9.46-18.61h42.99c9.58 0 15.11 10.87 9.46 18.61z" fill="#ffd15b"/><path d="m455.14 32.81-129.73 153.04h-43l129.73-153.04c8.47-9.99 1.37-25.31-11.73-25.31h43c13.09 0 20.19 15.32 11.73 25.31z" fill="#ffd15b"/><path d="m482.224 362.305h-223.776c-11.516 0-20.852-9.336-20.852-20.852v-64.601c0-11.516 9.336-20.852 20.852-20.852h223.776c11.516 0 20.852 9.336 20.852 20.852v64.601c.001 11.516-9.335 20.852-20.852 20.852z" fill="#cb97e7"/><path d="m503.08 276.85v64.6c0 11.52-9.34 20.86-20.86 20.86h-30.02c11.52 0 20.85-9.34 20.85-20.86v-64.6c0-11.51-9.33-20.85-20.85-20.85h30.02c11.52 0 20.86 9.34 20.86 20.85z" fill="#bd80e1"/><path d="m304.496 256h-274.721c-11.516 0-20.852-9.336-20.852-20.852v-64.601c0-11.516 9.336-20.852 20.852-20.852h274.72c11.516 0 20.852 9.336 20.852 20.852v64.601c.001 11.516-9.335 20.852-20.851 20.852z" fill="#62dbfb"/><path d="m325.35 170.55v64.6c0 11.51-9.34 20.85-20.85 20.85h-30.03c11.52 0 20.86-9.34 20.86-20.85v-64.6c0-11.52-9.34-20.86-20.86-20.86h30.03c11.51 0 20.85 9.34 20.85 20.86z" fill="#01d0fb"/></g><g><path d="m482.224 248.5h-103.479l28.902-39.618c4.286-5.872 4.904-13.544 1.612-20.023-3.294-6.482-9.857-10.509-17.13-10.509h-50.53l119.265-140.693c5.823-6.876 7.086-16.228 3.296-24.403-3.789-8.175-11.741-13.254-20.75-13.254h-249.25c-15.105 0-28.597 9.584-33.572 23.852l-31.222 89.58c-1.363 3.911.702 8.187 4.613 9.55 3.915 1.363 8.188-.702 9.551-4.614l31.222-89.579c2.875-8.247 10.675-13.789 19.408-13.789h249.25c4.664 0 6.646 3.492 7.142 4.562s1.881 4.84-1.132 8.398l-116.954 137.968c-2.213-13.443-13.91-23.733-27.97-23.733h-274.721c-15.633 0-28.352 12.719-28.352 28.352v64.601c0 15.633 12.719 28.352 28.352 28.352h148.435l-60.326 123.052c-2.937 5.996-2.579 12.958.954 18.624 3.533 5.663 9.627 9.044 16.302 9.044h66.494l-29.299 65.574c-3.181 7.1-2.553 15.239 1.679 21.77 4.233 6.535 11.409 10.436 19.195 10.436h30.38c9.779 0 18.977-4.312 25.236-11.833l94.719-113.859c3.911-4.699 5.31-10.745 3.989-16.502h61.465c4.143 0 7.5-3.358 7.5-7.5s-3.357-7.5-7.5-7.5h-150.55c-7.362 0-13.353-5.99-13.353-13.352v-64.601c0-7.362 5.99-13.352 13.353-13.352h223.776c7.362 0 13.353 5.99 13.353 13.352v64.601c0 7.362-5.99 13.352-13.353 13.352h-38.163c-4.143 0-7.5 3.358-7.5 7.5s3.357 7.5 7.5 7.5h38.163c15.634 0 28.353-12.719 28.353-28.352v-64.601c0-15.634-12.719-28.353-28.353-28.353zm-90.095-55.15c2.334 0 3.405 1.611 3.757 2.303.352.691 1.02 2.502-.355 4.386l-35.353 48.46h-30.679c2.135-3.981 3.349-8.527 3.349-13.352v-41.797zm-133.681 176.455 70.332.005c2.414 0 3.47 1.695 3.811 2.424.342.728.969 2.623-.576 4.479l-94.719 113.859c-3.399 4.085-8.396 6.428-13.706 6.428h-30.38c-2.72 0-5.128-1.309-6.606-3.592-1.477-2.279-1.688-5.006-.575-7.489l34.02-76.14c1.037-2.32.828-5.008-.555-7.14s-3.752-3.419-6.293-3.419h-78.06c-2.109 0-3.202-1.387-3.574-1.983-.373-.598-1.14-2.192-.212-4.085l63.561-129.652h38.529c-2.135 3.981-3.349 8.527-3.349 13.352v64.601c-.001 15.633 12.718 28.352 28.352 28.352zm-228.673-121.305c-7.362 0-13.352-5.99-13.352-13.352v-64.601c0-7.362 5.989-13.352 13.352-13.352h274.721c7.362 0 13.353 5.99 13.353 13.352v64.601c0 7.362-5.99 13.352-13.353 13.352z"/><path d="m358.17 282.572c-1.334-3.238-4.457-5.329-7.958-5.329-.003 0-.006 0-.009 0-3.505.003-6.628 2.102-7.956 5.345-.023.058-.046.115-.068.173l-18.331 48.13c-1.475 3.871.469 8.204 4.34 9.678 3.864 1.475 8.203-.468 9.678-4.339l2.726-7.156h19.099l2.693 7.135c1.133 3.003 3.987 4.854 7.018 4.854.88 0 1.775-.156 2.647-.485 3.875-1.462 5.831-5.79 4.368-9.665l-18.164-48.132c-.027-.07-.054-.139-.083-.209zm-11.866 31.503 3.881-10.188 3.845 10.188z"/><path d="m412.532 326.021c-.015 0-.029 0-.043 0-3.245.018-6.66.032-9.552.038v-41.314c0-4.142-3.357-7.5-7.5-7.5s-7.5 3.358-7.5 7.5v48.777c0 3.651 2.63 6.772 6.228 7.391.537.093.894.154 6.408.154 2.632 0 6.438-.014 12-.045 4.143-.023 7.481-3.4 7.458-7.542-.024-4.129-3.376-7.459-7.499-7.459z"/><path d="m458.811 340.616c4.143 0 7.5-3.358 7.5-7.5s-3.357-7.5-7.5-7.5h-12.882v-9.187h11.38c4.143 0 7.5-3.358 7.5-7.5s-3.357-7.5-7.5-7.5h-11.38v-9.186h12.882c4.143 0 7.5-3.358 7.5-7.5s-3.357-7.5-7.5-7.5h-20.382c-4.143 0-7.5 3.358-7.5 7.5v48.373c0 4.142 3.357 7.5 7.5 7.5z"/><path d="m293.646 326.062c-4.464 0-8.746-1.784-11.454-4.773-2.782-3.07-7.526-3.3-10.594-.521-3.069 2.782-3.303 7.525-.521 10.594 5.587 6.164 13.812 9.7 22.569 9.7 10.967 0 20.185-7.049 21.919-16.762 1.314-7.363-1.958-16.957-15.084-21.798-5.753-2.122-11.125-4.427-13.021-5.254-.59-.556-.642-1.259-.566-1.783.182-1.26 1.239-2.271 2.902-2.772 6.13-1.843 11.947 2.693 12.149 2.853 3.173 2.621 7.867 2.2 10.519-.956 2.665-3.17 2.256-7.901-.915-10.567-4.407-3.705-14.858-9.073-26.079-5.692-7.266 2.189-12.409 7.938-13.424 15.003-.956 6.663 1.934 13.073 7.542 16.729.331.216.679.405 1.04.566.284.127 7.048 3.138 14.662 5.946 2.911 1.074 5.886 2.974 5.509 5.089-.318 1.773-2.809 4.398-7.153 4.398z"/><path d="m160.933 176.476c-.026-.07-.054-.141-.083-.21-1.334-3.237-4.456-5.327-7.957-5.327-.003 0-.007 0-.011 0-3.504.004-6.627 2.103-7.954 5.346-.023.057-.047.114-.068.172l-18.331 48.13c-1.475 3.871.469 8.204 4.34 9.678 3.865 1.475 8.203-.468 9.678-4.339l2.726-7.156h19.099l2.693 7.135c1.133 3.003 3.987 4.854 7.018 4.854.88 0 1.775-.156 2.647-.485 3.875-1.462 5.831-5.79 4.368-9.665zm-11.948 31.294 3.881-10.189 3.845 10.189z"/><path d="m109.83 219.715c-.015 0-.028 0-.043 0-3.245.018-6.661.032-9.553.038v-41.314c0-4.142-3.357-7.5-7.5-7.5s-7.5 3.358-7.5 7.5v48.777c0 3.654 2.633 6.776 6.234 7.393.535.091.89.152 6.394.152 2.632 0 6.441-.014 12.009-.045 4.142-.023 7.481-3.4 7.458-7.542-.024-4.129-3.376-7.459-7.499-7.459z"/><path d="m283.784 170.938c-4.143 0-7.5 3.358-7.5 7.5v16.072h-18.784v-16.072c0-4.142-3.357-7.5-7.5-7.5s-7.5 3.358-7.5 7.5v48.818c0 4.142 3.357 7.5 7.5 7.5s7.5-3.358 7.5-7.5v-17.746h18.783v17.746c0 4.142 3.357 7.5 7.5 7.5s7.5-3.358 7.5-7.5v-48.818c.001-4.142-3.357-7.5-7.499-7.5z"/><path d="m70.128 185.938c4.143 0 7.5-3.358 7.5-7.5s-3.357-7.5-7.5-7.5h-19.64c-4.143 0-7.5 3.358-7.5 7.5v48.46c0 4.142 3.357 7.5 7.5 7.5s7.5-3.358 7.5-7.5v-17.189h10.581c4.143 0 7.5-3.358 7.5-7.5s-3.357-7.5-7.5-7.5h-10.581v-8.771z"/><path d="m218.374 196.195c-5.752-2.122-11.125-4.427-13.021-5.254-.59-.556-.642-1.258-.566-1.783.182-1.26 1.239-2.271 2.903-2.772 6.127-1.846 11.946 2.691 12.149 2.853 3.173 2.62 7.867 2.199 10.519-.956 2.665-3.171 2.255-7.902-.915-10.567-4.408-3.705-14.859-9.073-26.079-5.692-7.267 2.189-12.41 7.938-13.425 15.003-.956 6.663 1.934 13.073 7.542 16.729.331.216.679.405 1.04.566.284.127 7.048 3.138 14.662 5.946 2.911 1.074 5.887 2.974 5.509 5.089-.316 1.774-2.809 4.398-7.152 4.398-4.464 0-8.746-1.784-11.454-4.773-2.783-3.07-7.525-3.301-10.594-.521-3.069 2.782-3.303 7.525-.521 10.594 5.587 6.164 13.812 9.7 22.569 9.7 10.967 0 20.185-7.049 21.919-16.762 1.314-7.363-1.958-16.956-15.085-21.798z"/><path d="m90.828 336.096h-28.5l21.059-37.008c2.049-3.6.791-8.179-2.81-10.228-3.6-2.05-8.18-.792-10.228 2.809l-27.438 48.217c-1.321 2.322-1.308 5.171.035 7.48s3.812 3.729 6.483 3.729h28.841l-20.698 38.439c-1.964 3.647-.6 8.195 3.048 10.159 1.131.609 2.349.898 3.549.898 2.671 0 5.256-1.43 6.61-3.946l26.651-49.495c1.252-2.324 1.189-5.135-.165-7.401-1.352-2.266-3.798-3.653-6.437-3.653z"/><path d="m455.341 142.195v-9.806c0-4.142-3.357-7.5-7.5-7.5s-7.5 3.358-7.5 7.5v9.806h-9.806c-4.143 0-7.5 3.358-7.5 7.5s3.357 7.5 7.5 7.5h9.806v9.805c0 4.142 3.357 7.5 7.5 7.5s7.5-3.358 7.5-7.5v-9.806h9.806c4.143 0 7.5-3.358 7.5-7.5s-3.357-7.5-7.5-7.5h-9.806z"/><circle cx="484.082" cy="195.744" r="7.5"/></g></g><g/><g/><g/><g/><g/><g/><g/><g/><g/><g/><g/><g/><g/><g/><g/></svg>