<svg id="Flat" viewBox="0 0 24 24" xmlns="http://www.w3.org/2000/svg"><path d="m5 15c0 3.87 3.13 7 7 7s7-3.13 7-7c0-2.88-.56-4.41-.56-4.41l-1.91 2.03s1.06-4.28-1.58-7.47c-1.52-1.84-3.2-3.15-3.2-3.15s-.93 2.41-1.99 4.19c-.86 1.43-1.36 2.46-1.69 4.61-.6-.64-1.08-1.52-1.5-2.51 0 0-1.81 3.02-1.56 6.7z" fill="#e63946"/><path d="m15.82 18.16c0 2.12-1.72 3.84-3.84 3.84s-3.84-1.72-3.84-3.84c0-1.35.34-2.41.34-2.41l1.62 1.27s-.19-1.68.5-3.83c.4-1.25 1.53-2.17 1.53-2.17s.51 1.33 1.1 2.3c.47.78 2.74 2.82 2.6 4.84z" fill="#c9273a"/></svg>