<svg id="Layer_1" enable-background="new 0 0 103 103" viewBox="0 0 103 103" xmlns="http://www.w3.org/2000/svg"><g><g><g><g><g><path d="m45.7568665 35.7980042c0 .3984795-.1217308.8068504-.3655128 1.2218132-.2502174.4149628-.5433693.721241-.8891029.9221268-.2076035.118576-.3952637.1811485-.5665245.1811485-.1119194 0-.217411-.0296478-.3129311-.0823326l-1.3073616-.7607574c-.2371902-.1350365-.3557053-.4017982-.3557053-.8035736l-.0559578-19.4010105c0-.3952026.1152992-.8068695.3523254-1.2251081.2371902-.4215555.5303421-.7311296.8760796-.9320173.3457336-.1975918.6422615-.2272406.8924789-.0889263l1.3041458.7574615c.2469978.1416302.3721046.4149628.3721046.8101654z" fill="#324566"/></g><g><path d="m22.140419 79.8660355c.0033779 1.3963699-.3425179 2.8520126-1.0307732 4.3636627-.6916313 1.5116272-1.6664429 2.9442368-2.9278126 4.2944946-1.2547779 1.3502502-2.7104044 2.5029144-4.3602848 3.4546967-2.7597704 1.5939789-5.348443 2.4897537-7.7624784 2.6807709-.1842847.0197601-.3457351-.0164642-.4840293-.1053848.0065932.0032959.0098095.0098877.0164022.0164642l-1.3041453-.7607651c-.0657701-.0395126-.128324-.0889206-.1844454-.151474-.1776919-.1844482-.2634022-.4413147-.2634022-.764061-.003377-.4248505.1185148-.8661423.3688915-1.3239212.2469997-.4511871.5697393-.7969818.9616261-1.0209274.2172503-.125145.4214754-.194313.6191072-.2074814 1.9989929-.1284409 4.143033-.8529739 6.4219913-2.170311 3.8038912-2.19664 5.6975546-4.7292099 5.6908007-7.6010056 0-.3457947-.0559597-.6356125-.1612892-.8694229-.3293324-.0362396-.6850376-.023056-1.0835171.0460892-.7180042.1251526-1.7388077.3754425-3.0661087.7377243-1.7585869.4906998-3.1846237.8068466-4.2713575.9484558-1.0011853.1317444-1.877262-.0197525-2.6182608-.4511795l-1.3073616-.7607574c-.0627146-.0362244-.1252685-.0757446-.1878223-.1185608-.7869897-.5203476-1.1822538-1.593956-1.1856308-3.2175827-.0032158-1.422699.3195238-2.9014206.9650035-4.4393997.6520724-1.5379791 1.6104827-3.0134048 2.8784466-4.4361038 1.2678022-1.416153 2.7925749-2.6445541 4.5743179-3.6720734 2.3910398-1.3799057 4.5514822-2.2131081 6.4879217-2.506218.2305965-.0395203.4182587-.0164642.5599308.0658722l1.2941742.7541618.0099697.0032997c.23703.1383133.355545.4379959.3589211.9056625 0 .3984795-.1186752.8299026-.3557034 1.2909775-.23703.4610748-.5533371.8068695-.9452248 1.034111-.1283245.0757446-.3029613.1251526-.5203724.1514816-1.6960316.3030014-3.444808.9748306-5.2495461 2.0155334-1.7158117.9912796-3.1088829 2.1735916-4.1824312 3.540329-1.0737085 1.3733139-1.6104822 2.7301636-1.6071053 4.0771255.0032158.5170517.0921421.9221497.260025 1.23172.339303.0428162.7180033.0329285 1.1362619-.0395203.7705879-.1317368 1.8179245-.4083862 3.1450653-.8233261 1.7191877-.5170593 3.1024504-.8431168 4.1562195-.9748383.8990726-.1152725 1.6894379.023056 2.3646679.4149628l1.2086258.7047577c-.0329647-.0164642-.0691471-.0329208-.1021118-.0493851.1910381.0954971.3721066.2041855.5467434.3359222.7541849.5631488 1.1295091 1.6960528 1.1361009 3.3954242z" fill="#324566"/></g><g><path d="m46.0697975 70.7336197-8.3716164-17.7411575c-.1316986-.2634621-.3063354-.4577789-.5203705-.5829048-.0032158 0-.0032158-.0032997-.0065918-.0032997l-1.3007698-.7574806c-.0659294-.0395164-.1384544-.0724449-.2141953-.0955009-.3161469-.1053886-.7014389-.0263519-1.15588.237133l-.3261185.1877022c-.4576569.2634811-.8431091.6290359-1.15588 1.0966835-.3161469.4709435-.5599327.9781303-.7311897 1.5314064l-8.2465096 27.3346252c-.1085434.3655548-.1612892.6454849-.1612892.8430939.0032177.4742432.14151.7936859.4116669.9649429.0032158.0032959.0065937.0065918.0131855.0065918l1.2909603.7541656c.2733707.1646652.629076.125145 1.0637379-.1284409.3029613-.1745377.5795498-.431427.8299255-.7607651.2502155-.3326263.4380379-.6981812.5663624-1.0966797l2.1012669-7.0608749 10.3246174-5.9609375 1.58395 3.4217682c.0823326.1547775.1878204.2700577.3161469.3457947l1.3075218.7607574c-.0131874-.0065918-.0197792-.0164566-.0295906-.023056.0855522.0527115.1776924.09552.2831841.1119843.2502136.0428162.5301781-.0197601.8331413-.1976089.4348221-.2502747.7871475-.6158524 1.0573044-1.0966644.2699966-.4841309.404911-.9616699.404911-1.4359055-.0032157-.1975938-.0559577-.4149476-.1678809-.6553727zm-14.2404308-.8661423 3.4515629-11.6188583 3.5007706 7.6042862z" fill="#324566"/></g><g><path d="m66.1427002 59.7108612c.0032196.4709435-.14505.9583473-.4348221 1.4523468-.2929916.4907036-.6454773.8595543-1.0571442 1.0966835l-11.5694275 6.6788597c-.5631447.3260574-1.0473366.3721466-1.4490318.1449127l-1.3075218-.7607651c-.4050713-.2305145-.6059227-.6685333-.6092987-1.3173294l-.0625534-22.2398376c0-.4742393.1416702-.961647.4216347-1.4622383.2798042-.5005913.6257019-.869442 1.0405846-1.1065521.4116669-.2404289.7641563-.2733536 1.060524-.1053886l1.304142.7574615c.2963676.1679611.4446335.4874039.4446335.9649429l.0559616 19.677639 9.3530197-5.4010506c.4116669-.2371292.7673683-.2733498 1.0605202-.1053886l1.2579956.7344055c.0164032.0098724.0329666.0164642.0493698.0263557.2931518.1679612.4414138.4906998.4414138.964943z" fill="#324566"/></g><g><path d="m85.728035 48.5135422c0 .4511833-.1350784.9023705-.4050751 1.3601456-.269989.4577599-.6026993.7969818-.9912109 1.0242195l-13.0679855 7.5450096c-.4116669.2371292-.7607803.2733498-1.0439606.1119804-.0164032-.0098877-.0329666-.0197601-.0493698-.0329247.0098114.0098686.022995.0197601.0393982.0296288l-1.3041458-.7607574c-.2798004-.1613693-.4148788-.480835-.4182587-.9484825l-.0625534-22.7272645c-.003212-.4742393.1350784-.9583473.4182587-1.4622383.2799683-.4972763.6290817-.8661461 1.0407486-1.1065521l13.0679855-7.5417118c.388504-.2272396.7212143-.2634811.9944305-.1086845l1.3041458.7607574c.2733688.1547775.4116669.457777.4116669.9056664 0 .4478874-.1317062.9023685-.4049149 1.3568497-.2701569.457777-.6027069.8002758-.9913788 1.0275173l-11.5662079 6.6788788.0165634 6.7611923 9.0928345-5.2495651c.3918915-.2239456.7212219-.2601662.9945908-.1053886l1.3073654.7574615c.2733688.1580925.4084473.4577789.4084473.9089622.0032196.4511833-.1316986.8990936-.4016953 1.3601456-.2733688.454483-.6027069.7969818-.994751 1.0209427l-10.3936081 6.0004349.0196228 6.8007355 10.2654419-5.9247169c.3918839-.2272186.7244339-.2601662.9978027-.1086655l1.3041458.7607574c.2733766.1547775.408455.4577789.411667.9056663z" fill="#324566"/></g><g><path d="m38.1130638 31.9612694c-.0625534-.0428162-.121891-.0757408-.1842842-.1119823.0098076.0032959.022995.0098896.0328026.0164814l-1.304142-.7574806c-.1942558-.1119614-.4016991-.1975918-.6223259-.2601662.5070267-.6619625.9418488-1.3832016 1.3007698-2.1703129.4973755-1.0966625.7475929-2.2526245.7443771-3.4711609-.0067558-1.5478687-.4348221-2.5720882-1.2877464-3.0660877-.0065918-.0032959-.0099678-.0065937-.0163994-.0098705l-1.2877426-.7508869c-.1054916-.0592785-.2141953-.1119823-.3293343-.1547775-1.0703316-.4116669-2.5819168-.0560017-4.5317039 1.0736084l-6.4581718 3.7280502c-.3491135.2009087-.6388874.5104618-.8760777.9287205-.23703.4215565-.3523293.8299255-.3523293 1.228405l.0559616 19.0881405c0 .3952026.118515.6652603.3557053.8002777l1.3075218.7574615c.23703.1383324.5301819.1020927.8792934-.0987968l6.6194611-3.8202515c2.4272232-1.4029617 4.2057495-2.9738884 5.3320427-4.7160492 1.1262932-1.7421646 1.6894379-3.5798492 1.6828461-5.5097351-.0033798-1.3403855-.3590813-2.2493478-1.060524-2.7235871zm-11.3717937-3.2307549 5.005764-2.891552c.9879971-.5697403 1.7981434-.843092 2.4470005-.8364983.1317024.2733517.1976318.6191463.1976318 1.0406818.0032158 1.132906-.3227386 2.2032375-.9781876 3.2109966-.6520729 1.0077763-1.7915535 1.9825897-3.418438 2.9179039l-3.2373676 1.8706093zm7.6174297 9.7745972c-.7344055 1.0538673-1.9891815 2.0945511-3.7609539 3.1154938l-3.8136997 2.2032394-.0164032-5.6941795 5.1440582-2.9672928c1.4128494-.8167381 2.5161476-1.2251053 3.3098907-1.2251053.1548576.3194427.2371902.7344055.2371902 1.2547569.0032159 1.1526642-.362297 2.2592163-1.1000823 3.3130875z" fill="#324566"/></g><g><path d="m66.8209839 21.49506c.0033798.4413147-.09552.889204-.2831802 1.346981-.19104.4544811-.4412537.8562565-.7508087 1.205349-2.0419273 2.3547382-4.1298485 4.1463089-6.263916 5.3780117-1.8772621 1.0867939-3.5469208 1.5742207-5.00914 1.4622383-.7212219-.0559807-1.3634834-.2502956-1.9266319-.5829258l-1.2843666-.7442741c-.5862999-.3392239-1.086895-.8299255-1.498558-1.468832-.8101463-1.2448883-1.2152214-2.9574032-1.2218132-5.1375847-.0065918-2.2197208.4050713-4.4328289 1.2415924-6.6360664.8333015-2.2065344 1.9727783-4.1956968 3.421814-5.9773989 1.4490318-1.781682 3.0561371-3.1846437 4.8280716-4.2055674 1.422657-.8200359 2.6674652-1.337091 3.7377968-1.5577583 1.0671158-.217351 2.0946732-.2535725 3.0826721-.1119618.0723648 0 .14151.0197592.2074432.0592775l1.3009262.7541647.0032196.0032969c.0625534.0362215.1218872.0889263.1778488.1613698.1087036.1482038.1646652.3457956.1646652.5960917.0032196.3589816-.1021118.7212396-.3095474 1.096684-.2108231.3721476-.4874115.6586657-.836525.8595538-.2008438.1152787-.3918839.1712594-.5763321.1745563-.8562927-.0922232-1.7158089-.0395184-2.5753212.1613703-.8563004.2008877-1.7883377.5927944-2.7929001 1.1724243-1.3864784.8002758-2.6346626 1.8607388-3.7443924 3.1714764-1.113266 1.3140354-1.9793739 2.7960329-2.605072 4.4492903-.6257019 1.6532383-.9352531 3.3690701-.9320374 5.1507721.0065918 1.6367741.3063354 2.9244556.9024467 3.8729362.1612892.2568893.3425217.4775372.5401535.6718521.2304344.0658703.4774361.1119633.7342453.1350174 1.1264534.09552 2.4535942-.2996826 3.9849586-1.1822929 1.7158127-.9912949 3.3131065-2.3712006 4.7852974-4.1496067l-.0131874-4.1792355-3.2109947 1.854147c-.1844482.1053886-.3523293.1580734-.5039711.1580734-.1053276 0-.2040634-.0263329-.2929878-.0757408l-1.304306-.7607574c-.2206306-.1251488-.3293343-.3655548-.3293343-.7245369-.0032158-.3556652.1054878-.7212391.3228989-1.0999603.2206268-.3754444.4840317-.6553688.7935829-.8365183l5.3912201-3.1121798c.3655167-.2107782.6752243-.240427.9320374-.0955191l1.307518.7574615c.256813.144907.3852997.4281483.3852997.8463879z" fill="#324566"/></g></g><g><g><g><path d="m18.5897999 79.9454346-1.3059139-.7589111c.4105396.2386017.6160507.7022629.617981 1.3858795.0080414 2.8709488-1.8877144 5.4033356-5.6898365 7.5984955-2.2808867 1.316864-4.4236412 2.0419846-6.4232769 2.1698914-.1966672.0155334-.4028215.0827332-.6203938.2083588-.3904395.2254333-.7115712.5688553-.9592142 1.0222778-.2500548.4574509-.3719466.8981857-.370821 1.3223114.0009649.3235245.0871575.581543.2630801.7659073.0569258.0618668.1186757.1121597.1850891.1508179l1.3059144.7589035c-.0664134-.0386505-.128324-.0889435-.1852498-.1508179-.1757622-.1843796-.2619548-.4423981-.2629194-.7658997-.0011258-.4241257.1207657-.8648605.3706598-1.322319.247643-.4534149.5689354-.7968369.9593754-1.0222702.2175717-.1256256.4235654-.1928253.6203933-.2083664 1.9996357-.1278992 4.1423903-.8530197 6.4232779-2.1698914 3.8021212-2.1951523 5.6978769-4.727562 5.6898355-7.5984955-.0019284-.6836091-.2074414-1.1472779-.617981-1.3858719z" fill="#1c323d"/></g><g><path d="m16.9880009 75.0627518c-1.0542517.1347961-2.4396038.4581528-4.1586313.9767761-1.3260155.4142609-2.3751211.6904907-3.1449041.8217697-.7746077.1340103-1.4168711.0664673-1.9272728-.1998825-.0167236-.0087891-.033287-.0178909-.0496893-.027359l1.3059139.7589035c.0164022.0094528.0328045.0185776.0496893.027359.5102415.2663574 1.1526651.3338776 1.9272728.1998672.769784-.131279 1.8188887-.407486 3.1449041-.8217468 1.7188663-.5186234 3.1043806-.8419876 4.1586313-.9767838.8985901-.1135254 1.6863842.023941 2.3635426.4174347l-1.3059139-.7589035c-.6771584-.3935012-1.4651128-.5309448-2.3635426-.4174346z" fill="#1c323d"/></g><g><path d="m18.9270115 61.8306389c-1.9377251.2936516-4.0991316 1.1275597-6.4887247 2.5072594-1.7815819 1.0285873-3.3068371 2.254982-4.5752831 3.6736374-1.268446 1.4212952-2.2265344 2.897583-2.876195 4.4354858-.6474094 1.5365524-.9703102 3.0164566-.96629 4.4383545.0045028 1.6230621.3986411 2.6971741 1.1846657 3.2183151.0623932.0416031.1257515.0811005.190074.1184921l1.3059144.7588882c-.0644836-.0373688-.1276808-.0768661-.190074-.1184769-.786025-.5211334-1.1801629-1.5952454-1.1846657-3.2183075-.0041809-1.4218979.3187194-2.9018097.9661288-4.4383545.6496606-1.5379028 1.607749-3.0141907 2.8761954-4.4354858 1.2686071-1.4186783 2.7938614-2.64505 4.5752821-3.6736374 2.3897533-1.3797035 4.5511627-2.2136078 6.4888878-2.5072823.2302742-.0381699.4169712-.0157394.5602512.0674973l-1.3059139-.7588882c-.1432799-.0832557-.3299769-.10569-.560253-.0674972z" fill="#1c323d"/></g><g><path d="m43.3706512 73.6822433-2.1342316-4.6171799-1.3059158-.7589034 2.1342316 4.6171875c.0821724.1558685.1875038.2715225.3167915.3466263l1.3059158.7589035c-.1292915-.0750962-.2346191-.1907578-.3167915-.346634z" fill="#1c323d"/></g><g><path d="m25.1861057 83.5438309c-.0006428-.1984558.0530663-.4799881.1609688-.8445587l8.2457027-27.3355713c.1712608-.5509644.4163284-1.0600586.7302246-1.5299759.3138962-.4671059.699028-.833828 1.1557198-1.0975113l.3264389-.1884651c.4542809-.2622757.8403778-.340889 1.15588-.2370682.0760651.0256691.1481056.0581894.2161255.0977287l-1.305912-.7589073c-.0680237-.0395203-.1400642-.0720634-.2161255-.0977325-.3153419-.1038208-.7016029-.0252037-1.15588.237072l-.3264389.1884651c-.4566917.2636833-.8418274.6304054-1.1557198 1.0975075-.3138962.4699173-.5589676.9790154-.7302246 1.5299988l-8.2457066 27.335556c-.1077404.3645706-.1614494.6461029-.1609669.844574.0012856.4730377.1397419.7934647.4103794.9640198.0040207.002533.0082016.0050278.0125427.0074615l1.3059139.7589035c-.0043411-.002449-.008522-.004921-.0125427-.0074768-.2706374-.1705323-.4090918-.4909592-.4103793-.9640198z" fill="#1c323d"/></g><g><path d="m35.6543236 56.9864464-1.305912-.7589073 4.4329681 9.6268158-8.7992039 5.0802154 1.3059159.7589111 8.7990398-5.080223z" fill="#1c323d"/></g><g><path d="m63.3346863 58.0914917-10.6563606 6.1524353 1.305912.7589111 10.6563644-6.1524582c.4118271-.2377319.764801-.272686 1.0592346-.1049843l-1.3059158-.7589111c-.2944336-.1677017-.6474075-.1327438-1.0592346.1050072z" fill="#1c323d"/></g><g><path d="m53.4805908 42.8493538-1.305912-.7589073c-.2942772-.1677818-.6474113-.1327477-1.0590782.1049271-.4139175.2389984-.761261.6083908-1.0418663 1.1080399-.2806091.4997292-.4214783.9867706-.4201889 1.4625587l.0631943 22.2390327c.00177.6497803.2045479 1.0882645.6080132 1.3181763l1.3059158.7588882c-.4034653-.2298889-.6062431-.6683884-.6080132-1.3181534l-.0631981-22.2390556c-.0012856-.4757652.1395798-.9628105.4201889-1.4625397.2806091-.4996452.6279526-.8690414 1.0418701-1.1080399.4116669-.2376747.7647972-.2727088 1.0590744-.104927z" fill="#1c323d"/></g><g><path d="m84.0107803 46.8485641c-.2728958-.1528854-.6046371-.1193161-.9949188.1060524l-11.5674896 6.678421 1.3059082.7589073 11.567337-6.6784172c.3904419-.2253723.7221832-.2589607.9950714-.1060524z" fill="#1c323d"/></g><g><path d="m85.251564 24.656126-1.3059158-.7589092c-.2728882-.1556015-.6046295-.1192989-.9949112.1060715l-13.0673447 7.5444641c-.4116669.2376728-.7591705.6070671-1.0396118 1.1067162-.2830276.5010529-.4214783.9867096-.4200287 1.4597664l.0644836 22.7284088c.0012817.4673462.1386108.7870522.4164886.9486008l1.3059158.7589111c-.278038-.1615524-.4152069-.4812775-.4166565-.9486008l-.0643233-22.7284127c-.001442-.4730721.1370087-.9587097.4200287-1.4597664.2804489-.4996452.6277924-.8690414 1.0394592-1.1067123l13.0675049-7.544466c.3902741-.2253704.722023-.261673.9949112-.1060715z" fill="#1c323d"/></g><g><path d="m83.1155624 36.8963585c.3904419-.2253723.722023-.2588997.995079-.1060753l-1.3059158-.7589073c-.2730484-.1528053-.6046371-.119297-.9950714.1060715l-10.3937683 6.0009003 1.3059158.7589073z" fill="#1c323d"/></g><g><path d="m36.6561508 31.107523c-.6814995-.3960667-1.5324898-.4845505-2.5526505-.2654114l1.3057556.7589092c1.0203209-.2191601 1.8713112-.1306553 2.5528107.2654114z" fill="#1c323d"/></g><g><path d="m31.9039822 42.379776c1.7698421-1.0218277 3.0252628-2.0625305 3.7617588-3.1167603.7363358-1.0542336 1.1029778-2.1590385 1.0995979-3.3117638-.0025711-.9310112-.2495728-1.5394859-.7411575-1.8251381l-1.3059158-.7589073c.4915886.2856712.7385864.8941269.7411613 1.8251381.003376 1.1527443-.363102 2.2575302-1.0995979 3.3117599-.7364998 1.0542526-1.9919205 2.0949364-3.7617607 3.1167641l-5.1151123 2.9532433 1.3059139.7589073z" fill="#1c323d"/></g><g><path d="m24.3010235 48.0301971-.0541916-19.0880604c-.0011253-.3969326.1161022-.8077354.3520069-1.2270794.2359028-.419405.5287323-.7301044.8765583-.9309521l6.4568863-3.72785c1.9518757-1.126915 3.4628201-1.4846306 4.5328312-1.0729637.1156197.0445023.2251282.0967445.3283653.1567459l-1.305912-.7588882c-.1032372-.0600224-.2127495-.1122646-.3283691-.1567669-1.0698471-.4116459-2.5809517-.0539513-4.5328293 1.0729847l-6.4568863 3.727829c-.347826.2008476-.6406555.5115471-.8765583.9309521-.2359047.4193459-.3531322.8301468-.3520069 1.2270794l.0541916 19.0880585c.0011253.3969345.1202831.665802.3576355.8010826l1.3059139.7589073c-.2373524-.1352768-.3565102-.4041481-.3576355-.8010788z" fill="#1c323d"/></g><g><path d="m29.9955235 32.1735535-4.5403881 2.621376 1.3059139.7588882 4.5403881-2.6213531c1.6252785-.9383907 2.7649155-1.9122391 3.418438-2.9186096.6559296-1.0077572.9823685-2.0784912.9791527-3.2121811-.0022507-.7986488-.2362251-1.3325882-.700798-1.6025429l-1.305912-.7589092c.4645691.2699547.6985435.803894.700798 1.6025429.0032158 1.1336899-.3230629 2.204443-.9791565 3.2122021-.6535188 1.0063495-1.7929975 1.9801978-3.4184361 2.9185867z" fill="#1c323d"/></g><g><path d="m43.1324959 14.9189959c-.3476639.2007675-.6384048.5101604-.8765602.930892-.2357407.4193249-.3531303.8302078-.352005 1.2271385l.0549965 19.4007111c.0011253.3996658.1204414.6657181.3577957.8037338l1.305912.7589073c-.2373505-.1380119-.3566704-.4040871-.3577957-.8037338l-.0549965-19.4007092c-.0011253-.3969326.1162643-.8078136.3520088-1.2271385.2381554-.4207516.5287323-.7301245.8765602-.930892.3454132-.199441.6416168-.2288084.8908691-.089529l-1.305912-.7589092c-.2492523-.1392794-.5454597-.109912-.8908729.089529z" fill="#1c323d"/></g><g><path d="m64.175705 12.8480625-5.3896065 3.1117573c-.3100357.178978-.5745621.4597073-.7939034.8368607-.2169304.37854-.3249931.7431488-.324028 1.0993176.0009651.35886.1107979.5977802.329174.7249374l1.305912.7589092c-.2183762-.1271591-.3282051-.3660774-.3291702-.7249393-.0009651-.3561668.1069374-.7207775.3240242-1.0993176.2193413-.3771515.4838715-.6578808.7939072-.8368587l5.3896065-3.1117582c.366806-.2117424.6747513-.2424965.9334869-.0977707l-1.3059158-.7589083c-.2587357-.1447268-.5666809-.1139518-.9334869.0977706z" fill="#1c323d"/></g><g><path d="m58.5389404 25.7724075c-1.5308838.8838367-2.8591499 1.2776718-3.9851227 1.181591-.5407944-.0455894-1.0204811-.1902752-1.4392242-.4335976l1.3059158.7589092c.4187393.2433224.8982658.3880081 1.4392242.4335957 1.1259689.0960827 2.4542351-.2977543 3.9851189-1.1816101 1.7153282-.9903297 3.3111801-2.3718834 4.7848167-4.1485806l-.0160828-5.690258-1.3059158-.7589092.0160828 5.690258c-1.4736366 1.7767182-3.0694847 3.1582509-4.7848129 4.1486016z" fill="#1c323d"/></g><g><path d="m51.3024597 29.5606003 1.3059158.7589092c-.5859833-.3405094-1.0857697-.8298664-1.4993668-1.4676876-.8093414-1.2456112-1.2147369-2.9586277-1.2208481-5.1390305-.0062714-2.2211876.4070053-4.4340744 1.2419128-6.6372128.8326607-2.2045031 1.9740677-4.1950932 3.421814-5.9758711 1.4477463-1.780757 3.0575867-3.1840601 4.8272667-4.2058282 1.42202-.8210006 2.6671486-1.3383169 3.7376404-1.5588036 1.0682411-.2164264 2.0941887-.2532911 3.0828285-.1105952.0736542.0004625.1429596.0195985.2079239.0574083l-1.3059082-.7589087c-.0649719-.0378098-.1342773-.0569458-.2079239-.0574083-.9886436-.1426959-2.014595-.1058311-3.0828362.1106153-1.0704918.2204866-2.3156204.737783-3.7376366 1.5587831-1.7696838 1.0217681-3.3795204 2.4250712-4.8272667 4.2058282-1.4477463 1.7807779-2.5889969 3.771368-3.421814 5.975873-.8349113 2.2031364-1.2481842 4.4160233-1.2419128 6.6372108.0061111 2.1804028.4115028 3.8934193 1.2208443 5.1390324.4135973.6378212.9133875 1.1271763 1.4993669 1.4676857z" fill="#1c323d"/></g></g><g><g><path d="m13.7441216 65.0968246c2.3897419-1.3797226 4.551012-2.2136192 6.4888115-2.5072823.6087666-.1009407.9129868.221756.9151134.9721146.0011253.3969307-.1161919.8295708-.3541603 1.2910118-.2380943.461525-.5522518.8062897-.9450436 1.0330658-.1301594.0751495-.302948.1258926-.520937.1509933-1.6960526.3038712-3.445446.9762192-5.2483101 2.0170975-1.7177591.9917526-3.1102085 2.1714783-4.1846733 3.5406952-1.0743284 1.3718491-1.6084337 2.7286377-1.6046104 4.0771103.0025511.8998947.2600603 1.4810257.7727985 1.7486954.5102921.2663498 1.1527081.3338852 1.9272413.1998672.769783-.131279 1.8189316-.4074936 3.1448927-.8217545 1.7189722-.5186157 3.1044636-.84198 4.1586418-.9767838 1.0566235-.1334839 1.9602013.0800858 2.7106266.6489563.7528553.5647354 1.1304741 1.697403 1.1352825 3.3938675.0039616 1.3974304-.3402138 2.8542404-1.0303593 4.3637466-.6924496 1.5135498-1.6670933 2.9449539-2.9264984 4.2956696-1.2568302 1.3519592-2.7110806 2.5020142-4.3626041 3.4555206-2.7586584 1.5927124-5.3463631 2.4876175-7.7608123 2.680687-.2605395.0278931-.4788294-.0530472-.6522956-.2415466-.1758966-.1843796-.262001-.4423904-.2629185-.7659149-.0012021-.4241104.1207218-.8648529.3706574-1.3223114.247633-.4534073.5688648-.7968292.9593463-1.0222702.217576-.125618.4236174-.1928329.6202908-.2083511 1.9997272-.1279144 4.1424065-.853035 6.423296-2.1699066 3.802125-2.1951523 5.6979628-4.7275467 5.6898222-7.5984955-.0021191-.7476578-.247654-1.2322235-.7387714-1.4470062-.4888134-.2188492-1.0932312-.2620163-1.8109589-.1362991-.7177258.1257248-1.7408552.3733063-3.0668268.7385559-1.7594252.4902344-3.1851788.8068924-4.2726412.9472885-1.0873346.1403275-2.024014-.0486832-2.8074799-.5712433-.7859044-.5211487-1.1800699-1.5952454-1.1846714-3.2183151-.0040312-1.4218903.3188643-2.9018097.9662471-4.4383621.649694-1.5378952 1.6077528-3.0141754 2.8762155-4.4354782 1.2685986-1.418663 2.7937327-2.6450424 4.5752889-3.6736222z" fill="#324566"/></g></g><g><g><path d="m46.0708771 70.7344208c.1097145.2389297.1648445.457634.1654053.6560974.0013428.4730453-.1324348.9505844-.4035072 1.433876-.2712097.480629-.6232338.8472748-1.0586472 1.0986633-.3028069.1748276-.5799599.2395248-.8311844.1966629-.2513542-.0427704-.4414177-.1890182-.5723572-.4374695l-2.1341782-4.6171875-11.0799408 6.3970108-2.1010532 7.0624008c-.1292458.3986664-.3177319.7634659-.5680218 1.0958633-.2478428.3310013-.524456.5860138-.8297081.7622528-.435276.2513046-.7882252.2916794-1.0612793.1252747-.2706146-.1705475-.4089661-.4909744-.4103069-.9640198-.0005627-.1984558.0531578-.4800034.1610241-.8445663l8.2455826-27.3355637c.1713715-.5509834.4163971-1.0600739.7303352-1.5299835.3138084-.4671135.6990013-.833828 1.1557198-1.0975113l.3264275-.1884651c.4542809-.2622795.8404198-.3408928 1.1558456-.2370682.3155594.1064682.5626793.3314209.736599.6830444zm-14.7828484.959053 8.7991829-5.0802078-4.4328575-9.6268234z" fill="#324566"/></g></g><g><g><path d="m52.4215775 42.9542809c.4116631-.2376747.7647552-.2727013 1.059021-.1049271.2943954.1677132.4422607.4880829.4436111.9638634l.0600739 21.189621 10.6563416-6.1524429c.4117966-.2377472.7647552-.2727013 1.0591507-.1050072.2942657.1677856.4421387.4908752.4434814.9639435.0013428.4730492-.1442337.9601173-.4366302 1.4529991-.2925186.492939-.6445465.8595619-1.0563354 1.0973091l-11.5673409 6.6784096c-.5654373.3264542-1.0487404.3740387-1.4522133.1440353-.4036026-.2299042-.6063194-.668396-.6081619-1.318161l-.0630455-22.239048c-.0013504-.4757767.1394691-.9628258.4201431-1.4625511.280548-.4996453.6279334-.8690377 1.0419044-1.1080437z" fill="#324566"/></g></g><g><g><path d="m84.2566223 24.7622051c.390358-.2253704.7220993-.2616844.9949875-.1060715.2730179.155529.4090042.4582615.4102783.9068527.0012741.4485817-.132576.9016552-.4038544 1.3578243-.2711563.4561062-.6020279.799633-.9923859 1.0250034l-11.567337 6.6784077.0234528 8.2730293 10.3938446-6.0008888c.3903503-.2253723.7219772-.2588921.9949799-.1060715.2730179.1555367.4088821.4583359.4101562.9069252.0012741.4513016-.1324463.9015808-.4037247 1.3604736-.271286.4561768-.6020355.7969093-.9923859 1.0222816l-10.3938446 6.0008888.0235596 8.3110809 11.5673447-6.6784058c.3903503-.2253723.7221069-.2589569.9949875-.1060638.2730103.155529.4090042.4582596.4102707.9068451.0012817.4513092-.1325684.9016533-.4038467 1.3605537-.2711563.4560928-.6020355.7969017-.9923859 1.022274l-13.0673981 7.5444641c-.4116592.2376709-.7599869.2753944-1.0424042.114399-.2848587-.1596069-.4255295-.4814072-.4268723-.9544563l-.0644379-22.7284126c-.0013428-.4730568.1370392-.9587059.4200287-1.4597588.2805405-.4996414.6279297-.8690376 1.0395889-1.1067085z" fill="#324566"/></g></g><g><g><path d="m38.1120605 31.9604244c.7027168.4765911 1.0584869 1.3849621 1.0622864 2.7252789.0054741 1.9302826-.5556946 3.7656326-1.683609 5.5088196-1.1277885 1.7431068-2.9054947 3.314106-5.3331032 4.7156868l-6.6199608 3.8220367c-.3478661.20084-.6415615.2342415-.8790302.0990295-.2373486-.1352806-.3565292-.4041443-.3576546-.8010788l-.0541134-19.0880566c-.0011253-.3969269.116127-.8077431.351902-1.2270737.2358971-.4194031.5288067-.7301178.8766727-.9309578l6.4568081-3.7278404c1.9518967-1.1269283 3.4629059-1.4846306 4.5327797-1.0729733 1.0699959.4115963 1.6086769 1.4866714 1.6136055 3.2239246.0034523 1.2179871-.244503 2.3741531-.7437286 3.4711666-.4993591 1.097084-1.1412621 2.0694962-1.9255905 2.922636 1.0965806-.2355325 1.9974518-.1157015 2.7027359.3594019zm-2.4463653 7.302599c.7364388-1.0542297 1.1029549-2.1590309 1.0996857-3.3117752-.0067749-2.3897362-1.6238251-2.6543236-4.8533211-.789772l-5.1436501 2.9696884.0204163 7.2018585 5.1151581-2.9532394c1.7698745-1.0218354 3.0252723-2.0625268 3.7617111-3.1167603m-8.9239388-10.5331536.0193462 6.8239632 4.5403481-2.6213684c1.6253338-.9383888 2.7649517-1.912241 3.4184628-2.9185944.6559563-1.0077591.9823303-2.0785046.9791145-3.2122002-.0027885-.9841728-.3575058-1.56637-1.0618324-1.7479343-.7044525-.1814842-1.6658325.0794678-2.8890095.7856693z" fill="#324566"/></g></g><g><g><path d="m44.4383926 15.6779051c.3454247-.1994314.6415749-.2288046.8908882-.0895357.2468758.1406679.3708191.4122276.3719444.8091583l.0550003 19.4007053c.001133.3996582-.1208916.8050575-.3661842 1.221714-.2477417.4153481-.5431061.7220383-.8885307.9214706-.3477364.2007637-.639122.2328339-.8789062.0989609-.2373505-.1380043-.3566513-.4040718-.3577843-.8037338l-.0550003-19.4007034c-.0011253-.3969307.1162529-.8078194.3520241-1.2271423.2382126-.4207421.5288124-.7301283.8765487-.9308939z" fill="#324566"/></g></g><g><g><path d="m59.3791924 6.8938866c1.4220085-.8209977 2.6670609-1.3383117 3.7375832-1.5587974 1.0682144-.2164321 2.0942612-.2532935 3.0828781-.1106057.1446457.0009031.272789.0739803.3845444.2191391.1094437.1464925.1645279.3461642.1652374.5962772.0010147.3588753-.1045456.7220874-.3120346 1.0951366-.2099304.3717375-.4863205.6593008-.8341827.8601403-.2010193.1160579-.3928223.1723237-.5753937.1742558-.8581009-.0927753-1.7182312-.0373335-2.5755043.163517-.8574028.2009144-1.7899933.5922985-2.7931519 1.1714735-1.3864555.8004694-2.6347313 1.8588333-3.7448463 3.1696529-1.1125488 1.3149567-1.9804611 2.796381-2.6061668 4.4511299-.6257133 1.6520309-.9359779 3.3697529-.9309273 5.1505032.0046387 1.6366634.3045273 2.9258614.9019966 3.8744106.5975914.945755 1.456913 1.4680843 2.5805283 1.562788 1.1259346.0960884 2.4542694-.2977524 3.9851303-1.1815968 1.7153206-.9903412 3.3111153-2.3718853 4.7848015-4.148592l-.0161285-5.6902599-4.514286 2.6063232c-.3099976.178978-.5753021.2041607-.7960243.0810642-.2184219-.1271496-.3281288-.3660774-.3291473-.7249432-.0010109-.3561573.106987-.7207775.3239746-1.0993099.2193069-.3771477.4838867-.6578846.7938843-.8368607l5.3897247-3.1117582c.3667297-.2117348.6747055-.2424955.9334183-.0977678.2564087.1460705.3851395.4284773.386322.8471632l.0202408 7.1393309c.0012512.440424-.0945511.8878765-.2852173 1.3465118-.1906662.455925-.4407654.8562984-.7502823 1.2038403-2.0408592 2.3546848-4.1283073 4.148077-6.2624779 5.3802414-1.8785973 1.0846081-3.5480309 1.571909-5.0104828 1.4604282-1.4625854-.1114044-2.5972404-.790657-3.4042244-2.0348911-.8093033-1.2456207-1.2146645-2.9586411-1.2208481-5.1390419-.0062943-2.2211838.4069672-4.4340687 1.2419777-6.6372051.8326912-2.2045116 1.9740524-4.1951017 3.4217567-5.9758654 1.4477041-1.7807739 3.0575789-3.1840684 4.8273276-4.2058322z" fill="#324566"/></g></g></g></g><g><g><g><path d="m99.1612778 66.99543-16.8960724 9.7337952-7.35392-4.0094757 1.2583847-24.8012162 17.0278168-9.7954406 4.8491974 2.8292541z" fill="#f9c539"/></g><g><path d="m80.9778976 50.7700157c7.2673721 5.1335411 4.9779282 15.1851692 1.2853012 25.9587975l-7.3519135-4.0094833 1.2595901-24.8022194z" fill="#f9c539"/></g><g><path d="m98.0466843 40.9519348 1.1139221 26.0444641-16.8974075 9.7324066-1.2853012-25.9587898c1.3104019-1.4054298 10.3289947-6.0976105 17.0687866-9.8180809z" fill="#f9c539"/></g><g><path d="m80.2752686 71.8283386-1.5117112-22.372509 2.2143402 1.3141785 1.2853013 25.9587974z" fill="#d89a1e"/></g><g><path d="m74.9112854 72.7193298 5.3639832-.8909912 1.9879303 4.9004669z" fill="#fbd46c"/></g><g><path d="m99.1616821 66.996582-16.9000854 9.7337952-1.1475373-23.1850662c.0009766-.0011902.0016174-.0019798.002594-.00317 1.1268616-.1793365 2.2587357.1009369 3.3906021.1923218 1.0651932.0904808 2.2414398-.0328827 3.0270844-.7607651.818573-.7607613 1.1804657-2.1260414 2.2703552-2.3563309.6498871-.1398277 1.3901367.1973839 1.9618912-.1439438.5717621-.341301.6251831-1.1555519 1.0569611-1.6654701.7486877-.8841286 2.307518-.5469398 3.1258926-1.365284.5345993-.5345917.5717545-1.3940697.9870682-2.0232353.3373871-.5181541.7938766-.7772293 1.2668228-.8348045z" fill="#eaad24"/></g><g><g><path d="m76.9860077 47.9227219 3.9948349 2.3709831 12.2147598-7.0259972v-4.6676979z" fill="#eaad24"/></g><g><path d="m93.1956024 38.6000099v4.6676979l4.0302582-2.3181915z" fill="#d89a1e"/></g></g><g><g><g><ellipse cx="87.185" cy="50.708" fill="#eaad24" rx=".776" ry=".45" transform="matrix(.503 -.865 .865 .503 -.473 100.593)"/></g></g><g><g><path d="m92.9522171 46.7491608c.3047409-.1759186.5516281-.0337563.5526199.3149185.0009918.3501434-.2442856.7749443-.5490341.9508591-.3047485.1759186-.5516968.0352592-.5526962-.3148804-.0009842-.3486748.2443619-.7749825.5491104-.9508972z" fill="#eaad24"/></g></g></g><g><g><path d="m93.4200058 49.8565788c.0082321 1.8628769-1.307991 4.1451912-2.9324951 5.0786896-.4813843.2796326-.9543304.4194336-1.381897.4194336-.3084717 0-.5964584-.0699005-.8515091-.2179375-.6044922-.3495598-.9418869-1.0609779-.9418869-2.0109138l-.0082321-1.8710823v-.0370216c0-.2714005-.1439896-.5222435-.3783569-.657959l-.131546-.0740166c.078125-.1357117.1809464-.2590752.3002396-.3495598l.0576401.0329056c.2343674.1315956.411293.3372116.5056839.5798454.0658722.1439209.0988083.304306.0988083.4687843l.0082321 1.9039879c0 .7813454.2550507 1.357048.7155533 1.6243591.4606934.2673073 1.0941086.1973801 1.7809448-.2014999 1.4971695-.8635674 2.714592-2.9690819 2.7063599-4.688015l-.0040207-1.8464127v-.0616684c0-.2673073-.1482086-.5181503-.3783569-.653862l-.0658722-.0411148c.0616531-.1398277.1522293-.2714233.2590637-.3701134l.0329361.0205536c.2590714.152153.4524689.3947906.5428391.6785393.0411682.1151314.0616531.2385178.0616531.3659973z" fill="#fff"/></g></g></g><g><path d="m93.1967926 38.1247444-17.0258942 9.7923775 4.807045 2.8528938 17.0688171-9.8180962zm-12.21595 12.1689606-3.9948349-2.3709831 16.2095947-9.3227119 4.0302582 2.3495064-4.0302582 2.3181915z" fill="#fbd46c"/></g></g><g><g><path d="m74.6541748 80.5528793-.006218 1.7292099c-.0048676 1.7221451-1.1360245 3.4412689-3.3980331 4.7557373-4.5486526 2.6432495-11.9774055 2.6487427-16.5654602-.0000305-2.3050728-1.3307648-3.4533157-3.0777206-3.4483719-4.8219681l.0061913-1.729187c-.0049362 1.7442322 5.758461.240181 8.06353 1.5709457 4.5880547 2.6487808 3.4595642 1.2100449 8.008213-1.4332047 2.262001-1.3144683 7.3352661 1.6506501 7.3401489-.0715026z" fill="#f9c539"/></g><g><path d="m71.1924667 75.7192917c4.5880508 2.6487732 4.6217346 6.9406052.0636597 9.5893326-4.5486526 2.6432495-11.9774094 2.6487427-16.565464-.0000305-4.5877953-2.6486282-4.5930367-6.9459229-.0443878-9.5891724 4.5580749-2.6487274 11.9583931-2.6487579 16.5461921-.0001297z" fill="#fbd368"/></g><g><g><path d="m62.9826775 85.5787354c-2.792408 0-5.5018311-.6398315-7.4338074-1.7549896-1.6451607-.9491959-2.5914955-2.1604385-2.5929527-3.3229141-.0014534-1.1537399.9288635-2.3562469 2.5521889-3.2996216 1.9174156-1.1144257 4.6151924-1.7535324 7.400322-1.7535324 2.7865868 0 5.4945488.6398315 7.4265251 1.7564468 1.6539001.9542923 2.6031418 2.169899 2.604599 3.3345566.0014572 1.1486435-.9259491 2.3467865-2.5449066 3.2879715-1.9174119 1.1137084-4.6195604 1.7520828-7.4119683 1.7520828zm-.0742493-9.6841202c-2.7079697 0-5.3242149.6172638-7.1761131 1.6938477-1.480648.8603897-2.3294373 1.9224091-2.32798 2.9123688.0014572.997963.8648033 2.0679932 2.3687439 2.9356613 1.8650017 1.0773087 4.492897 1.6953049 7.2095985 1.6953049s5.3358574-.616539 7.1877632-1.6923904c1.4762802-.8582077 2.3221512-1.9151306 2.320694-2.9007263-.0014572-1.000145-.8691711-2.0745392-2.3803864-2.9473038-1.8664627-1.0780412-4.4914398-1.6967622-7.2023201-1.6967622z" fill="#fff"/></g></g><g><g><path d="m62.9592247 82.8072205c.0593948-.0342865.129879-.0600281.2077255-.077179.6987343-.1554718 1.3274803-.3816605 1.8844337-.6754303l-2.0534744-1.1932907c-.5155373.1715393-.9734917.3034058-1.3774834.391304-.4040337.0879211-.8132896.1190109-1.2296219.0943451-.4145164-.0257111-.7988663-.14151-1.1494179-.3452148-.3099594-.1801224-.517952-.3913269-.6276474-.631485-.1097069-.2401657-.0990105-.4985352.0302696-.774086.1311226-.2744675.3899231-.5457001.7801476-.8115921l-.6254501-.3634567c-.0774956-.0450287-.1160736-.0975647-.1194038-.1576157-.0015144-.0611038.0339317-.1136322.1119156-.1586533.0780334-.0450439.1725616-.0675583.279911-.0675583.107357 0 .1979218.022522.2754173.0675507l.6162224.3580933c.6126823-.3259277 1.2323151-.5703812 1.8606911-.7322464.2261887-.0621948.4296913-.0407486.6086502.0632477.094101.0546799.1492233.1233063.1598701.2069244.0125046.08255-.0360603.1554642-.1437645.2176437-.0371284.021431-.096489.0407486-.179882.0632477-.5505943.1511612-1.0681992.3580856-1.5546532.6175385l2.1254387 1.2351074c.534153-.1908264 1.0032883-.3334274 1.4054794-.428833.4041061-.0943756.8207626-.1297379 1.2463531-.1040039.4274368.0268021.8339691.1511688 1.2214127.3763123.3154907.1833344.5160294.3988495.6016617.646492.0855713.2476807.0452576.5060577-.115448.7762375-.1644135.2701721-.4398193.5317688-.8299866.7847977l.6328354.3677444c.0774918.0450287.1179428.0964813.1157608.1554413.0014877.0589905-.0395279.1125946-.1249619.1619186-.0779877.0450211-.1651001.0675278-.2650528.069664-.0981445.001091-.1905594-.0224991-.2735901-.0707474l-.6328278-.3677444c-.6886597.3484192-1.4361649.6175308-2.236866.8040924-.101963.0246582-.2111702.0300064-.3277397.0182266-.1165314-.0118103-.2125931-.041832-.2900887-.0868683-.0996284-.0578918-.154789-.1286392-.159874-.2111893-.0069348-.0836334.0453341-.1565552.1530383-.2187347zm2.6400032-1.0688858c.7877884-.5231934.8698578-.9638443.249939-1.3240814-.2324677-.1350861-.5172729-.1779785-.8599701-.1297455-.339035.0482635-.7765274.161911-1.3106041.3377304zm-5.4075546-2.5077363c-.3122635.2358551-.4893951.4642105-.5369759.6883163-.0456696.2229919.0680237.413826.3429298.5735779.2619858.1522446.5652351.2122726.9078484.1790466.3426094-.033226.7615318-.1318741 1.2529602-.2980423z" fill="#fff"/></g></g></g><g><g><path d="m74.6541748 77.2422867-.006218 1.7292175c-.0048676 1.7221375-1.1360245 3.4412689-3.3980331 4.7557297-4.5486526 2.6432495-11.9774055 2.6487427-16.5654602-.0000305-2.3050728-1.3307648-3.4533157-3.0777206-3.4483719-4.8219681l.0061913-1.729187c-.0049362 1.7442322 5.758461.240181 8.06353 1.5709457 4.5880547 2.6487808 3.4595642 1.2100449 8.008213-1.4332047 2.262001-1.3144607 7.3352661 1.6506501 7.3401489-.0715026z" fill="#f9c539"/></g><g><path d="m71.1924667 72.408699c4.5880508 2.6487808 4.6217346 6.9406128.0636597 9.5893402-4.5486526 2.6432419-11.9774094 2.648735-16.565464-.0000381-4.5877953-2.6486282-4.5930367-6.9459229-.0443878-9.5891724 4.5580749-2.6487274 11.9583931-2.6487579 16.5461921-.0001297z" fill="#fbd368"/></g><g><g><path d="m62.9826775 82.2681427c-2.792408 0-5.5018311-.6398315-7.4338074-1.7549896-1.6451607-.9491959-2.5914955-2.1604385-2.5929527-3.3229141-.0014534-1.1537399.9288635-2.3562469 2.5521889-3.299614 1.9174156-1.1144333 4.6151924-1.75354 7.400322-1.75354 2.7865868 0 5.4945488.6398315 7.4265251 1.7564468 1.6539001.9542923 2.6031418 2.1699066 2.604599 3.3345642.0014572 1.1486359-.9259491 2.3467789-2.5449066 3.2879715-1.9174119 1.1137009-4.6195604 1.7520752-7.4119683 1.7520752zm-.0742493-9.6841202c-2.7079697 0-5.3242149.6172714-7.1761131 1.6938477-1.480648.8603897-2.3294373 1.9224091-2.32798 2.9123688.0014572.9979706.8648033 2.0679932 2.3687439 2.9356689 1.8650017 1.077301 4.492897 1.6952972 7.2095985 1.6952972s5.3358574-.616539 7.1877632-1.6923904c1.4762802-.8582077 2.3221512-1.9151306 2.320694-2.9007187-.0014572-1.0001526-.8691711-2.0745468-2.3803864-2.9473114-1.8664627-1.0780411-4.4914398-1.6967621-7.2023201-1.6967621z" fill="#fff"/></g></g><g><g><path d="m62.9592247 79.4966278c.0593948-.0342865.129879-.0600281.2077255-.077179.6987343-.1554642 1.3274803-.3816605 1.8844337-.6754303l-2.0534744-1.1932831c-.5155373.1715317-.9734917.3034058-1.3774834.3912964-.4040337.0879288-.8132896.1190186-1.2296219.0943451-.4145164-.0257111-.7988663-.14151-1.1494179-.3452148-.3099594-.1801224-.517952-.3913193-.6276474-.631485-.1097069-.2401581-.0990105-.4985352.0302696-.7740784.1311226-.2744675.3899231-.5457077.7801476-.8115997l-.6254501-.3634491c-.0774956-.0450363-.1160736-.0975647-.1194038-.1576233-.0015144-.0611038.0339317-.1136322.1119156-.1586533.0780334-.0450439.1725616-.0675583.279911-.0675583.107357 0 .1979218.022522.2754173.0675507l.6162224.3580933c.6126823-.3259277 1.2323151-.5703812 1.8606911-.7322464.2261887-.0621872.4296913-.0407486.6086502.0632477.094101.0546799.1492233.1233063.1598701.2069321.0125046.0825424-.0360603.1554565-.1437645.2176361-.0371284.0214386-.096489.0407486-.179882.0632477-.5505943.1511612-1.0681992.3580856-1.5546532.6175461l2.1254387 1.2350998c.534153-.1908264 1.0032883-.3334274 1.4054794-.428833.4041061-.094368.8207626-.1297379 1.2463531-.1040039.4274368.0268021.8339691.1511688 1.2214127.3763199.3154907.1833344.5160294.3988419.6016617.6464844.0855713.2476807.0452576.5060654-.115448.7762375-.1644135.2701797-.4398193.5317688-.8299866.7847977l.6328354.3677444c.0774918.0450287.1179428.096489.1157608.1554489.0014877.0589828-.0395279.112587-.1249619.161911-.0779877.0450211-.1651001.0675278-.2650528.069664-.0981445.001091-.1905594-.0224991-.2735901-.0707474l-.6328278-.3677368c-.6886597.3484116-1.4361649.6175308-2.236866.8040848-.101963.0246658-.2111702.0300064-.3277397.0182266-.1165314-.0118027-.2125931-.041832-.2900887-.0868683-.0996284-.0578918-.154789-.1286392-.159874-.2111893-.0069348-.0836335.0453341-.1565552.1530383-.2187348zm2.6400032-1.0688858c.7877884-.5231934.8698578-.9638367.249939-1.3240814-.2324677-.1350861-.5172729-.1779785-.8599701-.1297455-.339035.0482635-.7765274.1619186-1.3106041.3377304zm-5.4075546-2.5077286c-.3122635.2358475-.4893951.4642029-.5369759.6883087-.0456696.2229919.0680237.413826.3429298.5735779.2619858.1522446.5652351.2122803.9078484.1790543.3426094-.033226.7615318-.1318817 1.2529602-.2980423z" fill="#fff"/></g></g></g><g><g><path d="m51.6395454 90.150032-.0062141 1.7292175c-.0048676 1.7221375-1.1360283 3.4412689-3.398037 4.7557373-4.5486488 2.6432419-11.9774055 2.6487427-16.5654583-.0000381-2.3050709-1.3307648-3.4533157-3.0777206-3.4483719-4.8219681l.0061932-1.729187c-.0049362 1.7442322 5.7584572.240181 8.06353 1.5709457 4.5880547 2.6487808 3.4595604 1.2100449 8.0082092-1.4332047 2.2620087-1.3144606 7.3352661 1.6506502 7.3401489-.0715026z" fill="#f9c539"/></g><g><path d="m48.1778374 85.3164444c4.5880547 2.6487808 4.6217346 6.9406128.0636597 9.5893402-4.5486488 2.6432495-11.9774055 2.6487427-16.5654602-.0000381-4.5877972-2.6486282-4.5930367-6.9459229-.0443897-9.5891724 4.5580768-2.6487274 11.9583911-2.6487579 16.5461902-.0001297z" fill="#fbd368"/></g><g><g><path d="m39.9680519 95.1758881c-2.7924118 0-5.5018349-.6398315-7.4338074-1.7549896-1.6451645-.9491959-2.5914955-2.1604385-2.5929527-3.3229141-.0014553-1.1537323.9288616-2.3562469 2.5521889-3.299614 1.9174118-1.1144333 4.6151886-1.75354 7.4003181-1.75354 2.7865868 0 5.4945526.6398392 7.4265289 1.7564468 1.6539001.9542923 2.6031418 2.1699066 2.604599 3.3345642.0014572 1.1486435-.9259491 2.3467789-2.5449066 3.2879715-1.9174156 1.1137008-4.6195602 1.7520752-7.4119682 1.7520752zm-.0742531-9.6841202c-2.7079659 0-5.3242111.6172714-7.1761131 1.6938477-1.4806461.8603897-2.3294334 1.9224167-2.3279781 2.9123688.0014572.9979706.8648033 2.0679932 2.3687458 2.9356689 1.8650017 1.0773087 4.4928932 1.6952972 7.2095985 1.6952972 2.7167015 0 5.3358612-.616539 7.1877594-1.6923904 1.4762802-.8582077 2.322155-1.9151306 2.3206978-2.9007187-.0014534-1.0001526-.8691673-2.0745468-2.3803902-2.9473114-1.8664589-1.0780335-4.4914398-1.6967621-7.2023201-1.6967621z" fill="#fff"/></g></g><g><g><path d="m39.9445992 92.4043808c.059391-.0342941.129879-.0600357.2077217-.0771866.6987381-.1554642 1.3274841-.3816605 1.8844414-.6754303l-2.0534782-1.1932831c-.5155411.1715317-.9734955.3034058-1.3774834.3912964-.4040337.0879288-.8132935.1190186-1.2296219.0943451-.4145203-.0257111-.7988701-.14151-1.1494179-.3452148-.3099594-.1801147-.517952-.3913193-.6276474-.631485-.1097069-.2401581-.0990105-.4985352.0302696-.7740784.1311226-.2744675.3899231-.5457077.7801476-.8115997l-.6254501-.3634491c-.0774956-.0450363-.1160736-.0975647-.1194038-.1576233-.0015144-.0611038.0339317-.1136246.1119156-.1586456.0780296-.0450516.1725616-.0675659.2799072-.0675659.1073608 0 .1979256.022522.2754211.0675507l.6162224.3580933c.6126785-.3259277 1.2323151-.5703812 1.8606911-.7322464.2261848-.0621872.4296913-.0407486.6086502.0632477.094101.0546799.1492233.1233063.1598701.2069321.0125008.0825424-.0360603.1554565-.1437645.2176361-.0371284.0214386-.096489.0407486-.1798859.0632477-.5505905.1511612-1.0681992.3580856-1.5546494.6175461l2.1254387 1.2351074c.534153-.190834 1.0032845-.3334351 1.4054794-.4288406.4041061-.094368.8207588-.1297379 1.2463531-.1040039.4274368.0268021.8339691.1511688 1.2214165.3763199.3154907.1833344.5160255.3988495.6016541.6464844.0855751.2476807.0452652.5060654-.115448.7762375-.1644135.2701797-.4398193.5317688-.8299789.7847977l.6328316.3677444c.0774918.0450363.117939.096489.1157646.1554489.0014801.0589828-.0395317.112587-.1249695.1619186-.0779839.0450211-.1650963.0675201-.265049.0696564-.0981483.001091-.1905632-.0224991-.2735863-.0707474l-.6328316-.3677368c-.6886559.3484192-1.4361687.6175308-2.236866.8040848-.1019669.0246658-.2111702.0300064-.3277435.0182266-.1165314-.0118027-.2125931-.041832-.2900848-.0868683-.0996284-.0578918-.154789-.1286392-.159874-.2111893-.0069351-.0836336.0453339-.1565477.1530381-.2187273zm2.6399993-1.0688934c.7877884-.5231934.8698578-.9638367.2499428-1.3240738-.2324715-.1350937-.5172729-.1779861-.8599663-.1297455-.3390388.0482559-.7765312.161911-1.3106079.3377304zm-5.4075508-2.5077286c-.3122635.2358475-.4893951.4642105-.5369797.6883087-.0456657.2229996.0680237.4138336.3429298.5735779.2619858.1522446.565239.2122803.9078484.1790543s.7615356-.1318817 1.252964-.2980423z" fill="#fff"/></g></g></g></g></g></svg>