<svg id="Layer_1" enable-background="new 0 0 512 512" height="512" viewBox="0 0 512 512" width="512" xmlns="http://www.w3.org/2000/svg"><g><path clip-rule="evenodd" d="m495.327 180.664c3.866 2.387 5.065 7.456 2.678 11.322s-7.456 5.065-11.323 2.678l-199.237-123.459c-3.866-2.387-5.065-7.456-2.678-11.322s7.457-5.065 11.323-2.678zm-471.558 14.968c-3.866 2.387-8.935 1.188-11.322-2.678s-1.188-8.936 2.678-11.323l200.785-124.426c3.866-2.387 8.935-1.188 11.323 2.678 2.387 3.866 1.188 8.935-2.678 11.322z" fill="#6d7175" fill-rule="evenodd"/><circle clip-rule="evenodd" cx="256" cy="42.063" fill="#4b5055" fill-rule="evenodd" r="42.063"/><path clip-rule="evenodd" d="m256 0c23.231 0 42.063 18.833 42.063 42.063s-18.832 42.063-42.063 42.063z" fill="#373c41" fill-rule="evenodd"/><circle cx="255.5" cy="42.5" fill="#f7f9fa" r="19.5"/><g clip-rule="evenodd" fill-rule="evenodd"><path d="m21.631 177.6h468.739c7.601 0 13.821 6.219 13.821 13.821v306.759c0 7.601-6.219 13.821-13.821 13.821h-468.739c-7.601 0-13.821-6.219-13.821-13.821v-306.76c0-7.601 6.219-13.82 13.821-13.82z" fill="#4b5055"/><path d="m256 177.6h234.37c7.601 0 13.82 6.219 13.82 13.821v306.76c0 7.601-6.219 13.82-13.82 13.82h-234.37z" fill="#373c41"/><path d="m122.551 276.681c2.32 3.235 3.691 7.196 3.691 11.467v24.397c0 5.433-2.217 10.366-5.787 13.937-3.571 3.57-8.505 5.787-13.937 5.787h-43.849c-4.56 0-8.258-3.697-8.258-8.258v-94.661c0-4.561 3.698-8.258 8.258-8.258h43.847c5.433 0 10.366 2.217 13.937 5.787 3.57 3.571 5.787 8.504 5.787 13.937v24.397c.001 4.272-1.369 8.234-3.689 11.468zm-16.035 8.258h-35.588v30.814h35.589c.874 0 1.674-.364 2.26-.949.585-.585.949-1.386.949-2.259v-24.397c0-.873-.364-1.674-.949-2.259-.586-.586-1.387-.95-2.261-.95zm87.756 30.814c4.561 0 8.258 3.698 8.258 8.258 0 4.561-3.697 8.258-8.258 8.258h-46.475c-4.56 0-8.258-3.697-8.258-8.258v-94.661c0-4.561 3.698-8.258 8.258-8.258 4.561 0 8.258 3.697 8.258 8.258v86.402h38.217zm172.059-18.257c0-4.561 3.698-8.258 8.258-8.258 4.561 0 8.258 3.698 8.258 8.258v15.049c0 5.433-2.217 10.366-5.788 13.937-3.571 3.57-8.504 5.787-13.937 5.787h-32.38c-5.433 0-10.366-2.217-13.937-5.787-3.57-3.571-5.788-8.504-5.788-13.937v-71.727c0-5.433 2.217-10.366 5.788-13.937s8.504-5.787 13.937-5.787h32.38c5.433 0 10.366 2.217 13.937 5.787 3.57 3.571 5.788 8.504 5.788 13.937v15.049c0 4.561-3.697 8.258-8.258 8.258s-8.258-3.697-8.258-8.258v-15.049c0-.874-.364-1.674-.949-2.26-.586-.585-1.386-.949-2.26-.949h-32.38c-.874 0-1.674.364-2.26.949-.586.586-.949 1.386-.949 2.26v71.727c0 .874.364 1.674.949 2.259s1.386.949 2.26.949h32.38c.874 0 1.674-.364 2.26-.949.585-.585.949-1.386.949-2.259zm47.88 26.515c0 4.561-3.698 8.258-8.258 8.258s-8.258-3.697-8.258-8.258v-94.661c0-4.561 3.697-8.258 8.258-8.258s8.258 3.697 8.258 8.258v33.491l41.378-39.459c3.296-3.135 8.51-3.005 11.645.29 3.135 3.296 3.006 8.51-.29 11.645l-31.206 29.759 32.593 54.708c2.334 3.901 1.063 8.956-2.839 11.29-3.901 2.334-8.956 1.063-11.29-2.839l-30.685-51.506-9.306 8.874zm-158.211-67.708-9.873 30.778h19.746zm-22.527 70.224c-1.39 4.329-6.026 6.712-10.355 5.323s-6.712-6.026-5.323-10.355c10.122-31.553 20.244-63.106 30.366-94.66 1.39-4.329 6.026-6.712 10.355-5.323 2.652.851 4.572 2.92 5.344 5.39 10.115 31.532 20.229 63.062 30.344 94.593 1.39 4.329-.993 8.965-5.323 10.355-4.329 1.39-8.965-.993-10.355-5.323l-7.355-22.93h-30.343zm-162.545-58.104h35.589c.874 0 1.674-.364 2.259-.949.586-.586.949-1.386.949-2.259v-24.397c0-.874-.364-1.674-.949-2.26-.585-.585-1.386-.949-2.26-.949h-35.588z" fill="#f7f9fa"/><path d="m70.928 460.249c0 4.561-3.698 8.258-8.258 8.258s-8.258-3.698-8.258-8.258v-94.66c0-4.56 3.698-8.258 8.258-8.258h55.314c4.561 0 8.258 3.697 8.258 8.258s-3.698 8.258-8.258 8.258h-47.056v30.814h29.378c4.56 0 8.258 3.698 8.258 8.258 0 4.561-3.698 8.258-8.258 8.258h-29.378zm120.716-86.403h-35.589v30.814h35.589c.874 0 1.674-.364 2.26-.949.585-.585.949-1.386.949-2.259v-24.397c0-.874-.364-1.674-.949-2.26-.585-.585-1.386-.949-2.26-.949zm-52.105-8.258c0-4.56 3.698-8.258 8.258-8.258h43.847c5.433 0 10.366 2.217 13.937 5.787 3.57 3.571 5.788 8.505 5.788 13.937v24.397c0 5.433-2.217 10.366-5.788 13.937-3.571 3.57-8.504 5.788-13.937 5.788h-1.804l20.4 34.911c2.298 3.937.969 8.992-2.968 11.29s-8.992.969-11.29-2.968l-25.263-43.233h-14.663v39.072c0 4.561-3.697 8.258-8.258 8.258-4.56 0-8.258-3.698-8.258-8.258v-94.66zm101.203 94.661c0 4.561-3.698 8.258-8.258 8.258s-8.258-3.698-8.258-8.258v-94.66c0-4.56 3.697-8.258 8.258-8.258s8.258 3.697 8.258 8.258zm48.771-86.403h-19.399v78.144h19.399c5.326 0 10.174-2.185 13.694-5.705s5.705-8.368 5.705-13.694v-39.348c0-5.326-2.185-10.174-5.705-13.693s-8.368-5.704-13.694-5.704zm-27.657-16.516h27.657c9.885 0 18.866 4.038 25.371 10.543s10.543 15.486 10.543 25.371v39.348c0 9.885-4.038 18.866-10.543 25.371s-15.486 10.543-25.371 10.543h-27.657c-4.561 0-8.258-3.698-8.258-8.258v-94.66c0-4.56 3.698-8.258 8.258-8.258zm180.012 102.919c0 4.561-3.698 8.258-8.258 8.258s-8.258-3.698-8.258-8.258v-52.207l-26.173-37.776c-2.583-3.741-1.644-8.868 2.097-11.451s8.868-1.644 11.451 2.097l20.883 30.14 20.883-30.14c2.583-3.741 7.711-4.68 11.451-2.097 3.741 2.583 4.68 7.711 2.097 11.451l-26.173 37.776zm-71.459-67.708-9.873 30.778h19.746zm-22.526 70.224 7.355-22.93h30.342l7.356 22.93c1.39 4.329 6.026 6.712 10.355 5.322 4.329-1.389 6.712-6.026 5.323-10.355-10.115-31.531-20.229-63.061-30.344-94.593-.772-2.47-2.693-4.539-5.344-5.39-4.329-1.389-8.965.994-10.355 5.323-10.122 31.555-20.244 63.107-30.366 94.66-1.389 4.329.993 8.965 5.323 10.355 4.329 1.39 8.965-.993 10.355-5.322z" fill="#ff415b"/></g></g></svg>