<svg id="Capa_1" enable-background="new 0 0 512.605 512.605" height="512" viewBox="0 0 512.605 512.605" width="512" xmlns="http://www.w3.org/2000/svg"><g><g><path d="m258.514 512.605c-55.846 0-109.104-20.635-149.98-58.112-40.182-36.841-65.888-87.455-72.398-142.536-8.598-47.025 15.481-124.6 37.61-167.218 2.772-5.435 5.167-10.129 11.903-11.88 1.885-.49 3.85-.609 5.775-.349 40.789 5.491 52.518 45.159 54.437 52.95 1.537 3.946 4.54 6.96 8.513 8.525 4.146 1.633 8.59 1.392 12.53-.675 11.421-6.297 11.837-9.532 4.604-33.976-2.438-8.241-5.202-17.582-6.944-28.079-4.586-27.632 3.243-56.551 22.044-81.428 17.712-23.436 43.159-40.919 71.655-49.227 6.467-1.883 13.397.771 16.947 6.498s2.846 13.116-1.72 18.069c-13.016 14.12-20.602 43.619-9.916 72.679 2.805 7.625 11.062 25.573 27.132 27.533 7.463.91 18.487.055 28.042-17.801 6.611-12.354 8.649-25.941 8.669-26.077.722-4.95 3.868-9.235 8.383-11.391 4.515-2.155 9.809-1.939 14.113.611 18.406 10.907 31.044 31.8 34.673 57.322 2.776 19.522-1.995 39.869-13.437 57.292-9.106 13.869-9.802 29.349-1.856 41.408 5.688 8.633 14.704 13.264 22.978 11.799 13.676-2.422 25.767-20.496 32.344-48.346 1.482-6.278 6.813-10.905 13.237-11.49 6.421-.593 12.504 3.001 15.097 8.909 16.144 36.777 24.419 68.375 25.299 96.6.005.156.007.312.007.467 0 61.261-22.141 118.393-62.344 160.87-40.925 43.24-96.799 67.053-157.328 67.053-.021 0-.048 0-.069 0zm-161.473-347.383c-12.113 25.668-38.589 92.127-31.19 142.602.021.142.039.285.056.428 5.632 48.019 27.971 92.102 62.901 124.128 35.326 32.389 81.392 50.225 129.712 50.225h.059c52.208 0 100.344-20.482 135.544-57.674 34.857-36.829 54.076-86.543 54.133-140.012-.49-14.906-3.492-31.18-9.102-49.187-13.697 23.445-30.766 30.424-41.649 32.352-20.074 3.556-40.981-6.193-53.263-24.835-14.521-22.042-13.819-50.543 1.833-74.379 7.43-11.315 10.56-24.313 8.812-36.601-.596-4.189-2.083-11.642-5.658-19.016-1.066 2.536-2.265 5.12-3.608 7.689-11.8 22.566-29.827 34.666-51.279 34.667-2.382 0-4.802-.149-7.264-.449-22.882-2.79-41.71-19.906-51.657-46.959-6.062-16.485-8.176-35.382-5.953-53.211.309-2.476.696-4.913 1.162-7.306-26 19.956-41.186 50.228-36.467 78.661 1.439 8.671 3.816 16.708 6.116 24.479 3.596 12.151 6.991 23.629 5.808 35.059-1.466 14.159-9.82 25.522-24.83 33.774-.061.033-.122.066-.183.099-11.662 6.204-25.401 6.984-37.69 2.144-37.446-17.656-16.413-37.346-46.343-56.678z"/></g><g><g><path d="m205.584 424.685c-2.858 0-5.746-.815-8.303-2.518-6.895-4.593-8.76-13.906-4.167-20.8l99.723-149.686c4.593-6.895 13.906-8.759 20.8-4.167 6.895 4.593 8.76 13.906 4.167 20.8l-99.723 149.686c-2.89 4.338-7.649 6.685-12.497 6.685z"/></g><g><path d="m204.932 322.518c-.102 0-.203 0-.305-.001-21.581-.163-39.006-17.853-38.844-39.435.164-21.481 17.691-38.844 39.136-38.844.1 0 .199 0 .3.001 10.454.079 20.252 4.225 27.589 11.673 7.336 7.449 11.333 17.308 11.254 27.763-.08 10.454-4.225 20.251-11.673 27.587-7.375 7.266-17.116 11.256-27.457 11.256zm-.009-48.279c-5.008 0-9.101 4.054-9.139 9.071-.038 5.039 4.03 9.17 9.07 9.208 2.414.001 4.744-.915 6.482-2.628 1.739-1.713 2.708-4.001 2.726-6.442v-.001c.019-2.441-.914-4.743-2.627-6.482-1.714-1.739-4.002-2.708-6.442-2.726-.024 0-.048 0-.07 0z"/></g><g><path d="m307.901 427.061c-.102 0-.2 0-.301-.001-10.454-.079-20.252-4.224-27.588-11.672-7.337-7.449-11.334-17.308-11.255-27.763.079-10.454 4.225-20.251 11.673-27.588 7.447-7.336 17.311-11.358 27.762-11.254 10.454.079 20.252 4.224 27.589 11.672 7.336 7.448 11.333 17.307 11.255 27.762v.001c-.164 21.48-17.692 38.843-39.135 38.843zm-.007-48.279c-2.415 0-4.689.931-6.412 2.628-1.738 1.713-2.707 4.001-2.725 6.442-.019 2.442.914 4.744 2.627 6.483 1.714 1.739 4.001 2.707 6.442 2.726h.07c5.008 0 9.101-4.055 9.139-9.071.019-2.441-.915-4.743-2.628-6.482s-4.001-2.707-6.442-2.726c-.023 0-.047 0-.071 0zm24.142 9.322h.01z"/></g></g></g></svg>