<svg clip-rule="evenodd" fill-rule="evenodd" height="512" image-rendering="optimizeQuality" shape-rendering="geometricPrecision" text-rendering="geometricPrecision" viewBox="0 0 1707 1707" width="512" xmlns="http://www.w3.org/2000/svg"><g id="Layer_x0020_1"><g id="_362016384"><path d="m613 1704c-6 0-12-2-16-7l-590-590c-9-8-9-23 0-32l808-808c5-5 10-7 17-7 6 0 11 2 16 7l589 590c9 8 9 23 0 32l-808 808c-4 5-10 7-16 7z" fill="#ef5350"/><path d="m1421 895c-5 0-11-2-16-6l-590-590c-6-7-8-17-4-25 3-9 12-14 21-14l581 15c13 0 22 10 22 22l9 575c0 10-5 18-14 22-3 1-6 1-9 1z" fill="#ffc107"/><g fill="#fff"><path d="m741 849c-33 0-63-12-86-35s-35-53-35-86c0-32 13-63 36-86 17-17 39-29 63-33 12-3 24 5 27 18 2 12-6 24-18 26-15 3-29 10-40 21-14 15-22 34-23 54 0 20 8 39 22 54 15 14 34 22 54 22 20 0 39-8 54-23 11-11 18-24 21-40 2-12 14-20 27-18 12 3 20 15 18 27-5 24-17 46-34 63-23 23-53 36-86 36z"/><path d="m915 716c-6 0-12-2-16-7l-139-138c-8-9-8-24 0-32 9-9 24-9 33 0l138 138c9 9 9 23 0 32-4 5-10 7-16 7z"/><path d="m866 667c-13 0-23-10-23-23v-180c0-12 10-22 23-22 12 0 23 10 23 22v180c0 13-11 23-23 23z"/><path d="m1008 623c-1 0-3 0-4 0l-142-23c-12-2-20-13-18-26 1-12 13-21 26-19l141 23c13 2 21 14 19 26-2 11-11 19-22 19z"/><path d="m477 1154c-6 0-12-2-16-7l-139-139c-9-8-9-23 0-32s23-9 32 0l123 123 66-66c9-9 23-9 32 0s9 23 0 32l-82 82c-5 5-10 7-16 7z"/><path d="m271 1221c-6 0-12-2-16-7l-70-69c-4-5-6-10-6-16s2-12 6-16l35-35c14-14 32-21 51-21s37 7 51 21c28 28 28 73 0 101l-35 35c-4 5-10 7-16 7zm-37-92 37 37 19-19c10-10 10-27 0-37s-28-10-38 0z"/><path d="m341 1290c-6 0-12-2-17-6l-69-70c-9-9-9-23 0-32l47-47c14-14 32-21 51-21 20 0 38 7 51 21 14 13 21 31 21 50 0 20-7 38-21 51l-47 48c-5 4-10 6-16 6zm-38-92 38 38 31-32c10-10 10-27 0-37s-28-10-37 0z"/><path d="m577 974c-6 0-11-2-16-7-9-9-9-23 0-32l63-63c9-9 23-9 32 0s9 24 0 32l-63 63c-4 5-10 7-16 7z"/><path d="m605 1026c-9 0-17-4-21-12l-95-183c-4-9-3-19 5-26 7-7 17-9 26-5l183 95c11 6 16 20 10 31s-20 15-31 10l-119-62 62 119c5 11 1 25-10 31-3 1-7 2-10 2z"/><path d="m643 1319c-6 0-11-3-16-7l-69-69c-9-9-9-24 0-33l47-47c14-14 32-21 51-21s37 7 51 21c28 28 28 74 0 102l-48 47c-4 4-10 7-16 7zm-37-92 37 37 32-32c5-4 7-11 7-18s-2-14-7-19c-10-10-28-10-38 0z"/><path d="m713 1388c-6 0-12-2-16-7l-70-69c-4-4-7-10-7-16s3-12 7-16l48-48c6-6 16-8 25-4l96 42c11 6 17 19 12 30-6 12-19 17-30 12l-82-36-21 20 54 53c9 9 9 24 0 32-5 5-11 7-16 7z"/><path d="m848 1253c-6 0-12-2-16-7l-139-139c-9-9-9-23 0-32s23-9 32 0l139 139c9 9 9 23 0 32-4 5-10 7-16 7z"/><path d="m581 1519c-5 0-11-2-16-6l-69-70-70-69c-4-4-6-10-6-16s2-12 6-16l83-82c8-9 23-9 32 0 9 8 9 23 0 32l-66 66 37 37 66-66c9-9 23-9 32 0s9 23 0 32l-66 66 53 54c9 8 9 23 0 32-4 4-10 6-16 6z"/><path d="m904 1197c-6 0-12-2-16-7l-139-139c-4-4-7-10-7-16s3-12 7-16l44-44c16-16 38-25 61-25s44 9 60 25l50 50c16 16 25 38 25 60 0 23-9 45-25 61l-44 44c-5 5-10 7-16 7zm-107-162 107 107 28-28c8-8 12-18 12-29 0-10-4-20-12-28l-50-50c-15-15-42-15-57 0z"/><path d="m1193 907c-5 0-11-2-16-6l-56-57-117-31c-12-4-19-16-16-28 4-12 16-19 28-16l84 22-24-82c-3-13 4-25 16-29 12-3 24 4 28 16l33 116 56 57c9 9 9 23 0 32-4 4-10 6-16 6z"/><path d="m1011 1010c-5 0-11-2-16-7-9-9-9-23 0-32l63-63c9-9 23-9 32 0s9 23 0 32l-63 63c-4 5-10 7-16 7z"/><path d="m1039 1062c-9 0-17-4-21-12l-95-183c-4-9-2-19 5-26s17-9 26-5l183 95c11 6 16 20 10 31s-20 15-31 10l-119-62 62 119c6 11 1 25-10 31-3 1-7 2-10 2z"/></g><path d="m1242 591c-34 0-66-14-91-38-50-50-50-132 0-182 25-24 57-38 91-38 35 0 67 14 91 38 50 50 50 132 0 182-24 24-56 38-91 38z" fill="#ff9d05"/><path d="m1242 556c-25 0-48-10-66-28-37-36-37-96 0-132 18-18 41-28 66-28s49 10 66 28c37 36 37 96 0 132-17 18-41 28-66 28z" fill="#fff"/><path d="m1618 477c-5 0-11-2-15-6-9-8-10-22-2-32 39-43 60-98 60-156 0-130-105-235-234-235-130 0-235 105-235 235 0 43 12 85 34 122 7 10 3 24-7 31-11 6-25 3-32-8-26-44-40-94-40-145 0-155 125-280 280-280 154 0 280 125 280 280 0 69-26 135-72 187-5 5-11 7-17 7z" fill="#eee"/></g></g></svg>