<svg id="Capa_1" enable-background="new 0 0 511.956 511.956" height="512" viewBox="0 0 511.956 511.956" width="512" xmlns="http://www.w3.org/2000/svg"><g><path d="m480.486 280.85c0 127.636-94.514 231.106-222.15 231.106-118.01.035-211.85-88.945-225.301-203.627-9.33-63.655 25.575-144.346 37.701-169.013 2.357-4.795 7.889-7.121 12.966-5.456 29.609 9.712 36.654 43.946 36.654 43.946 6.534 18.979 28.483 27.623 46.204 18.197 34.34-18.879 12.338-44.904 5.791-84.349-7.216-43.476 19.599-86.547 59.431-110.131 8.6-5.092 18.716 3.435 15.473 12.888-15.243 44.429 4.255 104.847 43.977 109.692 32.833 4.004 47.767-25.62 53.986-45.156 2.603-8.176 13.327-10.052 18.639-3.314 8.369 10.615 13.227 24.154 15.124 37.493 2.541 17.864-2.17 35.873-12.074 50.956-39.845 60.68 42.322 127.007 78.628 45.02 3.943-8.904 16.671-8.512 19.953.656 9.051 25.272 14.304 48.813 14.998 71.092z" fill="#ffb139"/><path d="m445.536 209.103c-36.306 81.987-118.474 15.659-78.628-45.02 9.904-15.083 14.615-33.092 12.074-50.956-1.897-13.339-6.754-26.878-15.124-37.493-5.312-6.738-16.036-4.862-18.639 3.314-6.219 19.536-21.153 49.16-53.986 45.156-14.818-1.807-26.819-11.35-35.255-24.909v412.734c.786.008 1.57.027 2.358.027 127.636 0 222.15-103.47 222.15-231.106-.695-22.279-5.947-45.82-14.997-71.091-3.282-9.168-16.01-9.56-19.953-.656z" fill="#ff7e4b"/><path d="m316.739 235.519c-6.893-4.592-16.207-2.729-20.8 4.167l-106.829 160.352c-4.593 6.894-2.728 16.207 4.167 20.8 2.557 1.703 5.444 2.518 8.303 2.518 4.849 0 9.607-2.347 12.497-6.685l106.829-160.352c4.592-6.894 2.727-16.207-4.167-20.8z" fill="#f5f5f5"/><path d="m200.876 313.91c22.385 0 40.684-18.127 40.854-40.551.082-10.914-4.09-21.207-11.749-28.982s-17.887-12.103-28.801-12.186c-.105-.001-.212-.001-.317-.001-10.796 0-20.965 4.166-28.665 11.75-7.775 7.659-12.104 17.888-12.186 28.801-.082 10.914 4.09 21.207 11.749 28.982 7.658 7.775 17.887 12.103 28.801 12.186.106 0 .209.001.314.001zm-10.863-40.943c.021-2.9 1.172-5.619 3.238-7.654 2.046-2.016 4.749-3.123 7.619-3.123h.084c2.9.022 5.619 1.172 7.654 3.239s3.145 4.802 3.122 7.703c-.045 5.988-4.915 10.83-10.941 10.778-2.9-.022-5.619-1.172-7.654-3.239-2.036-2.067-3.144-4.803-3.122-7.704z" fill="#f5f5f5"/><g fill="#dcd8f2"><path d="m340.292 356.369c-7.659-7.775-17.888-12.103-28.802-12.186-.105-.001-.208-.001-.313-.001-22.385 0-40.684 18.127-40.854 40.552-.169 22.529 18.021 40.997 40.551 41.167.105.001.208.001.313.001 22.385 0 40.684-18.127 40.854-40.551.082-10.914-4.089-21.206-11.749-28.982zm-29.108 39.533c-.028 0-.056 0-.083 0-5.988-.045-10.824-4.955-10.778-10.942.045-5.96 4.908-10.778 10.857-10.778h.083c2.901.022 5.62 1.172 7.656 3.239 2.035 2.066 3.145 4.802 3.122 7.703-.045 5.96-4.908 10.778-10.857 10.778z"/><path d="m316.739 235.519c-6.893-4.592-16.207-2.729-20.8 4.167l-39.961 59.982v54.108l64.928-97.458c4.592-6.893 2.727-16.206-4.167-20.799z"/></g></g></svg>