<svg id="Capa_1" enable-background="new 0 0 512 512" height="512" viewBox="0 0 512 512" width="512" xmlns="http://www.w3.org/2000/svg"><g><g><path d="m423.854 155.719-165.446-119.121c-1.438-1.035-3.377-1.035-4.816 0l-165.446 119.121h-52.894l202.69-145.935c10.786-7.766 25.33-7.766 36.116 0l202.69 145.935z" fill="#3d6d90"/></g><g fill="#335e80"><path d="m227.502 36.598c-1.438-1.035-3.377-1.035-4.815 0l-165.447 119.121h30.905l152.402-109.729z"/><path d="m274.058 9.784c-9.942-7.158-23.069-7.701-33.511-1.664.887.513 1.761 1.056 2.605 1.664l202.69 145.935h-21.988 52.894z"/></g><g><path d="m481.095 512h-450.19c-17.068 0-30.905-13.837-30.905-30.905v-301.028c0-17.069 13.837-30.905 30.905-30.905h450.189c17.069 0 30.905 13.837 30.905 30.905v301.027c.001 17.069-13.836 30.906-30.904 30.906z" fill="#d1a08f"/><path d="m481.095 149.162h-30.905c17.069 0 30.905 13.837 30.905 30.905v301.027c0 17.069-13.837 30.905-30.905 30.905h30.905c17.068.001 30.905-13.836 30.905-30.904v-301.028c0-17.068-13.837-30.905-30.905-30.905z" fill="#c68d7a"/><path d="m30.905 476.974v-292.786c0-2.276 1.845-4.121 4.121-4.121h441.948c2.276 0 4.121 1.845 4.121 4.121v292.786c0 2.276-1.845 4.121-4.121 4.121h-441.948c-2.276 0-4.121-1.845-4.121-4.121z" fill="#eaf6ff"/><path d="m476.974 180.067h-30.905c2.276 0 4.121 1.845 4.121 4.121v292.786c0 2.276-1.845 4.121-4.121 4.121h30.905c2.276 0 4.121-1.845 4.121-4.121v-292.786c0-2.276-1.845-4.121-4.121-4.121z" fill="#d8ecfe"/><g fill="#3d6d90"><path d="m205.575 308.17c3.982 1.52 8.451-.482 9.97-4.47l5.939-15.593h39.875l5.876 15.571c1.518 4.041 6.049 5.976 9.957 4.501 3.992-1.507 6.007-5.965 4.5-9.957.029-.085-31.219-82.724-31.253-82.805-1.491-3.624-4.984-5.964-8.901-5.964-.003 0-.006 0-.009 0-3.922.004-7.414 2.352-8.899 5.981-.074.181-31.452 82.573-31.525 82.766-1.519 3.988.483 8.451 4.47 9.97zm35.938-72.651 14.014 37.135h-28.157z"/><path d="m182.905 291.914c-.015 0-.029 0-.044 0-7.625.043-15.846.088-21.564.07v-76.044c0-4.267-3.459-7.726-7.726-7.726s-7.726 3.459-7.726 7.726v83.7c0 3.764 2.712 6.98 6.423 7.616.551.094 21.16.163 30.681.111 4.267-.024 7.707-3.503 7.683-7.77-.025-4.252-3.479-7.683-7.727-7.683z"/><path d="m386.675 307.437c4.268 0 7.726-3.459 7.726-7.726v-28.155l34.947 33.715c3.067 2.961 7.96 2.878 10.925-.196 2.963-3.071 2.875-7.962-.196-10.925l-39.451-38.061 36.341-33.404c3.142-2.888 3.348-7.776.46-10.917-2.886-3.142-7.776-3.348-10.916-.46l-32.109 29.513v-24.881c0-4.267-3.459-7.726-7.726-7.726s-7.726 3.459-7.726 7.726v83.771c-.001 4.267 3.457 7.726 7.725 7.726z"/><path d="m77.288 307.437h.034c.002 0 22.381-.1 28.549-.1 16.693 0 30.275-13.581 30.275-30.275 0-10.436-5.308-19.656-13.365-25.101 3.653-4.606 5.843-10.423 5.843-16.746 0-14.889-12.113-27.002-27.002-27.002h-24.334c-4.268 0-7.726 3.459-7.726 7.726v83.771c-.024 4.19 3.525 7.727 7.726 7.727zm28.583-15.552c-3.804 0-13.76.038-20.857.067v-29.681c2.465-.01 20.857-.03 20.857-.03 8.173 0 14.822 6.649 14.822 14.822s-6.649 14.822-14.822 14.822zm-4.249-68.218c6.368 0 11.549 5.181 11.549 11.549s-5.181 11.549-11.549 11.549c-1.776 0-16.608.023-16.608.023v-23.121z"/><path d="m333.618 307.437c10.855 0 20.58-3.552 28.125-10.272 1.479-1.317 2.886-2.769 4.182-4.313 2.742-3.269 2.315-8.142-.954-10.885-3.27-2.742-8.143-2.315-10.885.954-.816.972-1.697 1.881-2.62 2.703-4.737 4.22-10.742 6.36-17.848 6.36-18.836 0-34.16-15.323-34.16-34.159 0-18.835 15.324-34.159 34.16-34.159 6.846 0 13.448 2.016 19.094 5.829 3.535 2.389 8.338 1.459 10.727-2.077 2.388-3.536 1.459-8.339-2.077-10.727-8.209-5.546-17.803-8.477-27.743-8.477-27.356 0-49.613 22.256-49.613 49.612s22.256 49.611 49.612 49.611z"/><path d="m356.138 354.915c-1.508-3.665-5.04-6.032-9.003-6.032-.003 0-.006 0-.009 0-3.966.004-7.499 2.378-9.001 6.049-.074.181-33.269 87.346-33.343 87.54-1.519 3.988.483 8.452 4.471 9.97 3.982 1.519 8.451-.482 9.97-4.47l6.392-16.782h42.796l6.325 16.76c1.518 4.041 6.049 5.976 9.957 4.501 3.992-1.507 6.007-5.965 4.5-9.957.02-.094-33.019-87.49-33.055-87.579zm-24.639 60.822 15.61-40.987 15.469 40.987z"/><path d="m208.946 348.883c-4.268 0-7.726 3.459-7.726 7.726v88.613c0 4.267 3.459 7.726 7.726 7.726 4.268 0 7.726-3.459 7.726-7.726v-88.613c0-4.267-3.459-7.726-7.726-7.726z"/><path d="m110.725 349.532h-35.652c-4.268 0-7.726 3.459-7.726 7.726v87.964c0 4.267 3.459 7.726 7.726 7.726s7.726-3.459 7.726-7.726v-37.089h25.093c4.268 0 7.726-3.459 7.726-7.726s-3.459-7.726-7.726-7.726h-25.092v-27.696h27.926c4.268 0 7.726-3.459 7.726-7.726 0-4.268-3.459-7.727-7.727-7.727z"/><path d="m261.444 351.504h-24.355c-4.281-.023-7.744 3.583-7.726 7.813v.003 84.505c.026 4.483 3.385 9.123 7.901 9.123h.029c.735-.003 18.08-.07 24.998-.191 12.297-.215 23.245-5.784 30.829-15.681 6.949-9.069 10.776-21.446 10.776-34.851-.001-30.338-17.061-50.721-42.452-50.721zm.577 85.803c-3.883.068-11.334.12-17.057.151-.034-10.036-.087-27.215-.087-35.327 0-6.797-.03-24.77-.048-35.175h16.615c19.906 0 26.999 18.219 26.999 35.269 0 16.674-8.269 34.765-26.422 35.082z"/><path d="m441.142 350.359c-3.576-2.326-8.361-1.316-10.69 2.26l-21.607 33.192-21.825-33.426c-2.334-3.573-7.123-4.578-10.694-2.245-3.572 2.333-4.578 7.121-2.245 10.694l27.043 41.415-.105 42.954c-.01 4.268 3.441 7.735 7.707 7.745h.019c4.259 0 7.716-3.447 7.726-7.707l.105-42.982 26.825-41.209c2.328-3.577 1.317-8.363-2.259-10.691z"/><path d="m190.198 379.639c0-16.959-14.381-30.756-32.058-30.756h-23.547c-.005 0-.01.001-.015.001s-.01-.001-.015-.001c-4.268 0-7.726 3.459-7.726 7.726v88.613c0 4.267 3.459 7.726 7.726 7.726 4.268 0 7.726-3.459 7.726-7.726v-33.961l34.382 39.066c2.828 3.213 7.712 3.504 10.904.695 3.203-2.819 3.514-7.701.695-10.904l-26.354-29.944c15.904-1.801 28.282-14.803 28.282-30.535zm-32.058 15.303c-3.598 0-10.362.031-15.702.059-.028-5.26-.078-25.186-.095-30.665h15.797c9.001 0 16.606 7.008 16.606 15.303-.001 8.295-7.605 15.303-16.606 15.303z"/></g></g><circle cx="256" cy="29.36" fill="#d1a08f" r="29.36"/><path d="m256 0c-5.671 0-10.964 1.612-15.453 4.397 8.346 5.178 13.907 14.419 13.907 24.963s-5.561 19.786-13.907 24.963c4.489 2.785 9.782 4.397 15.453 4.397 16.215 0 29.36-13.145 29.36-29.36s-13.145-29.36-29.36-29.36z" fill="#c68d7a"/></g></svg>