<svg id="Layer_1" height="512" viewBox="0 0 512 512" width="512" xmlns="http://www.w3.org/2000/svg" xmlns:xlink="http://www.w3.org/1999/xlink" data-name="Layer 1"><linearGradient id="linear-gradient" gradientUnits="userSpaceOnUse" x1="461.321" x2="105.71" y1="50.679" y2="406.29"><stop offset="0" stop-color="#e85155"/><stop offset="1" stop-color="#c21d2c"/></linearGradient><linearGradient id="linear-gradient-2" gradientUnits="userSpaceOnUse" x1="343.693" x2="144.863" y1="168.336" y2="367.166"><stop offset="0" stop-color="#fff"/><stop offset="1" stop-color="#f2eded"/></linearGradient><linearGradient id="linear-gradient-3" x1="343.684" x2="144.854" xlink:href="#linear-gradient-2" y1="168.326" y2="367.156"/><linearGradient id="linear-gradient-4" x1="343.681" x2="144.851" xlink:href="#linear-gradient-2" y1="168.324" y2="367.154"/><linearGradient id="linear-gradient-5" x1="343.682" x2="144.852" xlink:href="#linear-gradient-2" y1="168.325" y2="367.155"/><path d="m448.214 42.677c-.162-.008-.3-.01-.5-.01l-149.255.406a56.181 56.181 0 0 0 -38.4 15.253l-240 225.625a31.994 31.994 0 0 0 -.709 45.94l162.759 162.755a31.736 31.736 0 0 0 22.61 9.37h.51a31.747 31.747 0 0 0 22.823-10.078l225.63-240.008a56.171 56.171 0 0 0 15.245-38.4l.4-149.739a21.963 21.963 0 0 0 -21.113-21.114zm-42.691 101.512a26.667 26.667 0 1 1 0-37.712 26.666 26.666 0 0 1 0 37.712z" fill="url(#linear-gradient)"/><path d="m162.5 337.7-5.047 1.677c-10.073 3.364-12.688 3.625-14.781 1.536a9.519 9.519 0 0 1 -2.761-5.664c-.364-3.115 1.547-6.492 4.745-8.4l13.3-7.917a10.666 10.666 0 1 0 -10.917-18.328l-13.3 7.916c-10.463 6.235-16.359 17.7-15.015 29.2a31.053 31.053 0 0 0 8.859 18.28c11.891 11.894 26.183 7.1 36.631 3.61l5.052-1.675c10.047-3.359 12.677-3.635 14.765-1.536a9.51 9.51 0 0 1 2.823 6.687c.021 2.732-1.823 5.6-4.687 7.3l-13.417 7.987a10.669 10.669 0 1 0 10.917 18.333l13.416-7.989c9.386-5.589 15.172-15.469 15.1-25.784a30.725 30.725 0 0 0 -9.068-21.622c-11.886-11.881-26.172-7.1-36.615-3.611z" fill="url(#linear-gradient-2)"/><path d="m269.359 293.4-77.067-35.03a10.667 10.667 0 0 0 -14.125 14.13l35.033 77.068a10.665 10.665 0 1 0 19.417-8.828l-5.7-12.539 21.076-21.074 12.535 5.7a10.668 10.668 0 0 0 8.833-19.422zm-51.869 14.061-8.136-17.9 17.9 8.136z" fill="url(#linear-gradient-3)"/><path d="m302.943 250.029-16.979 16.979-48.511-48.508a10.665 10.665 0 1 0 -15.083 15.083l56.052 56.052a10.662 10.662 0 0 0 15.083 0l24.521-24.523a10.665 10.665 0 0 0 -15.083-15.083z" fill="url(#linear-gradient-4)"/><path d="m363.573 204.487a10.662 10.662 0 0 0 -15.083 0l-16.985 16.982-12.942-12.943 13.479-13.477a10.667 10.667 0 0 0 -15.084-15.088l-13.481 13.479-12.941-12.94 16.985-16.982a10.665 10.665 0 1 0 -15.083-15.083l-24.527 24.523a10.664 10.664 0 0 0 0 15.084l56.053 56.052a10.662 10.662 0 0 0 15.083 0l24.526-24.524a10.662 10.662 0 0 0 0-15.083z" fill="url(#linear-gradient-5)"/></svg>